%TF.GenerationSoftware,KiCad,Pcbnew,(6.0.7)*%
%TF.CreationDate,2022-11-18T16:05:41+07:00*%
%TF.ProjectId,test,74657374-2e6b-4696-9361-645f70636258,rev?*%
%TF.SameCoordinates,Original*%
%TF.FileFunction,Legend,Top*%
%TF.FilePolarity,Positive*%
%FSLAX46Y46*%
G04 Gerber Fmt 4.6, Leading zero omitted, Abs format (unit mm)*
G04 Created by KiCad (PCBNEW (6.0.7)) date 2022-11-18 16:05:41*
%MOMM*%
%LPD*%
G01*
G04 APERTURE LIST*
%ADD10C,0.150000*%
%ADD11C,0.050000*%
%ADD12C,0.120000*%
G04 APERTURE END LIST*
D10*
X50438095Y-69252380D02*
X50438095Y-70061904D01*
X50485714Y-70157142D01*
X50533333Y-70204761D01*
X50628571Y-70252380D01*
X50819047Y-70252380D01*
X50914285Y-70204761D01*
X50961904Y-70157142D01*
X51009523Y-70061904D01*
X51009523Y-69252380D01*
X52009523Y-70252380D02*
X51438095Y-70252380D01*
X51723809Y-70252380D02*
X51723809Y-69252380D01*
X51628571Y-69395238D01*
X51533333Y-69490476D01*
X51438095Y-69538095D01*
X99238095Y-69252380D02*
X99238095Y-70061904D01*
X99285714Y-70157142D01*
X99333333Y-70204761D01*
X99428571Y-70252380D01*
X99619047Y-70252380D01*
X99714285Y-70204761D01*
X99761904Y-70157142D01*
X99809523Y-70061904D01*
X99809523Y-69252380D01*
X100809523Y-70252380D02*
X100238095Y-70252380D01*
X100523809Y-70252380D02*
X100523809Y-69252380D01*
X100428571Y-69395238D01*
X100333333Y-69490476D01*
X100238095Y-69538095D01*
X99238095Y-39252380D02*
X99238095Y-40061904D01*
X99285714Y-40157142D01*
X99333333Y-40204761D01*
X99428571Y-40252380D01*
X99619047Y-40252380D01*
X99714285Y-40204761D01*
X99761904Y-40157142D01*
X99809523Y-40061904D01*
X99809523Y-39252380D01*
X100809523Y-40252380D02*
X100238095Y-40252380D01*
X100523809Y-40252380D02*
X100523809Y-39252380D01*
X100428571Y-39395238D01*
X100333333Y-39490476D01*
X100238095Y-39538095D01*
X50438095Y-39252380D02*
X50438095Y-40061904D01*
X50485714Y-40157142D01*
X50533333Y-40204761D01*
X50628571Y-40252380D01*
X50819047Y-40252380D01*
X50914285Y-40204761D01*
X50961904Y-40157142D01*
X51009523Y-40061904D01*
X51009523Y-39252380D01*
X52009523Y-40252380D02*
X51438095Y-40252380D01*
X51723809Y-40252380D02*
X51723809Y-39252380D01*
X51628571Y-39395238D01*
X51533333Y-39490476D01*
X51438095Y-39538095D01*
D11*
%TO.C,USART1*%
X80796190Y-56473809D02*
X81200952Y-56473809D01*
X81248571Y-56450000D01*
X81272380Y-56426190D01*
X81296190Y-56378571D01*
X81296190Y-56283333D01*
X81272380Y-56235714D01*
X81248571Y-56211904D01*
X81200952Y-56188095D01*
X80796190Y-56188095D01*
X81272380Y-55973809D02*
X81296190Y-55902380D01*
X81296190Y-55783333D01*
X81272380Y-55735714D01*
X81248571Y-55711904D01*
X81200952Y-55688095D01*
X81153333Y-55688095D01*
X81105714Y-55711904D01*
X81081904Y-55735714D01*
X81058095Y-55783333D01*
X81034285Y-55878571D01*
X81010476Y-55926190D01*
X80986666Y-55950000D01*
X80939047Y-55973809D01*
X80891428Y-55973809D01*
X80843809Y-55950000D01*
X80820000Y-55926190D01*
X80796190Y-55878571D01*
X80796190Y-55759523D01*
X80820000Y-55688095D01*
X81153333Y-55497619D02*
X81153333Y-55259523D01*
X81296190Y-55545238D02*
X80796190Y-55378571D01*
X81296190Y-55211904D01*
X81296190Y-54759523D02*
X81058095Y-54926190D01*
X81296190Y-55045238D02*
X80796190Y-55045238D01*
X80796190Y-54854761D01*
X80820000Y-54807142D01*
X80843809Y-54783333D01*
X80891428Y-54759523D01*
X80962857Y-54759523D01*
X81010476Y-54783333D01*
X81034285Y-54807142D01*
X81058095Y-54854761D01*
X81058095Y-55045238D01*
X80796190Y-54616666D02*
X80796190Y-54330952D01*
X81296190Y-54473809D02*
X80796190Y-54473809D01*
X81296190Y-53902380D02*
X81296190Y-54188095D01*
X81296190Y-54045238D02*
X80796190Y-54045238D01*
X80867619Y-54092857D01*
X80915238Y-54140476D01*
X80939047Y-54188095D01*
%TO.C,SW1*%
X29877380Y-36266666D02*
X29901190Y-36195238D01*
X29901190Y-36076190D01*
X29877380Y-36028571D01*
X29853571Y-36004761D01*
X29805952Y-35980952D01*
X29758333Y-35980952D01*
X29710714Y-36004761D01*
X29686904Y-36028571D01*
X29663095Y-36076190D01*
X29639285Y-36171428D01*
X29615476Y-36219047D01*
X29591666Y-36242857D01*
X29544047Y-36266666D01*
X29496428Y-36266666D01*
X29448809Y-36242857D01*
X29425000Y-36219047D01*
X29401190Y-36171428D01*
X29401190Y-36052380D01*
X29425000Y-35980952D01*
X29401190Y-35814285D02*
X29901190Y-35695238D01*
X29544047Y-35600000D01*
X29901190Y-35504761D01*
X29401190Y-35385714D01*
X29901190Y-34933333D02*
X29901190Y-35219047D01*
X29901190Y-35076190D02*
X29401190Y-35076190D01*
X29472619Y-35123809D01*
X29520238Y-35171428D01*
X29544047Y-35219047D01*
%TO.C,C11*%
X39478571Y-36578571D02*
X39454761Y-36602380D01*
X39383333Y-36626190D01*
X39335714Y-36626190D01*
X39264285Y-36602380D01*
X39216666Y-36554761D01*
X39192857Y-36507142D01*
X39169047Y-36411904D01*
X39169047Y-36340476D01*
X39192857Y-36245238D01*
X39216666Y-36197619D01*
X39264285Y-36150000D01*
X39335714Y-36126190D01*
X39383333Y-36126190D01*
X39454761Y-36150000D01*
X39478571Y-36173809D01*
X39954761Y-36626190D02*
X39669047Y-36626190D01*
X39811904Y-36626190D02*
X39811904Y-36126190D01*
X39764285Y-36197619D01*
X39716666Y-36245238D01*
X39669047Y-36269047D01*
X40430952Y-36626190D02*
X40145238Y-36626190D01*
X40288095Y-36626190D02*
X40288095Y-36126190D01*
X40240476Y-36197619D01*
X40192857Y-36245238D01*
X40145238Y-36269047D01*
%TO.C,C4*%
X36978571Y-59883333D02*
X37002380Y-59907142D01*
X37026190Y-59978571D01*
X37026190Y-60026190D01*
X37002380Y-60097619D01*
X36954761Y-60145238D01*
X36907142Y-60169047D01*
X36811904Y-60192857D01*
X36740476Y-60192857D01*
X36645238Y-60169047D01*
X36597619Y-60145238D01*
X36550000Y-60097619D01*
X36526190Y-60026190D01*
X36526190Y-59978571D01*
X36550000Y-59907142D01*
X36573809Y-59883333D01*
X36692857Y-59454761D02*
X37026190Y-59454761D01*
X36502380Y-59573809D02*
X36859523Y-59692857D01*
X36859523Y-59383333D01*
%TO.C,C2*%
X82178571Y-59883333D02*
X82202380Y-59907142D01*
X82226190Y-59978571D01*
X82226190Y-60026190D01*
X82202380Y-60097619D01*
X82154761Y-60145238D01*
X82107142Y-60169047D01*
X82011904Y-60192857D01*
X81940476Y-60192857D01*
X81845238Y-60169047D01*
X81797619Y-60145238D01*
X81750000Y-60097619D01*
X81726190Y-60026190D01*
X81726190Y-59978571D01*
X81750000Y-59907142D01*
X81773809Y-59883333D01*
X81773809Y-59692857D02*
X81750000Y-59669047D01*
X81726190Y-59621428D01*
X81726190Y-59502380D01*
X81750000Y-59454761D01*
X81773809Y-59430952D01*
X81821428Y-59407142D01*
X81869047Y-59407142D01*
X81940476Y-59430952D01*
X82226190Y-59716666D01*
X82226190Y-59407142D01*
%TO.C,C10*%
X40278571Y-63578571D02*
X40254761Y-63602380D01*
X40183333Y-63626190D01*
X40135714Y-63626190D01*
X40064285Y-63602380D01*
X40016666Y-63554761D01*
X39992857Y-63507142D01*
X39969047Y-63411904D01*
X39969047Y-63340476D01*
X39992857Y-63245238D01*
X40016666Y-63197619D01*
X40064285Y-63150000D01*
X40135714Y-63126190D01*
X40183333Y-63126190D01*
X40254761Y-63150000D01*
X40278571Y-63173809D01*
X40754761Y-63626190D02*
X40469047Y-63626190D01*
X40611904Y-63626190D02*
X40611904Y-63126190D01*
X40564285Y-63197619D01*
X40516666Y-63245238D01*
X40469047Y-63269047D01*
X41064285Y-63126190D02*
X41111904Y-63126190D01*
X41159523Y-63150000D01*
X41183333Y-63173809D01*
X41207142Y-63221428D01*
X41230952Y-63316666D01*
X41230952Y-63435714D01*
X41207142Y-63530952D01*
X41183333Y-63578571D01*
X41159523Y-63602380D01*
X41111904Y-63626190D01*
X41064285Y-63626190D01*
X41016666Y-63602380D01*
X40992857Y-63578571D01*
X40969047Y-63530952D01*
X40945238Y-63435714D01*
X40945238Y-63316666D01*
X40969047Y-63221428D01*
X40992857Y-63173809D01*
X41016666Y-63150000D01*
X41064285Y-63126190D01*
%TO.C,SW1*%
X78677380Y-36266666D02*
X78701190Y-36195238D01*
X78701190Y-36076190D01*
X78677380Y-36028571D01*
X78653571Y-36004761D01*
X78605952Y-35980952D01*
X78558333Y-35980952D01*
X78510714Y-36004761D01*
X78486904Y-36028571D01*
X78463095Y-36076190D01*
X78439285Y-36171428D01*
X78415476Y-36219047D01*
X78391666Y-36242857D01*
X78344047Y-36266666D01*
X78296428Y-36266666D01*
X78248809Y-36242857D01*
X78225000Y-36219047D01*
X78201190Y-36171428D01*
X78201190Y-36052380D01*
X78225000Y-35980952D01*
X78201190Y-35814285D02*
X78701190Y-35695238D01*
X78344047Y-35600000D01*
X78701190Y-35504761D01*
X78201190Y-35385714D01*
X78701190Y-34933333D02*
X78701190Y-35219047D01*
X78701190Y-35076190D02*
X78201190Y-35076190D01*
X78272619Y-35123809D01*
X78320238Y-35171428D01*
X78344047Y-35219047D01*
%TO.C,C2*%
X82178571Y-29883333D02*
X82202380Y-29907142D01*
X82226190Y-29978571D01*
X82226190Y-30026190D01*
X82202380Y-30097619D01*
X82154761Y-30145238D01*
X82107142Y-30169047D01*
X82011904Y-30192857D01*
X81940476Y-30192857D01*
X81845238Y-30169047D01*
X81797619Y-30145238D01*
X81750000Y-30097619D01*
X81726190Y-30026190D01*
X81726190Y-29978571D01*
X81750000Y-29907142D01*
X81773809Y-29883333D01*
X81773809Y-29692857D02*
X81750000Y-29669047D01*
X81726190Y-29621428D01*
X81726190Y-29502380D01*
X81750000Y-29454761D01*
X81773809Y-29430952D01*
X81821428Y-29407142D01*
X81869047Y-29407142D01*
X81940476Y-29430952D01*
X82226190Y-29716666D01*
X82226190Y-29407142D01*
%TO.C,C8*%
X110618571Y-29083333D02*
X110642380Y-29107142D01*
X110666190Y-29178571D01*
X110666190Y-29226190D01*
X110642380Y-29297619D01*
X110594761Y-29345238D01*
X110547142Y-29369047D01*
X110451904Y-29392857D01*
X110380476Y-29392857D01*
X110285238Y-29369047D01*
X110237619Y-29345238D01*
X110190000Y-29297619D01*
X110166190Y-29226190D01*
X110166190Y-29178571D01*
X110190000Y-29107142D01*
X110213809Y-29083333D01*
X110380476Y-28797619D02*
X110356666Y-28845238D01*
X110332857Y-28869047D01*
X110285238Y-28892857D01*
X110261428Y-28892857D01*
X110213809Y-28869047D01*
X110190000Y-28845238D01*
X110166190Y-28797619D01*
X110166190Y-28702380D01*
X110190000Y-28654761D01*
X110213809Y-28630952D01*
X110261428Y-28607142D01*
X110285238Y-28607142D01*
X110332857Y-28630952D01*
X110356666Y-28654761D01*
X110380476Y-28702380D01*
X110380476Y-28797619D01*
X110404285Y-28845238D01*
X110428095Y-28869047D01*
X110475714Y-28892857D01*
X110570952Y-28892857D01*
X110618571Y-28869047D01*
X110642380Y-28845238D01*
X110666190Y-28797619D01*
X110666190Y-28702380D01*
X110642380Y-28654761D01*
X110618571Y-28630952D01*
X110570952Y-28607142D01*
X110475714Y-28607142D01*
X110428095Y-28630952D01*
X110404285Y-28654761D01*
X110380476Y-28702380D01*
%TO.C,C3*%
X83978571Y-60083333D02*
X84002380Y-60107142D01*
X84026190Y-60178571D01*
X84026190Y-60226190D01*
X84002380Y-60297619D01*
X83954761Y-60345238D01*
X83907142Y-60369047D01*
X83811904Y-60392857D01*
X83740476Y-60392857D01*
X83645238Y-60369047D01*
X83597619Y-60345238D01*
X83550000Y-60297619D01*
X83526190Y-60226190D01*
X83526190Y-60178571D01*
X83550000Y-60107142D01*
X83573809Y-60083333D01*
X83526190Y-59916666D02*
X83526190Y-59607142D01*
X83716666Y-59773809D01*
X83716666Y-59702380D01*
X83740476Y-59654761D01*
X83764285Y-59630952D01*
X83811904Y-59607142D01*
X83930952Y-59607142D01*
X83978571Y-59630952D01*
X84002380Y-59654761D01*
X84026190Y-59702380D01*
X84026190Y-59845238D01*
X84002380Y-59892857D01*
X83978571Y-59916666D01*
%TO.C,R3*%
X90026666Y-74626190D02*
X89860000Y-74388095D01*
X89740952Y-74626190D02*
X89740952Y-74126190D01*
X89931428Y-74126190D01*
X89979047Y-74150000D01*
X90002857Y-74173809D01*
X90026666Y-74221428D01*
X90026666Y-74292857D01*
X90002857Y-74340476D01*
X89979047Y-74364285D01*
X89931428Y-74388095D01*
X89740952Y-74388095D01*
X90193333Y-74126190D02*
X90502857Y-74126190D01*
X90336190Y-74316666D01*
X90407619Y-74316666D01*
X90455238Y-74340476D01*
X90479047Y-74364285D01*
X90502857Y-74411904D01*
X90502857Y-74530952D01*
X90479047Y-74578571D01*
X90455238Y-74602380D01*
X90407619Y-74626190D01*
X90264761Y-74626190D01*
X90217142Y-74602380D01*
X90193333Y-74578571D01*
%TO.C,C6*%
X103778571Y-29083333D02*
X103802380Y-29107142D01*
X103826190Y-29178571D01*
X103826190Y-29226190D01*
X103802380Y-29297619D01*
X103754761Y-29345238D01*
X103707142Y-29369047D01*
X103611904Y-29392857D01*
X103540476Y-29392857D01*
X103445238Y-29369047D01*
X103397619Y-29345238D01*
X103350000Y-29297619D01*
X103326190Y-29226190D01*
X103326190Y-29178571D01*
X103350000Y-29107142D01*
X103373809Y-29083333D01*
X103326190Y-28654761D02*
X103326190Y-28750000D01*
X103350000Y-28797619D01*
X103373809Y-28821428D01*
X103445238Y-28869047D01*
X103540476Y-28892857D01*
X103730952Y-28892857D01*
X103778571Y-28869047D01*
X103802380Y-28845238D01*
X103826190Y-28797619D01*
X103826190Y-28702380D01*
X103802380Y-28654761D01*
X103778571Y-28630952D01*
X103730952Y-28607142D01*
X103611904Y-28607142D01*
X103564285Y-28630952D01*
X103540476Y-28654761D01*
X103516666Y-28702380D01*
X103516666Y-28797619D01*
X103540476Y-28845238D01*
X103564285Y-28869047D01*
X103611904Y-28892857D01*
%TO.C,R4*%
X92716666Y-74626190D02*
X92550000Y-74388095D01*
X92430952Y-74626190D02*
X92430952Y-74126190D01*
X92621428Y-74126190D01*
X92669047Y-74150000D01*
X92692857Y-74173809D01*
X92716666Y-74221428D01*
X92716666Y-74292857D01*
X92692857Y-74340476D01*
X92669047Y-74364285D01*
X92621428Y-74388095D01*
X92430952Y-74388095D01*
X93145238Y-74292857D02*
X93145238Y-74626190D01*
X93026190Y-74102380D02*
X92907142Y-74459523D01*
X93216666Y-74459523D01*
%TO.C,L1*%
X108316666Y-58026190D02*
X108078571Y-58026190D01*
X108078571Y-57526190D01*
X108745238Y-58026190D02*
X108459523Y-58026190D01*
X108602380Y-58026190D02*
X108602380Y-57526190D01*
X108554761Y-57597619D01*
X108507142Y-57645238D01*
X108459523Y-57669047D01*
%TO.C,Y1*%
X34188095Y-64438095D02*
X34426190Y-64438095D01*
X33926190Y-64604761D02*
X34188095Y-64438095D01*
X33926190Y-64271428D01*
X34426190Y-63842857D02*
X34426190Y-64128571D01*
X34426190Y-63985714D02*
X33926190Y-63985714D01*
X33997619Y-64033333D01*
X34045238Y-64080952D01*
X34069047Y-64128571D01*
%TO.C,C4*%
X36978571Y-29883333D02*
X37002380Y-29907142D01*
X37026190Y-29978571D01*
X37026190Y-30026190D01*
X37002380Y-30097619D01*
X36954761Y-30145238D01*
X36907142Y-30169047D01*
X36811904Y-30192857D01*
X36740476Y-30192857D01*
X36645238Y-30169047D01*
X36597619Y-30145238D01*
X36550000Y-30097619D01*
X36526190Y-30026190D01*
X36526190Y-29978571D01*
X36550000Y-29907142D01*
X36573809Y-29883333D01*
X36692857Y-29454761D02*
X37026190Y-29454761D01*
X36502380Y-29573809D02*
X36859523Y-29692857D01*
X36859523Y-29383333D01*
%TO.C,R1*%
X31516666Y-66216190D02*
X31350000Y-65978095D01*
X31230952Y-66216190D02*
X31230952Y-65716190D01*
X31421428Y-65716190D01*
X31469047Y-65740000D01*
X31492857Y-65763809D01*
X31516666Y-65811428D01*
X31516666Y-65882857D01*
X31492857Y-65930476D01*
X31469047Y-65954285D01*
X31421428Y-65978095D01*
X31230952Y-65978095D01*
X31992857Y-66216190D02*
X31707142Y-66216190D01*
X31850000Y-66216190D02*
X31850000Y-65716190D01*
X31802380Y-65787619D01*
X31754761Y-65835238D01*
X31707142Y-65859047D01*
%TO.C,C6*%
X54978571Y-59083333D02*
X55002380Y-59107142D01*
X55026190Y-59178571D01*
X55026190Y-59226190D01*
X55002380Y-59297619D01*
X54954761Y-59345238D01*
X54907142Y-59369047D01*
X54811904Y-59392857D01*
X54740476Y-59392857D01*
X54645238Y-59369047D01*
X54597619Y-59345238D01*
X54550000Y-59297619D01*
X54526190Y-59226190D01*
X54526190Y-59178571D01*
X54550000Y-59107142D01*
X54573809Y-59083333D01*
X54526190Y-58654761D02*
X54526190Y-58750000D01*
X54550000Y-58797619D01*
X54573809Y-58821428D01*
X54645238Y-58869047D01*
X54740476Y-58892857D01*
X54930952Y-58892857D01*
X54978571Y-58869047D01*
X55002380Y-58845238D01*
X55026190Y-58797619D01*
X55026190Y-58702380D01*
X55002380Y-58654761D01*
X54978571Y-58630952D01*
X54930952Y-58607142D01*
X54811904Y-58607142D01*
X54764285Y-58630952D01*
X54740476Y-58654761D01*
X54716666Y-58702380D01*
X54716666Y-58797619D01*
X54740476Y-58845238D01*
X54764285Y-58869047D01*
X54811904Y-58892857D01*
%TO.C,C13*%
X83478571Y-43578571D02*
X83454761Y-43602380D01*
X83383333Y-43626190D01*
X83335714Y-43626190D01*
X83264285Y-43602380D01*
X83216666Y-43554761D01*
X83192857Y-43507142D01*
X83169047Y-43411904D01*
X83169047Y-43340476D01*
X83192857Y-43245238D01*
X83216666Y-43197619D01*
X83264285Y-43150000D01*
X83335714Y-43126190D01*
X83383333Y-43126190D01*
X83454761Y-43150000D01*
X83478571Y-43173809D01*
X83954761Y-43626190D02*
X83669047Y-43626190D01*
X83811904Y-43626190D02*
X83811904Y-43126190D01*
X83764285Y-43197619D01*
X83716666Y-43245238D01*
X83669047Y-43269047D01*
X84121428Y-43126190D02*
X84430952Y-43126190D01*
X84264285Y-43316666D01*
X84335714Y-43316666D01*
X84383333Y-43340476D01*
X84407142Y-43364285D01*
X84430952Y-43411904D01*
X84430952Y-43530952D01*
X84407142Y-43578571D01*
X84383333Y-43602380D01*
X84335714Y-43626190D01*
X84192857Y-43626190D01*
X84145238Y-43602380D01*
X84121428Y-43578571D01*
%TO.C,C6*%
X103778571Y-59083333D02*
X103802380Y-59107142D01*
X103826190Y-59178571D01*
X103826190Y-59226190D01*
X103802380Y-59297619D01*
X103754761Y-59345238D01*
X103707142Y-59369047D01*
X103611904Y-59392857D01*
X103540476Y-59392857D01*
X103445238Y-59369047D01*
X103397619Y-59345238D01*
X103350000Y-59297619D01*
X103326190Y-59226190D01*
X103326190Y-59178571D01*
X103350000Y-59107142D01*
X103373809Y-59083333D01*
X103326190Y-58654761D02*
X103326190Y-58750000D01*
X103350000Y-58797619D01*
X103373809Y-58821428D01*
X103445238Y-58869047D01*
X103540476Y-58892857D01*
X103730952Y-58892857D01*
X103778571Y-58869047D01*
X103802380Y-58845238D01*
X103826190Y-58797619D01*
X103826190Y-58702380D01*
X103802380Y-58654761D01*
X103778571Y-58630952D01*
X103730952Y-58607142D01*
X103611904Y-58607142D01*
X103564285Y-58630952D01*
X103540476Y-58654761D01*
X103516666Y-58702380D01*
X103516666Y-58797619D01*
X103540476Y-58845238D01*
X103564285Y-58869047D01*
X103611904Y-58892857D01*
%TO.C,C8*%
X61818571Y-29083333D02*
X61842380Y-29107142D01*
X61866190Y-29178571D01*
X61866190Y-29226190D01*
X61842380Y-29297619D01*
X61794761Y-29345238D01*
X61747142Y-29369047D01*
X61651904Y-29392857D01*
X61580476Y-29392857D01*
X61485238Y-29369047D01*
X61437619Y-29345238D01*
X61390000Y-29297619D01*
X61366190Y-29226190D01*
X61366190Y-29178571D01*
X61390000Y-29107142D01*
X61413809Y-29083333D01*
X61580476Y-28797619D02*
X61556666Y-28845238D01*
X61532857Y-28869047D01*
X61485238Y-28892857D01*
X61461428Y-28892857D01*
X61413809Y-28869047D01*
X61390000Y-28845238D01*
X61366190Y-28797619D01*
X61366190Y-28702380D01*
X61390000Y-28654761D01*
X61413809Y-28630952D01*
X61461428Y-28607142D01*
X61485238Y-28607142D01*
X61532857Y-28630952D01*
X61556666Y-28654761D01*
X61580476Y-28702380D01*
X61580476Y-28797619D01*
X61604285Y-28845238D01*
X61628095Y-28869047D01*
X61675714Y-28892857D01*
X61770952Y-28892857D01*
X61818571Y-28869047D01*
X61842380Y-28845238D01*
X61866190Y-28797619D01*
X61866190Y-28702380D01*
X61842380Y-28654761D01*
X61818571Y-28630952D01*
X61770952Y-28607142D01*
X61675714Y-28607142D01*
X61628095Y-28630952D01*
X61604285Y-28654761D01*
X61580476Y-28702380D01*
%TO.C,J3*%
X47396190Y-55366666D02*
X47753333Y-55366666D01*
X47824761Y-55390476D01*
X47872380Y-55438095D01*
X47896190Y-55509523D01*
X47896190Y-55557142D01*
X47396190Y-55176190D02*
X47396190Y-54866666D01*
X47586666Y-55033333D01*
X47586666Y-54961904D01*
X47610476Y-54914285D01*
X47634285Y-54890476D01*
X47681904Y-54866666D01*
X47800952Y-54866666D01*
X47848571Y-54890476D01*
X47872380Y-54914285D01*
X47896190Y-54961904D01*
X47896190Y-55104761D01*
X47872380Y-55152380D01*
X47848571Y-55176190D01*
%TO.C,C13*%
X83478571Y-73578571D02*
X83454761Y-73602380D01*
X83383333Y-73626190D01*
X83335714Y-73626190D01*
X83264285Y-73602380D01*
X83216666Y-73554761D01*
X83192857Y-73507142D01*
X83169047Y-73411904D01*
X83169047Y-73340476D01*
X83192857Y-73245238D01*
X83216666Y-73197619D01*
X83264285Y-73150000D01*
X83335714Y-73126190D01*
X83383333Y-73126190D01*
X83454761Y-73150000D01*
X83478571Y-73173809D01*
X83954761Y-73626190D02*
X83669047Y-73626190D01*
X83811904Y-73626190D02*
X83811904Y-73126190D01*
X83764285Y-73197619D01*
X83716666Y-73245238D01*
X83669047Y-73269047D01*
X84121428Y-73126190D02*
X84430952Y-73126190D01*
X84264285Y-73316666D01*
X84335714Y-73316666D01*
X84383333Y-73340476D01*
X84407142Y-73364285D01*
X84430952Y-73411904D01*
X84430952Y-73530952D01*
X84407142Y-73578571D01*
X84383333Y-73602380D01*
X84335714Y-73626190D01*
X84192857Y-73626190D01*
X84145238Y-73602380D01*
X84121428Y-73578571D01*
%TO.C,C1*%
X80378571Y-29483333D02*
X80402380Y-29507142D01*
X80426190Y-29578571D01*
X80426190Y-29626190D01*
X80402380Y-29697619D01*
X80354761Y-29745238D01*
X80307142Y-29769047D01*
X80211904Y-29792857D01*
X80140476Y-29792857D01*
X80045238Y-29769047D01*
X79997619Y-29745238D01*
X79950000Y-29697619D01*
X79926190Y-29626190D01*
X79926190Y-29578571D01*
X79950000Y-29507142D01*
X79973809Y-29483333D01*
X80426190Y-29007142D02*
X80426190Y-29292857D01*
X80426190Y-29150000D02*
X79926190Y-29150000D01*
X79997619Y-29197619D01*
X80045238Y-29245238D01*
X80069047Y-29292857D01*
%TO.C,C10*%
X40278571Y-33578571D02*
X40254761Y-33602380D01*
X40183333Y-33626190D01*
X40135714Y-33626190D01*
X40064285Y-33602380D01*
X40016666Y-33554761D01*
X39992857Y-33507142D01*
X39969047Y-33411904D01*
X39969047Y-33340476D01*
X39992857Y-33245238D01*
X40016666Y-33197619D01*
X40064285Y-33150000D01*
X40135714Y-33126190D01*
X40183333Y-33126190D01*
X40254761Y-33150000D01*
X40278571Y-33173809D01*
X40754761Y-33626190D02*
X40469047Y-33626190D01*
X40611904Y-33626190D02*
X40611904Y-33126190D01*
X40564285Y-33197619D01*
X40516666Y-33245238D01*
X40469047Y-33269047D01*
X41064285Y-33126190D02*
X41111904Y-33126190D01*
X41159523Y-33150000D01*
X41183333Y-33173809D01*
X41207142Y-33221428D01*
X41230952Y-33316666D01*
X41230952Y-33435714D01*
X41207142Y-33530952D01*
X41183333Y-33578571D01*
X41159523Y-33602380D01*
X41111904Y-33626190D01*
X41064285Y-33626190D01*
X41016666Y-33602380D01*
X40992857Y-33578571D01*
X40969047Y-33530952D01*
X40945238Y-33435714D01*
X40945238Y-33316666D01*
X40969047Y-33221428D01*
X40992857Y-33173809D01*
X41016666Y-33150000D01*
X41064285Y-33126190D01*
%TO.C,C4*%
X85778571Y-29883333D02*
X85802380Y-29907142D01*
X85826190Y-29978571D01*
X85826190Y-30026190D01*
X85802380Y-30097619D01*
X85754761Y-30145238D01*
X85707142Y-30169047D01*
X85611904Y-30192857D01*
X85540476Y-30192857D01*
X85445238Y-30169047D01*
X85397619Y-30145238D01*
X85350000Y-30097619D01*
X85326190Y-30026190D01*
X85326190Y-29978571D01*
X85350000Y-29907142D01*
X85373809Y-29883333D01*
X85492857Y-29454761D02*
X85826190Y-29454761D01*
X85302380Y-29573809D02*
X85659523Y-29692857D01*
X85659523Y-29383333D01*
%TO.C,C10*%
X89078571Y-33578571D02*
X89054761Y-33602380D01*
X88983333Y-33626190D01*
X88935714Y-33626190D01*
X88864285Y-33602380D01*
X88816666Y-33554761D01*
X88792857Y-33507142D01*
X88769047Y-33411904D01*
X88769047Y-33340476D01*
X88792857Y-33245238D01*
X88816666Y-33197619D01*
X88864285Y-33150000D01*
X88935714Y-33126190D01*
X88983333Y-33126190D01*
X89054761Y-33150000D01*
X89078571Y-33173809D01*
X89554761Y-33626190D02*
X89269047Y-33626190D01*
X89411904Y-33626190D02*
X89411904Y-33126190D01*
X89364285Y-33197619D01*
X89316666Y-33245238D01*
X89269047Y-33269047D01*
X89864285Y-33126190D02*
X89911904Y-33126190D01*
X89959523Y-33150000D01*
X89983333Y-33173809D01*
X90007142Y-33221428D01*
X90030952Y-33316666D01*
X90030952Y-33435714D01*
X90007142Y-33530952D01*
X89983333Y-33578571D01*
X89959523Y-33602380D01*
X89911904Y-33626190D01*
X89864285Y-33626190D01*
X89816666Y-33602380D01*
X89792857Y-33578571D01*
X89769047Y-33530952D01*
X89745238Y-33435714D01*
X89745238Y-33316666D01*
X89769047Y-33221428D01*
X89792857Y-33173809D01*
X89816666Y-33150000D01*
X89864285Y-33126190D01*
%TO.C,L1*%
X59516666Y-58026190D02*
X59278571Y-58026190D01*
X59278571Y-57526190D01*
X59945238Y-58026190D02*
X59659523Y-58026190D01*
X59802380Y-58026190D02*
X59802380Y-57526190D01*
X59754761Y-57597619D01*
X59707142Y-57645238D01*
X59659523Y-57669047D01*
%TO.C,C9*%
X39516666Y-42778571D02*
X39492857Y-42802380D01*
X39421428Y-42826190D01*
X39373809Y-42826190D01*
X39302380Y-42802380D01*
X39254761Y-42754761D01*
X39230952Y-42707142D01*
X39207142Y-42611904D01*
X39207142Y-42540476D01*
X39230952Y-42445238D01*
X39254761Y-42397619D01*
X39302380Y-42350000D01*
X39373809Y-42326190D01*
X39421428Y-42326190D01*
X39492857Y-42350000D01*
X39516666Y-42373809D01*
X39754761Y-42826190D02*
X39850000Y-42826190D01*
X39897619Y-42802380D01*
X39921428Y-42778571D01*
X39969047Y-42707142D01*
X39992857Y-42611904D01*
X39992857Y-42421428D01*
X39969047Y-42373809D01*
X39945238Y-42350000D01*
X39897619Y-42326190D01*
X39802380Y-42326190D01*
X39754761Y-42350000D01*
X39730952Y-42373809D01*
X39707142Y-42421428D01*
X39707142Y-42540476D01*
X39730952Y-42588095D01*
X39754761Y-42611904D01*
X39802380Y-42635714D01*
X39897619Y-42635714D01*
X39945238Y-42611904D01*
X39969047Y-42588095D01*
X39992857Y-42540476D01*
%TO.C,R1*%
X80316666Y-36216190D02*
X80150000Y-35978095D01*
X80030952Y-36216190D02*
X80030952Y-35716190D01*
X80221428Y-35716190D01*
X80269047Y-35740000D01*
X80292857Y-35763809D01*
X80316666Y-35811428D01*
X80316666Y-35882857D01*
X80292857Y-35930476D01*
X80269047Y-35954285D01*
X80221428Y-35978095D01*
X80030952Y-35978095D01*
X80792857Y-36216190D02*
X80507142Y-36216190D01*
X80650000Y-36216190D02*
X80650000Y-35716190D01*
X80602380Y-35787619D01*
X80554761Y-35835238D01*
X80507142Y-35859047D01*
%TO.C,C9*%
X88316666Y-42778571D02*
X88292857Y-42802380D01*
X88221428Y-42826190D01*
X88173809Y-42826190D01*
X88102380Y-42802380D01*
X88054761Y-42754761D01*
X88030952Y-42707142D01*
X88007142Y-42611904D01*
X88007142Y-42540476D01*
X88030952Y-42445238D01*
X88054761Y-42397619D01*
X88102380Y-42350000D01*
X88173809Y-42326190D01*
X88221428Y-42326190D01*
X88292857Y-42350000D01*
X88316666Y-42373809D01*
X88554761Y-42826190D02*
X88650000Y-42826190D01*
X88697619Y-42802380D01*
X88721428Y-42778571D01*
X88769047Y-42707142D01*
X88792857Y-42611904D01*
X88792857Y-42421428D01*
X88769047Y-42373809D01*
X88745238Y-42350000D01*
X88697619Y-42326190D01*
X88602380Y-42326190D01*
X88554761Y-42350000D01*
X88530952Y-42373809D01*
X88507142Y-42421428D01*
X88507142Y-42540476D01*
X88530952Y-42588095D01*
X88554761Y-42611904D01*
X88602380Y-42635714D01*
X88697619Y-42635714D01*
X88745238Y-42611904D01*
X88769047Y-42588095D01*
X88792857Y-42540476D01*
%TO.C,J3*%
X96196190Y-25366666D02*
X96553333Y-25366666D01*
X96624761Y-25390476D01*
X96672380Y-25438095D01*
X96696190Y-25509523D01*
X96696190Y-25557142D01*
X96196190Y-25176190D02*
X96196190Y-24866666D01*
X96386666Y-25033333D01*
X96386666Y-24961904D01*
X96410476Y-24914285D01*
X96434285Y-24890476D01*
X96481904Y-24866666D01*
X96600952Y-24866666D01*
X96648571Y-24890476D01*
X96672380Y-24914285D01*
X96696190Y-24961904D01*
X96696190Y-25104761D01*
X96672380Y-25152380D01*
X96648571Y-25176190D01*
%TO.C,C11*%
X39478571Y-66578571D02*
X39454761Y-66602380D01*
X39383333Y-66626190D01*
X39335714Y-66626190D01*
X39264285Y-66602380D01*
X39216666Y-66554761D01*
X39192857Y-66507142D01*
X39169047Y-66411904D01*
X39169047Y-66340476D01*
X39192857Y-66245238D01*
X39216666Y-66197619D01*
X39264285Y-66150000D01*
X39335714Y-66126190D01*
X39383333Y-66126190D01*
X39454761Y-66150000D01*
X39478571Y-66173809D01*
X39954761Y-66626190D02*
X39669047Y-66626190D01*
X39811904Y-66626190D02*
X39811904Y-66126190D01*
X39764285Y-66197619D01*
X39716666Y-66245238D01*
X39669047Y-66269047D01*
X40430952Y-66626190D02*
X40145238Y-66626190D01*
X40288095Y-66626190D02*
X40288095Y-66126190D01*
X40240476Y-66197619D01*
X40192857Y-66245238D01*
X40145238Y-66269047D01*
%TO.C,I2C1*%
X37496190Y-49526190D02*
X36996190Y-49526190D01*
X37043809Y-49311904D02*
X37020000Y-49288095D01*
X36996190Y-49240476D01*
X36996190Y-49121428D01*
X37020000Y-49073809D01*
X37043809Y-49050000D01*
X37091428Y-49026190D01*
X37139047Y-49026190D01*
X37210476Y-49050000D01*
X37496190Y-49335714D01*
X37496190Y-49026190D01*
X37448571Y-48526190D02*
X37472380Y-48550000D01*
X37496190Y-48621428D01*
X37496190Y-48669047D01*
X37472380Y-48740476D01*
X37424761Y-48788095D01*
X37377142Y-48811904D01*
X37281904Y-48835714D01*
X37210476Y-48835714D01*
X37115238Y-48811904D01*
X37067619Y-48788095D01*
X37020000Y-48740476D01*
X36996190Y-48669047D01*
X36996190Y-48621428D01*
X37020000Y-48550000D01*
X37043809Y-48526190D01*
X37496190Y-48050000D02*
X37496190Y-48335714D01*
X37496190Y-48192857D02*
X36996190Y-48192857D01*
X37067619Y-48240476D01*
X37115238Y-48288095D01*
X37139047Y-48335714D01*
%TO.C,C8*%
X110618571Y-59083333D02*
X110642380Y-59107142D01*
X110666190Y-59178571D01*
X110666190Y-59226190D01*
X110642380Y-59297619D01*
X110594761Y-59345238D01*
X110547142Y-59369047D01*
X110451904Y-59392857D01*
X110380476Y-59392857D01*
X110285238Y-59369047D01*
X110237619Y-59345238D01*
X110190000Y-59297619D01*
X110166190Y-59226190D01*
X110166190Y-59178571D01*
X110190000Y-59107142D01*
X110213809Y-59083333D01*
X110380476Y-58797619D02*
X110356666Y-58845238D01*
X110332857Y-58869047D01*
X110285238Y-58892857D01*
X110261428Y-58892857D01*
X110213809Y-58869047D01*
X110190000Y-58845238D01*
X110166190Y-58797619D01*
X110166190Y-58702380D01*
X110190000Y-58654761D01*
X110213809Y-58630952D01*
X110261428Y-58607142D01*
X110285238Y-58607142D01*
X110332857Y-58630952D01*
X110356666Y-58654761D01*
X110380476Y-58702380D01*
X110380476Y-58797619D01*
X110404285Y-58845238D01*
X110428095Y-58869047D01*
X110475714Y-58892857D01*
X110570952Y-58892857D01*
X110618571Y-58869047D01*
X110642380Y-58845238D01*
X110666190Y-58797619D01*
X110666190Y-58702380D01*
X110642380Y-58654761D01*
X110618571Y-58630952D01*
X110570952Y-58607142D01*
X110475714Y-58607142D01*
X110428095Y-58630952D01*
X110404285Y-58654761D01*
X110380476Y-58702380D01*
%TO.C,R4*%
X43916666Y-74626190D02*
X43750000Y-74388095D01*
X43630952Y-74626190D02*
X43630952Y-74126190D01*
X43821428Y-74126190D01*
X43869047Y-74150000D01*
X43892857Y-74173809D01*
X43916666Y-74221428D01*
X43916666Y-74292857D01*
X43892857Y-74340476D01*
X43869047Y-74364285D01*
X43821428Y-74388095D01*
X43630952Y-74388095D01*
X44345238Y-74292857D02*
X44345238Y-74626190D01*
X44226190Y-74102380D02*
X44107142Y-74459523D01*
X44416666Y-74459523D01*
%TO.C,R3*%
X41226666Y-74626190D02*
X41060000Y-74388095D01*
X40940952Y-74626190D02*
X40940952Y-74126190D01*
X41131428Y-74126190D01*
X41179047Y-74150000D01*
X41202857Y-74173809D01*
X41226666Y-74221428D01*
X41226666Y-74292857D01*
X41202857Y-74340476D01*
X41179047Y-74364285D01*
X41131428Y-74388095D01*
X40940952Y-74388095D01*
X41393333Y-74126190D02*
X41702857Y-74126190D01*
X41536190Y-74316666D01*
X41607619Y-74316666D01*
X41655238Y-74340476D01*
X41679047Y-74364285D01*
X41702857Y-74411904D01*
X41702857Y-74530952D01*
X41679047Y-74578571D01*
X41655238Y-74602380D01*
X41607619Y-74626190D01*
X41464761Y-74626190D01*
X41417142Y-74602380D01*
X41393333Y-74578571D01*
%TO.C,Y1*%
X82988095Y-64438095D02*
X83226190Y-64438095D01*
X82726190Y-64604761D02*
X82988095Y-64438095D01*
X82726190Y-64271428D01*
X83226190Y-63842857D02*
X83226190Y-64128571D01*
X83226190Y-63985714D02*
X82726190Y-63985714D01*
X82797619Y-64033333D01*
X82845238Y-64080952D01*
X82869047Y-64128571D01*
%TO.C,I2C1*%
X86296190Y-49526190D02*
X85796190Y-49526190D01*
X85843809Y-49311904D02*
X85820000Y-49288095D01*
X85796190Y-49240476D01*
X85796190Y-49121428D01*
X85820000Y-49073809D01*
X85843809Y-49050000D01*
X85891428Y-49026190D01*
X85939047Y-49026190D01*
X86010476Y-49050000D01*
X86296190Y-49335714D01*
X86296190Y-49026190D01*
X86248571Y-48526190D02*
X86272380Y-48550000D01*
X86296190Y-48621428D01*
X86296190Y-48669047D01*
X86272380Y-48740476D01*
X86224761Y-48788095D01*
X86177142Y-48811904D01*
X86081904Y-48835714D01*
X86010476Y-48835714D01*
X85915238Y-48811904D01*
X85867619Y-48788095D01*
X85820000Y-48740476D01*
X85796190Y-48669047D01*
X85796190Y-48621428D01*
X85820000Y-48550000D01*
X85843809Y-48526190D01*
X86296190Y-48050000D02*
X86296190Y-48335714D01*
X86296190Y-48192857D02*
X85796190Y-48192857D01*
X85867619Y-48240476D01*
X85915238Y-48288095D01*
X85939047Y-48335714D01*
%TO.C,R1*%
X80316666Y-66216190D02*
X80150000Y-65978095D01*
X80030952Y-66216190D02*
X80030952Y-65716190D01*
X80221428Y-65716190D01*
X80269047Y-65740000D01*
X80292857Y-65763809D01*
X80316666Y-65811428D01*
X80316666Y-65882857D01*
X80292857Y-65930476D01*
X80269047Y-65954285D01*
X80221428Y-65978095D01*
X80030952Y-65978095D01*
X80792857Y-66216190D02*
X80507142Y-66216190D01*
X80650000Y-66216190D02*
X80650000Y-65716190D01*
X80602380Y-65787619D01*
X80554761Y-65835238D01*
X80507142Y-65859047D01*
%TO.C,C8*%
X61818571Y-59083333D02*
X61842380Y-59107142D01*
X61866190Y-59178571D01*
X61866190Y-59226190D01*
X61842380Y-59297619D01*
X61794761Y-59345238D01*
X61747142Y-59369047D01*
X61651904Y-59392857D01*
X61580476Y-59392857D01*
X61485238Y-59369047D01*
X61437619Y-59345238D01*
X61390000Y-59297619D01*
X61366190Y-59226190D01*
X61366190Y-59178571D01*
X61390000Y-59107142D01*
X61413809Y-59083333D01*
X61580476Y-58797619D02*
X61556666Y-58845238D01*
X61532857Y-58869047D01*
X61485238Y-58892857D01*
X61461428Y-58892857D01*
X61413809Y-58869047D01*
X61390000Y-58845238D01*
X61366190Y-58797619D01*
X61366190Y-58702380D01*
X61390000Y-58654761D01*
X61413809Y-58630952D01*
X61461428Y-58607142D01*
X61485238Y-58607142D01*
X61532857Y-58630952D01*
X61556666Y-58654761D01*
X61580476Y-58702380D01*
X61580476Y-58797619D01*
X61604285Y-58845238D01*
X61628095Y-58869047D01*
X61675714Y-58892857D01*
X61770952Y-58892857D01*
X61818571Y-58869047D01*
X61842380Y-58845238D01*
X61866190Y-58797619D01*
X61866190Y-58702380D01*
X61842380Y-58654761D01*
X61818571Y-58630952D01*
X61770952Y-58607142D01*
X61675714Y-58607142D01*
X61628095Y-58630952D01*
X61604285Y-58654761D01*
X61580476Y-58702380D01*
%TO.C,R4*%
X92716666Y-44626190D02*
X92550000Y-44388095D01*
X92430952Y-44626190D02*
X92430952Y-44126190D01*
X92621428Y-44126190D01*
X92669047Y-44150000D01*
X92692857Y-44173809D01*
X92716666Y-44221428D01*
X92716666Y-44292857D01*
X92692857Y-44340476D01*
X92669047Y-44364285D01*
X92621428Y-44388095D01*
X92430952Y-44388095D01*
X93145238Y-44292857D02*
X93145238Y-44626190D01*
X93026190Y-44102380D02*
X92907142Y-44459523D01*
X93216666Y-44459523D01*
%TO.C,C7*%
X56778571Y-59083333D02*
X56802380Y-59107142D01*
X56826190Y-59178571D01*
X56826190Y-59226190D01*
X56802380Y-59297619D01*
X56754761Y-59345238D01*
X56707142Y-59369047D01*
X56611904Y-59392857D01*
X56540476Y-59392857D01*
X56445238Y-59369047D01*
X56397619Y-59345238D01*
X56350000Y-59297619D01*
X56326190Y-59226190D01*
X56326190Y-59178571D01*
X56350000Y-59107142D01*
X56373809Y-59083333D01*
X56326190Y-58916666D02*
X56326190Y-58583333D01*
X56826190Y-58797619D01*
%TO.C,C1*%
X31578571Y-59483333D02*
X31602380Y-59507142D01*
X31626190Y-59578571D01*
X31626190Y-59626190D01*
X31602380Y-59697619D01*
X31554761Y-59745238D01*
X31507142Y-59769047D01*
X31411904Y-59792857D01*
X31340476Y-59792857D01*
X31245238Y-59769047D01*
X31197619Y-59745238D01*
X31150000Y-59697619D01*
X31126190Y-59626190D01*
X31126190Y-59578571D01*
X31150000Y-59507142D01*
X31173809Y-59483333D01*
X31626190Y-59007142D02*
X31626190Y-59292857D01*
X31626190Y-59150000D02*
X31126190Y-59150000D01*
X31197619Y-59197619D01*
X31245238Y-59245238D01*
X31269047Y-59292857D01*
%TO.C,J3*%
X96196190Y-55366666D02*
X96553333Y-55366666D01*
X96624761Y-55390476D01*
X96672380Y-55438095D01*
X96696190Y-55509523D01*
X96696190Y-55557142D01*
X96196190Y-55176190D02*
X96196190Y-54866666D01*
X96386666Y-55033333D01*
X96386666Y-54961904D01*
X96410476Y-54914285D01*
X96434285Y-54890476D01*
X96481904Y-54866666D01*
X96600952Y-54866666D01*
X96648571Y-54890476D01*
X96672380Y-54914285D01*
X96696190Y-54961904D01*
X96696190Y-55104761D01*
X96672380Y-55152380D01*
X96648571Y-55176190D01*
%TO.C,C5*%
X87578571Y-30083333D02*
X87602380Y-30107142D01*
X87626190Y-30178571D01*
X87626190Y-30226190D01*
X87602380Y-30297619D01*
X87554761Y-30345238D01*
X87507142Y-30369047D01*
X87411904Y-30392857D01*
X87340476Y-30392857D01*
X87245238Y-30369047D01*
X87197619Y-30345238D01*
X87150000Y-30297619D01*
X87126190Y-30226190D01*
X87126190Y-30178571D01*
X87150000Y-30107142D01*
X87173809Y-30083333D01*
X87126190Y-29630952D02*
X87126190Y-29869047D01*
X87364285Y-29892857D01*
X87340476Y-29869047D01*
X87316666Y-29821428D01*
X87316666Y-29702380D01*
X87340476Y-29654761D01*
X87364285Y-29630952D01*
X87411904Y-29607142D01*
X87530952Y-29607142D01*
X87578571Y-29630952D01*
X87602380Y-29654761D01*
X87626190Y-29702380D01*
X87626190Y-29821428D01*
X87602380Y-29869047D01*
X87578571Y-29892857D01*
%TO.C,L1*%
X108316666Y-28026190D02*
X108078571Y-28026190D01*
X108078571Y-27526190D01*
X108745238Y-28026190D02*
X108459523Y-28026190D01*
X108602380Y-28026190D02*
X108602380Y-27526190D01*
X108554761Y-27597619D01*
X108507142Y-27645238D01*
X108459523Y-27669047D01*
%TO.C,C3*%
X35178571Y-30083333D02*
X35202380Y-30107142D01*
X35226190Y-30178571D01*
X35226190Y-30226190D01*
X35202380Y-30297619D01*
X35154761Y-30345238D01*
X35107142Y-30369047D01*
X35011904Y-30392857D01*
X34940476Y-30392857D01*
X34845238Y-30369047D01*
X34797619Y-30345238D01*
X34750000Y-30297619D01*
X34726190Y-30226190D01*
X34726190Y-30178571D01*
X34750000Y-30107142D01*
X34773809Y-30083333D01*
X34726190Y-29916666D02*
X34726190Y-29607142D01*
X34916666Y-29773809D01*
X34916666Y-29702380D01*
X34940476Y-29654761D01*
X34964285Y-29630952D01*
X35011904Y-29607142D01*
X35130952Y-29607142D01*
X35178571Y-29630952D01*
X35202380Y-29654761D01*
X35226190Y-29702380D01*
X35226190Y-29845238D01*
X35202380Y-29892857D01*
X35178571Y-29916666D01*
%TO.C,C11*%
X88278571Y-66578571D02*
X88254761Y-66602380D01*
X88183333Y-66626190D01*
X88135714Y-66626190D01*
X88064285Y-66602380D01*
X88016666Y-66554761D01*
X87992857Y-66507142D01*
X87969047Y-66411904D01*
X87969047Y-66340476D01*
X87992857Y-66245238D01*
X88016666Y-66197619D01*
X88064285Y-66150000D01*
X88135714Y-66126190D01*
X88183333Y-66126190D01*
X88254761Y-66150000D01*
X88278571Y-66173809D01*
X88754761Y-66626190D02*
X88469047Y-66626190D01*
X88611904Y-66626190D02*
X88611904Y-66126190D01*
X88564285Y-66197619D01*
X88516666Y-66245238D01*
X88469047Y-66269047D01*
X89230952Y-66626190D02*
X88945238Y-66626190D01*
X89088095Y-66626190D02*
X89088095Y-66126190D01*
X89040476Y-66197619D01*
X88992857Y-66245238D01*
X88945238Y-66269047D01*
%TO.C,C13*%
X34678571Y-73578571D02*
X34654761Y-73602380D01*
X34583333Y-73626190D01*
X34535714Y-73626190D01*
X34464285Y-73602380D01*
X34416666Y-73554761D01*
X34392857Y-73507142D01*
X34369047Y-73411904D01*
X34369047Y-73340476D01*
X34392857Y-73245238D01*
X34416666Y-73197619D01*
X34464285Y-73150000D01*
X34535714Y-73126190D01*
X34583333Y-73126190D01*
X34654761Y-73150000D01*
X34678571Y-73173809D01*
X35154761Y-73626190D02*
X34869047Y-73626190D01*
X35011904Y-73626190D02*
X35011904Y-73126190D01*
X34964285Y-73197619D01*
X34916666Y-73245238D01*
X34869047Y-73269047D01*
X35321428Y-73126190D02*
X35630952Y-73126190D01*
X35464285Y-73316666D01*
X35535714Y-73316666D01*
X35583333Y-73340476D01*
X35607142Y-73364285D01*
X35630952Y-73411904D01*
X35630952Y-73530952D01*
X35607142Y-73578571D01*
X35583333Y-73602380D01*
X35535714Y-73626190D01*
X35392857Y-73626190D01*
X35345238Y-73602380D01*
X35321428Y-73578571D01*
%TO.C,C7*%
X105578571Y-29083333D02*
X105602380Y-29107142D01*
X105626190Y-29178571D01*
X105626190Y-29226190D01*
X105602380Y-29297619D01*
X105554761Y-29345238D01*
X105507142Y-29369047D01*
X105411904Y-29392857D01*
X105340476Y-29392857D01*
X105245238Y-29369047D01*
X105197619Y-29345238D01*
X105150000Y-29297619D01*
X105126190Y-29226190D01*
X105126190Y-29178571D01*
X105150000Y-29107142D01*
X105173809Y-29083333D01*
X105126190Y-28916666D02*
X105126190Y-28583333D01*
X105626190Y-28797619D01*
%TO.C,L1*%
X59516666Y-28026190D02*
X59278571Y-28026190D01*
X59278571Y-27526190D01*
X59945238Y-28026190D02*
X59659523Y-28026190D01*
X59802380Y-28026190D02*
X59802380Y-27526190D01*
X59754761Y-27597619D01*
X59707142Y-27645238D01*
X59659523Y-27669047D01*
%TO.C,C6*%
X54978571Y-29083333D02*
X55002380Y-29107142D01*
X55026190Y-29178571D01*
X55026190Y-29226190D01*
X55002380Y-29297619D01*
X54954761Y-29345238D01*
X54907142Y-29369047D01*
X54811904Y-29392857D01*
X54740476Y-29392857D01*
X54645238Y-29369047D01*
X54597619Y-29345238D01*
X54550000Y-29297619D01*
X54526190Y-29226190D01*
X54526190Y-29178571D01*
X54550000Y-29107142D01*
X54573809Y-29083333D01*
X54526190Y-28654761D02*
X54526190Y-28750000D01*
X54550000Y-28797619D01*
X54573809Y-28821428D01*
X54645238Y-28869047D01*
X54740476Y-28892857D01*
X54930952Y-28892857D01*
X54978571Y-28869047D01*
X55002380Y-28845238D01*
X55026190Y-28797619D01*
X55026190Y-28702380D01*
X55002380Y-28654761D01*
X54978571Y-28630952D01*
X54930952Y-28607142D01*
X54811904Y-28607142D01*
X54764285Y-28630952D01*
X54740476Y-28654761D01*
X54716666Y-28702380D01*
X54716666Y-28797619D01*
X54740476Y-28845238D01*
X54764285Y-28869047D01*
X54811904Y-28892857D01*
%TO.C,J3*%
X47396190Y-25366666D02*
X47753333Y-25366666D01*
X47824761Y-25390476D01*
X47872380Y-25438095D01*
X47896190Y-25509523D01*
X47896190Y-25557142D01*
X47396190Y-25176190D02*
X47396190Y-24866666D01*
X47586666Y-25033333D01*
X47586666Y-24961904D01*
X47610476Y-24914285D01*
X47634285Y-24890476D01*
X47681904Y-24866666D01*
X47800952Y-24866666D01*
X47848571Y-24890476D01*
X47872380Y-24914285D01*
X47896190Y-24961904D01*
X47896190Y-25104761D01*
X47872380Y-25152380D01*
X47848571Y-25176190D01*
%TO.C,C5*%
X38778571Y-30083333D02*
X38802380Y-30107142D01*
X38826190Y-30178571D01*
X38826190Y-30226190D01*
X38802380Y-30297619D01*
X38754761Y-30345238D01*
X38707142Y-30369047D01*
X38611904Y-30392857D01*
X38540476Y-30392857D01*
X38445238Y-30369047D01*
X38397619Y-30345238D01*
X38350000Y-30297619D01*
X38326190Y-30226190D01*
X38326190Y-30178571D01*
X38350000Y-30107142D01*
X38373809Y-30083333D01*
X38326190Y-29630952D02*
X38326190Y-29869047D01*
X38564285Y-29892857D01*
X38540476Y-29869047D01*
X38516666Y-29821428D01*
X38516666Y-29702380D01*
X38540476Y-29654761D01*
X38564285Y-29630952D01*
X38611904Y-29607142D01*
X38730952Y-29607142D01*
X38778571Y-29630952D01*
X38802380Y-29654761D01*
X38826190Y-29702380D01*
X38826190Y-29821428D01*
X38802380Y-29869047D01*
X38778571Y-29892857D01*
%TO.C,C14*%
X31878571Y-47378571D02*
X31854761Y-47402380D01*
X31783333Y-47426190D01*
X31735714Y-47426190D01*
X31664285Y-47402380D01*
X31616666Y-47354761D01*
X31592857Y-47307142D01*
X31569047Y-47211904D01*
X31569047Y-47140476D01*
X31592857Y-47045238D01*
X31616666Y-46997619D01*
X31664285Y-46950000D01*
X31735714Y-46926190D01*
X31783333Y-46926190D01*
X31854761Y-46950000D01*
X31878571Y-46973809D01*
X32354761Y-47426190D02*
X32069047Y-47426190D01*
X32211904Y-47426190D02*
X32211904Y-46926190D01*
X32164285Y-46997619D01*
X32116666Y-47045238D01*
X32069047Y-47069047D01*
X32783333Y-47092857D02*
X32783333Y-47426190D01*
X32664285Y-46902380D02*
X32545238Y-47259523D01*
X32854761Y-47259523D01*
%TO.C,C9*%
X39516666Y-72778571D02*
X39492857Y-72802380D01*
X39421428Y-72826190D01*
X39373809Y-72826190D01*
X39302380Y-72802380D01*
X39254761Y-72754761D01*
X39230952Y-72707142D01*
X39207142Y-72611904D01*
X39207142Y-72540476D01*
X39230952Y-72445238D01*
X39254761Y-72397619D01*
X39302380Y-72350000D01*
X39373809Y-72326190D01*
X39421428Y-72326190D01*
X39492857Y-72350000D01*
X39516666Y-72373809D01*
X39754761Y-72826190D02*
X39850000Y-72826190D01*
X39897619Y-72802380D01*
X39921428Y-72778571D01*
X39969047Y-72707142D01*
X39992857Y-72611904D01*
X39992857Y-72421428D01*
X39969047Y-72373809D01*
X39945238Y-72350000D01*
X39897619Y-72326190D01*
X39802380Y-72326190D01*
X39754761Y-72350000D01*
X39730952Y-72373809D01*
X39707142Y-72421428D01*
X39707142Y-72540476D01*
X39730952Y-72588095D01*
X39754761Y-72611904D01*
X39802380Y-72635714D01*
X39897619Y-72635714D01*
X39945238Y-72611904D01*
X39969047Y-72588095D01*
X39992857Y-72540476D01*
%TO.C,R2*%
X109826190Y-63483333D02*
X109588095Y-63650000D01*
X109826190Y-63769047D02*
X109326190Y-63769047D01*
X109326190Y-63578571D01*
X109350000Y-63530952D01*
X109373809Y-63507142D01*
X109421428Y-63483333D01*
X109492857Y-63483333D01*
X109540476Y-63507142D01*
X109564285Y-63530952D01*
X109588095Y-63578571D01*
X109588095Y-63769047D01*
X109373809Y-63292857D02*
X109350000Y-63269047D01*
X109326190Y-63221428D01*
X109326190Y-63102380D01*
X109350000Y-63054761D01*
X109373809Y-63030952D01*
X109421428Y-63007142D01*
X109469047Y-63007142D01*
X109540476Y-63030952D01*
X109826190Y-63316666D01*
X109826190Y-63007142D01*
%TO.C,I2C1*%
X86296190Y-79526190D02*
X85796190Y-79526190D01*
X85843809Y-79311904D02*
X85820000Y-79288095D01*
X85796190Y-79240476D01*
X85796190Y-79121428D01*
X85820000Y-79073809D01*
X85843809Y-79050000D01*
X85891428Y-79026190D01*
X85939047Y-79026190D01*
X86010476Y-79050000D01*
X86296190Y-79335714D01*
X86296190Y-79026190D01*
X86248571Y-78526190D02*
X86272380Y-78550000D01*
X86296190Y-78621428D01*
X86296190Y-78669047D01*
X86272380Y-78740476D01*
X86224761Y-78788095D01*
X86177142Y-78811904D01*
X86081904Y-78835714D01*
X86010476Y-78835714D01*
X85915238Y-78811904D01*
X85867619Y-78788095D01*
X85820000Y-78740476D01*
X85796190Y-78669047D01*
X85796190Y-78621428D01*
X85820000Y-78550000D01*
X85843809Y-78526190D01*
X86296190Y-78050000D02*
X86296190Y-78335714D01*
X86296190Y-78192857D02*
X85796190Y-78192857D01*
X85867619Y-78240476D01*
X85915238Y-78288095D01*
X85939047Y-78335714D01*
%TO.C,C13*%
X34678571Y-43578571D02*
X34654761Y-43602380D01*
X34583333Y-43626190D01*
X34535714Y-43626190D01*
X34464285Y-43602380D01*
X34416666Y-43554761D01*
X34392857Y-43507142D01*
X34369047Y-43411904D01*
X34369047Y-43340476D01*
X34392857Y-43245238D01*
X34416666Y-43197619D01*
X34464285Y-43150000D01*
X34535714Y-43126190D01*
X34583333Y-43126190D01*
X34654761Y-43150000D01*
X34678571Y-43173809D01*
X35154761Y-43626190D02*
X34869047Y-43626190D01*
X35011904Y-43626190D02*
X35011904Y-43126190D01*
X34964285Y-43197619D01*
X34916666Y-43245238D01*
X34869047Y-43269047D01*
X35321428Y-43126190D02*
X35630952Y-43126190D01*
X35464285Y-43316666D01*
X35535714Y-43316666D01*
X35583333Y-43340476D01*
X35607142Y-43364285D01*
X35630952Y-43411904D01*
X35630952Y-43530952D01*
X35607142Y-43578571D01*
X35583333Y-43602380D01*
X35535714Y-43626190D01*
X35392857Y-43626190D01*
X35345238Y-43602380D01*
X35321428Y-43578571D01*
%TO.C,C1*%
X31578571Y-29483333D02*
X31602380Y-29507142D01*
X31626190Y-29578571D01*
X31626190Y-29626190D01*
X31602380Y-29697619D01*
X31554761Y-29745238D01*
X31507142Y-29769047D01*
X31411904Y-29792857D01*
X31340476Y-29792857D01*
X31245238Y-29769047D01*
X31197619Y-29745238D01*
X31150000Y-29697619D01*
X31126190Y-29626190D01*
X31126190Y-29578571D01*
X31150000Y-29507142D01*
X31173809Y-29483333D01*
X31626190Y-29007142D02*
X31626190Y-29292857D01*
X31626190Y-29150000D02*
X31126190Y-29150000D01*
X31197619Y-29197619D01*
X31245238Y-29245238D01*
X31269047Y-29292857D01*
%TO.C,USART1*%
X80796190Y-26473809D02*
X81200952Y-26473809D01*
X81248571Y-26450000D01*
X81272380Y-26426190D01*
X81296190Y-26378571D01*
X81296190Y-26283333D01*
X81272380Y-26235714D01*
X81248571Y-26211904D01*
X81200952Y-26188095D01*
X80796190Y-26188095D01*
X81272380Y-25973809D02*
X81296190Y-25902380D01*
X81296190Y-25783333D01*
X81272380Y-25735714D01*
X81248571Y-25711904D01*
X81200952Y-25688095D01*
X81153333Y-25688095D01*
X81105714Y-25711904D01*
X81081904Y-25735714D01*
X81058095Y-25783333D01*
X81034285Y-25878571D01*
X81010476Y-25926190D01*
X80986666Y-25950000D01*
X80939047Y-25973809D01*
X80891428Y-25973809D01*
X80843809Y-25950000D01*
X80820000Y-25926190D01*
X80796190Y-25878571D01*
X80796190Y-25759523D01*
X80820000Y-25688095D01*
X81153333Y-25497619D02*
X81153333Y-25259523D01*
X81296190Y-25545238D02*
X80796190Y-25378571D01*
X81296190Y-25211904D01*
X81296190Y-24759523D02*
X81058095Y-24926190D01*
X81296190Y-25045238D02*
X80796190Y-25045238D01*
X80796190Y-24854761D01*
X80820000Y-24807142D01*
X80843809Y-24783333D01*
X80891428Y-24759523D01*
X80962857Y-24759523D01*
X81010476Y-24783333D01*
X81034285Y-24807142D01*
X81058095Y-24854761D01*
X81058095Y-25045238D01*
X80796190Y-24616666D02*
X80796190Y-24330952D01*
X81296190Y-24473809D02*
X80796190Y-24473809D01*
X81296190Y-23902380D02*
X81296190Y-24188095D01*
X81296190Y-24045238D02*
X80796190Y-24045238D01*
X80867619Y-24092857D01*
X80915238Y-24140476D01*
X80939047Y-24188095D01*
%TO.C,C7*%
X56778571Y-29083333D02*
X56802380Y-29107142D01*
X56826190Y-29178571D01*
X56826190Y-29226190D01*
X56802380Y-29297619D01*
X56754761Y-29345238D01*
X56707142Y-29369047D01*
X56611904Y-29392857D01*
X56540476Y-29392857D01*
X56445238Y-29369047D01*
X56397619Y-29345238D01*
X56350000Y-29297619D01*
X56326190Y-29226190D01*
X56326190Y-29178571D01*
X56350000Y-29107142D01*
X56373809Y-29083333D01*
X56326190Y-28916666D02*
X56326190Y-28583333D01*
X56826190Y-28797619D01*
%TO.C,C3*%
X83978571Y-30083333D02*
X84002380Y-30107142D01*
X84026190Y-30178571D01*
X84026190Y-30226190D01*
X84002380Y-30297619D01*
X83954761Y-30345238D01*
X83907142Y-30369047D01*
X83811904Y-30392857D01*
X83740476Y-30392857D01*
X83645238Y-30369047D01*
X83597619Y-30345238D01*
X83550000Y-30297619D01*
X83526190Y-30226190D01*
X83526190Y-30178571D01*
X83550000Y-30107142D01*
X83573809Y-30083333D01*
X83526190Y-29916666D02*
X83526190Y-29607142D01*
X83716666Y-29773809D01*
X83716666Y-29702380D01*
X83740476Y-29654761D01*
X83764285Y-29630952D01*
X83811904Y-29607142D01*
X83930952Y-29607142D01*
X83978571Y-29630952D01*
X84002380Y-29654761D01*
X84026190Y-29702380D01*
X84026190Y-29845238D01*
X84002380Y-29892857D01*
X83978571Y-29916666D01*
%TO.C,C7*%
X105578571Y-59083333D02*
X105602380Y-59107142D01*
X105626190Y-59178571D01*
X105626190Y-59226190D01*
X105602380Y-59297619D01*
X105554761Y-59345238D01*
X105507142Y-59369047D01*
X105411904Y-59392857D01*
X105340476Y-59392857D01*
X105245238Y-59369047D01*
X105197619Y-59345238D01*
X105150000Y-59297619D01*
X105126190Y-59226190D01*
X105126190Y-59178571D01*
X105150000Y-59107142D01*
X105173809Y-59083333D01*
X105126190Y-58916666D02*
X105126190Y-58583333D01*
X105626190Y-58797619D01*
%TO.C,R2*%
X109826190Y-33483333D02*
X109588095Y-33650000D01*
X109826190Y-33769047D02*
X109326190Y-33769047D01*
X109326190Y-33578571D01*
X109350000Y-33530952D01*
X109373809Y-33507142D01*
X109421428Y-33483333D01*
X109492857Y-33483333D01*
X109540476Y-33507142D01*
X109564285Y-33530952D01*
X109588095Y-33578571D01*
X109588095Y-33769047D01*
X109373809Y-33292857D02*
X109350000Y-33269047D01*
X109326190Y-33221428D01*
X109326190Y-33102380D01*
X109350000Y-33054761D01*
X109373809Y-33030952D01*
X109421428Y-33007142D01*
X109469047Y-33007142D01*
X109540476Y-33030952D01*
X109826190Y-33316666D01*
X109826190Y-33007142D01*
%TO.C,C10*%
X89078571Y-63578571D02*
X89054761Y-63602380D01*
X88983333Y-63626190D01*
X88935714Y-63626190D01*
X88864285Y-63602380D01*
X88816666Y-63554761D01*
X88792857Y-63507142D01*
X88769047Y-63411904D01*
X88769047Y-63340476D01*
X88792857Y-63245238D01*
X88816666Y-63197619D01*
X88864285Y-63150000D01*
X88935714Y-63126190D01*
X88983333Y-63126190D01*
X89054761Y-63150000D01*
X89078571Y-63173809D01*
X89554761Y-63626190D02*
X89269047Y-63626190D01*
X89411904Y-63626190D02*
X89411904Y-63126190D01*
X89364285Y-63197619D01*
X89316666Y-63245238D01*
X89269047Y-63269047D01*
X89864285Y-63126190D02*
X89911904Y-63126190D01*
X89959523Y-63150000D01*
X89983333Y-63173809D01*
X90007142Y-63221428D01*
X90030952Y-63316666D01*
X90030952Y-63435714D01*
X90007142Y-63530952D01*
X89983333Y-63578571D01*
X89959523Y-63602380D01*
X89911904Y-63626190D01*
X89864285Y-63626190D01*
X89816666Y-63602380D01*
X89792857Y-63578571D01*
X89769047Y-63530952D01*
X89745238Y-63435714D01*
X89745238Y-63316666D01*
X89769047Y-63221428D01*
X89792857Y-63173809D01*
X89816666Y-63150000D01*
X89864285Y-63126190D01*
%TO.C,R1*%
X31516666Y-36216190D02*
X31350000Y-35978095D01*
X31230952Y-36216190D02*
X31230952Y-35716190D01*
X31421428Y-35716190D01*
X31469047Y-35740000D01*
X31492857Y-35763809D01*
X31516666Y-35811428D01*
X31516666Y-35882857D01*
X31492857Y-35930476D01*
X31469047Y-35954285D01*
X31421428Y-35978095D01*
X31230952Y-35978095D01*
X31992857Y-36216190D02*
X31707142Y-36216190D01*
X31850000Y-36216190D02*
X31850000Y-35716190D01*
X31802380Y-35787619D01*
X31754761Y-35835238D01*
X31707142Y-35859047D01*
%TO.C,Y1*%
X82988095Y-34438095D02*
X83226190Y-34438095D01*
X82726190Y-34604761D02*
X82988095Y-34438095D01*
X82726190Y-34271428D01*
X83226190Y-33842857D02*
X83226190Y-34128571D01*
X83226190Y-33985714D02*
X82726190Y-33985714D01*
X82797619Y-34033333D01*
X82845238Y-34080952D01*
X82869047Y-34128571D01*
%TO.C,C5*%
X38778571Y-60083333D02*
X38802380Y-60107142D01*
X38826190Y-60178571D01*
X38826190Y-60226190D01*
X38802380Y-60297619D01*
X38754761Y-60345238D01*
X38707142Y-60369047D01*
X38611904Y-60392857D01*
X38540476Y-60392857D01*
X38445238Y-60369047D01*
X38397619Y-60345238D01*
X38350000Y-60297619D01*
X38326190Y-60226190D01*
X38326190Y-60178571D01*
X38350000Y-60107142D01*
X38373809Y-60083333D01*
X38326190Y-59630952D02*
X38326190Y-59869047D01*
X38564285Y-59892857D01*
X38540476Y-59869047D01*
X38516666Y-59821428D01*
X38516666Y-59702380D01*
X38540476Y-59654761D01*
X38564285Y-59630952D01*
X38611904Y-59607142D01*
X38730952Y-59607142D01*
X38778571Y-59630952D01*
X38802380Y-59654761D01*
X38826190Y-59702380D01*
X38826190Y-59821428D01*
X38802380Y-59869047D01*
X38778571Y-59892857D01*
%TO.C,SW1*%
X29877380Y-66266666D02*
X29901190Y-66195238D01*
X29901190Y-66076190D01*
X29877380Y-66028571D01*
X29853571Y-66004761D01*
X29805952Y-65980952D01*
X29758333Y-65980952D01*
X29710714Y-66004761D01*
X29686904Y-66028571D01*
X29663095Y-66076190D01*
X29639285Y-66171428D01*
X29615476Y-66219047D01*
X29591666Y-66242857D01*
X29544047Y-66266666D01*
X29496428Y-66266666D01*
X29448809Y-66242857D01*
X29425000Y-66219047D01*
X29401190Y-66171428D01*
X29401190Y-66052380D01*
X29425000Y-65980952D01*
X29401190Y-65814285D02*
X29901190Y-65695238D01*
X29544047Y-65600000D01*
X29901190Y-65504761D01*
X29401190Y-65385714D01*
X29901190Y-64933333D02*
X29901190Y-65219047D01*
X29901190Y-65076190D02*
X29401190Y-65076190D01*
X29472619Y-65123809D01*
X29520238Y-65171428D01*
X29544047Y-65219047D01*
%TO.C,I2C1*%
X37496190Y-79526190D02*
X36996190Y-79526190D01*
X37043809Y-79311904D02*
X37020000Y-79288095D01*
X36996190Y-79240476D01*
X36996190Y-79121428D01*
X37020000Y-79073809D01*
X37043809Y-79050000D01*
X37091428Y-79026190D01*
X37139047Y-79026190D01*
X37210476Y-79050000D01*
X37496190Y-79335714D01*
X37496190Y-79026190D01*
X37448571Y-78526190D02*
X37472380Y-78550000D01*
X37496190Y-78621428D01*
X37496190Y-78669047D01*
X37472380Y-78740476D01*
X37424761Y-78788095D01*
X37377142Y-78811904D01*
X37281904Y-78835714D01*
X37210476Y-78835714D01*
X37115238Y-78811904D01*
X37067619Y-78788095D01*
X37020000Y-78740476D01*
X36996190Y-78669047D01*
X36996190Y-78621428D01*
X37020000Y-78550000D01*
X37043809Y-78526190D01*
X37496190Y-78050000D02*
X37496190Y-78335714D01*
X37496190Y-78192857D02*
X36996190Y-78192857D01*
X37067619Y-78240476D01*
X37115238Y-78288095D01*
X37139047Y-78335714D01*
%TO.C,C3*%
X35178571Y-60083333D02*
X35202380Y-60107142D01*
X35226190Y-60178571D01*
X35226190Y-60226190D01*
X35202380Y-60297619D01*
X35154761Y-60345238D01*
X35107142Y-60369047D01*
X35011904Y-60392857D01*
X34940476Y-60392857D01*
X34845238Y-60369047D01*
X34797619Y-60345238D01*
X34750000Y-60297619D01*
X34726190Y-60226190D01*
X34726190Y-60178571D01*
X34750000Y-60107142D01*
X34773809Y-60083333D01*
X34726190Y-59916666D02*
X34726190Y-59607142D01*
X34916666Y-59773809D01*
X34916666Y-59702380D01*
X34940476Y-59654761D01*
X34964285Y-59630952D01*
X35011904Y-59607142D01*
X35130952Y-59607142D01*
X35178571Y-59630952D01*
X35202380Y-59654761D01*
X35226190Y-59702380D01*
X35226190Y-59845238D01*
X35202380Y-59892857D01*
X35178571Y-59916666D01*
%TO.C,C14*%
X31878571Y-77378571D02*
X31854761Y-77402380D01*
X31783333Y-77426190D01*
X31735714Y-77426190D01*
X31664285Y-77402380D01*
X31616666Y-77354761D01*
X31592857Y-77307142D01*
X31569047Y-77211904D01*
X31569047Y-77140476D01*
X31592857Y-77045238D01*
X31616666Y-76997619D01*
X31664285Y-76950000D01*
X31735714Y-76926190D01*
X31783333Y-76926190D01*
X31854761Y-76950000D01*
X31878571Y-76973809D01*
X32354761Y-77426190D02*
X32069047Y-77426190D01*
X32211904Y-77426190D02*
X32211904Y-76926190D01*
X32164285Y-76997619D01*
X32116666Y-77045238D01*
X32069047Y-77069047D01*
X32783333Y-77092857D02*
X32783333Y-77426190D01*
X32664285Y-76902380D02*
X32545238Y-77259523D01*
X32854761Y-77259523D01*
X80678571Y-77378571D02*
X80654761Y-77402380D01*
X80583333Y-77426190D01*
X80535714Y-77426190D01*
X80464285Y-77402380D01*
X80416666Y-77354761D01*
X80392857Y-77307142D01*
X80369047Y-77211904D01*
X80369047Y-77140476D01*
X80392857Y-77045238D01*
X80416666Y-76997619D01*
X80464285Y-76950000D01*
X80535714Y-76926190D01*
X80583333Y-76926190D01*
X80654761Y-76950000D01*
X80678571Y-76973809D01*
X81154761Y-77426190D02*
X80869047Y-77426190D01*
X81011904Y-77426190D02*
X81011904Y-76926190D01*
X80964285Y-76997619D01*
X80916666Y-77045238D01*
X80869047Y-77069047D01*
X81583333Y-77092857D02*
X81583333Y-77426190D01*
X81464285Y-76902380D02*
X81345238Y-77259523D01*
X81654761Y-77259523D01*
%TO.C,C2*%
X33378571Y-59883333D02*
X33402380Y-59907142D01*
X33426190Y-59978571D01*
X33426190Y-60026190D01*
X33402380Y-60097619D01*
X33354761Y-60145238D01*
X33307142Y-60169047D01*
X33211904Y-60192857D01*
X33140476Y-60192857D01*
X33045238Y-60169047D01*
X32997619Y-60145238D01*
X32950000Y-60097619D01*
X32926190Y-60026190D01*
X32926190Y-59978571D01*
X32950000Y-59907142D01*
X32973809Y-59883333D01*
X32973809Y-59692857D02*
X32950000Y-59669047D01*
X32926190Y-59621428D01*
X32926190Y-59502380D01*
X32950000Y-59454761D01*
X32973809Y-59430952D01*
X33021428Y-59407142D01*
X33069047Y-59407142D01*
X33140476Y-59430952D01*
X33426190Y-59716666D01*
X33426190Y-59407142D01*
%TO.C,USART1*%
X31996190Y-56473809D02*
X32400952Y-56473809D01*
X32448571Y-56450000D01*
X32472380Y-56426190D01*
X32496190Y-56378571D01*
X32496190Y-56283333D01*
X32472380Y-56235714D01*
X32448571Y-56211904D01*
X32400952Y-56188095D01*
X31996190Y-56188095D01*
X32472380Y-55973809D02*
X32496190Y-55902380D01*
X32496190Y-55783333D01*
X32472380Y-55735714D01*
X32448571Y-55711904D01*
X32400952Y-55688095D01*
X32353333Y-55688095D01*
X32305714Y-55711904D01*
X32281904Y-55735714D01*
X32258095Y-55783333D01*
X32234285Y-55878571D01*
X32210476Y-55926190D01*
X32186666Y-55950000D01*
X32139047Y-55973809D01*
X32091428Y-55973809D01*
X32043809Y-55950000D01*
X32020000Y-55926190D01*
X31996190Y-55878571D01*
X31996190Y-55759523D01*
X32020000Y-55688095D01*
X32353333Y-55497619D02*
X32353333Y-55259523D01*
X32496190Y-55545238D02*
X31996190Y-55378571D01*
X32496190Y-55211904D01*
X32496190Y-54759523D02*
X32258095Y-54926190D01*
X32496190Y-55045238D02*
X31996190Y-55045238D01*
X31996190Y-54854761D01*
X32020000Y-54807142D01*
X32043809Y-54783333D01*
X32091428Y-54759523D01*
X32162857Y-54759523D01*
X32210476Y-54783333D01*
X32234285Y-54807142D01*
X32258095Y-54854761D01*
X32258095Y-55045238D01*
X31996190Y-54616666D02*
X31996190Y-54330952D01*
X32496190Y-54473809D02*
X31996190Y-54473809D01*
X32496190Y-53902380D02*
X32496190Y-54188095D01*
X32496190Y-54045238D02*
X31996190Y-54045238D01*
X32067619Y-54092857D01*
X32115238Y-54140476D01*
X32139047Y-54188095D01*
X31996190Y-26473809D02*
X32400952Y-26473809D01*
X32448571Y-26450000D01*
X32472380Y-26426190D01*
X32496190Y-26378571D01*
X32496190Y-26283333D01*
X32472380Y-26235714D01*
X32448571Y-26211904D01*
X32400952Y-26188095D01*
X31996190Y-26188095D01*
X32472380Y-25973809D02*
X32496190Y-25902380D01*
X32496190Y-25783333D01*
X32472380Y-25735714D01*
X32448571Y-25711904D01*
X32400952Y-25688095D01*
X32353333Y-25688095D01*
X32305714Y-25711904D01*
X32281904Y-25735714D01*
X32258095Y-25783333D01*
X32234285Y-25878571D01*
X32210476Y-25926190D01*
X32186666Y-25950000D01*
X32139047Y-25973809D01*
X32091428Y-25973809D01*
X32043809Y-25950000D01*
X32020000Y-25926190D01*
X31996190Y-25878571D01*
X31996190Y-25759523D01*
X32020000Y-25688095D01*
X32353333Y-25497619D02*
X32353333Y-25259523D01*
X32496190Y-25545238D02*
X31996190Y-25378571D01*
X32496190Y-25211904D01*
X32496190Y-24759523D02*
X32258095Y-24926190D01*
X32496190Y-25045238D02*
X31996190Y-25045238D01*
X31996190Y-24854761D01*
X32020000Y-24807142D01*
X32043809Y-24783333D01*
X32091428Y-24759523D01*
X32162857Y-24759523D01*
X32210476Y-24783333D01*
X32234285Y-24807142D01*
X32258095Y-24854761D01*
X32258095Y-25045238D01*
X31996190Y-24616666D02*
X31996190Y-24330952D01*
X32496190Y-24473809D02*
X31996190Y-24473809D01*
X32496190Y-23902380D02*
X32496190Y-24188095D01*
X32496190Y-24045238D02*
X31996190Y-24045238D01*
X32067619Y-24092857D01*
X32115238Y-24140476D01*
X32139047Y-24188095D01*
%TO.C,C9*%
X88316666Y-72778571D02*
X88292857Y-72802380D01*
X88221428Y-72826190D01*
X88173809Y-72826190D01*
X88102380Y-72802380D01*
X88054761Y-72754761D01*
X88030952Y-72707142D01*
X88007142Y-72611904D01*
X88007142Y-72540476D01*
X88030952Y-72445238D01*
X88054761Y-72397619D01*
X88102380Y-72350000D01*
X88173809Y-72326190D01*
X88221428Y-72326190D01*
X88292857Y-72350000D01*
X88316666Y-72373809D01*
X88554761Y-72826190D02*
X88650000Y-72826190D01*
X88697619Y-72802380D01*
X88721428Y-72778571D01*
X88769047Y-72707142D01*
X88792857Y-72611904D01*
X88792857Y-72421428D01*
X88769047Y-72373809D01*
X88745238Y-72350000D01*
X88697619Y-72326190D01*
X88602380Y-72326190D01*
X88554761Y-72350000D01*
X88530952Y-72373809D01*
X88507142Y-72421428D01*
X88507142Y-72540476D01*
X88530952Y-72588095D01*
X88554761Y-72611904D01*
X88602380Y-72635714D01*
X88697619Y-72635714D01*
X88745238Y-72611904D01*
X88769047Y-72588095D01*
X88792857Y-72540476D01*
%TO.C,R2*%
X61026190Y-33483333D02*
X60788095Y-33650000D01*
X61026190Y-33769047D02*
X60526190Y-33769047D01*
X60526190Y-33578571D01*
X60550000Y-33530952D01*
X60573809Y-33507142D01*
X60621428Y-33483333D01*
X60692857Y-33483333D01*
X60740476Y-33507142D01*
X60764285Y-33530952D01*
X60788095Y-33578571D01*
X60788095Y-33769047D01*
X60573809Y-33292857D02*
X60550000Y-33269047D01*
X60526190Y-33221428D01*
X60526190Y-33102380D01*
X60550000Y-33054761D01*
X60573809Y-33030952D01*
X60621428Y-33007142D01*
X60669047Y-33007142D01*
X60740476Y-33030952D01*
X61026190Y-33316666D01*
X61026190Y-33007142D01*
%TO.C,C4*%
X85778571Y-59883333D02*
X85802380Y-59907142D01*
X85826190Y-59978571D01*
X85826190Y-60026190D01*
X85802380Y-60097619D01*
X85754761Y-60145238D01*
X85707142Y-60169047D01*
X85611904Y-60192857D01*
X85540476Y-60192857D01*
X85445238Y-60169047D01*
X85397619Y-60145238D01*
X85350000Y-60097619D01*
X85326190Y-60026190D01*
X85326190Y-59978571D01*
X85350000Y-59907142D01*
X85373809Y-59883333D01*
X85492857Y-59454761D02*
X85826190Y-59454761D01*
X85302380Y-59573809D02*
X85659523Y-59692857D01*
X85659523Y-59383333D01*
%TO.C,C11*%
X88278571Y-36578571D02*
X88254761Y-36602380D01*
X88183333Y-36626190D01*
X88135714Y-36626190D01*
X88064285Y-36602380D01*
X88016666Y-36554761D01*
X87992857Y-36507142D01*
X87969047Y-36411904D01*
X87969047Y-36340476D01*
X87992857Y-36245238D01*
X88016666Y-36197619D01*
X88064285Y-36150000D01*
X88135714Y-36126190D01*
X88183333Y-36126190D01*
X88254761Y-36150000D01*
X88278571Y-36173809D01*
X88754761Y-36626190D02*
X88469047Y-36626190D01*
X88611904Y-36626190D02*
X88611904Y-36126190D01*
X88564285Y-36197619D01*
X88516666Y-36245238D01*
X88469047Y-36269047D01*
X89230952Y-36626190D02*
X88945238Y-36626190D01*
X89088095Y-36626190D02*
X89088095Y-36126190D01*
X89040476Y-36197619D01*
X88992857Y-36245238D01*
X88945238Y-36269047D01*
%TO.C,SW1*%
X78677380Y-66266666D02*
X78701190Y-66195238D01*
X78701190Y-66076190D01*
X78677380Y-66028571D01*
X78653571Y-66004761D01*
X78605952Y-65980952D01*
X78558333Y-65980952D01*
X78510714Y-66004761D01*
X78486904Y-66028571D01*
X78463095Y-66076190D01*
X78439285Y-66171428D01*
X78415476Y-66219047D01*
X78391666Y-66242857D01*
X78344047Y-66266666D01*
X78296428Y-66266666D01*
X78248809Y-66242857D01*
X78225000Y-66219047D01*
X78201190Y-66171428D01*
X78201190Y-66052380D01*
X78225000Y-65980952D01*
X78201190Y-65814285D02*
X78701190Y-65695238D01*
X78344047Y-65600000D01*
X78701190Y-65504761D01*
X78201190Y-65385714D01*
X78701190Y-64933333D02*
X78701190Y-65219047D01*
X78701190Y-65076190D02*
X78201190Y-65076190D01*
X78272619Y-65123809D01*
X78320238Y-65171428D01*
X78344047Y-65219047D01*
%TO.C,C14*%
X80678571Y-47378571D02*
X80654761Y-47402380D01*
X80583333Y-47426190D01*
X80535714Y-47426190D01*
X80464285Y-47402380D01*
X80416666Y-47354761D01*
X80392857Y-47307142D01*
X80369047Y-47211904D01*
X80369047Y-47140476D01*
X80392857Y-47045238D01*
X80416666Y-46997619D01*
X80464285Y-46950000D01*
X80535714Y-46926190D01*
X80583333Y-46926190D01*
X80654761Y-46950000D01*
X80678571Y-46973809D01*
X81154761Y-47426190D02*
X80869047Y-47426190D01*
X81011904Y-47426190D02*
X81011904Y-46926190D01*
X80964285Y-46997619D01*
X80916666Y-47045238D01*
X80869047Y-47069047D01*
X81583333Y-47092857D02*
X81583333Y-47426190D01*
X81464285Y-46902380D02*
X81345238Y-47259523D01*
X81654761Y-47259523D01*
%TO.C,C5*%
X87578571Y-60083333D02*
X87602380Y-60107142D01*
X87626190Y-60178571D01*
X87626190Y-60226190D01*
X87602380Y-60297619D01*
X87554761Y-60345238D01*
X87507142Y-60369047D01*
X87411904Y-60392857D01*
X87340476Y-60392857D01*
X87245238Y-60369047D01*
X87197619Y-60345238D01*
X87150000Y-60297619D01*
X87126190Y-60226190D01*
X87126190Y-60178571D01*
X87150000Y-60107142D01*
X87173809Y-60083333D01*
X87126190Y-59630952D02*
X87126190Y-59869047D01*
X87364285Y-59892857D01*
X87340476Y-59869047D01*
X87316666Y-59821428D01*
X87316666Y-59702380D01*
X87340476Y-59654761D01*
X87364285Y-59630952D01*
X87411904Y-59607142D01*
X87530952Y-59607142D01*
X87578571Y-59630952D01*
X87602380Y-59654761D01*
X87626190Y-59702380D01*
X87626190Y-59821428D01*
X87602380Y-59869047D01*
X87578571Y-59892857D01*
%TO.C,C2*%
X33378571Y-29883333D02*
X33402380Y-29907142D01*
X33426190Y-29978571D01*
X33426190Y-30026190D01*
X33402380Y-30097619D01*
X33354761Y-30145238D01*
X33307142Y-30169047D01*
X33211904Y-30192857D01*
X33140476Y-30192857D01*
X33045238Y-30169047D01*
X32997619Y-30145238D01*
X32950000Y-30097619D01*
X32926190Y-30026190D01*
X32926190Y-29978571D01*
X32950000Y-29907142D01*
X32973809Y-29883333D01*
X32973809Y-29692857D02*
X32950000Y-29669047D01*
X32926190Y-29621428D01*
X32926190Y-29502380D01*
X32950000Y-29454761D01*
X32973809Y-29430952D01*
X33021428Y-29407142D01*
X33069047Y-29407142D01*
X33140476Y-29430952D01*
X33426190Y-29716666D01*
X33426190Y-29407142D01*
%TO.C,R2*%
X61026190Y-63483333D02*
X60788095Y-63650000D01*
X61026190Y-63769047D02*
X60526190Y-63769047D01*
X60526190Y-63578571D01*
X60550000Y-63530952D01*
X60573809Y-63507142D01*
X60621428Y-63483333D01*
X60692857Y-63483333D01*
X60740476Y-63507142D01*
X60764285Y-63530952D01*
X60788095Y-63578571D01*
X60788095Y-63769047D01*
X60573809Y-63292857D02*
X60550000Y-63269047D01*
X60526190Y-63221428D01*
X60526190Y-63102380D01*
X60550000Y-63054761D01*
X60573809Y-63030952D01*
X60621428Y-63007142D01*
X60669047Y-63007142D01*
X60740476Y-63030952D01*
X61026190Y-63316666D01*
X61026190Y-63007142D01*
%TO.C,R3*%
X90026666Y-44626190D02*
X89860000Y-44388095D01*
X89740952Y-44626190D02*
X89740952Y-44126190D01*
X89931428Y-44126190D01*
X89979047Y-44150000D01*
X90002857Y-44173809D01*
X90026666Y-44221428D01*
X90026666Y-44292857D01*
X90002857Y-44340476D01*
X89979047Y-44364285D01*
X89931428Y-44388095D01*
X89740952Y-44388095D01*
X90193333Y-44126190D02*
X90502857Y-44126190D01*
X90336190Y-44316666D01*
X90407619Y-44316666D01*
X90455238Y-44340476D01*
X90479047Y-44364285D01*
X90502857Y-44411904D01*
X90502857Y-44530952D01*
X90479047Y-44578571D01*
X90455238Y-44602380D01*
X90407619Y-44626190D01*
X90264761Y-44626190D01*
X90217142Y-44602380D01*
X90193333Y-44578571D01*
%TO.C,Y1*%
X34188095Y-34438095D02*
X34426190Y-34438095D01*
X33926190Y-34604761D02*
X34188095Y-34438095D01*
X33926190Y-34271428D01*
X34426190Y-33842857D02*
X34426190Y-34128571D01*
X34426190Y-33985714D02*
X33926190Y-33985714D01*
X33997619Y-34033333D01*
X34045238Y-34080952D01*
X34069047Y-34128571D01*
%TO.C,C1*%
X80378571Y-59483333D02*
X80402380Y-59507142D01*
X80426190Y-59578571D01*
X80426190Y-59626190D01*
X80402380Y-59697619D01*
X80354761Y-59745238D01*
X80307142Y-59769047D01*
X80211904Y-59792857D01*
X80140476Y-59792857D01*
X80045238Y-59769047D01*
X79997619Y-59745238D01*
X79950000Y-59697619D01*
X79926190Y-59626190D01*
X79926190Y-59578571D01*
X79950000Y-59507142D01*
X79973809Y-59483333D01*
X80426190Y-59007142D02*
X80426190Y-59292857D01*
X80426190Y-59150000D02*
X79926190Y-59150000D01*
X79997619Y-59197619D01*
X80045238Y-59245238D01*
X80069047Y-59292857D01*
%TO.C,R4*%
X43916666Y-44626190D02*
X43750000Y-44388095D01*
X43630952Y-44626190D02*
X43630952Y-44126190D01*
X43821428Y-44126190D01*
X43869047Y-44150000D01*
X43892857Y-44173809D01*
X43916666Y-44221428D01*
X43916666Y-44292857D01*
X43892857Y-44340476D01*
X43869047Y-44364285D01*
X43821428Y-44388095D01*
X43630952Y-44388095D01*
X44345238Y-44292857D02*
X44345238Y-44626190D01*
X44226190Y-44102380D02*
X44107142Y-44459523D01*
X44416666Y-44459523D01*
%TO.C,R3*%
X41226666Y-44626190D02*
X41060000Y-44388095D01*
X40940952Y-44626190D02*
X40940952Y-44126190D01*
X41131428Y-44126190D01*
X41179047Y-44150000D01*
X41202857Y-44173809D01*
X41226666Y-44221428D01*
X41226666Y-44292857D01*
X41202857Y-44340476D01*
X41179047Y-44364285D01*
X41131428Y-44388095D01*
X40940952Y-44388095D01*
X41393333Y-44126190D02*
X41702857Y-44126190D01*
X41536190Y-44316666D01*
X41607619Y-44316666D01*
X41655238Y-44340476D01*
X41679047Y-44364285D01*
X41702857Y-44411904D01*
X41702857Y-44530952D01*
X41679047Y-44578571D01*
X41655238Y-44602380D01*
X41607619Y-44626190D01*
X41464761Y-44626190D01*
X41417142Y-44602380D01*
X41393333Y-44578571D01*
D12*
%TO.C,USART1*%
X84670000Y-53870000D02*
X92350000Y-53870000D01*
X84670000Y-56530000D02*
X92350000Y-56530000D01*
X82070000Y-56530000D02*
X82070000Y-55200000D01*
X84670000Y-56530000D02*
X84670000Y-53870000D01*
X92350000Y-56530000D02*
X92350000Y-53870000D01*
X83400000Y-56530000D02*
X82070000Y-56530000D01*
%TO.C,SW1*%
X27595000Y-37000000D02*
X27595000Y-37200000D01*
X26545000Y-32150000D02*
X25755000Y-32150000D01*
X23245000Y-34400000D02*
X23245000Y-35300000D01*
X24745000Y-32750000D02*
X24745000Y-38450000D01*
X23455000Y-35500000D02*
X23245000Y-35300000D01*
X25755000Y-39050000D02*
X26545000Y-39050000D01*
X23455000Y-35500000D02*
X24745000Y-35500000D01*
X27595000Y-34000000D02*
X27595000Y-35700000D01*
X24745000Y-34200000D02*
X23455000Y-34200000D01*
X23455000Y-34200000D02*
X23245000Y-34400000D01*
%TO.C,C11*%
X39907836Y-35240000D02*
X39692164Y-35240000D01*
X39907836Y-35960000D02*
X39692164Y-35960000D01*
%TO.C,C4*%
X37960000Y-60107836D02*
X37960000Y-59892164D01*
X37240000Y-60107836D02*
X37240000Y-59892164D01*
%TO.C,C2*%
X83160000Y-60107836D02*
X83160000Y-59892164D01*
X82440000Y-60107836D02*
X82440000Y-59892164D01*
%TO.C,C10*%
X39907836Y-64560000D02*
X39692164Y-64560000D01*
X39907836Y-63840000D02*
X39692164Y-63840000D01*
%TO.C,SW1*%
X72255000Y-35500000D02*
X72045000Y-35300000D01*
X74555000Y-39050000D02*
X75345000Y-39050000D01*
X72255000Y-34200000D02*
X72045000Y-34400000D01*
X72045000Y-34400000D02*
X72045000Y-35300000D01*
X75345000Y-32150000D02*
X74555000Y-32150000D01*
X73545000Y-32750000D02*
X73545000Y-38450000D01*
X76395000Y-34000000D02*
X76395000Y-35700000D01*
X72255000Y-35500000D02*
X73545000Y-35500000D01*
X73545000Y-34200000D02*
X72255000Y-34200000D01*
X76395000Y-37000000D02*
X76395000Y-37200000D01*
%TO.C,C2*%
X83160000Y-30107836D02*
X83160000Y-29892164D01*
X82440000Y-30107836D02*
X82440000Y-29892164D01*
%TO.C,C8*%
X111240000Y-29107836D02*
X111240000Y-28892164D01*
X111960000Y-29107836D02*
X111960000Y-28892164D01*
%TO.C,C3*%
X84240000Y-60107836D02*
X84240000Y-59892164D01*
X84960000Y-60107836D02*
X84960000Y-59892164D01*
%TO.C,R3*%
X89956359Y-74820000D02*
X90263641Y-74820000D01*
X89956359Y-75580000D02*
X90263641Y-75580000D01*
%TO.C,C6*%
X104760000Y-29107836D02*
X104760000Y-28892164D01*
X104040000Y-29107836D02*
X104040000Y-28892164D01*
%TO.C,R4*%
X92646359Y-75580000D02*
X92953641Y-75580000D01*
X92646359Y-74820000D02*
X92953641Y-74820000D01*
%TO.C,L1*%
X108562779Y-59510000D02*
X108237221Y-59510000D01*
X108562779Y-58490000D02*
X108237221Y-58490000D01*
%TO.C,U2*%
X91990000Y-68810000D02*
X91990000Y-68360000D01*
X99210000Y-68810000D02*
X99210000Y-68360000D01*
X98760000Y-68810000D02*
X99210000Y-68810000D01*
X91990000Y-61590000D02*
X91990000Y-62040000D01*
X98760000Y-61590000D02*
X99210000Y-61590000D01*
X92440000Y-68810000D02*
X91990000Y-68810000D01*
X91990000Y-62040000D02*
X90700000Y-62040000D01*
X99210000Y-61590000D02*
X99210000Y-62040000D01*
X92440000Y-61590000D02*
X91990000Y-61590000D01*
%TO.C,Y1*%
X34750000Y-63800000D02*
X34750000Y-67800000D01*
X38050000Y-63800000D02*
X34750000Y-63800000D01*
%TO.C,C4*%
X37240000Y-30107836D02*
X37240000Y-29892164D01*
X37960000Y-30107836D02*
X37960000Y-29892164D01*
%TO.C,R1*%
X31446359Y-67180000D02*
X31753641Y-67180000D01*
X31446359Y-66420000D02*
X31753641Y-66420000D01*
%TO.C,C6*%
X55240000Y-59107836D02*
X55240000Y-58892164D01*
X55960000Y-59107836D02*
X55960000Y-58892164D01*
%TO.C,C13*%
X83538748Y-43865000D02*
X84061252Y-43865000D01*
X83538748Y-45335000D02*
X84061252Y-45335000D01*
%TO.C,C6*%
X104040000Y-59107836D02*
X104040000Y-58892164D01*
X104760000Y-59107836D02*
X104760000Y-58892164D01*
%TO.C,C8*%
X62440000Y-29107836D02*
X62440000Y-28892164D01*
X63160000Y-29107836D02*
X63160000Y-28892164D01*
%TO.C,J3*%
X51270000Y-56530000D02*
X51270000Y-53870000D01*
X58950000Y-56530000D02*
X58950000Y-53870000D01*
X51270000Y-56530000D02*
X58950000Y-56530000D01*
X51270000Y-53870000D02*
X58950000Y-53870000D01*
X48670000Y-56530000D02*
X48670000Y-55200000D01*
X50000000Y-56530000D02*
X48670000Y-56530000D01*
%TO.C,C13*%
X83538748Y-75335000D02*
X84061252Y-75335000D01*
X83538748Y-73865000D02*
X84061252Y-73865000D01*
%TO.C,C1*%
X80640000Y-30107836D02*
X80640000Y-29892164D01*
X81360000Y-30107836D02*
X81360000Y-29892164D01*
%TO.C,C10*%
X39907836Y-33840000D02*
X39692164Y-33840000D01*
X39907836Y-34560000D02*
X39692164Y-34560000D01*
%TO.C,C4*%
X86040000Y-30107836D02*
X86040000Y-29892164D01*
X86760000Y-30107836D02*
X86760000Y-29892164D01*
%TO.C,C10*%
X88707836Y-34560000D02*
X88492164Y-34560000D01*
X88707836Y-33840000D02*
X88492164Y-33840000D01*
%TO.C,L1*%
X59762779Y-59510000D02*
X59437221Y-59510000D01*
X59762779Y-58490000D02*
X59437221Y-58490000D01*
%TO.C,C9*%
X39707836Y-41440000D02*
X39492164Y-41440000D01*
X39707836Y-42160000D02*
X39492164Y-42160000D01*
%TO.C,U2*%
X43190000Y-61590000D02*
X43190000Y-62040000D01*
X50410000Y-68810000D02*
X50410000Y-68360000D01*
X43640000Y-61590000D02*
X43190000Y-61590000D01*
X43190000Y-68810000D02*
X43190000Y-68360000D01*
X49960000Y-61590000D02*
X50410000Y-61590000D01*
X43640000Y-68810000D02*
X43190000Y-68810000D01*
X50410000Y-61590000D02*
X50410000Y-62040000D01*
X43190000Y-62040000D02*
X41900000Y-62040000D01*
X49960000Y-68810000D02*
X50410000Y-68810000D01*
%TO.C,R1*%
X80246359Y-36420000D02*
X80553641Y-36420000D01*
X80246359Y-37180000D02*
X80553641Y-37180000D01*
%TO.C,U1*%
X56550000Y-48610000D02*
X60310000Y-48610000D01*
X60310000Y-48610000D02*
X60310000Y-47350000D01*
X54300000Y-41790000D02*
X60310000Y-41790000D01*
X60310000Y-41790000D02*
X60310000Y-43050000D01*
%TO.C,C9*%
X88507836Y-41440000D02*
X88292164Y-41440000D01*
X88507836Y-42160000D02*
X88292164Y-42160000D01*
%TO.C,J3*%
X100070000Y-23870000D02*
X107750000Y-23870000D01*
X97470000Y-26530000D02*
X97470000Y-25200000D01*
X100070000Y-26530000D02*
X107750000Y-26530000D01*
X98800000Y-26530000D02*
X97470000Y-26530000D01*
X107750000Y-26530000D02*
X107750000Y-23870000D01*
X100070000Y-26530000D02*
X100070000Y-23870000D01*
%TO.C,C11*%
X39907836Y-65960000D02*
X39692164Y-65960000D01*
X39907836Y-65240000D02*
X39692164Y-65240000D01*
%TO.C,I2C1*%
X40870000Y-50130000D02*
X40870000Y-47470000D01*
X40870000Y-47470000D02*
X48550000Y-47470000D01*
X40870000Y-50130000D02*
X48550000Y-50130000D01*
X39600000Y-50130000D02*
X38270000Y-50130000D01*
X48550000Y-50130000D02*
X48550000Y-47470000D01*
X38270000Y-50130000D02*
X38270000Y-48800000D01*
%TO.C,C8*%
X111960000Y-59107836D02*
X111960000Y-58892164D01*
X111240000Y-59107836D02*
X111240000Y-58892164D01*
%TO.C,R4*%
X43846359Y-74820000D02*
X44153641Y-74820000D01*
X43846359Y-75580000D02*
X44153641Y-75580000D01*
%TO.C,R3*%
X41156359Y-74820000D02*
X41463641Y-74820000D01*
X41156359Y-75580000D02*
X41463641Y-75580000D01*
%TO.C,Y1*%
X83550000Y-63800000D02*
X83550000Y-67800000D01*
X86850000Y-63800000D02*
X83550000Y-63800000D01*
%TO.C,I2C1*%
X89670000Y-50130000D02*
X89670000Y-47470000D01*
X87070000Y-50130000D02*
X87070000Y-48800000D01*
X88400000Y-50130000D02*
X87070000Y-50130000D01*
X89670000Y-47470000D02*
X97350000Y-47470000D01*
X89670000Y-50130000D02*
X97350000Y-50130000D01*
X97350000Y-50130000D02*
X97350000Y-47470000D01*
%TO.C,R1*%
X80246359Y-66420000D02*
X80553641Y-66420000D01*
X80246359Y-67180000D02*
X80553641Y-67180000D01*
%TO.C,C8*%
X63160000Y-59107836D02*
X63160000Y-58892164D01*
X62440000Y-59107836D02*
X62440000Y-58892164D01*
%TO.C,R4*%
X92646359Y-45580000D02*
X92953641Y-45580000D01*
X92646359Y-44820000D02*
X92953641Y-44820000D01*
%TO.C,C7*%
X57760000Y-59107836D02*
X57760000Y-58892164D01*
X57040000Y-59107836D02*
X57040000Y-58892164D01*
%TO.C,C1*%
X32560000Y-60107836D02*
X32560000Y-59892164D01*
X31840000Y-60107836D02*
X31840000Y-59892164D01*
%TO.C,J3*%
X100070000Y-56530000D02*
X100070000Y-53870000D01*
X100070000Y-53870000D02*
X107750000Y-53870000D01*
X98800000Y-56530000D02*
X97470000Y-56530000D01*
X97470000Y-56530000D02*
X97470000Y-55200000D01*
X100070000Y-56530000D02*
X107750000Y-56530000D01*
X107750000Y-56530000D02*
X107750000Y-53870000D01*
%TO.C,C5*%
X88560000Y-30107836D02*
X88560000Y-29892164D01*
X87840000Y-30107836D02*
X87840000Y-29892164D01*
%TO.C,L1*%
X108562779Y-29510000D02*
X108237221Y-29510000D01*
X108562779Y-28490000D02*
X108237221Y-28490000D01*
%TO.C,C3*%
X36160000Y-30107836D02*
X36160000Y-29892164D01*
X35440000Y-30107836D02*
X35440000Y-29892164D01*
%TO.C,C11*%
X88707836Y-65960000D02*
X88492164Y-65960000D01*
X88707836Y-65240000D02*
X88492164Y-65240000D01*
%TO.C,C13*%
X34738748Y-75335000D02*
X35261252Y-75335000D01*
X34738748Y-73865000D02*
X35261252Y-73865000D01*
%TO.C,C7*%
X105840000Y-29107836D02*
X105840000Y-28892164D01*
X106560000Y-29107836D02*
X106560000Y-28892164D01*
%TO.C,L1*%
X59762779Y-29510000D02*
X59437221Y-29510000D01*
X59762779Y-28490000D02*
X59437221Y-28490000D01*
%TO.C,C6*%
X55240000Y-29107836D02*
X55240000Y-28892164D01*
X55960000Y-29107836D02*
X55960000Y-28892164D01*
%TO.C,U2*%
X91990000Y-32040000D02*
X90700000Y-32040000D01*
X98760000Y-38810000D02*
X99210000Y-38810000D01*
X91990000Y-38810000D02*
X91990000Y-38360000D01*
X98760000Y-31590000D02*
X99210000Y-31590000D01*
X99210000Y-38810000D02*
X99210000Y-38360000D01*
X91990000Y-31590000D02*
X91990000Y-32040000D01*
X92440000Y-38810000D02*
X91990000Y-38810000D01*
X92440000Y-31590000D02*
X91990000Y-31590000D01*
X99210000Y-31590000D02*
X99210000Y-32040000D01*
%TO.C,J3*%
X48670000Y-26530000D02*
X48670000Y-25200000D01*
X51270000Y-26530000D02*
X51270000Y-23870000D01*
X51270000Y-26530000D02*
X58950000Y-26530000D01*
X50000000Y-26530000D02*
X48670000Y-26530000D01*
X58950000Y-26530000D02*
X58950000Y-23870000D01*
X51270000Y-23870000D02*
X58950000Y-23870000D01*
%TO.C,C5*%
X39040000Y-30107836D02*
X39040000Y-29892164D01*
X39760000Y-30107836D02*
X39760000Y-29892164D01*
%TO.C,C14*%
X35061252Y-48535000D02*
X34538748Y-48535000D01*
X35061252Y-47065000D02*
X34538748Y-47065000D01*
%TO.C,C9*%
X39707836Y-72160000D02*
X39492164Y-72160000D01*
X39707836Y-71440000D02*
X39492164Y-71440000D01*
%TO.C,R2*%
X109180000Y-63246359D02*
X109180000Y-63553641D01*
X108420000Y-63246359D02*
X108420000Y-63553641D01*
%TO.C,I2C1*%
X89670000Y-77470000D02*
X97350000Y-77470000D01*
X89670000Y-80130000D02*
X97350000Y-80130000D01*
X88400000Y-80130000D02*
X87070000Y-80130000D01*
X97350000Y-80130000D02*
X97350000Y-77470000D01*
X89670000Y-80130000D02*
X89670000Y-77470000D01*
X87070000Y-80130000D02*
X87070000Y-78800000D01*
%TO.C,C13*%
X34738748Y-43865000D02*
X35261252Y-43865000D01*
X34738748Y-45335000D02*
X35261252Y-45335000D01*
%TO.C,U1*%
X103100000Y-71790000D02*
X109110000Y-71790000D01*
X109110000Y-71790000D02*
X109110000Y-73050000D01*
X105350000Y-78610000D02*
X109110000Y-78610000D01*
X109110000Y-78610000D02*
X109110000Y-77350000D01*
%TO.C,C1*%
X31840000Y-30107836D02*
X31840000Y-29892164D01*
X32560000Y-30107836D02*
X32560000Y-29892164D01*
%TO.C,USART1*%
X82070000Y-26530000D02*
X82070000Y-25200000D01*
X83400000Y-26530000D02*
X82070000Y-26530000D01*
X84670000Y-23870000D02*
X92350000Y-23870000D01*
X92350000Y-26530000D02*
X92350000Y-23870000D01*
X84670000Y-26530000D02*
X92350000Y-26530000D01*
X84670000Y-26530000D02*
X84670000Y-23870000D01*
%TO.C,U1*%
X103100000Y-41790000D02*
X109110000Y-41790000D01*
X109110000Y-48610000D02*
X109110000Y-47350000D01*
X109110000Y-41790000D02*
X109110000Y-43050000D01*
X105350000Y-48610000D02*
X109110000Y-48610000D01*
X60310000Y-71790000D02*
X60310000Y-73050000D01*
X56550000Y-78610000D02*
X60310000Y-78610000D01*
X60310000Y-78610000D02*
X60310000Y-77350000D01*
X54300000Y-71790000D02*
X60310000Y-71790000D01*
%TO.C,C7*%
X57040000Y-29107836D02*
X57040000Y-28892164D01*
X57760000Y-29107836D02*
X57760000Y-28892164D01*
%TO.C,C3*%
X84240000Y-30107836D02*
X84240000Y-29892164D01*
X84960000Y-30107836D02*
X84960000Y-29892164D01*
%TO.C,C7*%
X105840000Y-59107836D02*
X105840000Y-58892164D01*
X106560000Y-59107836D02*
X106560000Y-58892164D01*
%TO.C,U2*%
X49960000Y-38810000D02*
X50410000Y-38810000D01*
X50410000Y-38810000D02*
X50410000Y-38360000D01*
X43640000Y-31590000D02*
X43190000Y-31590000D01*
X43190000Y-31590000D02*
X43190000Y-32040000D01*
X43640000Y-38810000D02*
X43190000Y-38810000D01*
X50410000Y-31590000D02*
X50410000Y-32040000D01*
X49960000Y-31590000D02*
X50410000Y-31590000D01*
X43190000Y-32040000D02*
X41900000Y-32040000D01*
X43190000Y-38810000D02*
X43190000Y-38360000D01*
%TO.C,R2*%
X109180000Y-33246359D02*
X109180000Y-33553641D01*
X108420000Y-33246359D02*
X108420000Y-33553641D01*
D10*
%TO.C,J2*%
X111820000Y-67075000D02*
X111820000Y-67800000D01*
X112245000Y-64200000D02*
X112245000Y-63200000D01*
X117945000Y-69850000D02*
X118395000Y-69850000D01*
X113995000Y-70150000D02*
X115395000Y-70150000D01*
X115395000Y-61850000D02*
X113995000Y-61850000D01*
X112245000Y-67800000D02*
X112245000Y-68800000D01*
X117945000Y-62150000D02*
X117945000Y-61850000D01*
X118395000Y-62150000D02*
X117945000Y-62150000D01*
X117945000Y-61850000D02*
X117795000Y-61850000D01*
X117945000Y-70150000D02*
X117945000Y-69850000D01*
X111820000Y-67800000D02*
X112245000Y-67800000D01*
X117795000Y-70150000D02*
X117945000Y-70150000D01*
X118395000Y-32150000D02*
X117945000Y-32150000D01*
X111820000Y-37800000D02*
X112245000Y-37800000D01*
X117945000Y-31850000D02*
X117795000Y-31850000D01*
X115395000Y-31850000D02*
X113995000Y-31850000D01*
X113995000Y-40150000D02*
X115395000Y-40150000D01*
X117945000Y-39850000D02*
X118395000Y-39850000D01*
X117945000Y-40150000D02*
X117945000Y-39850000D01*
X112245000Y-34200000D02*
X112245000Y-33200000D01*
X112245000Y-37800000D02*
X112245000Y-38800000D01*
X117945000Y-32150000D02*
X117945000Y-31850000D01*
X111820000Y-37075000D02*
X111820000Y-37800000D01*
X117795000Y-40150000D02*
X117945000Y-40150000D01*
D12*
%TO.C,C10*%
X88707836Y-64560000D02*
X88492164Y-64560000D01*
X88707836Y-63840000D02*
X88492164Y-63840000D01*
%TO.C,R1*%
X31446359Y-37180000D02*
X31753641Y-37180000D01*
X31446359Y-36420000D02*
X31753641Y-36420000D01*
%TO.C,Y1*%
X83550000Y-33800000D02*
X83550000Y-37800000D01*
X86850000Y-33800000D02*
X83550000Y-33800000D01*
%TO.C,C5*%
X39040000Y-60107836D02*
X39040000Y-59892164D01*
X39760000Y-60107836D02*
X39760000Y-59892164D01*
%TO.C,SW1*%
X26545000Y-62150000D02*
X25755000Y-62150000D01*
X25755000Y-69050000D02*
X26545000Y-69050000D01*
X23455000Y-65500000D02*
X24745000Y-65500000D01*
X27595000Y-67000000D02*
X27595000Y-67200000D01*
X23455000Y-64200000D02*
X23245000Y-64400000D01*
X24745000Y-64200000D02*
X23455000Y-64200000D01*
X23245000Y-64400000D02*
X23245000Y-65300000D01*
X23455000Y-65500000D02*
X23245000Y-65300000D01*
X27595000Y-64000000D02*
X27595000Y-65700000D01*
X24745000Y-62750000D02*
X24745000Y-68450000D01*
%TO.C,I2C1*%
X39600000Y-80130000D02*
X38270000Y-80130000D01*
X40870000Y-80130000D02*
X40870000Y-77470000D01*
X48550000Y-80130000D02*
X48550000Y-77470000D01*
X40870000Y-77470000D02*
X48550000Y-77470000D01*
X38270000Y-80130000D02*
X38270000Y-78800000D01*
X40870000Y-80130000D02*
X48550000Y-80130000D01*
%TO.C,C3*%
X36160000Y-60107836D02*
X36160000Y-59892164D01*
X35440000Y-60107836D02*
X35440000Y-59892164D01*
%TO.C,C14*%
X35061252Y-78535000D02*
X34538748Y-78535000D01*
X35061252Y-77065000D02*
X34538748Y-77065000D01*
X83861252Y-78535000D02*
X83338748Y-78535000D01*
X83861252Y-77065000D02*
X83338748Y-77065000D01*
%TO.C,C2*%
X34360000Y-60107836D02*
X34360000Y-59892164D01*
X33640000Y-60107836D02*
X33640000Y-59892164D01*
%TO.C,USART1*%
X34600000Y-56530000D02*
X33270000Y-56530000D01*
X35870000Y-53870000D02*
X43550000Y-53870000D01*
X35870000Y-56530000D02*
X35870000Y-53870000D01*
X35870000Y-56530000D02*
X43550000Y-56530000D01*
X33270000Y-56530000D02*
X33270000Y-55200000D01*
X43550000Y-56530000D02*
X43550000Y-53870000D01*
X35870000Y-26530000D02*
X35870000Y-23870000D01*
X34600000Y-26530000D02*
X33270000Y-26530000D01*
X43550000Y-26530000D02*
X43550000Y-23870000D01*
X35870000Y-26530000D02*
X43550000Y-26530000D01*
X35870000Y-23870000D02*
X43550000Y-23870000D01*
X33270000Y-26530000D02*
X33270000Y-25200000D01*
D10*
%TO.C,J2*%
X69145000Y-39850000D02*
X69595000Y-39850000D01*
X69595000Y-32150000D02*
X69145000Y-32150000D01*
X65195000Y-40150000D02*
X66595000Y-40150000D01*
X63020000Y-37075000D02*
X63020000Y-37800000D01*
X63020000Y-37800000D02*
X63445000Y-37800000D01*
X69145000Y-32150000D02*
X69145000Y-31850000D01*
X63445000Y-37800000D02*
X63445000Y-38800000D01*
X69145000Y-40150000D02*
X69145000Y-39850000D01*
X69145000Y-31850000D02*
X68995000Y-31850000D01*
X63445000Y-34200000D02*
X63445000Y-33200000D01*
X68995000Y-40150000D02*
X69145000Y-40150000D01*
X66595000Y-31850000D02*
X65195000Y-31850000D01*
D12*
%TO.C,C9*%
X88507836Y-71440000D02*
X88292164Y-71440000D01*
X88507836Y-72160000D02*
X88292164Y-72160000D01*
%TO.C,R2*%
X59620000Y-33246359D02*
X59620000Y-33553641D01*
X60380000Y-33246359D02*
X60380000Y-33553641D01*
%TO.C,C4*%
X86760000Y-60107836D02*
X86760000Y-59892164D01*
X86040000Y-60107836D02*
X86040000Y-59892164D01*
%TO.C,C11*%
X88707836Y-35240000D02*
X88492164Y-35240000D01*
X88707836Y-35960000D02*
X88492164Y-35960000D01*
%TO.C,SW1*%
X72255000Y-64200000D02*
X72045000Y-64400000D01*
X72255000Y-65500000D02*
X73545000Y-65500000D01*
X73545000Y-62750000D02*
X73545000Y-68450000D01*
X72045000Y-64400000D02*
X72045000Y-65300000D01*
X75345000Y-62150000D02*
X74555000Y-62150000D01*
X76395000Y-67000000D02*
X76395000Y-67200000D01*
X74555000Y-69050000D02*
X75345000Y-69050000D01*
X76395000Y-64000000D02*
X76395000Y-65700000D01*
X73545000Y-64200000D02*
X72255000Y-64200000D01*
X72255000Y-65500000D02*
X72045000Y-65300000D01*
%TO.C,C14*%
X83861252Y-47065000D02*
X83338748Y-47065000D01*
X83861252Y-48535000D02*
X83338748Y-48535000D01*
%TO.C,C5*%
X88560000Y-60107836D02*
X88560000Y-59892164D01*
X87840000Y-60107836D02*
X87840000Y-59892164D01*
D10*
%TO.C,J2*%
X63445000Y-64200000D02*
X63445000Y-63200000D01*
X69595000Y-62150000D02*
X69145000Y-62150000D01*
X63020000Y-67075000D02*
X63020000Y-67800000D01*
X69145000Y-62150000D02*
X69145000Y-61850000D01*
X69145000Y-70150000D02*
X69145000Y-69850000D01*
X66595000Y-61850000D02*
X65195000Y-61850000D01*
X65195000Y-70150000D02*
X66595000Y-70150000D01*
X63020000Y-67800000D02*
X63445000Y-67800000D01*
X63445000Y-67800000D02*
X63445000Y-68800000D01*
X68995000Y-70150000D02*
X69145000Y-70150000D01*
X69145000Y-61850000D02*
X68995000Y-61850000D01*
X69145000Y-69850000D02*
X69595000Y-69850000D01*
D12*
%TO.C,C2*%
X34360000Y-30107836D02*
X34360000Y-29892164D01*
X33640000Y-30107836D02*
X33640000Y-29892164D01*
%TO.C,R2*%
X60380000Y-63246359D02*
X60380000Y-63553641D01*
X59620000Y-63246359D02*
X59620000Y-63553641D01*
%TO.C,R3*%
X89956359Y-45580000D02*
X90263641Y-45580000D01*
X89956359Y-44820000D02*
X90263641Y-44820000D01*
%TO.C,Y1*%
X34750000Y-33800000D02*
X34750000Y-37800000D01*
X38050000Y-33800000D02*
X34750000Y-33800000D01*
%TO.C,C1*%
X80640000Y-60107836D02*
X80640000Y-59892164D01*
X81360000Y-60107836D02*
X81360000Y-59892164D01*
%TO.C,R4*%
X43846359Y-45580000D02*
X44153641Y-45580000D01*
X43846359Y-44820000D02*
X44153641Y-44820000D01*
%TO.C,R3*%
X41156359Y-44820000D02*
X41463641Y-44820000D01*
X41156359Y-45580000D02*
X41463641Y-45580000D01*
%TD*%
M02*
