%TF.GenerationSoftware,KiCad,Pcbnew,(6.0.7)*%
%TF.CreationDate,2022-10-16T00:38:09+07:00*%
%TF.ProjectId,bai1,62616931-2e6b-4696-9361-645f70636258,rev?*%
%TF.SameCoordinates,Original*%
%TF.FileFunction,Paste,Top*%
%TF.FilePolarity,Positive*%
%FSLAX46Y46*%
G04 Gerber Fmt 4.6, Leading zero omitted, Abs format (unit mm)*
G04 Created by KiCad (PCBNEW (6.0.7)) date 2022-10-16 00:38:09*
%MOMM*%
%LPD*%
G01*
G04 APERTURE LIST*
G04 Aperture macros list*
%AMRoundRect*
0 Rectangle with rounded corners*
0 $1 Rounding radius*
0 $2 $3 $4 $5 $6 $7 $8 $9 X,Y pos of 4 corners*
0 Add a 4 corners polygon primitive as box body*
4,1,4,$2,$3,$4,$5,$6,$7,$8,$9,$2,$3,0*
0 Add four circle primitives for the rounded corners*
1,1,$1+$1,$2,$3*
1,1,$1+$1,$4,$5*
1,1,$1+$1,$6,$7*
1,1,$1+$1,$8,$9*
0 Add four rect primitives between the rounded corners*
20,1,$1+$1,$2,$3,$4,$5,0*
20,1,$1+$1,$4,$5,$6,$7,0*
20,1,$1+$1,$6,$7,$8,$9,0*
20,1,$1+$1,$8,$9,$2,$3,0*%
G04 Aperture macros list end*
%ADD10R,1.200000X1.400000*%
%ADD11R,1.500000X0.700000*%
%ADD12R,0.800000X1.000000*%
%ADD13R,1.300000X0.450000*%
%ADD14RoundRect,0.075000X-0.662500X-0.075000X0.662500X-0.075000X0.662500X0.075000X-0.662500X0.075000X0*%
%ADD15RoundRect,0.075000X-0.075000X-0.662500X0.075000X-0.662500X0.075000X0.662500X-0.075000X0.662500X0*%
%ADD16RoundRect,0.140000X0.170000X-0.140000X0.170000X0.140000X-0.170000X0.140000X-0.170000X-0.140000X0*%
%ADD17RoundRect,0.250000X0.250000X0.475000X-0.250000X0.475000X-0.250000X-0.475000X0.250000X-0.475000X0*%
%ADD18RoundRect,0.135000X-0.135000X-0.185000X0.135000X-0.185000X0.135000X0.185000X-0.135000X0.185000X0*%
%ADD19RoundRect,0.140000X0.140000X0.170000X-0.140000X0.170000X-0.140000X-0.170000X0.140000X-0.170000X0*%
%ADD20RoundRect,0.135000X-0.185000X0.135000X-0.185000X-0.135000X0.185000X-0.135000X0.185000X0.135000X0*%
%ADD21RoundRect,0.250000X-0.250000X-0.475000X0.250000X-0.475000X0.250000X0.475000X-0.250000X0.475000X0*%
%ADD22R,2.000000X1.500000*%
%ADD23R,2.000000X3.800000*%
%ADD24RoundRect,0.218750X0.218750X0.256250X-0.218750X0.256250X-0.218750X-0.256250X0.218750X-0.256250X0*%
G04 APERTURE END LIST*
D10*
%TO.C,Y1*%
X72150000Y-75500000D03*
X72150000Y-77700000D03*
X73850000Y-77700000D03*
X73850000Y-75500000D03*
%TD*%
D11*
%TO.C,SW1*%
X64505000Y-78650000D03*
X64505000Y-77150000D03*
X64505000Y-74150000D03*
D12*
X63855000Y-72750000D03*
X61645000Y-80050000D03*
X61645000Y-72750000D03*
X63855000Y-80050000D03*
%TD*%
D13*
%TO.C,J2*%
X100545000Y-78100000D03*
X100545000Y-77450000D03*
X100545000Y-76800000D03*
X100545000Y-76150000D03*
X100545000Y-75500000D03*
%TD*%
D14*
%TO.C,U2*%
X79237500Y-73250000D03*
X79237500Y-73750000D03*
X79237500Y-74250000D03*
X79237500Y-74750000D03*
X79237500Y-75250000D03*
X79237500Y-75750000D03*
X79237500Y-76250000D03*
X79237500Y-76750000D03*
X79237500Y-77250000D03*
X79237500Y-77750000D03*
X79237500Y-78250000D03*
X79237500Y-78750000D03*
D15*
X80650000Y-80162500D03*
X81150000Y-80162500D03*
X81650000Y-80162500D03*
X82150000Y-80162500D03*
X82650000Y-80162500D03*
X83150000Y-80162500D03*
X83650000Y-80162500D03*
X84150000Y-80162500D03*
X84650000Y-80162500D03*
X85150000Y-80162500D03*
X85650000Y-80162500D03*
X86150000Y-80162500D03*
D14*
X87562500Y-78750000D03*
X87562500Y-78250000D03*
X87562500Y-77750000D03*
X87562500Y-77250000D03*
X87562500Y-76750000D03*
X87562500Y-76250000D03*
X87562500Y-75750000D03*
X87562500Y-75250000D03*
X87562500Y-74750000D03*
X87562500Y-74250000D03*
X87562500Y-73750000D03*
X87562500Y-73250000D03*
D15*
X86150000Y-71837500D03*
X85650000Y-71837500D03*
X85150000Y-71837500D03*
X84650000Y-71837500D03*
X84150000Y-71837500D03*
X83650000Y-71837500D03*
X83150000Y-71837500D03*
X82650000Y-71837500D03*
X82150000Y-71837500D03*
X81650000Y-71837500D03*
X81150000Y-71837500D03*
X80650000Y-71837500D03*
%TD*%
D16*
%TO.C,C7*%
X94000000Y-70280000D03*
X94000000Y-69320000D03*
%TD*%
D17*
%TO.C,C14*%
X72350000Y-88600000D03*
X70450000Y-88600000D03*
%TD*%
D16*
%TO.C,C8*%
X99400000Y-70280000D03*
X99400000Y-69320000D03*
%TD*%
D18*
%TO.C,R3*%
X77400000Y-86000000D03*
X78420000Y-86000000D03*
%TD*%
D16*
%TO.C,C3*%
X72400000Y-71280000D03*
X72400000Y-70320000D03*
%TD*%
%TO.C,C4*%
X74200000Y-71280000D03*
X74200000Y-70320000D03*
%TD*%
D19*
%TO.C,C10*%
X76880000Y-75000000D03*
X75920000Y-75000000D03*
%TD*%
D20*
%TO.C,R2*%
X96600000Y-74710000D03*
X96600000Y-73690000D03*
%TD*%
D21*
%TO.C,C13*%
X70650000Y-85400000D03*
X72550000Y-85400000D03*
%TD*%
D22*
%TO.C,U1*%
X91850000Y-83700000D03*
D23*
X98150000Y-86000000D03*
D22*
X91850000Y-86000000D03*
X91850000Y-88300000D03*
%TD*%
D16*
%TO.C,C6*%
X92200000Y-70280000D03*
X92200000Y-69320000D03*
%TD*%
D24*
%TO.C,L1*%
X96987500Y-69800000D03*
X95412500Y-69800000D03*
%TD*%
D19*
%TO.C,C11*%
X76880000Y-76400000D03*
X75920000Y-76400000D03*
%TD*%
D16*
%TO.C,C1*%
X68800000Y-71280000D03*
X68800000Y-70320000D03*
%TD*%
D18*
%TO.C,R1*%
X67690000Y-77600000D03*
X68710000Y-77600000D03*
%TD*%
D16*
%TO.C,C2*%
X70600000Y-71280000D03*
X70600000Y-70320000D03*
%TD*%
D18*
%TO.C,R4*%
X80090000Y-86000000D03*
X81110000Y-86000000D03*
%TD*%
D16*
%TO.C,C5*%
X76000000Y-71280000D03*
X76000000Y-70320000D03*
%TD*%
D19*
%TO.C,C9*%
X76680000Y-82600000D03*
X75720000Y-82600000D03*
%TD*%
M02*
