M48
; DRILL file {KiCad (6.0.7)} date Fri Nov 18 16:04:50 2022
; FORMAT={-:-/ absolute / inch / decimal}
; #@! TF.CreationDate,2022-11-18T16:04:50+07:00
; #@! TF.GenerationSoftware,Kicad,Pcbnew,(6.0.7)
; #@! TF.FileFunction,Plated,1,2,PTH
FMAT,2
INCH
; #@! TA.AperFunction,Plated,PTH,ViaDrill
T1C0.0157
; #@! TA.AperFunction,Plated,PTH,ComponentDrill
T2C0.0217
; #@! TA.AperFunction,Plated,PTH,ComponentDrill
T3C0.0335
; #@! TA.AperFunction,Plated,PTH,ComponentDrill
T4C0.0394
%
G90
G05
T1
X1.0315Y-1.6378
X1.0315Y-1.7323
X1.0315Y-2.8189
X1.0315Y-2.9134
X1.1339Y-1.1732
X1.1339Y-2.3543
X1.1811Y-1.6457
X1.1811Y-2.8268
X1.2126Y-1.7874
X1.2126Y-2.9685
X1.2205Y-1.8898
X1.2205Y-3.0709
X1.3386Y-1.4488
X1.3386Y-2.6299
X1.4724Y-1.2992
X1.4724Y-1.6535
X1.4724Y-2.4803
X1.4724Y-2.8346
X1.5669Y-1.4803
X1.5669Y-2.6614
X1.5999Y-1.1476
X1.5999Y-2.3287
X1.6063Y-1.7244
X1.6063Y-2.9055
X1.6142Y-1.5433
X1.6142Y-2.7244
X1.6535Y-1.2283
X1.6535Y-2.4094
X1.6772Y-1.7244
X1.6772Y-2.9055
X1.7008Y-1.1417
X1.7008Y-2.3228
X1.7402Y-1.7323
X1.7402Y-2.9134
X1.7559Y-1.2913
X1.7559Y-2.4724
X1.7638Y-1.4409
X1.7638Y-2.622
X1.7795Y-1.0709
X1.7795Y-1.1319
X1.7795Y-2.252
X1.7795Y-2.313
X1.8031Y-0.9921
X1.8031Y-2.1732
X1.8268Y-1.7638
X1.8268Y-2.9449
X1.8346Y-1.3386
X1.8346Y-2.5197
X1.8439Y-1.0856
X1.8439Y-2.2667
X1.8661Y-1.3937
X1.8661Y-1.4882
X1.8661Y-2.5748
X1.8661Y-2.6693
X1.8898Y-1.3307
X1.8898Y-2.5118
X1.9134Y-1.1024
X1.9134Y-2.2835
X1.9291Y-1.6929
X1.9291Y-2.874
X1.9449Y-1.2992
X1.9449Y-2.4803
X1.9685Y-1.9291
X1.9685Y-3.1102
X2.0Y-1.1024
X2.0Y-2.2835
X2.0709Y-1.0738
X2.0709Y-2.2549
X2.1024Y-1.685
X2.1024Y-1.8189
X2.1024Y-2.8661
X2.1024Y-3.0
X2.1811Y-1.9449
X2.1811Y-3.126
X2.2126Y-1.4882
X2.2126Y-2.6693
X2.2598Y-1.2835
X2.2598Y-2.4646
X2.3858Y-0.9921
X2.3858Y-2.1732
X2.4094Y-1.9449
X2.4094Y-3.126
X2.4252Y-1.2756
X2.4252Y-2.4567
X2.4488Y-1.0315
X2.4488Y-2.2126
X2.4567Y-0.9606
X2.4567Y-2.1417
X2.5748Y-1.7323
X2.5748Y-2.9134
X2.6299Y-1.1811
X2.6299Y-2.3622
X2.9528Y-1.6378
X2.9528Y-1.7323
X2.9528Y-2.8189
X2.9528Y-2.9134
X3.0551Y-1.1732
X3.0551Y-2.3543
X3.1024Y-1.6457
X3.1024Y-2.8268
X3.1339Y-1.7874
X3.1339Y-2.9685
X3.1417Y-1.8898
X3.1417Y-3.0709
X3.2598Y-1.4488
X3.2598Y-2.6299
X3.3937Y-1.2992
X3.3937Y-1.6535
X3.3937Y-2.4803
X3.3937Y-2.8346
X3.4882Y-1.4803
X3.4882Y-2.6614
X3.5212Y-1.1476
X3.5212Y-2.3287
X3.5276Y-1.7244
X3.5276Y-2.9055
X3.5354Y-1.5433
X3.5354Y-2.7244
X3.5748Y-1.2283
X3.5748Y-2.4094
X3.5984Y-1.7244
X3.5984Y-2.9055
X3.622Y-1.1417
X3.622Y-2.3228
X3.6614Y-1.7323
X3.6614Y-2.9134
X3.6772Y-1.2913
X3.6772Y-2.4724
X3.685Y-1.4409
X3.685Y-2.622
X3.7008Y-1.0709
X3.7008Y-1.1319
X3.7008Y-2.252
X3.7008Y-2.313
X3.7244Y-0.9921
X3.7244Y-2.1732
X3.748Y-1.7638
X3.748Y-2.9449
X3.7559Y-1.3386
X3.7559Y-2.5197
X3.7651Y-1.0856
X3.7651Y-2.2667
X3.7874Y-1.3937
X3.7874Y-1.4882
X3.7874Y-2.5748
X3.7874Y-2.6693
X3.811Y-1.3307
X3.811Y-2.5118
X3.8346Y-1.1024
X3.8346Y-2.2835
X3.8504Y-1.6929
X3.8504Y-2.874
X3.8661Y-1.2992
X3.8661Y-2.4803
X3.8898Y-1.9291
X3.8898Y-3.1102
X3.9213Y-1.1024
X3.9213Y-2.2835
X3.9921Y-1.0738
X3.9921Y-2.2549
X4.0236Y-1.685
X4.0236Y-1.8189
X4.0236Y-2.8661
X4.0236Y-3.0
X4.1024Y-1.9449
X4.1024Y-3.126
X4.1339Y-1.4882
X4.1339Y-2.6693
X4.1811Y-1.2835
X4.1811Y-2.4646
X4.3071Y-0.9921
X4.3071Y-2.1732
X4.3307Y-1.9449
X4.3307Y-3.126
X4.3465Y-1.2756
X4.3465Y-2.4567
X4.3701Y-1.0315
X4.3701Y-2.2126
X4.378Y-0.9606
X4.378Y-2.1417
X4.4961Y-1.7323
X4.4961Y-2.9134
X4.5512Y-1.1811
X4.5512Y-2.3622
T4
X1.3622Y-0.9921
X1.3622Y-2.1732
X1.4622Y-0.9921
X1.4622Y-2.1732
X1.5591Y-1.9213
X1.5591Y-3.1024
X1.5622Y-0.9921
X1.5622Y-2.1732
X1.6591Y-1.9213
X1.6591Y-3.1024
X1.6622Y-0.9921
X1.6622Y-2.1732
X1.7591Y-1.9213
X1.7591Y-3.1024
X1.8591Y-1.9213
X1.8591Y-3.1024
X1.9685Y-0.9921
X1.9685Y-2.1732
X2.0685Y-0.9921
X2.0685Y-2.1732
X2.1685Y-0.9921
X2.1685Y-2.1732
X2.2685Y-0.9921
X2.2685Y-2.1732
X3.2835Y-0.9921
X3.2835Y-2.1732
X3.3835Y-0.9921
X3.3835Y-2.1732
X3.4803Y-1.9213
X3.4803Y-3.1024
X3.4835Y-0.9921
X3.4835Y-2.1732
X3.5803Y-1.9213
X3.5803Y-3.1024
X3.5835Y-0.9921
X3.5835Y-2.1732
X3.6803Y-1.9213
X3.6803Y-3.1024
X3.7803Y-1.9213
X3.7803Y-3.1024
X3.8898Y-0.9921
X3.8898Y-2.1732
X3.9898Y-0.9921
X3.9898Y-2.1732
X4.0898Y-0.9921
X4.0898Y-2.1732
X4.1898Y-0.9921
X4.1898Y-2.1732
T2
G00X2.6563Y-1.2648
M15
G01X2.6819Y-1.2648
M16
G05
G00X2.6563Y-1.5699
M15
G01X2.6819Y-1.5699
M16
G05
G00X2.6563Y-2.4459
M15
G01X2.6819Y-2.4459
M16
G05
G00X2.6563Y-2.751
M15
G01X2.6819Y-2.751
M16
G05
G00X4.5776Y-1.2648
M15
G01X4.6031Y-1.2648
M16
G05
G00X4.5776Y-1.5699
M15
G01X4.6031Y-1.5699
M16
G05
G00X4.5776Y-2.4459
M15
G01X4.6031Y-2.4459
M16
G05
G00X4.5776Y-2.751
M15
G01X4.6031Y-2.751
M16
G05
T3
G00X2.5087Y-1.2707
M15
G01X2.5303Y-1.2707
M16
G05
G00X2.5087Y-1.564
M15
G01X2.5303Y-1.564
M16
G05
G00X2.5087Y-2.4518
M15
G01X2.5303Y-2.4518
M16
G05
G00X2.5087Y-2.7451
M15
G01X2.5303Y-2.7451
M16
G05
G00X4.4299Y-1.2707
M15
G01X4.4516Y-1.2707
M16
G05
G00X4.4299Y-1.564
M15
G01X4.4516Y-1.564
M16
G05
G00X4.4299Y-2.4518
M15
G01X4.4516Y-2.4518
M16
G05
G00X4.4299Y-2.7451
M15
G01X4.4516Y-2.7451
M16
G05
T0
M30
