%TF.GenerationSoftware,KiCad,Pcbnew,(6.0.7)*%
%TF.CreationDate,2022-11-18T16:05:00+07:00*%
%TF.ProjectId,test,74657374-2e6b-4696-9361-645f70636258,rev?*%
%TF.SameCoordinates,Original*%
%TF.FileFunction,Profile,NP*%
%FSLAX46Y46*%
G04 Gerber Fmt 4.6, Leading zero omitted, Abs format (unit mm)*
G04 Created by KiCad (PCBNEW (6.0.7)) date 2022-11-18 16:05:00*
%MOMM*%
%LPD*%
G01*
G04 APERTURE LIST*
%TA.AperFunction,Profile*%
%ADD10C,0.100000*%
%TD*%
G04 APERTURE END LIST*
D10*
X71800912Y-23006002D02*
X71800724Y-23006455D01*
X36443519Y-83942125D02*
X36397380Y-83957368D01*
X105066721Y-81095053D02*
X105111144Y-81075362D01*
X101383099Y-83476681D02*
X101359148Y-83518960D01*
X22107036Y-65495229D02*
X22058576Y-65498804D01*
X71801122Y-80994441D02*
X71801353Y-80994874D01*
X23000297Y-50992136D02*
X23000416Y-50992612D01*
X36158576Y-22998804D02*
X36109877Y-23000000D01*
X71803902Y-53002170D02*
X71803522Y-53002482D01*
X71806002Y-53000912D02*
X71805558Y-53001122D01*
X70955262Y-38510718D02*
X71003138Y-38519025D01*
X70644737Y-68510718D02*
X70692963Y-68504770D01*
X121274841Y-20256460D02*
X121310033Y-20289966D01*
X85055262Y-83989281D02*
X85007036Y-83995229D01*
X71795229Y-39392963D02*
X71798804Y-39441423D01*
X23000081Y-53009318D02*
X23000057Y-53009809D01*
X85333278Y-81095053D02*
X85376681Y-81116900D01*
X51758576Y-81001195D02*
X51807036Y-81004770D01*
X51758576Y-52998804D02*
X51709877Y-53000000D01*
X36843539Y-81325158D02*
X36875278Y-81361952D01*
X104640851Y-83518960D02*
X104616900Y-83476681D01*
X88904770Y-51892963D02*
X88910718Y-51844737D01*
X56025158Y-52743539D02*
X55989966Y-52710033D01*
X36109877Y-20000000D02*
X36158576Y-20001195D01*
X70596861Y-38519025D02*
X70644737Y-38510718D01*
X118599996Y-23012027D02*
X118599942Y-23009809D01*
X56025158Y-83743539D02*
X55989966Y-83710033D01*
X121033278Y-38595053D02*
X121076681Y-38616900D01*
X89094826Y-52599740D02*
X89066847Y-52560012D01*
X36207036Y-81004770D02*
X36255262Y-81010718D01*
X23000724Y-53006455D02*
X23000559Y-53006917D01*
X52338047Y-81224721D02*
X52374841Y-81256460D01*
X121433152Y-20439987D02*
X121459148Y-20481039D01*
X69796477Y-80997517D02*
X69796840Y-80997188D01*
X52043519Y-52942125D02*
X51997380Y-52957368D01*
X71800416Y-23007387D02*
X71800297Y-23007863D01*
X85759148Y-52518960D02*
X85733152Y-52560012D01*
X69940851Y-38981039D02*
X69966847Y-38939987D01*
X20116900Y-39023318D02*
X20140851Y-38981039D01*
X23009809Y-50999942D02*
X23012027Y-50999996D01*
X101359148Y-22518960D02*
X101333152Y-22560012D01*
X118695053Y-34933278D02*
X118675362Y-34888855D01*
X40100000Y-20990122D02*
X40101195Y-20941423D01*
X40849450Y-52970328D02*
X40802619Y-52957368D01*
X20116900Y-64976681D02*
X20095053Y-64933278D01*
X20702619Y-20042631D02*
X20749450Y-20029671D01*
X22957368Y-34797380D02*
X22942125Y-34843519D01*
X126597829Y-88996097D02*
X126598121Y-88995703D01*
X22518960Y-65359148D02*
X22476681Y-65383099D01*
X85150549Y-81029671D02*
X85197380Y-81042631D01*
X120850549Y-65470328D02*
X120803138Y-65480974D01*
X41090122Y-53000000D02*
X41041423Y-52998804D01*
X15006917Y-88999440D02*
X15007387Y-88999583D01*
X118599087Y-50993997D02*
X118599275Y-50993544D01*
X100558576Y-22998804D02*
X100509877Y-23000000D01*
X88975362Y-20611144D02*
X88995053Y-20566721D01*
X20010718Y-69344737D02*
X20019025Y-69296861D01*
X119039987Y-38666847D02*
X119081039Y-38640851D01*
X15006002Y-15000912D02*
X15005558Y-15001122D01*
X56139987Y-52833152D02*
X56100259Y-52805173D01*
X52642125Y-22343519D02*
X52624637Y-22388855D01*
X20224721Y-83638047D02*
X20194826Y-83599740D01*
X104542631Y-22297380D02*
X104529671Y-22250549D01*
X88919025Y-81796861D02*
X88929671Y-81749450D01*
X120803138Y-83980974D02*
X120755262Y-83989281D01*
X36738047Y-51224721D02*
X36774841Y-51256460D01*
X69790190Y-80999942D02*
X69790681Y-80999918D01*
X36576681Y-20116900D02*
X36618960Y-20140851D01*
X118592612Y-50999583D02*
X118593082Y-50999440D01*
X105296861Y-22980974D02*
X105249450Y-22970328D01*
X15000724Y-15006455D02*
X15000559Y-15006917D01*
X100797380Y-81042631D02*
X100843519Y-81057874D01*
X88900000Y-81990122D02*
X88901195Y-81941423D01*
X20439987Y-20166847D02*
X20481039Y-20140851D01*
X23008830Y-80999870D02*
X23009318Y-80999918D01*
X40294826Y-52599740D02*
X40266847Y-52560012D01*
X118599942Y-80990190D02*
X118599996Y-80987972D01*
X121570328Y-34750549D02*
X121557368Y-34797380D01*
X70366721Y-38595053D02*
X70411144Y-38575362D01*
X52443539Y-52674841D02*
X52410033Y-52710033D01*
X22388855Y-35424637D02*
X22343519Y-35442125D01*
X71803159Y-23002811D02*
X71802811Y-23003159D01*
X88900000Y-20990122D02*
X88901195Y-20941423D01*
X52657368Y-52297380D02*
X52642125Y-52343519D01*
X88995053Y-83433278D02*
X88975362Y-83388855D01*
X71806002Y-80999087D02*
X71806455Y-80999275D01*
X104575362Y-22388855D02*
X104557874Y-22343519D01*
X69791655Y-53000201D02*
X69791169Y-53000129D01*
X89261952Y-81224721D02*
X89300259Y-81194826D01*
X88929671Y-81749450D02*
X88942631Y-81702619D01*
X70281039Y-35359148D02*
X70239987Y-35333152D01*
X23000129Y-53008830D02*
X23000081Y-53009318D01*
X36983099Y-52476681D02*
X36959148Y-52518960D01*
X52604946Y-22433278D02*
X52583099Y-22476681D01*
X119444737Y-65489281D02*
X119396861Y-65480974D01*
X89423318Y-22883099D02*
X89381039Y-22859148D01*
X88910718Y-83155262D02*
X88904770Y-83107036D01*
X52700000Y-83009877D02*
X52698804Y-83058576D01*
X89189966Y-22710033D02*
X89156460Y-22674841D01*
X69797517Y-50996477D02*
X69797829Y-50996097D01*
X52624637Y-81611144D02*
X52642125Y-81656480D01*
X55710718Y-20844737D02*
X55719025Y-20796861D01*
X118587727Y-23000000D02*
X105490122Y-23000000D01*
X36959148Y-52518960D02*
X36933152Y-52560012D01*
X126594441Y-88998877D02*
X126594874Y-88998646D01*
X69793544Y-23000724D02*
X69793082Y-23000559D01*
X22518960Y-68640851D02*
X22560012Y-68666847D01*
X118599583Y-53007387D02*
X118599440Y-53006917D01*
X89066847Y-52560012D02*
X89040851Y-52518960D01*
X41041423Y-52998804D02*
X40992963Y-52995229D01*
X69798394Y-23004704D02*
X69798121Y-23004296D01*
X69799798Y-53008344D02*
X69799702Y-53007863D01*
X119541423Y-38501195D02*
X119590122Y-38500000D01*
X15000000Y-15012272D02*
X15000000Y-88987727D01*
X85333278Y-20095053D02*
X85376681Y-20116900D01*
X101305173Y-81400259D02*
X101333152Y-81439987D01*
X126592136Y-88999702D02*
X126592612Y-88999583D01*
X69857874Y-39156480D02*
X69875362Y-39111144D01*
X52410033Y-52710033D02*
X52374841Y-52743539D01*
X71800297Y-80992136D02*
X71800416Y-80992612D01*
X85804946Y-83433278D02*
X85783099Y-83476681D01*
X23008830Y-53000129D02*
X23008344Y-53000201D01*
X118590190Y-23000057D02*
X118587972Y-23000003D01*
X51903138Y-20019025D02*
X51950549Y-20029671D01*
X104981039Y-83859148D02*
X104939987Y-83833152D01*
X85804946Y-20566721D02*
X85824637Y-20611144D01*
X22859148Y-65018960D02*
X22833152Y-65060012D01*
X71801605Y-80995295D02*
X71801878Y-80995703D01*
X104519025Y-83203138D02*
X104510718Y-83155262D01*
X56266721Y-51095053D02*
X56311144Y-51075362D01*
X69799870Y-80991169D02*
X69799918Y-80990681D01*
X23009318Y-50999918D02*
X23009809Y-50999942D01*
X118716900Y-64976681D02*
X118695053Y-64933278D01*
X51709877Y-20000000D02*
X51758576Y-20001195D01*
X120658576Y-20001195D02*
X120707036Y-20004770D01*
X56139987Y-83833152D02*
X56100259Y-83805173D01*
X40266847Y-81439987D02*
X40294826Y-81400259D01*
X101404946Y-51566721D02*
X101424637Y-51611144D01*
X55719025Y-51796861D02*
X55729671Y-51749450D01*
X71742125Y-39156480D02*
X71757368Y-39202619D01*
X88957874Y-52343519D02*
X88942631Y-52297380D01*
X55866847Y-83560012D02*
X55840851Y-83518960D01*
X20010718Y-20844737D02*
X20019025Y-20796861D01*
X69796840Y-53002811D02*
X69796477Y-53002482D01*
X22250549Y-68529671D02*
X22297380Y-68542631D01*
X51950549Y-52970328D02*
X51903138Y-52980974D01*
X15000057Y-15009809D02*
X15000003Y-15012027D01*
X20439987Y-35333152D02*
X20400259Y-35305173D01*
X51997380Y-51042631D02*
X52043519Y-51057874D01*
X52559148Y-22518960D02*
X52533152Y-22560012D01*
X89040851Y-52518960D02*
X89016900Y-52476681D01*
X121504946Y-64933278D02*
X121483099Y-64976681D01*
X15000081Y-88990681D02*
X15000129Y-88991169D01*
X40756480Y-51057874D02*
X40802619Y-51042631D01*
X85705173Y-20400259D02*
X85733152Y-20439987D01*
X101495229Y-51892963D02*
X101498804Y-51941423D01*
X71097380Y-38542631D02*
X71143519Y-38557874D01*
X71800129Y-80991169D02*
X71800201Y-80991655D01*
X71800057Y-50990190D02*
X71800081Y-50990681D01*
X23005558Y-53001122D02*
X23005125Y-53001353D01*
X20019025Y-64703138D02*
X20010718Y-64655262D01*
X52695229Y-51892963D02*
X52698804Y-51941423D01*
X40142631Y-83297380D02*
X40129671Y-83250549D01*
X23001353Y-53005125D02*
X23001122Y-53005558D01*
X104694826Y-81400259D02*
X104724721Y-81361952D01*
X120707036Y-83995229D02*
X120658576Y-83998804D01*
X51807036Y-51004770D02*
X51855262Y-51010718D01*
X37024637Y-20611144D02*
X37042125Y-20656480D01*
X52443539Y-51325158D02*
X52475278Y-51361952D01*
X15007863Y-88999702D02*
X15008344Y-88999798D01*
X23000297Y-53007863D02*
X23000201Y-53008344D01*
X40129671Y-22250549D02*
X40119025Y-22203138D01*
X22058576Y-68501195D02*
X22107036Y-68504770D01*
X118604770Y-64607036D02*
X118601195Y-64558576D01*
X55757874Y-83343519D02*
X55742631Y-83297380D01*
X118597517Y-53003522D02*
X118597188Y-53003159D01*
X85643539Y-81325158D02*
X85675278Y-81361952D01*
X100888855Y-81075362D02*
X100933278Y-81095053D01*
X71276681Y-65383099D02*
X71233278Y-65404946D01*
X118596840Y-23002811D02*
X118596477Y-23002482D01*
X69799275Y-53006455D02*
X69799087Y-53006002D01*
X71812027Y-23000003D02*
X71809809Y-23000057D01*
X71789281Y-39344737D02*
X71795229Y-39392963D01*
X56544737Y-51010718D02*
X56592963Y-51004770D01*
X118597829Y-23003902D02*
X118597517Y-23003522D01*
X126593544Y-88999275D02*
X126593997Y-88999087D01*
X52443539Y-83674841D02*
X52410033Y-83710033D01*
X88929671Y-22250549D02*
X88919025Y-22203138D01*
X22743539Y-65174841D02*
X22710033Y-65210033D01*
X70456480Y-65442125D02*
X70411144Y-65424637D01*
X104981039Y-52859148D02*
X104939987Y-52833152D01*
X20566721Y-35404946D02*
X20523318Y-35383099D01*
X55710718Y-83155262D02*
X55704770Y-83107036D01*
X85460012Y-52833152D02*
X85418960Y-52859148D01*
X71800724Y-80993544D02*
X71800912Y-80993997D01*
X36618960Y-81140851D02*
X36660012Y-81166847D01*
X121600000Y-34509877D02*
X121598804Y-34558576D01*
X71575278Y-65138047D02*
X71543539Y-65174841D01*
X89696861Y-83980974D02*
X89649450Y-83970328D01*
X20400259Y-65305173D02*
X20361952Y-65275278D01*
X56690122Y-51000000D02*
X69787727Y-51000000D01*
X22970328Y-64750549D02*
X22957368Y-64797380D01*
X70056460Y-68825158D02*
X70089966Y-68789966D01*
X71808344Y-23000201D02*
X71807863Y-23000297D01*
X56100259Y-52805173D02*
X56061952Y-52775278D01*
X69793997Y-53000912D02*
X69793544Y-53000724D01*
X23006917Y-50999440D02*
X23007387Y-50999583D01*
X69799275Y-23006455D02*
X69799087Y-23006002D01*
X118599798Y-80991655D02*
X118599870Y-80991169D01*
X71800057Y-23009809D02*
X71800003Y-23012027D01*
X119166721Y-35404946D02*
X119123318Y-35383099D01*
X56690122Y-23000000D02*
X56641423Y-22998804D01*
X101174841Y-22743539D02*
X101138047Y-22775278D01*
X85643539Y-83674841D02*
X85610033Y-83710033D01*
X85880974Y-22203138D02*
X85870328Y-22250549D01*
X101457368Y-81702619D02*
X101470328Y-81749450D01*
X118592136Y-53000297D02*
X118591655Y-53000201D01*
X105296861Y-20019025D02*
X105344737Y-20010718D01*
X55816900Y-20523318D02*
X55840851Y-20481039D01*
X37024637Y-81611144D02*
X37042125Y-81656480D01*
X71633152Y-65060012D02*
X71605173Y-65099740D01*
X40461952Y-83775278D02*
X40425158Y-83743539D01*
X100976681Y-20116900D02*
X101018960Y-20140851D01*
X52475278Y-20361952D02*
X52505173Y-20400259D01*
X20140851Y-83518960D02*
X20116900Y-83476681D01*
X104789966Y-22710033D02*
X104756460Y-22674841D01*
X15012027Y-88999996D02*
X15012272Y-89000000D01*
X126595295Y-15001605D02*
X126594874Y-15001353D01*
X69787972Y-50999996D02*
X69790190Y-50999942D01*
X118587972Y-80999996D02*
X118590190Y-80999942D01*
X89124721Y-20361952D02*
X89156460Y-20325158D01*
X118794826Y-68900259D02*
X118824721Y-68861952D01*
X100558576Y-52998804D02*
X100509877Y-53000000D01*
X20000000Y-83009877D02*
X20000000Y-69490122D01*
X22560012Y-68666847D02*
X22599740Y-68694826D01*
X88957874Y-22343519D02*
X88942631Y-22297380D01*
X22904946Y-39066721D02*
X22924637Y-39111144D01*
X104900259Y-51194826D02*
X104939987Y-51166847D01*
X70907036Y-68504770D02*
X70955262Y-68510718D01*
X40581039Y-51140851D02*
X40623318Y-51116900D01*
X88919025Y-20796861D02*
X88929671Y-20749450D01*
X118657874Y-69156480D02*
X118675362Y-69111144D01*
X70502619Y-35457368D02*
X70456480Y-35442125D01*
X89602619Y-52957368D02*
X89556480Y-52942125D01*
X85376681Y-83883099D02*
X85333278Y-83904946D01*
X55729671Y-22250549D02*
X55719025Y-22203138D01*
X36905173Y-81400259D02*
X36933152Y-81439987D01*
X71474841Y-68756460D02*
X71510033Y-68789966D01*
X37100000Y-83009877D02*
X37098804Y-83058576D01*
X22476681Y-68616900D02*
X22518960Y-68640851D01*
X104900259Y-81194826D02*
X104939987Y-81166847D01*
X23000724Y-50993544D02*
X23000912Y-50993997D01*
X100655262Y-83989281D02*
X100607036Y-83995229D01*
X36959148Y-51481039D02*
X36983099Y-51523318D01*
X104616900Y-52476681D02*
X104595053Y-52433278D01*
X69787972Y-53000003D02*
X69787727Y-53000000D01*
X56496861Y-22980974D02*
X56449450Y-22970328D01*
X40110718Y-51844737D02*
X40119025Y-51796861D01*
X71789281Y-64655262D02*
X71780974Y-64703138D01*
X89423318Y-81116900D02*
X89466721Y-81095053D01*
X36158576Y-52998804D02*
X36109877Y-53000000D01*
X55704770Y-51892963D02*
X55710718Y-51844737D01*
X22710033Y-38789966D02*
X22743539Y-38825158D01*
X40944737Y-52989281D02*
X40896861Y-52980974D01*
X40711144Y-20075362D02*
X40756480Y-20057874D01*
X121199740Y-65305173D02*
X121160012Y-65333152D01*
X40623318Y-51116900D02*
X40666721Y-51095053D01*
X121524637Y-69111144D02*
X121542125Y-69156480D01*
X22924637Y-69111144D02*
X22942125Y-69156480D01*
X105441423Y-83998804D02*
X105392963Y-83995229D01*
X104666847Y-22560012D02*
X104640851Y-22518960D01*
X101498804Y-52058576D02*
X101495229Y-52107036D01*
X20400259Y-83805173D02*
X20361952Y-83775278D01*
X100976681Y-52883099D02*
X100933278Y-52904946D01*
X120897380Y-83957368D02*
X120850549Y-83970328D01*
X55866847Y-51439987D02*
X55894826Y-51400259D01*
X121274841Y-65243539D02*
X121238047Y-65275278D01*
X104595053Y-81566721D02*
X104616900Y-81523318D01*
X121504946Y-83433278D02*
X121483099Y-83476681D01*
X70741423Y-68501195D02*
X70790122Y-68500000D01*
X41090122Y-81000000D02*
X51709877Y-81000000D01*
X85538047Y-81224721D02*
X85574841Y-81256460D01*
X70089966Y-35210033D02*
X70056460Y-35174841D01*
X36959148Y-83518960D02*
X36933152Y-83560012D01*
X22833152Y-68939987D02*
X22859148Y-68981039D01*
X120850549Y-83970328D02*
X120803138Y-83980974D01*
X40195053Y-20566721D02*
X40216900Y-20523318D01*
X100750549Y-20029671D02*
X100797380Y-20042631D01*
X15001122Y-15005558D02*
X15000912Y-15006002D01*
X15004704Y-15001605D02*
X15004296Y-15001878D01*
X36905173Y-22599740D02*
X36875278Y-22638047D01*
X120658576Y-65498804D02*
X120609877Y-65500000D01*
X118593082Y-53000559D02*
X118592612Y-53000416D01*
X89339987Y-83833152D02*
X89300259Y-83805173D01*
X89016900Y-81523318D02*
X89040851Y-81481039D01*
X55729671Y-81749450D02*
X55742631Y-81702619D01*
X121076681Y-35383099D02*
X121033278Y-35404946D01*
X126591655Y-15000201D02*
X126591169Y-15000129D01*
X70366721Y-68595053D02*
X70411144Y-68575362D01*
X56061952Y-51224721D02*
X56100259Y-51194826D01*
X69829671Y-64750549D02*
X69819025Y-64703138D01*
X85705173Y-81400259D02*
X85733152Y-81439987D01*
X69801195Y-64558576D02*
X69800000Y-64509877D01*
X20941423Y-65498804D02*
X20892963Y-65495229D01*
X85675278Y-51361952D02*
X85705173Y-51400259D01*
X37024637Y-51611144D02*
X37042125Y-51656480D01*
X22998804Y-34558576D02*
X22995229Y-34607036D01*
X51855262Y-20010718D02*
X51903138Y-20019025D01*
X69875362Y-34888855D02*
X69857874Y-34843519D01*
X56266721Y-52904946D02*
X56223318Y-52883099D01*
X120943519Y-65442125D02*
X120897380Y-65457368D01*
X101480974Y-52203138D02*
X101470328Y-52250549D01*
X55775362Y-83388855D02*
X55757874Y-83343519D01*
X101383099Y-22476681D02*
X101359148Y-22518960D01*
X23000559Y-23006917D02*
X23000416Y-23007387D01*
X40324721Y-51361952D02*
X40356460Y-51325158D01*
X20057874Y-34843519D02*
X20042631Y-34797380D01*
X40944737Y-20010718D02*
X40992963Y-20004770D01*
X52043519Y-51057874D02*
X52088855Y-51075362D01*
X23001353Y-80994874D02*
X23001605Y-80995295D01*
X20523318Y-68616900D02*
X20566721Y-68595053D01*
X88995053Y-22433278D02*
X88975362Y-22388855D01*
X52533152Y-81439987D02*
X52559148Y-81481039D01*
X89649450Y-51029671D02*
X89696861Y-51019025D01*
X118598394Y-50995295D02*
X118598646Y-50994874D01*
X22904946Y-69066721D02*
X22924637Y-69111144D01*
X52410033Y-81289966D02*
X52443539Y-81325158D01*
X104529671Y-83250549D02*
X104519025Y-83203138D01*
X119039987Y-35333152D02*
X119000259Y-35305173D01*
X104756460Y-52674841D02*
X104724721Y-52638047D01*
X20140851Y-20481039D02*
X20166847Y-20439987D01*
X40425158Y-52743539D02*
X40389966Y-52710033D01*
X118593997Y-50999087D02*
X118594441Y-50998877D01*
X36158576Y-20001195D02*
X36207036Y-20004770D01*
X119590122Y-65500000D02*
X119541423Y-65498804D01*
X88995053Y-51566721D02*
X89016900Y-51523318D01*
X23007863Y-50999702D02*
X23008344Y-50999798D01*
X118594874Y-80998646D02*
X118595295Y-80998394D01*
X56449450Y-51029671D02*
X56496861Y-51019025D01*
X69798121Y-53004296D02*
X69797829Y-53003902D01*
X121199740Y-83805173D02*
X121160012Y-83833152D01*
X71803902Y-23002170D02*
X71803522Y-23002482D01*
X52698804Y-52058576D02*
X52695229Y-52107036D01*
X22155262Y-65489281D02*
X22107036Y-65495229D01*
X71724637Y-39111144D02*
X71742125Y-39156480D01*
X40389966Y-81289966D02*
X40425158Y-81256460D01*
X89300259Y-22805173D02*
X89261952Y-22775278D01*
X126599087Y-15006002D02*
X126598877Y-15005558D01*
X101424637Y-51611144D02*
X101442125Y-51656480D01*
X101099740Y-20194826D02*
X101138047Y-20224721D01*
X120943519Y-35442125D02*
X120897380Y-35457368D01*
X71801878Y-23004296D02*
X71801605Y-23004704D01*
X85675278Y-20361952D02*
X85705173Y-20400259D01*
X120897380Y-38542631D02*
X120943519Y-38557874D01*
X36738047Y-52775278D02*
X36699740Y-52805173D01*
X69842631Y-39202619D02*
X69857874Y-39156480D01*
X22859148Y-35018960D02*
X22833152Y-35060012D01*
X55795053Y-51566721D02*
X55816900Y-51523318D01*
X20042631Y-20702619D02*
X20057874Y-20656480D01*
X20166847Y-83560012D02*
X20140851Y-83518960D01*
X20166847Y-20439987D02*
X20194826Y-20400259D01*
X120707036Y-38504770D02*
X120755262Y-38510718D01*
X69799702Y-50992136D02*
X69799798Y-50991655D01*
X118592612Y-53000416D02*
X118592136Y-53000297D01*
X104756460Y-81325158D02*
X104789966Y-81289966D01*
X119081039Y-38640851D02*
X119123318Y-38616900D01*
X85197380Y-51042631D02*
X85243519Y-51057874D01*
X118598121Y-50995703D02*
X118598394Y-50995295D01*
X126597188Y-88996840D02*
X126597517Y-88996477D01*
X52604946Y-51566721D02*
X52624637Y-51611144D01*
X71800000Y-64509877D02*
X71798804Y-64558576D01*
X52624637Y-51611144D02*
X52642125Y-51656480D01*
X52088855Y-22924637D02*
X52043519Y-22942125D01*
X71742125Y-34843519D02*
X71724637Y-34888855D01*
X40581039Y-22859148D02*
X40539987Y-22833152D01*
X22998804Y-39441423D02*
X23000000Y-39490122D01*
X118675362Y-39111144D02*
X118695053Y-39066721D01*
X23001122Y-53005558D02*
X23000912Y-53006002D01*
X40461952Y-51224721D02*
X40500259Y-51194826D01*
X105490122Y-20000000D02*
X120609877Y-20000000D01*
X20439987Y-68666847D02*
X20481039Y-68640851D01*
X56266721Y-20095053D02*
X56311144Y-20075362D01*
X22904946Y-64933278D02*
X22883099Y-64976681D01*
X71801353Y-53005125D02*
X71801122Y-53005558D01*
X121199740Y-35305173D02*
X121160012Y-35333152D01*
X71050549Y-68529671D02*
X71097380Y-68542631D01*
X118594874Y-23001353D02*
X118594441Y-23001122D01*
X20256460Y-83674841D02*
X20224721Y-83638047D01*
X22805173Y-35099740D02*
X22775278Y-35138047D01*
X118593544Y-53000724D02*
X118593082Y-53000559D01*
X104789966Y-81289966D02*
X104825158Y-81256460D01*
X70024721Y-38861952D02*
X70056460Y-38825158D01*
X36933152Y-52560012D02*
X36905173Y-52599740D01*
X37057368Y-51702619D02*
X37070328Y-51749450D01*
X104500000Y-51990122D02*
X104501195Y-51941423D01*
X37080974Y-51796861D02*
X37089281Y-51844737D01*
X22203138Y-65480974D02*
X22155262Y-65489281D01*
X89094826Y-51400259D02*
X89124721Y-51361952D01*
X36350549Y-83970328D02*
X36303138Y-83980974D01*
X20166847Y-35060012D02*
X20140851Y-35018960D01*
X101138047Y-20224721D02*
X101174841Y-20256460D01*
X101333152Y-52560012D02*
X101305173Y-52599740D01*
X101383099Y-51523318D02*
X101404946Y-51566721D01*
X69799870Y-23008830D02*
X69799798Y-23008344D01*
X85150549Y-20029671D02*
X85197380Y-20042631D01*
X105441423Y-81001195D02*
X105490122Y-81000000D01*
X40175362Y-81611144D02*
X40195053Y-81566721D01*
X85418960Y-51140851D02*
X85460012Y-51166847D01*
X22638047Y-38724721D02*
X22674841Y-38756460D01*
X36443519Y-52942125D02*
X36397380Y-52957368D01*
X15006455Y-15000724D02*
X15006002Y-15000912D01*
X37095229Y-81892963D02*
X37098804Y-81941423D01*
X85857368Y-22297380D02*
X85842125Y-22343519D01*
X51903138Y-51019025D02*
X51950549Y-51029671D01*
X121483099Y-64976681D02*
X121459148Y-65018960D01*
X71812027Y-80999996D02*
X71812272Y-81000000D01*
X126596097Y-88997829D02*
X126596477Y-88997517D01*
X89225158Y-51256460D02*
X89261952Y-51224721D01*
X20256460Y-35174841D02*
X20224721Y-35138047D01*
X121600000Y-69490122D02*
X121600000Y-83009877D01*
X36983099Y-81523318D02*
X37004946Y-81566721D01*
X89696861Y-81019025D02*
X89744737Y-81010718D01*
X20796861Y-38519025D02*
X20844737Y-38510718D01*
X23003522Y-23002482D02*
X23003159Y-23002811D01*
X55956460Y-52674841D02*
X55924721Y-52638047D01*
X71808344Y-53000201D02*
X71807863Y-53000297D01*
X71800297Y-53007863D02*
X71800201Y-53008344D01*
X126598121Y-88995703D02*
X126598394Y-88995295D01*
X104519025Y-22203138D02*
X104510718Y-22155262D01*
X40324721Y-81361952D02*
X40356460Y-81325158D01*
X70596861Y-68519025D02*
X70644737Y-68510718D01*
X120943519Y-83942125D02*
X120897380Y-83957368D01*
X105066721Y-52904946D02*
X105023318Y-52883099D01*
X104504770Y-83107036D02*
X104501195Y-83058576D01*
X52088855Y-83924637D02*
X52043519Y-83942125D01*
X89124721Y-81361952D02*
X89156460Y-81325158D01*
X118601195Y-64558576D02*
X118600000Y-64509877D01*
X69797188Y-50996840D02*
X69797517Y-50996477D01*
X105066721Y-83904946D02*
X105023318Y-83883099D01*
X85643539Y-51325158D02*
X85675278Y-51361952D01*
X118601195Y-34558576D02*
X118600000Y-34509877D01*
X85880974Y-52203138D02*
X85870328Y-52250549D01*
X85460012Y-22833152D02*
X85418960Y-22859148D01*
X118597829Y-50996097D02*
X118598121Y-50995703D01*
X84958576Y-81001195D02*
X85007036Y-81004770D01*
X20010718Y-64655262D02*
X20004770Y-64607036D01*
X55757874Y-81656480D02*
X55775362Y-81611144D01*
X20400259Y-35305173D02*
X20361952Y-35275278D01*
X101442125Y-22343519D02*
X101424637Y-22388855D01*
X23001878Y-50995703D02*
X23002170Y-50996097D01*
X20523318Y-38616900D02*
X20566721Y-38595053D01*
X126595295Y-88998394D02*
X126595703Y-88998121D01*
X52260012Y-81166847D02*
X52299740Y-81194826D01*
X22297380Y-35457368D02*
X22250549Y-35470328D01*
X40756480Y-20057874D02*
X40802619Y-20042631D01*
X118590190Y-80999942D02*
X118590681Y-80999918D01*
X40216900Y-81523318D02*
X40240851Y-81481039D01*
X55795053Y-20566721D02*
X55816900Y-20523318D01*
X101174841Y-20256460D02*
X101210033Y-20289966D01*
X51758576Y-22998804D02*
X51709877Y-23000000D01*
X55719025Y-52203138D02*
X55710718Y-52155262D01*
X101099740Y-81194826D02*
X101138047Y-81224721D01*
X89744737Y-52989281D02*
X89696861Y-52980974D01*
X118598121Y-23004296D02*
X118597829Y-23003902D01*
X20004770Y-39392963D02*
X20010718Y-39344737D01*
X70200259Y-38694826D02*
X70239987Y-38666847D01*
X118824721Y-65138047D02*
X118794826Y-65099740D01*
X52410033Y-20289966D02*
X52443539Y-20325158D01*
X85898804Y-52058576D02*
X85895229Y-52107036D01*
X126600000Y-15012272D02*
X126599996Y-15012027D01*
X52642125Y-20656480D02*
X52657368Y-20702619D01*
X52505173Y-83599740D02*
X52475278Y-83638047D01*
X85898804Y-20941423D02*
X85900000Y-20990122D01*
X104510718Y-81844737D02*
X104519025Y-81796861D01*
X36488855Y-52924637D02*
X36443519Y-52942125D01*
X55701195Y-83058576D02*
X55700000Y-83009877D01*
X89890122Y-51000000D02*
X100509877Y-51000000D01*
X118595295Y-23001605D02*
X118594874Y-23001353D01*
X52176681Y-83883099D02*
X52133278Y-83904946D01*
X71804296Y-80998121D02*
X71804704Y-80998394D01*
X36255262Y-81010718D02*
X36303138Y-81019025D01*
X71805558Y-50998877D02*
X71806002Y-50999087D01*
X71801353Y-50994874D02*
X71801605Y-50995295D01*
X120850549Y-68529671D02*
X120897380Y-68542631D01*
X104504770Y-81892963D02*
X104510718Y-81844737D01*
X85842125Y-22343519D02*
X85824637Y-22388855D01*
X40240851Y-83518960D02*
X40216900Y-83476681D01*
X89511144Y-83924637D02*
X89466721Y-83904946D01*
X70239987Y-68666847D02*
X70281039Y-68640851D01*
X120943519Y-20057874D02*
X120988855Y-20075362D01*
X118925158Y-68756460D02*
X118961952Y-68724721D01*
X104789966Y-83710033D02*
X104756460Y-83674841D01*
X37080974Y-52203138D02*
X37070328Y-52250549D01*
X69829671Y-39249450D02*
X69842631Y-39202619D01*
X36774841Y-81256460D02*
X36810033Y-81289966D01*
X121433152Y-65060012D02*
X121405173Y-65099740D01*
X55729671Y-51749450D02*
X55742631Y-51702619D01*
X71318960Y-35359148D02*
X71276681Y-35383099D01*
X52299740Y-20194826D02*
X52338047Y-20224721D01*
X22297380Y-68542631D02*
X22343519Y-68557874D01*
X40389966Y-20289966D02*
X40425158Y-20256460D01*
X121238047Y-83775278D02*
X121199740Y-83805173D01*
X100607036Y-20004770D02*
X100655262Y-20010718D01*
X85610033Y-81289966D02*
X85643539Y-81325158D01*
X40110718Y-22155262D02*
X40104770Y-22107036D01*
X101275278Y-81361952D02*
X101305173Y-81400259D01*
X20844737Y-35489281D02*
X20796861Y-35480974D01*
X23000057Y-80990190D02*
X23000081Y-80990681D01*
X23007387Y-50999583D02*
X23007863Y-50999702D01*
X121504946Y-20566721D02*
X121524637Y-20611144D01*
X20361952Y-68724721D02*
X20400259Y-68694826D01*
X23005125Y-53001353D02*
X23004704Y-53001605D01*
X20042631Y-39202619D02*
X20057874Y-39156480D01*
X88975362Y-22388855D02*
X88957874Y-22343519D01*
X70549450Y-65470328D02*
X70502619Y-65457368D01*
X40119025Y-20796861D02*
X40129671Y-20749450D01*
X89423318Y-51116900D02*
X89466721Y-51095053D01*
X56025158Y-51256460D02*
X56061952Y-51224721D01*
X104575362Y-51611144D02*
X104595053Y-51566721D01*
X71510033Y-65210033D02*
X71474841Y-65243539D01*
X104724721Y-51361952D02*
X104756460Y-51325158D01*
X85842125Y-81656480D02*
X85857368Y-81702619D01*
X52133278Y-83904946D02*
X52088855Y-83924637D01*
X126599798Y-88991655D02*
X126599870Y-88991169D01*
X85889281Y-22155262D02*
X85880974Y-22203138D01*
X71801605Y-50995295D02*
X71801878Y-50995703D01*
X118598877Y-50994441D02*
X118599087Y-50993997D01*
X36933152Y-22560012D02*
X36905173Y-22599740D01*
X52374841Y-22743539D02*
X52338047Y-22775278D01*
X104900259Y-22805173D02*
X104861952Y-22775278D01*
X36699740Y-83805173D02*
X36660012Y-83833152D01*
X15009809Y-15000057D02*
X15009809Y-15000057D01*
X121274841Y-68756460D02*
X121310033Y-68789966D01*
X69895053Y-64933278D02*
X69875362Y-64888855D01*
X101210033Y-52710033D02*
X101174841Y-52743539D01*
X40240851Y-51481039D02*
X40266847Y-51439987D01*
X104595053Y-22433278D02*
X104575362Y-22388855D01*
X118593544Y-80999275D02*
X118593997Y-80999087D01*
X85610033Y-83710033D02*
X85574841Y-83743539D01*
X104939987Y-51166847D02*
X104981039Y-51140851D01*
X119081039Y-68640851D02*
X119123318Y-68616900D01*
X89511144Y-22924637D02*
X89466721Y-22904946D01*
X52670328Y-83250549D02*
X52657368Y-83297380D01*
X20702619Y-83957368D02*
X20656480Y-83942125D01*
X101404946Y-81566721D02*
X101424637Y-81611144D01*
X119541423Y-35498804D02*
X119492963Y-35495229D01*
X20566721Y-83904946D02*
X20523318Y-83883099D01*
X105202619Y-20042631D02*
X105249450Y-20029671D01*
X70125158Y-65243539D02*
X70089966Y-65210033D01*
X36397380Y-22957368D02*
X36350549Y-22970328D01*
X22107036Y-68504770D02*
X22155262Y-68510718D01*
X71805558Y-23001122D02*
X71805125Y-23001353D01*
X70323318Y-38616900D02*
X70366721Y-38595053D01*
X104510718Y-51844737D02*
X104519025Y-51796861D01*
X118642631Y-39202619D02*
X118657874Y-39156480D01*
X22009877Y-68500000D02*
X22058576Y-68501195D01*
X52624637Y-83388855D02*
X52604946Y-83433278D01*
X20224721Y-20361952D02*
X20256460Y-20325158D01*
X69795295Y-80998394D02*
X69795703Y-80998121D01*
X56641423Y-52998804D02*
X56592963Y-52995229D01*
X22009877Y-68500000D02*
X22009877Y-68500000D01*
X85759148Y-83518960D02*
X85733152Y-83560012D01*
X120897380Y-35457368D02*
X120850549Y-35470328D01*
X52505173Y-81400259D02*
X52533152Y-81439987D01*
X40896861Y-51019025D02*
X40944737Y-51010718D01*
X85055262Y-22989281D02*
X85007036Y-22995229D01*
X22710033Y-68789966D02*
X22743539Y-68825158D01*
X52338047Y-52775278D02*
X52299740Y-52805173D01*
X36660012Y-81166847D02*
X36699740Y-81194826D01*
X40356460Y-51325158D02*
X40389966Y-51289966D01*
X105249450Y-20029671D02*
X105296861Y-20019025D01*
X100976681Y-22883099D02*
X100933278Y-22904946D01*
X40266847Y-83560012D02*
X40240851Y-83518960D01*
X22009877Y-38500000D02*
X22009877Y-38500000D01*
X126599275Y-88993544D02*
X126599440Y-88993082D01*
X23003902Y-53002170D02*
X23003522Y-53002482D01*
X104542631Y-83297380D02*
X104529671Y-83250549D01*
X70200259Y-68694826D02*
X70239987Y-68666847D01*
X84909877Y-23000000D02*
X71812272Y-23000000D01*
X88929671Y-52250549D02*
X88919025Y-52203138D01*
X55816900Y-81523318D02*
X55840851Y-81481039D01*
X55710718Y-52155262D02*
X55704770Y-52107036D01*
X20749450Y-65470328D02*
X20702619Y-65457368D01*
X40992963Y-81004770D02*
X41041423Y-81001195D01*
X51709877Y-51000000D02*
X51758576Y-51001195D01*
X71802482Y-80996477D02*
X71802811Y-80996840D01*
X36774841Y-22743539D02*
X36738047Y-22775278D01*
X71683099Y-69023318D02*
X71704946Y-69066721D01*
X101383099Y-20523318D02*
X101404946Y-20566721D01*
X36350549Y-20029671D02*
X36397380Y-20042631D01*
X55719025Y-22203138D02*
X55710718Y-22155262D01*
X36933152Y-51439987D02*
X36959148Y-51481039D01*
X126587727Y-89000000D02*
X126587972Y-88999996D01*
X105202619Y-81042631D02*
X105249450Y-81029671D01*
X71780974Y-39296861D02*
X71789281Y-39344737D01*
X23000000Y-39490122D02*
X23000000Y-50987727D01*
X121524637Y-20611144D02*
X121542125Y-20656480D01*
X20990122Y-84000000D02*
X20941423Y-83998804D01*
X100703138Y-83980974D02*
X100655262Y-83989281D01*
X88919025Y-22203138D02*
X88910718Y-22155262D01*
X15000201Y-88991655D02*
X15000297Y-88992136D01*
X70907036Y-35495229D02*
X70858576Y-35498804D01*
X85538047Y-51224721D02*
X85574841Y-51256460D01*
X101470328Y-81749450D02*
X101480974Y-81796861D01*
X104666847Y-51439987D02*
X104694826Y-51400259D01*
X85675278Y-22638047D02*
X85643539Y-22674841D01*
X101457368Y-22297380D02*
X101442125Y-22343519D01*
X121238047Y-65275278D02*
X121199740Y-65305173D01*
X69994826Y-68900259D02*
X70024721Y-68861952D01*
X55742631Y-83297380D02*
X55729671Y-83250549D01*
X40294826Y-51400259D02*
X40324721Y-51361952D01*
X22638047Y-68724721D02*
X22674841Y-68756460D01*
X71805558Y-80998877D02*
X71806002Y-80999087D01*
X85418960Y-81140851D02*
X85460012Y-81166847D01*
X104504770Y-52107036D02*
X104501195Y-52058576D01*
X121589281Y-20844737D02*
X121595229Y-20892963D01*
X37095229Y-51892963D02*
X37098804Y-51941423D01*
X20289966Y-20289966D02*
X20325158Y-20256460D01*
X100607036Y-52995229D02*
X100558576Y-52998804D01*
X70239987Y-65333152D02*
X70200259Y-65305173D01*
X22058576Y-65498804D02*
X22009877Y-65500000D01*
X85103138Y-22980974D02*
X85055262Y-22989281D01*
X121375278Y-38861952D02*
X121405173Y-38900259D01*
X118599918Y-53009318D02*
X118599870Y-53008830D01*
X52604946Y-20566721D02*
X52624637Y-20611144D01*
X121595229Y-20892963D02*
X121598804Y-20941423D01*
X121310033Y-20289966D02*
X121343539Y-20325158D01*
X40425158Y-81256460D02*
X40461952Y-81224721D01*
X23012272Y-23000000D02*
X23012027Y-23000003D01*
X70596861Y-35480974D02*
X70549450Y-35470328D01*
X71800912Y-80993997D02*
X71801122Y-80994441D01*
X71804704Y-53001605D02*
X71804296Y-53001878D01*
X104519025Y-81796861D02*
X104529671Y-81749450D01*
X105392963Y-52995229D02*
X105344737Y-52989281D01*
X51997380Y-22957368D02*
X51950549Y-22970328D01*
X104616900Y-81523318D02*
X104640851Y-81481039D01*
X69801195Y-34558576D02*
X69800000Y-34509877D01*
X69916900Y-39023318D02*
X69940851Y-38981039D01*
X119302619Y-35457368D02*
X119256480Y-35442125D01*
X104981039Y-20140851D02*
X105023318Y-20116900D01*
X20019025Y-20796861D02*
X20029671Y-20749450D01*
X40756480Y-52942125D02*
X40711144Y-52924637D01*
X118599918Y-50990681D02*
X118599942Y-50990190D01*
X69799870Y-50991169D02*
X69799918Y-50990681D01*
X70692963Y-38504770D02*
X70741423Y-38501195D01*
X104529671Y-52250549D02*
X104519025Y-52203138D01*
X20361952Y-83775278D02*
X20325158Y-83743539D01*
X52689281Y-22155262D02*
X52680974Y-22203138D01*
X52475278Y-51361952D02*
X52505173Y-51400259D01*
X121405173Y-65099740D02*
X121375278Y-65138047D01*
X69787727Y-23000000D02*
X56690122Y-23000000D01*
X56544737Y-81010718D02*
X56592963Y-81004770D01*
X70161952Y-68724721D02*
X70200259Y-68694826D01*
X88957874Y-81656480D02*
X88975362Y-81611144D01*
X69787727Y-81000000D02*
X69787972Y-80999996D01*
X104510718Y-52155262D02*
X104504770Y-52107036D01*
X55700000Y-22009877D02*
X55700000Y-20990122D01*
X69842631Y-34797380D02*
X69829671Y-34750549D01*
X69790681Y-80999918D02*
X69791169Y-80999870D01*
X56592963Y-20004770D02*
X56641423Y-20001195D01*
X121375278Y-68861952D02*
X121405173Y-68900259D01*
X71633152Y-38939987D02*
X71659148Y-38981039D01*
X69875362Y-69111144D02*
X69895053Y-69066721D01*
X118599870Y-53008830D02*
X118599798Y-53008344D01*
X56100259Y-20194826D02*
X56139987Y-20166847D01*
X126596840Y-15002811D02*
X126596477Y-15002482D01*
X22009877Y-38500000D02*
X22058576Y-38501195D01*
X52559148Y-51481039D02*
X52583099Y-51523318D01*
X22297380Y-38542631D02*
X22343519Y-38557874D01*
X20001195Y-34558576D02*
X20000000Y-34509877D01*
X20095053Y-34933278D02*
X20075362Y-34888855D01*
X118740851Y-68981039D02*
X118766847Y-68939987D01*
X20892963Y-38504770D02*
X20941423Y-38501195D01*
X88910718Y-51844737D02*
X88919025Y-51796861D01*
X52410033Y-22710033D02*
X52374841Y-22743539D01*
X15000912Y-15006002D02*
X15000724Y-15006455D01*
X126598877Y-15005558D02*
X126598646Y-15005125D01*
X20019025Y-69296861D02*
X20029671Y-69249450D01*
X118591655Y-53000201D02*
X118591169Y-53000129D01*
X55729671Y-52250549D02*
X55719025Y-52203138D01*
X121542125Y-34843519D02*
X121524637Y-34888855D01*
X55710718Y-22155262D02*
X55704770Y-22107036D01*
X118610718Y-69344737D02*
X118619025Y-69296861D01*
X55742631Y-52297380D02*
X55729671Y-52250549D01*
X69792136Y-53000297D02*
X69791655Y-53000201D01*
X118619025Y-34703138D02*
X118610718Y-34655262D01*
X70858576Y-38501195D02*
X70907036Y-38504770D01*
X22433278Y-38595053D02*
X22476681Y-38616900D01*
X89225158Y-22743539D02*
X89189966Y-22710033D01*
X23001605Y-23004704D02*
X23001353Y-23005125D01*
X71795229Y-64607036D02*
X71789281Y-64655262D01*
X121199740Y-38694826D02*
X121238047Y-38724721D01*
X118599870Y-80991169D02*
X118599918Y-80990681D01*
X101275278Y-51361952D02*
X101305173Y-51400259D01*
X36843539Y-20325158D02*
X36875278Y-20361952D01*
X22883099Y-69023318D02*
X22904946Y-69066721D01*
X118598121Y-80995703D02*
X118598394Y-80995295D01*
X20042631Y-83297380D02*
X20029671Y-83250549D01*
X36810033Y-22710033D02*
X36774841Y-22743539D01*
X51855262Y-51010718D02*
X51903138Y-51019025D01*
X52624637Y-20611144D02*
X52642125Y-20656480D01*
X40195053Y-81566721D02*
X40216900Y-81523318D01*
X71143519Y-68557874D02*
X71188855Y-68575362D01*
X119302619Y-38542631D02*
X119349450Y-38529671D01*
X20481039Y-65359148D02*
X20439987Y-65333152D01*
X101500000Y-52009877D02*
X101498804Y-52058576D01*
X121504946Y-39066721D02*
X121524637Y-39111144D01*
X118675362Y-69111144D02*
X118695053Y-69066721D01*
X100797380Y-83957368D02*
X100750549Y-83970328D01*
X71800201Y-23008344D02*
X71800129Y-23008830D01*
X71800724Y-23006455D02*
X71800559Y-23006917D01*
X121076681Y-68616900D02*
X121118960Y-68640851D01*
X118598394Y-53004704D02*
X118598121Y-53004296D01*
X56449450Y-22970328D02*
X56402619Y-22957368D01*
X36660012Y-51166847D02*
X36699740Y-51194826D01*
X88901195Y-20941423D02*
X88904770Y-20892963D01*
X23002482Y-53003522D02*
X23002170Y-53003902D01*
X15004704Y-88998394D02*
X15005125Y-88998646D01*
X121600000Y-39490122D02*
X121600000Y-64509877D01*
X36576681Y-52883099D02*
X36533278Y-52904946D01*
X23000057Y-53009809D02*
X23000003Y-53012027D01*
X89466721Y-20095053D02*
X89511144Y-20075362D01*
X15000559Y-88993082D02*
X15000724Y-88993544D01*
X69796097Y-53002170D02*
X69795703Y-53001878D01*
X22560012Y-65333152D02*
X22518960Y-65359148D01*
X56100259Y-81194826D02*
X56139987Y-81166847D01*
X126598394Y-88995295D02*
X126598646Y-88994874D01*
X71188855Y-35424637D02*
X71143519Y-35442125D01*
X69799942Y-50990190D02*
X69799996Y-50987972D01*
X89602619Y-81042631D02*
X89649450Y-81029671D01*
X85842125Y-83343519D02*
X85824637Y-83388855D01*
X89300259Y-52805173D02*
X89261952Y-52775278D01*
X22924637Y-34888855D02*
X22904946Y-34933278D01*
X23000559Y-53006917D02*
X23000416Y-53007387D01*
X20481039Y-35359148D02*
X20439987Y-35333152D01*
X56223318Y-22883099D02*
X56181039Y-22859148D01*
X69799996Y-80987972D02*
X69800000Y-80987727D01*
X118596097Y-50997829D02*
X118596477Y-50997517D01*
X121076681Y-20116900D02*
X121118960Y-20140851D01*
X71798804Y-34558576D02*
X71795229Y-34607036D01*
X118594441Y-50998877D02*
X118594874Y-50998646D01*
X51758576Y-51001195D02*
X51807036Y-51004770D01*
X126596840Y-88997188D02*
X126597188Y-88996840D01*
X71757368Y-34797380D02*
X71742125Y-34843519D01*
X23000003Y-23012027D02*
X23000000Y-23012272D01*
X52559148Y-52518960D02*
X52533152Y-52560012D01*
X101489281Y-52155262D02*
X101480974Y-52203138D01*
X126594874Y-88998646D02*
X126595295Y-88998394D01*
X71812272Y-23000000D02*
X71812027Y-23000003D01*
X71800000Y-69490122D02*
X71800000Y-80987727D01*
X71800000Y-53012272D02*
X71800000Y-64509877D01*
X55701195Y-52058576D02*
X55700000Y-52009877D01*
X40100000Y-52009877D02*
X40100000Y-51990122D01*
X69787727Y-53000000D02*
X56690122Y-53000000D01*
X71757368Y-69202619D02*
X71770328Y-69249450D01*
X69797829Y-53003902D02*
X69797517Y-53003522D01*
X23004704Y-80998394D02*
X23005125Y-80998646D01*
X55924721Y-83638047D02*
X55894826Y-83599740D01*
X71806917Y-80999440D02*
X71807387Y-80999583D01*
X55700000Y-52009877D02*
X55700000Y-51990122D01*
X104694826Y-20400259D02*
X104724721Y-20361952D01*
X104900259Y-52805173D02*
X104861952Y-52775278D01*
X69799996Y-23012027D02*
X69799942Y-23009809D01*
X37024637Y-22388855D02*
X37004946Y-22433278D01*
X22805173Y-38900259D02*
X22833152Y-38939987D01*
X15012027Y-15000003D02*
X15009809Y-15000057D01*
X100888855Y-83924637D02*
X100843519Y-83942125D01*
X20796861Y-35480974D02*
X20749450Y-35470328D01*
X105156480Y-83942125D02*
X105111144Y-83924637D01*
X71780974Y-34703138D02*
X71770328Y-34750549D01*
X89556480Y-51057874D02*
X89602619Y-51042631D01*
X56449450Y-20029671D02*
X56496861Y-20019025D01*
X69966847Y-65060012D02*
X69940851Y-65018960D01*
X105111144Y-83924637D02*
X105066721Y-83904946D01*
X51950549Y-83970328D02*
X51903138Y-83980974D01*
X23001878Y-53004296D02*
X23001605Y-53004704D01*
X23002482Y-80996477D02*
X23002811Y-80996840D01*
X71097380Y-65457368D02*
X71050549Y-65470328D01*
X118599440Y-53006917D02*
X118599275Y-53006455D01*
X40711144Y-22924637D02*
X40666721Y-22904946D01*
X89466721Y-83904946D02*
X89423318Y-83883099D01*
X52533152Y-83560012D02*
X52505173Y-83599740D01*
X119492963Y-68504770D02*
X119541423Y-68501195D01*
X23006455Y-53000724D02*
X23006002Y-53000912D01*
X70366721Y-65404946D02*
X70323318Y-65383099D01*
X22155262Y-35489281D02*
X22107036Y-35495229D01*
X23008344Y-80999798D02*
X23008830Y-80999870D01*
X23002811Y-53003159D02*
X23002482Y-53003522D01*
X121595229Y-83107036D02*
X121589281Y-83155262D01*
X70549450Y-68529671D02*
X70596861Y-68519025D01*
X52176681Y-20116900D02*
X52218960Y-20140851D01*
X23000416Y-23007387D02*
X23000297Y-23007863D01*
X85783099Y-83476681D02*
X85759148Y-83518960D01*
X36533278Y-83904946D02*
X36488855Y-83924637D01*
X71804296Y-23001878D02*
X71803902Y-23002170D01*
X119396861Y-65480974D02*
X119349450Y-65470328D01*
X121595229Y-69392963D02*
X121598804Y-69441423D01*
X126594441Y-15001122D02*
X126593997Y-15000912D01*
X71807863Y-80999702D02*
X71808344Y-80999798D01*
X85538047Y-52775278D02*
X85499740Y-52805173D01*
X104724721Y-83638047D02*
X104694826Y-83599740D01*
X40666721Y-20095053D02*
X40711144Y-20075362D01*
X40539987Y-52833152D02*
X40500259Y-52805173D01*
X51903138Y-81019025D02*
X51950549Y-81029671D01*
X15006002Y-88999087D02*
X15006455Y-88999275D01*
X126598646Y-15005125D02*
X126598394Y-15004704D01*
X22805173Y-65099740D02*
X22775278Y-65138047D01*
X20010718Y-39344737D02*
X20019025Y-39296861D01*
X104519025Y-20796861D02*
X104529671Y-20749450D01*
X118600000Y-50987727D02*
X118600000Y-39490122D01*
X119396861Y-68519025D02*
X119444737Y-68510718D01*
X88957874Y-83343519D02*
X88942631Y-83297380D01*
X52700000Y-81990122D02*
X52700000Y-83009877D01*
X37089281Y-83155262D02*
X37080974Y-83203138D01*
X51807036Y-81004770D02*
X51855262Y-81010718D01*
X104542631Y-51702619D02*
X104557874Y-51656480D01*
X71605173Y-35099740D02*
X71575278Y-35138047D01*
X23009318Y-53000081D02*
X23008830Y-53000129D01*
X51709877Y-23000000D02*
X41090122Y-23000000D01*
X55956460Y-51325158D02*
X55989966Y-51289966D01*
X22957368Y-69202619D02*
X22970328Y-69249450D01*
X105156480Y-22942125D02*
X105111144Y-22924637D01*
X118593997Y-80999087D02*
X118594441Y-80998877D01*
X40129671Y-83250549D02*
X40119025Y-83203138D01*
X52680974Y-83203138D02*
X52670328Y-83250549D01*
X23000081Y-80990681D02*
X23000129Y-80991169D01*
X118593544Y-50999275D02*
X118593997Y-50999087D01*
X20796861Y-83980974D02*
X20749450Y-83970328D01*
X20095053Y-39066721D02*
X20116900Y-39023318D01*
X126599440Y-15006917D02*
X126599275Y-15006455D01*
X71659148Y-68981039D02*
X71683099Y-69023318D01*
X22638047Y-65275278D02*
X22599740Y-65305173D01*
X40896861Y-20019025D02*
X40944737Y-20010718D01*
X69798646Y-23005125D02*
X69798394Y-23004704D01*
X22250549Y-35470328D02*
X22203138Y-35480974D01*
X69796097Y-23002170D02*
X69795703Y-23001878D01*
X121570328Y-83250549D02*
X121557368Y-83297380D01*
X85857368Y-51702619D02*
X85870328Y-51749450D01*
X22995229Y-69392963D02*
X22998804Y-69441423D01*
X85243519Y-20057874D02*
X85288855Y-20075362D01*
X101457368Y-51702619D02*
X101470328Y-51749450D01*
X89156460Y-22674841D02*
X89124721Y-22638047D01*
X23009809Y-23000057D02*
X23009809Y-23000057D01*
X105490122Y-53000000D02*
X105441423Y-52998804D01*
X118619025Y-64703138D02*
X118610718Y-64655262D01*
X118598394Y-23004704D02*
X118598121Y-23004296D01*
X23000129Y-50991169D02*
X23000201Y-50991655D01*
X85880974Y-81796861D02*
X85889281Y-81844737D01*
X56356480Y-81057874D02*
X56402619Y-81042631D01*
X22904946Y-34933278D02*
X22883099Y-34976681D01*
X126593082Y-88999440D02*
X126593544Y-88999275D01*
X52505173Y-52599740D02*
X52475278Y-52638047D01*
X23002811Y-50996840D02*
X23003159Y-50997188D01*
X56496861Y-51019025D02*
X56544737Y-51010718D01*
X101480974Y-51796861D02*
X101489281Y-51844737D01*
X15000003Y-88987972D02*
X15000057Y-88990190D01*
X40100000Y-22009877D02*
X40100000Y-20990122D01*
X104939987Y-22833152D02*
X104900259Y-22805173D01*
X121405173Y-20400259D02*
X121433152Y-20439987D01*
X126593082Y-15000559D02*
X126592612Y-15000416D01*
X55989966Y-52710033D02*
X55956460Y-52674841D01*
X23000081Y-50990681D02*
X23000129Y-50991169D01*
X52374841Y-51256460D02*
X52410033Y-51289966D01*
X55704770Y-22107036D02*
X55701195Y-22058576D01*
X40896861Y-22980974D02*
X40849450Y-22970328D01*
X20001195Y-64558576D02*
X20000000Y-64509877D01*
X104666847Y-52560012D02*
X104640851Y-52518960D01*
X20116900Y-83476681D02*
X20095053Y-83433278D01*
X40896861Y-83980974D02*
X40849450Y-83970328D01*
X71233278Y-35404946D02*
X71188855Y-35424637D01*
X36875278Y-52638047D02*
X36843539Y-52674841D01*
X22388855Y-65424637D02*
X22343519Y-65442125D01*
X52505173Y-20400259D02*
X52533152Y-20439987D01*
X100843519Y-81057874D02*
X100888855Y-81075362D01*
X23006917Y-80999440D02*
X23007387Y-80999583D01*
X36774841Y-51256460D02*
X36810033Y-51289966D01*
X20481039Y-20140851D02*
X20523318Y-20116900D01*
X20029671Y-69249450D02*
X20042631Y-69202619D01*
X15007387Y-88999583D02*
X15007863Y-88999702D01*
X20325158Y-65243539D02*
X20289966Y-65210033D01*
X69796840Y-50997188D02*
X69797188Y-50996840D01*
X69791655Y-50999798D02*
X69792136Y-50999702D01*
X22297380Y-65457368D02*
X22250549Y-65470328D01*
X15000129Y-15008830D02*
X15000081Y-15009318D01*
X69794874Y-50998646D02*
X69795295Y-50998394D01*
X100509877Y-81000000D02*
X100558576Y-81001195D01*
X36933152Y-20439987D02*
X36959148Y-20481039D01*
X56402619Y-52957368D02*
X56356480Y-52942125D01*
X23004704Y-50998394D02*
X23005125Y-50998646D01*
X104939987Y-20166847D02*
X104981039Y-20140851D01*
X36699740Y-51194826D02*
X36738047Y-51224721D01*
X89156460Y-51325158D02*
X89189966Y-51289966D01*
X52043519Y-22942125D02*
X51997380Y-22957368D01*
X37070328Y-20749450D02*
X37080974Y-20796861D01*
X15001122Y-88994441D02*
X15001353Y-88994874D01*
X101442125Y-52343519D02*
X101424637Y-52388855D01*
X85889281Y-81844737D02*
X85895229Y-81892963D01*
X36699740Y-52805173D02*
X36660012Y-52833152D01*
X20439987Y-38666847D02*
X20481039Y-38640851D01*
X51709877Y-84000000D02*
X41090122Y-84000000D01*
X69798877Y-23005558D02*
X69798646Y-23005125D01*
X22883099Y-64976681D02*
X22859148Y-65018960D01*
X85007036Y-81004770D02*
X85055262Y-81010718D01*
X118889966Y-68789966D02*
X118925158Y-68756460D01*
X71543539Y-68825158D02*
X71575278Y-68861952D01*
X118594874Y-53001353D02*
X118594441Y-53001122D01*
X118593082Y-23000559D02*
X118592612Y-23000416D01*
X118594441Y-23001122D02*
X118593997Y-23000912D01*
X71742125Y-69156480D02*
X71757368Y-69202619D01*
X56592963Y-52995229D02*
X56544737Y-52989281D01*
X120707036Y-65495229D02*
X120658576Y-65498804D01*
X71800003Y-53012027D02*
X71800000Y-53012272D01*
X85733152Y-52560012D02*
X85705173Y-52599740D01*
X105202619Y-22957368D02*
X105156480Y-22942125D01*
X41090122Y-51000000D02*
X51709877Y-51000000D01*
X71807387Y-23000416D02*
X71806917Y-23000559D01*
X71543539Y-38825158D02*
X71575278Y-38861952D01*
X85243519Y-51057874D02*
X85288855Y-51075362D01*
X20990122Y-68500000D02*
X22009877Y-68500000D01*
X71050549Y-35470328D02*
X71003138Y-35480974D01*
X51807036Y-20004770D02*
X51855262Y-20010718D01*
X70056460Y-38825158D02*
X70089966Y-38789966D01*
X118590681Y-23000081D02*
X118590190Y-23000057D01*
X40104770Y-83107036D02*
X40101195Y-83058576D01*
X121557368Y-39202619D02*
X121570328Y-39249450D01*
X56181039Y-81140851D02*
X56223318Y-81116900D01*
X69895053Y-34933278D02*
X69875362Y-34888855D01*
X20140851Y-68981039D02*
X20166847Y-68939987D01*
X118596840Y-50997188D02*
X118597188Y-50996840D01*
X70323318Y-65383099D02*
X70281039Y-65359148D01*
X118598121Y-53004296D02*
X118597829Y-53003902D01*
X71575278Y-38861952D02*
X71605173Y-38900259D01*
X105249450Y-83970328D02*
X105202619Y-83957368D01*
X22710033Y-65210033D02*
X22674841Y-65243539D01*
X119000259Y-65305173D02*
X118961952Y-65275278D01*
X23000129Y-23008830D02*
X23000081Y-23009318D01*
X52505173Y-51400259D02*
X52533152Y-51439987D01*
X71233278Y-65404946D02*
X71188855Y-65424637D01*
X20523318Y-20116900D02*
X20566721Y-20095053D01*
X89339987Y-52833152D02*
X89300259Y-52805173D01*
X118591655Y-50999798D02*
X118592136Y-50999702D01*
X20019025Y-39296861D02*
X20029671Y-39249450D01*
X119211144Y-65424637D02*
X119166721Y-65404946D01*
X36533278Y-81095053D02*
X36576681Y-81116900D01*
X15000297Y-15007863D02*
X15000201Y-15008344D01*
X69794874Y-23001353D02*
X69794441Y-23001122D01*
X69994826Y-65099740D02*
X69966847Y-65060012D01*
X22203138Y-38519025D02*
X22250549Y-38529671D01*
X118642631Y-69202619D02*
X118657874Y-69156480D01*
X15002170Y-88996097D02*
X15002482Y-88996477D01*
X52299740Y-81194826D02*
X52338047Y-81224721D01*
X23000912Y-23006002D02*
X23000724Y-23006455D01*
X119590122Y-35500000D02*
X119541423Y-35498804D01*
X15005125Y-15001353D02*
X15004704Y-15001605D01*
X69791169Y-23000129D02*
X69790681Y-23000081D01*
X105202619Y-51042631D02*
X105249450Y-51029671D01*
X37004946Y-81566721D02*
X37024637Y-81611144D01*
X121504946Y-69066721D02*
X121524637Y-69111144D01*
X69794874Y-53001353D02*
X69794441Y-53001122D01*
X85610033Y-52710033D02*
X85574841Y-52743539D01*
X20990122Y-20000000D02*
X36109877Y-20000000D01*
X20004770Y-83107036D02*
X20001195Y-83058576D01*
X37100000Y-20990122D02*
X37100000Y-22009877D01*
X104575362Y-81611144D02*
X104595053Y-81566721D01*
X36618960Y-83859148D02*
X36576681Y-83883099D01*
X22743539Y-38825158D02*
X22775278Y-38861952D01*
X36738047Y-20224721D02*
X36774841Y-20256460D01*
X56223318Y-20116900D02*
X56266721Y-20095053D01*
X88901195Y-51941423D02*
X88904770Y-51892963D01*
X20656480Y-35442125D02*
X20611144Y-35424637D01*
X85804946Y-51566721D02*
X85824637Y-51611144D01*
X40992963Y-22995229D02*
X40944737Y-22989281D01*
X15006917Y-15000559D02*
X15006455Y-15000724D01*
X118594874Y-50998646D02*
X118595295Y-50998394D01*
X104529671Y-81749450D02*
X104542631Y-81702619D01*
X55840851Y-52518960D02*
X55816900Y-52476681D01*
X118600000Y-53012272D02*
X118599996Y-53012027D01*
X71802482Y-23003522D02*
X71802170Y-23003902D01*
X56311144Y-51075362D02*
X56356480Y-51057874D01*
X104557874Y-83343519D02*
X104542631Y-83297380D01*
X40104770Y-22107036D02*
X40101195Y-22058576D01*
X52176681Y-52883099D02*
X52133278Y-52904946D01*
X119396861Y-38519025D02*
X119444737Y-38510718D01*
X104789966Y-20289966D02*
X104825158Y-20256460D01*
X15005558Y-15001122D02*
X15005125Y-15001353D01*
X52133278Y-52904946D02*
X52088855Y-52924637D01*
X52689281Y-83155262D02*
X52680974Y-83203138D01*
X22638047Y-35275278D02*
X22599740Y-35305173D01*
X69792136Y-23000297D02*
X69791655Y-23000201D01*
X40623318Y-22883099D02*
X40581039Y-22859148D01*
X52443539Y-81325158D02*
X52475278Y-81361952D01*
X70858576Y-35498804D02*
X70809877Y-35500000D01*
X89040851Y-81481039D02*
X89066847Y-81439987D01*
X126591655Y-88999798D02*
X126592136Y-88999702D01*
X121589281Y-39344737D02*
X121595229Y-39392963D01*
X120609877Y-65500000D02*
X119590122Y-65500000D01*
X55816900Y-51523318D02*
X55840851Y-51481039D01*
X85197380Y-83957368D02*
X85150549Y-83970328D01*
X118591655Y-80999798D02*
X118592136Y-80999702D01*
X69798394Y-53004704D02*
X69798121Y-53004296D01*
X40623318Y-52883099D02*
X40581039Y-52859148D01*
X22388855Y-38575362D02*
X22433278Y-38595053D01*
X52533152Y-51439987D02*
X52559148Y-51481039D01*
X55700000Y-81990122D02*
X55701195Y-81941423D01*
X20892963Y-20004770D02*
X20941423Y-20001195D01*
X55924721Y-81361952D02*
X55956460Y-81325158D01*
X85857368Y-20702619D02*
X85870328Y-20749450D01*
X55775362Y-20611144D02*
X55795053Y-20566721D01*
X118601195Y-39441423D02*
X118604770Y-39392963D01*
X52218960Y-52859148D02*
X52176681Y-52883099D01*
X71798804Y-39441423D02*
X71800000Y-39490122D01*
X71399740Y-65305173D02*
X71360012Y-65333152D01*
X15012272Y-15000000D02*
X15012027Y-15000003D01*
X20749450Y-68529671D02*
X20796861Y-68519025D01*
X52698804Y-81941423D02*
X52700000Y-81990122D01*
X23007863Y-80999702D02*
X23008344Y-80999798D01*
X101210033Y-51289966D02*
X101243539Y-51325158D01*
X89189966Y-83710033D02*
X89156460Y-83674841D01*
X55742631Y-22297380D02*
X55729671Y-22250549D01*
X118599702Y-53007863D02*
X118599583Y-53007387D01*
X100933278Y-51095053D02*
X100976681Y-51116900D01*
X36774841Y-52743539D02*
X36738047Y-52775278D01*
X85007036Y-51004770D02*
X85055262Y-51010718D01*
X40119025Y-83203138D02*
X40110718Y-83155262D01*
X52642125Y-51656480D02*
X52657368Y-51702619D01*
X101305173Y-20400259D02*
X101333152Y-20439987D01*
X100976681Y-83883099D02*
X100933278Y-83904946D01*
X105111144Y-51075362D02*
X105156480Y-51057874D01*
X71800201Y-53008344D02*
X71800129Y-53008830D01*
X118594441Y-80998877D02*
X118594874Y-80998646D01*
X36303138Y-81019025D02*
X36350549Y-81029671D01*
X56496861Y-81019025D02*
X56544737Y-81010718D01*
X84958576Y-51001195D02*
X85007036Y-51004770D01*
X70858576Y-65498804D02*
X70809877Y-65500000D01*
X85824637Y-20611144D02*
X85842125Y-20656480D01*
X126595703Y-15001878D02*
X126595295Y-15001605D01*
X69829671Y-34750549D02*
X69819025Y-34703138D01*
X85880974Y-20796861D02*
X85889281Y-20844737D01*
X23000912Y-53006002D02*
X23000724Y-53006455D01*
X118599942Y-53009809D02*
X118599918Y-53009318D01*
X105344737Y-83989281D02*
X105296861Y-83980974D01*
X20941423Y-35498804D02*
X20892963Y-35495229D01*
X118592612Y-80999583D02*
X118593082Y-80999440D01*
X69787727Y-51000000D02*
X69787972Y-50999996D01*
X101359148Y-20481039D02*
X101383099Y-20523318D01*
X40157874Y-51656480D02*
X40175362Y-51611144D01*
X85733152Y-81439987D02*
X85759148Y-81481039D01*
X104861952Y-52775278D02*
X104825158Y-52743539D01*
X104575362Y-20611144D02*
X104595053Y-20566721D01*
X118587727Y-53000000D02*
X105490122Y-53000000D01*
X52475278Y-22638047D02*
X52443539Y-22674841D01*
X40266847Y-51439987D02*
X40294826Y-51400259D01*
X105441423Y-22998804D02*
X105392963Y-22995229D01*
X40195053Y-52433278D02*
X40175362Y-52388855D01*
X118597188Y-50996840D02*
X118597517Y-50996477D01*
X52133278Y-51095053D02*
X52176681Y-51116900D01*
X121589281Y-34655262D02*
X121580974Y-34703138D01*
X70161952Y-65275278D02*
X70125158Y-65243539D01*
X101333152Y-22560012D02*
X101305173Y-22599740D01*
X71800081Y-53009318D02*
X71800057Y-53009809D01*
X37024637Y-52388855D02*
X37004946Y-52433278D01*
X22710033Y-35210033D02*
X22674841Y-35243539D01*
X70809877Y-65500000D02*
X70790122Y-65500000D01*
X118600000Y-34509877D02*
X118600000Y-23012272D01*
X20892963Y-65495229D02*
X20844737Y-65489281D01*
X85150549Y-51029671D02*
X85197380Y-51042631D01*
X101424637Y-22388855D02*
X101404946Y-22433278D01*
X70411144Y-65424637D02*
X70366721Y-65404946D01*
X69797829Y-80996097D02*
X69798121Y-80995703D01*
X52624637Y-52388855D02*
X52604946Y-52433278D01*
X15002170Y-15003902D02*
X15001878Y-15004296D01*
X118716900Y-34976681D02*
X118695053Y-34933278D01*
X118629671Y-39249450D02*
X118642631Y-39202619D01*
X104504770Y-51892963D02*
X104510718Y-51844737D01*
X70692963Y-35495229D02*
X70644737Y-35489281D01*
X55719025Y-20796861D02*
X55729671Y-20749450D01*
X69794874Y-80998646D02*
X69795295Y-80998394D01*
X71780974Y-64703138D02*
X71770328Y-64750549D01*
X101442125Y-83343519D02*
X101424637Y-83388855D01*
X40623318Y-83883099D02*
X40581039Y-83859148D01*
X119256480Y-65442125D02*
X119211144Y-65424637D01*
X118596477Y-80997517D02*
X118596840Y-80997188D01*
X88942631Y-83297380D02*
X88929671Y-83250549D01*
X118596477Y-50997517D02*
X118596840Y-50997188D01*
X104724721Y-52638047D02*
X104694826Y-52599740D01*
X88900000Y-51990122D02*
X88901195Y-51941423D01*
X104500000Y-22009877D02*
X104500000Y-20990122D01*
X69799870Y-53008830D02*
X69799798Y-53008344D01*
X121343539Y-65174841D02*
X121310033Y-65210033D01*
X70741423Y-35498804D02*
X70692963Y-35495229D01*
X22998804Y-69441423D02*
X23000000Y-69490122D01*
X40157874Y-22343519D02*
X40142631Y-22297380D01*
X20566721Y-68595053D02*
X20611144Y-68575362D01*
X101275278Y-20361952D02*
X101305173Y-20400259D01*
X85333278Y-52904946D02*
X85288855Y-52924637D01*
X118595295Y-53001605D02*
X118594874Y-53001353D01*
X15006455Y-88999275D02*
X15006917Y-88999440D01*
X104789966Y-52710033D02*
X104756460Y-52674841D01*
X40425158Y-20256460D02*
X40461952Y-20224721D01*
X20439987Y-65333152D02*
X20400259Y-65305173D01*
X89602619Y-51042631D02*
X89649450Y-51029671D01*
X56139987Y-81166847D02*
X56181039Y-81140851D01*
X20990122Y-35500000D02*
X20941423Y-35498804D01*
X89792963Y-81004770D02*
X89841423Y-81001195D01*
X55866847Y-52560012D02*
X55840851Y-52518960D01*
X56061952Y-83775278D02*
X56025158Y-83743539D01*
X69842631Y-64797380D02*
X69829671Y-64750549D01*
X51807036Y-52995229D02*
X51758576Y-52998804D01*
X121033278Y-20095053D02*
X121076681Y-20116900D01*
X100797380Y-22957368D02*
X100750549Y-22970328D01*
X84958576Y-83998804D02*
X84909877Y-84000000D01*
X85288855Y-20075362D02*
X85333278Y-20095053D01*
X101500000Y-83009877D02*
X101498804Y-83058576D01*
X118695053Y-64933278D02*
X118675362Y-64888855D01*
X23003902Y-80997829D02*
X23004296Y-80998121D01*
X71801878Y-53004296D02*
X71801605Y-53004704D01*
X118856460Y-38825158D02*
X118889966Y-38789966D01*
X101333152Y-20439987D02*
X101359148Y-20481039D01*
X20656480Y-83942125D02*
X20611144Y-83924637D01*
X23005125Y-23001353D02*
X23004704Y-23001605D01*
X104500000Y-83009877D02*
X104500000Y-81990122D01*
X40539987Y-51166847D02*
X40581039Y-51140851D01*
X85333278Y-51095053D02*
X85376681Y-51116900D01*
X36350549Y-51029671D02*
X36397380Y-51042631D01*
X85288855Y-22924637D02*
X85243519Y-22942125D01*
X56311144Y-83924637D02*
X56266721Y-83904946D01*
X104789966Y-51289966D02*
X104825158Y-51256460D01*
X104519025Y-51796861D02*
X104529671Y-51749450D01*
X20325158Y-20256460D02*
X20361952Y-20224721D01*
X118889966Y-38789966D02*
X118925158Y-38756460D01*
X23000003Y-53012027D02*
X23000000Y-53012272D01*
X89040851Y-51481039D02*
X89066847Y-51439987D01*
X20566721Y-20095053D02*
X20611144Y-20075362D01*
X36738047Y-83775278D02*
X36699740Y-83805173D01*
X101060012Y-20166847D02*
X101099740Y-20194826D01*
X69940851Y-65018960D02*
X69916900Y-64976681D01*
X85759148Y-20481039D02*
X85783099Y-20523318D01*
X100509877Y-53000000D02*
X89890122Y-53000000D01*
X15002482Y-15003522D02*
X15002170Y-15003902D01*
X20000000Y-20990122D02*
X20001195Y-20941423D01*
X20941423Y-20001195D02*
X20990122Y-20000000D01*
X118597829Y-80996097D02*
X118598121Y-80995703D01*
X23006455Y-80999275D02*
X23006917Y-80999440D01*
X118590681Y-50999918D02*
X118591169Y-50999870D01*
X71804704Y-50998394D02*
X71805125Y-50998646D01*
X104504770Y-22107036D02*
X104501195Y-22058576D01*
X85574841Y-81256460D02*
X85610033Y-81289966D01*
X105023318Y-83883099D02*
X104981039Y-83859148D01*
X69793544Y-53000724D02*
X69793082Y-53000559D01*
X85783099Y-22476681D02*
X85759148Y-22518960D01*
X52374841Y-52743539D02*
X52338047Y-52775278D01*
X88901195Y-22058576D02*
X88900000Y-22009877D01*
X22942125Y-39156480D02*
X22957368Y-39202619D01*
X20611144Y-20075362D02*
X20656480Y-20057874D01*
X55719025Y-83203138D02*
X55710718Y-83155262D01*
X100797380Y-20042631D02*
X100843519Y-20057874D01*
X85243519Y-52942125D02*
X85197380Y-52957368D01*
X71800057Y-53009809D02*
X71800003Y-53012027D01*
X101489281Y-22155262D02*
X101480974Y-22203138D01*
X118599942Y-23009809D02*
X118599918Y-23009318D01*
X20116900Y-20523318D02*
X20140851Y-20481039D01*
X56641423Y-20001195D02*
X56690122Y-20000000D01*
X20000000Y-39490122D02*
X20001195Y-39441423D01*
X85418960Y-83859148D02*
X85376681Y-83883099D01*
X118599440Y-80993082D02*
X118599583Y-80992612D01*
X89225158Y-81256460D02*
X89261952Y-81224721D01*
X101305173Y-83599740D02*
X101275278Y-83638047D01*
X70955262Y-65489281D02*
X70907036Y-65495229D01*
X69787972Y-23000003D02*
X69787727Y-23000000D01*
X40896861Y-81019025D02*
X40944737Y-81010718D01*
X85103138Y-52980974D02*
X85055262Y-52989281D01*
X119349450Y-35470328D02*
X119302619Y-35457368D01*
X88942631Y-52297380D02*
X88929671Y-52250549D01*
X56311144Y-81075362D02*
X56356480Y-81057874D01*
X118599942Y-23009809D02*
X118599942Y-23009809D01*
X15008344Y-88999798D02*
X15008830Y-88999870D01*
X118597517Y-50996477D02*
X118597829Y-50996097D01*
X52475278Y-83638047D02*
X52443539Y-83674841D01*
X89841423Y-20001195D02*
X89890122Y-20000000D01*
X23000416Y-50992612D02*
X23000559Y-50993082D01*
X20400259Y-38694826D02*
X20439987Y-38666847D01*
X121524637Y-34888855D02*
X121504946Y-34933278D01*
X52604946Y-81566721D02*
X52624637Y-81611144D01*
X23012272Y-51000000D02*
X36109877Y-51000000D01*
X52218960Y-51140851D02*
X52260012Y-51166847D01*
X55704770Y-81892963D02*
X55710718Y-81844737D01*
X104640851Y-22518960D02*
X104616900Y-22476681D01*
X121238047Y-35275278D02*
X121199740Y-35305173D01*
X37080974Y-20796861D02*
X37089281Y-20844737D01*
X22942125Y-64843519D02*
X22924637Y-64888855D01*
X70955262Y-35489281D02*
X70907036Y-35495229D01*
X20095053Y-20566721D02*
X20116900Y-20523318D01*
X22674841Y-65243539D02*
X22638047Y-65275278D01*
X40294826Y-81400259D02*
X40324721Y-81361952D01*
X105156480Y-51057874D02*
X105202619Y-51042631D01*
X70456480Y-38557874D02*
X70502619Y-38542631D01*
X52700000Y-22009877D02*
X52700000Y-22009877D01*
X104501195Y-51941423D02*
X104504770Y-51892963D01*
X85870328Y-20749450D02*
X85880974Y-20796861D01*
X85610033Y-51289966D02*
X85643539Y-51325158D01*
X20656480Y-38557874D02*
X20702619Y-38542631D01*
X52670328Y-22250549D02*
X52657368Y-22297380D01*
X36207036Y-83995229D02*
X36158576Y-83998804D01*
X101470328Y-83250549D02*
X101457368Y-83297380D01*
X55775362Y-81611144D02*
X55795053Y-81566721D01*
X20001195Y-83058576D02*
X20000000Y-83009877D01*
X88910718Y-22155262D02*
X88904770Y-22107036D01*
X85150549Y-52970328D02*
X85103138Y-52980974D01*
X20000000Y-34509877D02*
X20000000Y-20990122D01*
X118597188Y-23003159D02*
X118596840Y-23002811D01*
X20029671Y-20749450D02*
X20042631Y-20702619D01*
X118740851Y-35018960D02*
X118716900Y-34976681D01*
X71805125Y-80998646D02*
X71805558Y-80998877D01*
X121580974Y-34703138D02*
X121570328Y-34750549D01*
X52505173Y-22599740D02*
X52475278Y-22638047D01*
X121160012Y-20166847D02*
X121199740Y-20194826D01*
X23002811Y-23003159D02*
X23002482Y-23003522D01*
X40175362Y-22388855D02*
X40157874Y-22343519D01*
X56181039Y-22859148D02*
X56139987Y-22833152D01*
X56690122Y-20000000D02*
X84909877Y-20000000D01*
X23008344Y-23000201D02*
X23007863Y-23000297D01*
X55757874Y-22343519D02*
X55742631Y-22297380D01*
X40216900Y-52476681D02*
X40195053Y-52433278D01*
X121310033Y-65210033D02*
X121274841Y-65243539D01*
X52043519Y-81057874D02*
X52088855Y-81075362D01*
X23000201Y-50991655D02*
X23000297Y-50992136D01*
X69800000Y-69490122D02*
X69801195Y-69441423D01*
X105392963Y-20004770D02*
X105441423Y-20001195D01*
X22775278Y-35138047D02*
X22743539Y-35174841D01*
X56402619Y-20042631D02*
X56449450Y-20029671D01*
X118590190Y-50999942D02*
X118590190Y-50999942D01*
X40802619Y-83957368D02*
X40756480Y-83942125D01*
X71659148Y-35018960D02*
X71633152Y-35060012D01*
X118595703Y-23001878D02*
X118595295Y-23001605D01*
X85243519Y-22942125D02*
X85197380Y-22957368D01*
X118596477Y-23002482D02*
X118596097Y-23002170D01*
X70502619Y-65457368D02*
X70456480Y-65442125D01*
X56592963Y-51004770D02*
X56641423Y-51001195D01*
X36255262Y-83989281D02*
X36207036Y-83995229D01*
X71800081Y-50990681D02*
X71800129Y-50991169D01*
X89040851Y-22518960D02*
X89016900Y-22476681D01*
X120609877Y-38500000D02*
X120658576Y-38501195D01*
X51903138Y-83980974D02*
X51855262Y-83989281D01*
X23000000Y-34509877D02*
X22998804Y-34558576D01*
X85870328Y-81749450D02*
X85880974Y-81796861D01*
X104825158Y-20256460D02*
X104861952Y-20224721D01*
X69810718Y-34655262D02*
X69804770Y-34607036D01*
X22599740Y-68694826D02*
X22638047Y-68724721D01*
X89511144Y-81075362D02*
X89556480Y-81057874D01*
X71633152Y-35060012D02*
X71605173Y-35099740D01*
X20001195Y-20941423D02*
X20004770Y-20892963D01*
X101489281Y-81844737D02*
X101495229Y-81892963D01*
X20010718Y-34655262D02*
X20004770Y-34607036D01*
X85705173Y-22599740D02*
X85675278Y-22638047D01*
X118599087Y-53006002D02*
X118598877Y-53005558D01*
X85574841Y-83743539D02*
X85538047Y-83775278D01*
X121598804Y-64558576D02*
X121595229Y-64607036D01*
X89261952Y-20224721D02*
X89300259Y-20194826D01*
X56592963Y-22995229D02*
X56544737Y-22989281D01*
X36875278Y-51361952D02*
X36905173Y-51400259D01*
X69796477Y-50997517D02*
X69796840Y-50997188D01*
X88904770Y-22107036D02*
X88901195Y-22058576D01*
X20400259Y-20194826D02*
X20439987Y-20166847D01*
X23006002Y-50999087D02*
X23006455Y-50999275D01*
X89124721Y-83638047D02*
X89094826Y-83599740D01*
X15000057Y-88990190D02*
X15000081Y-88990681D01*
X121600000Y-64509877D02*
X121598804Y-64558576D01*
X100933278Y-81095053D02*
X100976681Y-81116900D01*
X37057368Y-22297380D02*
X37042125Y-22343519D01*
X88904770Y-20892963D02*
X88910718Y-20844737D01*
X23002811Y-80996840D02*
X23003159Y-80997188D01*
X36618960Y-51140851D02*
X36660012Y-51166847D01*
X119492963Y-35495229D02*
X119444737Y-35489281D01*
X20325158Y-83743539D02*
X20289966Y-83710033D01*
X121459148Y-65018960D02*
X121433152Y-65060012D01*
X118657874Y-34843519D02*
X118642631Y-34797380D01*
X40119025Y-51796861D02*
X40129671Y-51749450D01*
X36843539Y-52674841D02*
X36810033Y-52710033D01*
X85460012Y-81166847D02*
X85499740Y-81194826D01*
X40461952Y-81224721D02*
X40500259Y-81194826D01*
X55795053Y-83433278D02*
X55775362Y-83388855D01*
X71399740Y-68694826D02*
X71438047Y-68724721D01*
X20057874Y-69156480D02*
X20075362Y-69111144D01*
X88904770Y-52107036D02*
X88901195Y-52058576D01*
X36699740Y-81194826D02*
X36738047Y-81224721D01*
X71806002Y-50999087D02*
X71806455Y-50999275D01*
X126594874Y-15001353D02*
X126594441Y-15001122D01*
X23002170Y-50996097D02*
X23002482Y-50996477D01*
X71683099Y-64976681D02*
X71659148Y-65018960D01*
X20029671Y-83250549D02*
X20019025Y-83203138D01*
X118604770Y-34607036D02*
X118601195Y-34558576D01*
X85759148Y-51481039D02*
X85783099Y-51523318D01*
X22883099Y-39023318D02*
X22904946Y-39066721D01*
X55795053Y-22433278D02*
X55775362Y-22388855D01*
X69801195Y-69441423D02*
X69804770Y-69392963D01*
X20140851Y-35018960D02*
X20116900Y-34976681D01*
X52583099Y-52476681D02*
X52559148Y-52518960D01*
X40461952Y-22775278D02*
X40425158Y-22743539D01*
X121375278Y-35138047D02*
X121343539Y-35174841D01*
X100933278Y-52904946D02*
X100888855Y-52924637D01*
X71724637Y-34888855D02*
X71704946Y-34933278D01*
X121160012Y-35333152D02*
X121118960Y-35359148D01*
X100509877Y-51000000D02*
X100509877Y-51000000D01*
X118593544Y-23000724D02*
X118593082Y-23000559D01*
X85643539Y-20325158D02*
X85675278Y-20361952D01*
X40195053Y-83433278D02*
X40175362Y-83388855D01*
X119444737Y-38510718D02*
X119492963Y-38504770D01*
X121199740Y-20194826D02*
X121238047Y-20224721D01*
X71801353Y-80994874D02*
X71801605Y-80995295D01*
X20042631Y-69202619D02*
X20057874Y-69156480D01*
X118794826Y-38900259D02*
X118824721Y-38861952D01*
X22859148Y-68981039D02*
X22883099Y-69023318D01*
X22009877Y-35500000D02*
X20990122Y-35500000D01*
X20075362Y-64888855D02*
X20057874Y-64843519D01*
X71800003Y-50987972D02*
X71800057Y-50990190D01*
X71807387Y-53000416D02*
X71806917Y-53000559D01*
X121557368Y-34797380D02*
X121542125Y-34843519D01*
X71800724Y-50993544D02*
X71800912Y-50993997D01*
X23006917Y-23000559D02*
X23006455Y-23000724D01*
X55700000Y-83009877D02*
X55700000Y-81990122D01*
X119039987Y-68666847D02*
X119081039Y-68640851D01*
X120707036Y-35495229D02*
X120658576Y-35498804D01*
X101495229Y-20892963D02*
X101498804Y-20941423D01*
X85538047Y-83775278D02*
X85499740Y-83805173D01*
X118598646Y-80994874D02*
X118598877Y-80994441D01*
X89792963Y-22995229D02*
X89744737Y-22989281D01*
X23000000Y-50987727D02*
X23000003Y-50987972D01*
X120609877Y-68500000D02*
X120658576Y-68501195D01*
X104756460Y-51325158D02*
X104789966Y-51289966D01*
X69940851Y-68981039D02*
X69966847Y-68939987D01*
X40157874Y-81656480D02*
X40175362Y-81611144D01*
X40539987Y-22833152D02*
X40500259Y-22805173D01*
X69795295Y-23001605D02*
X69794874Y-23001353D01*
X37089281Y-51844737D02*
X37095229Y-51892963D01*
X41041423Y-20001195D02*
X41090122Y-20000000D01*
X121570328Y-64750549D02*
X121557368Y-64797380D01*
X71659148Y-38981039D02*
X71683099Y-39023318D01*
X23005125Y-50998646D02*
X23005558Y-50998877D01*
X36810033Y-20289966D02*
X36843539Y-20325158D01*
X15003522Y-15002482D02*
X15003159Y-15002811D01*
X101424637Y-81611144D02*
X101442125Y-81656480D01*
X101210033Y-81289966D02*
X101243539Y-81325158D01*
X40195053Y-51566721D02*
X40216900Y-51523318D01*
X126591169Y-15000129D02*
X126590681Y-15000081D01*
X121033278Y-65404946D02*
X120988855Y-65424637D01*
X40216900Y-83476681D02*
X40195053Y-83433278D01*
X40849450Y-22970328D02*
X40802619Y-22957368D01*
X71802811Y-53003159D02*
X71802482Y-53003522D01*
X120609877Y-20000000D02*
X120658576Y-20001195D01*
X101424637Y-52388855D02*
X101404946Y-52433278D01*
X101243539Y-83674841D02*
X101210033Y-83710033D01*
X70323318Y-68616900D02*
X70366721Y-68595053D01*
X70056460Y-35174841D02*
X70024721Y-35138047D01*
X121459148Y-83518960D02*
X121433152Y-83560012D01*
X20116900Y-34976681D02*
X20095053Y-34933278D01*
X20004770Y-64607036D02*
X20001195Y-64558576D01*
X100750549Y-22970328D02*
X100703138Y-22980974D01*
X22957368Y-39202619D02*
X22970328Y-39249450D01*
X23009318Y-80999918D02*
X23009809Y-80999942D01*
X22250549Y-65470328D02*
X22203138Y-65480974D01*
X70411144Y-35424637D02*
X70366721Y-35404946D01*
X105156480Y-52942125D02*
X105111144Y-52924637D01*
X118592136Y-23000297D02*
X118591655Y-23000201D01*
X22560012Y-38666847D02*
X22599740Y-38694826D01*
X69797517Y-80996477D02*
X69797829Y-80996097D01*
X121076681Y-65383099D02*
X121033278Y-65404946D01*
X55840851Y-22518960D02*
X55816900Y-22476681D01*
X100750549Y-83970328D02*
X100703138Y-83980974D01*
X40711144Y-51075362D02*
X40756480Y-51057874D01*
X126596477Y-15002482D02*
X126596097Y-15002170D01*
X70644737Y-35489281D02*
X70596861Y-35480974D01*
X71800000Y-50987727D02*
X71800003Y-50987972D01*
X118597188Y-53003159D02*
X118596840Y-53002811D01*
X69800000Y-34509877D02*
X69800000Y-23012272D01*
X85870328Y-22250549D02*
X85857368Y-22297380D01*
X56266721Y-81095053D02*
X56311144Y-81075362D01*
X15003902Y-88997829D02*
X15004296Y-88998121D01*
X89792963Y-83995229D02*
X89744737Y-83989281D01*
X37004946Y-51566721D02*
X37024637Y-51611144D01*
X118599275Y-53006455D02*
X118599087Y-53006002D01*
X56449450Y-52970328D02*
X56402619Y-52957368D01*
X69799275Y-50993544D02*
X69799440Y-50993082D01*
X22989281Y-39344737D02*
X22995229Y-39392963D01*
X20289966Y-65210033D02*
X20256460Y-65174841D01*
X104501195Y-20941423D02*
X104504770Y-20892963D01*
X118595703Y-50998121D02*
X118596097Y-50997829D01*
X85705173Y-51400259D02*
X85733152Y-51439987D01*
X23005558Y-80998877D02*
X23006002Y-80999087D01*
X105023318Y-20116900D02*
X105066721Y-20095053D01*
X126600000Y-88987727D02*
X126600000Y-15012272D01*
X69794441Y-80998877D02*
X69794874Y-80998646D01*
X40500259Y-22805173D02*
X40461952Y-22775278D01*
X71360012Y-68666847D02*
X71399740Y-68694826D01*
X89423318Y-83883099D02*
X89381039Y-83859148D01*
X104694826Y-52599740D02*
X104666847Y-52560012D01*
X55700000Y-51990122D02*
X55701195Y-51941423D01*
X101060012Y-51166847D02*
X101099740Y-51194826D01*
X105344737Y-51010718D02*
X105392963Y-51004770D01*
X40142631Y-22297380D02*
X40129671Y-22250549D01*
X52680974Y-81796861D02*
X52689281Y-81844737D01*
X120803138Y-68519025D02*
X120850549Y-68529671D01*
X85895229Y-22107036D02*
X85889281Y-22155262D01*
X40101195Y-20941423D02*
X40104770Y-20892963D01*
X88919025Y-51796861D02*
X88929671Y-51749450D01*
X40461952Y-52775278D02*
X40425158Y-52743539D01*
X69794441Y-53001122D02*
X69793997Y-53000912D01*
X71805125Y-53001353D02*
X71804704Y-53001605D01*
X36443519Y-81057874D02*
X36488855Y-81075362D01*
X69797517Y-23003522D02*
X69797188Y-23003159D01*
X15000201Y-15008344D02*
X15000129Y-15008830D01*
X85574841Y-20256460D02*
X85610033Y-20289966D01*
X101470328Y-20749450D02*
X101480974Y-20796861D01*
X89040851Y-83518960D02*
X89016900Y-83476681D01*
X118925158Y-35243539D02*
X118889966Y-35210033D01*
X71510033Y-35210033D02*
X71474841Y-35243539D01*
X40356460Y-22674841D02*
X40324721Y-22638047D01*
X40110718Y-83155262D02*
X40104770Y-83107036D01*
X55956460Y-22674841D02*
X55924721Y-22638047D01*
X101018960Y-52859148D02*
X100976681Y-52883099D01*
X118592136Y-50999702D02*
X118592612Y-50999583D01*
X52475278Y-81361952D02*
X52505173Y-81400259D01*
X121160012Y-83833152D02*
X121118960Y-83859148D01*
X22203138Y-68519025D02*
X22250549Y-68529671D01*
X85197380Y-22957368D02*
X85150549Y-22970328D01*
X71802811Y-23003159D02*
X71802482Y-23003522D01*
X37070328Y-81749450D02*
X37080974Y-81796861D01*
X37004946Y-22433278D02*
X36983099Y-22476681D01*
X84958576Y-22998804D02*
X84909877Y-23000000D01*
X85733152Y-51439987D02*
X85759148Y-51481039D01*
X23012027Y-50999996D02*
X23012272Y-51000000D01*
X55989966Y-20289966D02*
X56025158Y-20256460D01*
X71233278Y-38595053D02*
X71276681Y-38616900D01*
X70411144Y-68575362D02*
X70456480Y-68557874D01*
X52088855Y-52924637D02*
X52043519Y-52942125D01*
X118597517Y-80996477D02*
X118597829Y-80996097D01*
X100655262Y-52989281D02*
X100607036Y-52995229D01*
X20325158Y-38756460D02*
X20361952Y-38724721D01*
X71800129Y-50991169D02*
X71800201Y-50991655D01*
X71233278Y-68595053D02*
X71276681Y-68616900D01*
X23000724Y-23006455D02*
X23000559Y-23006917D01*
X23012027Y-53000003D02*
X23009809Y-53000057D01*
X84909877Y-51000000D02*
X84958576Y-51001195D01*
X121570328Y-20749450D02*
X121580974Y-20796861D01*
X23007863Y-53000297D02*
X23007387Y-53000416D01*
X36618960Y-22859148D02*
X36576681Y-22883099D01*
X69966847Y-68939987D02*
X69994826Y-68900259D01*
X20289966Y-38789966D02*
X20325158Y-38756460D01*
X15004296Y-15001878D02*
X15003902Y-15002170D01*
X36255262Y-20010718D02*
X36303138Y-20019025D01*
X101099740Y-52805173D02*
X101060012Y-52833152D01*
X55894826Y-20400259D02*
X55924721Y-20361952D01*
X23002170Y-23003902D02*
X23001878Y-23004296D01*
X36488855Y-22924637D02*
X36443519Y-22942125D01*
X121033278Y-35404946D02*
X120988855Y-35424637D01*
X20075362Y-20611144D02*
X20095053Y-20566721D01*
X40756480Y-22942125D02*
X40711144Y-22924637D01*
X118599798Y-50991655D02*
X118599870Y-50991169D01*
X20656480Y-65442125D02*
X20611144Y-65424637D01*
X23002482Y-23003522D02*
X23002170Y-23003902D01*
X20289966Y-83710033D02*
X20256460Y-83674841D01*
X36738047Y-22775278D02*
X36699740Y-22805173D01*
X100655262Y-51010718D02*
X100703138Y-51019025D01*
X100888855Y-51075362D02*
X100933278Y-51095053D01*
X56266721Y-22904946D02*
X56223318Y-22883099D01*
X52695229Y-22107036D02*
X52689281Y-22155262D01*
X23000057Y-50990190D02*
X23000081Y-50990681D01*
X121375278Y-83638047D02*
X121343539Y-83674841D01*
X70161952Y-35275278D02*
X70125158Y-35243539D01*
X52559148Y-83518960D02*
X52533152Y-83560012D01*
X36660012Y-83833152D02*
X36618960Y-83859148D01*
X89890122Y-20000000D02*
X100509877Y-20000000D01*
X118600000Y-39490122D02*
X118601195Y-39441423D01*
X40500259Y-51194826D02*
X40539987Y-51166847D01*
X20796861Y-65480974D02*
X20749450Y-65470328D01*
X41090122Y-20000000D02*
X51709877Y-20000000D01*
X104501195Y-52058576D02*
X104500000Y-52009877D01*
X85538047Y-20224721D02*
X85574841Y-20256460D01*
X88995053Y-20566721D02*
X89016900Y-20523318D01*
X85574841Y-52743539D02*
X85538047Y-52775278D01*
X126592612Y-15000416D02*
X126592136Y-15000297D01*
X37098804Y-20941423D02*
X37100000Y-20990122D01*
X121570328Y-69249450D02*
X121580974Y-69296861D01*
X71510033Y-68789966D02*
X71543539Y-68825158D01*
X40802619Y-51042631D02*
X40849450Y-51029671D01*
X71742125Y-64843519D02*
X71724637Y-64888855D01*
X104557874Y-52343519D02*
X104542631Y-52297380D01*
X85499740Y-83805173D02*
X85460012Y-83833152D01*
X104595053Y-52433278D02*
X104575362Y-52388855D01*
X37042125Y-20656480D02*
X37057368Y-20702619D01*
X118590681Y-53000081D02*
X118590190Y-53000057D01*
X52680974Y-51796861D02*
X52689281Y-51844737D01*
X120755262Y-20010718D02*
X120803138Y-20019025D01*
X119590122Y-38500000D02*
X120609877Y-38500000D01*
X22518960Y-38640851D02*
X22560012Y-38666847D01*
X85705173Y-83599740D02*
X85675278Y-83638047D01*
X22058576Y-38501195D02*
X22107036Y-38504770D01*
X20702619Y-65457368D02*
X20656480Y-65442125D01*
X36488855Y-51075362D02*
X36533278Y-51095053D01*
X88942631Y-22297380D02*
X88929671Y-22250549D01*
X71809318Y-80999918D02*
X71809809Y-80999942D01*
X20844737Y-83989281D02*
X20796861Y-83980974D01*
X36397380Y-20042631D02*
X36443519Y-20057874D01*
X89696861Y-20019025D02*
X89744737Y-20010718D01*
X118961952Y-35275278D02*
X118925158Y-35243539D01*
X56223318Y-81116900D02*
X56266721Y-81095053D01*
X85288855Y-52924637D02*
X85243519Y-52942125D01*
X37042125Y-22343519D02*
X37024637Y-22388855D01*
X118794826Y-65099740D02*
X118766847Y-65060012D01*
X85895229Y-51892963D02*
X85898804Y-51941423D01*
X55704770Y-83107036D02*
X55701195Y-83058576D01*
X56061952Y-20224721D02*
X56100259Y-20194826D01*
X23004296Y-80998121D02*
X23004704Y-80998394D01*
X70281039Y-65359148D02*
X70239987Y-65333152D01*
X15001878Y-88995703D02*
X15002170Y-88996097D01*
X84909877Y-84000000D02*
X56690122Y-84000000D01*
X121310033Y-83710033D02*
X121274841Y-83743539D01*
X71802811Y-50996840D02*
X71803159Y-50997188D01*
X118591169Y-23000129D02*
X118590681Y-23000081D01*
X56025158Y-81256460D02*
X56061952Y-81224721D01*
X69799798Y-50991655D02*
X69799870Y-50991169D01*
X36774841Y-20256460D02*
X36810033Y-20289966D01*
X104666847Y-20439987D02*
X104694826Y-20400259D01*
X118599996Y-80987972D02*
X118600000Y-80987727D01*
X71438047Y-35275278D02*
X71399740Y-35305173D01*
X121405173Y-68900259D02*
X121433152Y-68939987D01*
X118619025Y-39296861D02*
X118629671Y-39249450D01*
X85288855Y-51075362D02*
X85333278Y-51095053D01*
X40849450Y-51029671D02*
X40896861Y-51019025D01*
X89466721Y-51095053D02*
X89511144Y-51075362D01*
X55989966Y-81289966D02*
X56025158Y-81256460D01*
X100509877Y-23000000D02*
X89890122Y-23000000D01*
X70502619Y-38542631D02*
X70549450Y-38529671D01*
X100558576Y-20001195D02*
X100607036Y-20004770D01*
X55816900Y-52476681D02*
X55795053Y-52433278D01*
X85783099Y-52476681D02*
X85759148Y-52518960D01*
X101442125Y-51656480D02*
X101457368Y-51702619D01*
X56100259Y-22805173D02*
X56061952Y-22775278D01*
X20224721Y-38861952D02*
X20256460Y-38825158D01*
X70161952Y-38724721D02*
X70200259Y-38694826D01*
X23009809Y-23000057D02*
X23009318Y-23000081D01*
X100797380Y-51042631D02*
X100843519Y-51057874D01*
X85900000Y-81990122D02*
X85900000Y-83009877D01*
X71800912Y-50993997D02*
X71801122Y-50994441D01*
X85895229Y-52107036D02*
X85889281Y-52155262D01*
X71803522Y-80997517D02*
X71803902Y-80997829D01*
X52689281Y-20844737D02*
X52695229Y-20892963D01*
X85824637Y-51611144D02*
X85842125Y-51656480D01*
X40119025Y-81796861D02*
X40129671Y-81749450D01*
X89189966Y-52710033D02*
X89156460Y-52674841D01*
X126597188Y-15003159D02*
X126596840Y-15002811D01*
X69792136Y-80999702D02*
X69792612Y-80999583D01*
X52624637Y-22388855D02*
X52604946Y-22433278D01*
X56641423Y-83998804D02*
X56592963Y-83995229D01*
X36905173Y-83599740D02*
X36875278Y-83638047D01*
X36443519Y-51057874D02*
X36488855Y-51075362D01*
X70200259Y-35305173D02*
X70161952Y-35275278D01*
X20941423Y-68501195D02*
X20990122Y-68500000D01*
X118740851Y-65018960D02*
X118716900Y-64976681D01*
X126597517Y-88996477D02*
X126597829Y-88996097D01*
X104825158Y-52743539D02*
X104789966Y-52710033D01*
X69793997Y-23000912D02*
X69793544Y-23000724D01*
X71399740Y-38694826D02*
X71438047Y-38724721D01*
X101210033Y-20289966D02*
X101243539Y-20325158D01*
X69819025Y-64703138D02*
X69810718Y-64655262D01*
X22995229Y-34607036D02*
X22989281Y-34655262D01*
X22599740Y-65305173D02*
X22560012Y-65333152D01*
X22775278Y-68861952D02*
X22805173Y-68900259D01*
X51950549Y-51029671D02*
X51997380Y-51042631D01*
X56356480Y-22942125D02*
X56311144Y-22924637D01*
X20075362Y-69111144D02*
X20095053Y-69066721D01*
X22343519Y-68557874D02*
X22388855Y-68575362D01*
X118961952Y-38724721D02*
X119000259Y-38694826D01*
X52299740Y-52805173D02*
X52260012Y-52833152D01*
X70056460Y-65174841D02*
X70024721Y-65138047D01*
X55924721Y-52638047D02*
X55894826Y-52599740D01*
X71800129Y-23008830D02*
X71800081Y-23009318D01*
X51855262Y-81010718D02*
X51903138Y-81019025D01*
X101018960Y-83859148D02*
X100976681Y-83883099D01*
X121433152Y-35060012D02*
X121405173Y-35099740D01*
X101359148Y-83518960D02*
X101333152Y-83560012D01*
X69810718Y-69344737D02*
X69819025Y-69296861D01*
X71804704Y-80998394D02*
X71805125Y-80998646D01*
X40104770Y-52107036D02*
X40101195Y-52058576D01*
X121595229Y-64607036D02*
X121589281Y-64655262D01*
X23000003Y-80987972D02*
X23000057Y-80990190D01*
X118591169Y-50999870D02*
X118591655Y-50999798D01*
X126593997Y-88999087D02*
X126594441Y-88998877D01*
X36774841Y-83743539D02*
X36738047Y-83775278D01*
X85733152Y-83560012D02*
X85705173Y-83599740D01*
X52695229Y-52107036D02*
X52689281Y-52155262D01*
X69800000Y-39490122D02*
X69801195Y-39441423D01*
X56690122Y-81000000D02*
X69787727Y-81000000D01*
X22775278Y-38861952D02*
X22805173Y-38900259D01*
X118716900Y-39023318D02*
X118740851Y-38981039D01*
X20019025Y-83203138D02*
X20010718Y-83155262D01*
X70692963Y-65495229D02*
X70644737Y-65489281D01*
X15000129Y-88991169D02*
X15000201Y-88991655D01*
X40711144Y-81075362D02*
X40756480Y-81057874D01*
X69799583Y-23007387D02*
X69799440Y-23006917D01*
X101138047Y-22775278D02*
X101099740Y-22805173D01*
X52583099Y-20523318D02*
X52604946Y-20566721D01*
X22957368Y-64797380D02*
X22942125Y-64843519D01*
X55700000Y-20990122D02*
X55701195Y-20941423D01*
X85889281Y-52155262D02*
X85880974Y-52203138D01*
X36443519Y-20057874D02*
X36488855Y-20075362D01*
X121160012Y-38666847D02*
X121199740Y-38694826D01*
X71801122Y-23005558D02*
X71800912Y-23006002D01*
X101359148Y-52518960D02*
X101333152Y-52560012D01*
X119256480Y-68557874D02*
X119302619Y-68542631D01*
X15012272Y-89000000D02*
X126587727Y-89000000D01*
X71803522Y-23002482D02*
X71803159Y-23002811D01*
X119349450Y-68529671D02*
X119396861Y-68519025D01*
X22743539Y-68825158D02*
X22775278Y-68861952D01*
X69799440Y-50993082D02*
X69799583Y-50992612D01*
X23006002Y-23000912D02*
X23005558Y-23001122D01*
X20749450Y-83970328D02*
X20702619Y-83957368D01*
X89792963Y-52995229D02*
X89744737Y-52989281D01*
X104981039Y-22859148D02*
X104939987Y-22833152D01*
X23003522Y-50997517D02*
X23003902Y-50997829D01*
X15009318Y-88999918D02*
X15009809Y-88999942D01*
X85824637Y-83388855D02*
X85804946Y-83433278D01*
X85733152Y-22560012D02*
X85705173Y-22599740D01*
X101359148Y-81481039D02*
X101383099Y-81523318D01*
X119444737Y-35489281D02*
X119396861Y-35480974D01*
X22833152Y-65060012D02*
X22805173Y-65099740D01*
X118600000Y-69490122D02*
X118601195Y-69441423D01*
X23001605Y-53004704D02*
X23001353Y-53005125D01*
X20361952Y-65275278D02*
X20325158Y-65243539D01*
X40992963Y-20004770D02*
X41041423Y-20001195D01*
X69875362Y-64888855D02*
X69857874Y-64843519D01*
X89649450Y-22970328D02*
X89602619Y-22957368D01*
X85705173Y-52599740D02*
X85675278Y-52638047D01*
X51903138Y-22980974D02*
X51855262Y-22989281D01*
X69795295Y-50998394D02*
X69795703Y-50998121D01*
X37089281Y-81844737D02*
X37095229Y-81892963D01*
X104939987Y-81166847D02*
X104981039Y-81140851D01*
X100655262Y-81010718D02*
X100703138Y-81019025D01*
X126598646Y-88994874D02*
X126598877Y-88994441D01*
X101060012Y-81166847D02*
X101099740Y-81194826D01*
X69790190Y-23000057D02*
X69787972Y-23000003D01*
X71800559Y-53006917D02*
X71800416Y-53007387D01*
X71805125Y-50998646D02*
X71805558Y-50998877D01*
X89300259Y-51194826D02*
X89339987Y-51166847D01*
X20029671Y-64750549D02*
X20019025Y-64703138D01*
X89066847Y-22560012D02*
X89040851Y-22518960D01*
X101018960Y-20140851D02*
X101060012Y-20166847D01*
X71809318Y-50999918D02*
X71809809Y-50999942D01*
X71807863Y-50999702D02*
X71808344Y-50999798D01*
X100976681Y-81116900D02*
X101018960Y-81140851D01*
X104500000Y-81990122D02*
X104500000Y-81990122D01*
X69797188Y-80996840D02*
X69797517Y-80996477D01*
X89511144Y-52924637D02*
X89466721Y-52904946D01*
X20289966Y-35210033D02*
X20256460Y-35174841D01*
X118889966Y-65210033D02*
X118856460Y-65174841D01*
X118595295Y-80998394D02*
X118595703Y-80998121D01*
X69804770Y-69392963D02*
X69810718Y-69344737D01*
X71050549Y-65470328D02*
X71003138Y-65480974D01*
X105296861Y-51019025D02*
X105344737Y-51010718D01*
X56139987Y-51166847D02*
X56181039Y-51140851D01*
X69819025Y-69296861D02*
X69829671Y-69249450D01*
X118593082Y-50999440D02*
X118593544Y-50999275D01*
X89792963Y-20004770D02*
X89841423Y-20001195D01*
X120707036Y-20004770D02*
X120755262Y-20010718D01*
X69798121Y-50995703D02*
X69798394Y-50995295D01*
X121238047Y-68724721D02*
X121274841Y-68756460D01*
X55742631Y-20702619D02*
X55757874Y-20656480D01*
X40175362Y-83388855D02*
X40157874Y-83343519D01*
X40425158Y-22743539D02*
X40389966Y-22710033D01*
X20611144Y-65424637D02*
X20566721Y-65404946D01*
X55729671Y-20749450D02*
X55742631Y-20702619D01*
X69787972Y-80999996D02*
X69790190Y-80999942D01*
X20224721Y-35138047D02*
X20194826Y-35099740D01*
X85574841Y-51256460D02*
X85610033Y-51289966D01*
X89156460Y-52674841D02*
X89124721Y-52638047D01*
X37100000Y-51990122D02*
X37100000Y-52009877D01*
X37098804Y-52058576D02*
X37095229Y-52107036D01*
X56025158Y-20256460D02*
X56061952Y-20224721D01*
X56496861Y-20019025D02*
X56544737Y-20010718D01*
X22476681Y-65383099D02*
X22433278Y-65404946D01*
X23001605Y-80995295D02*
X23001878Y-80995703D01*
X118593997Y-23000912D02*
X118593544Y-23000724D01*
X52176681Y-81116900D02*
X52218960Y-81140851D01*
X69994826Y-35099740D02*
X69966847Y-35060012D01*
X69799583Y-53007387D02*
X69799440Y-53006917D01*
X71438047Y-65275278D02*
X71399740Y-65305173D01*
X37089281Y-20844737D02*
X37095229Y-20892963D01*
X118591655Y-23000201D02*
X118591169Y-23000129D01*
X20256460Y-65174841D02*
X20224721Y-65138047D01*
X23004296Y-53001878D02*
X23003902Y-53002170D01*
X121598804Y-39441423D02*
X121600000Y-39490122D01*
X23008344Y-50999798D02*
X23008830Y-50999870D01*
X70907036Y-38504770D02*
X70955262Y-38510718D01*
X105490122Y-84000000D02*
X105441423Y-83998804D01*
X52670328Y-20749450D02*
X52680974Y-20796861D01*
X121310033Y-68789966D02*
X121343539Y-68825158D01*
X20990122Y-65500000D02*
X20941423Y-65498804D01*
X101495229Y-22107036D02*
X101489281Y-22155262D01*
X40500259Y-83805173D02*
X40461952Y-83775278D01*
X120803138Y-35480974D02*
X120755262Y-35489281D01*
X36983099Y-83476681D02*
X36959148Y-83518960D01*
X121274841Y-38756460D02*
X121310033Y-38789966D01*
X20224721Y-65138047D02*
X20194826Y-65099740D01*
X56449450Y-81029671D02*
X56496861Y-81019025D01*
X104616900Y-22476681D02*
X104595053Y-22433278D01*
X85333278Y-22904946D02*
X85288855Y-22924637D01*
X20075362Y-83388855D02*
X20057874Y-83343519D01*
X56181039Y-51140851D02*
X56223318Y-51116900D01*
X52176681Y-51116900D02*
X52218960Y-51140851D01*
X37070328Y-51749450D02*
X37080974Y-51796861D01*
X121160012Y-65333152D02*
X121118960Y-65359148D01*
X20844737Y-65489281D02*
X20796861Y-65480974D01*
X101470328Y-52250549D02*
X101457368Y-52297380D01*
X69792612Y-80999583D02*
X69793082Y-80999440D01*
X20057874Y-39156480D02*
X20075362Y-39111144D01*
X71399740Y-35305173D02*
X71360012Y-35333152D01*
X85900000Y-51990122D02*
X85900000Y-52009877D01*
X55989966Y-83710033D02*
X55956460Y-83674841D01*
X23000724Y-80993544D02*
X23000912Y-80993997D01*
X105296861Y-83980974D02*
X105249450Y-83970328D01*
X118599275Y-23006455D02*
X118599087Y-23006002D01*
X126587972Y-15000003D02*
X126587727Y-15000000D01*
X69799996Y-50987972D02*
X69800000Y-50987727D01*
X71801353Y-23005125D02*
X71801122Y-23005558D01*
X118629671Y-34750549D02*
X118619025Y-34703138D01*
X104595053Y-51566721D02*
X104616900Y-51523318D01*
X85804946Y-81566721D02*
X85824637Y-81611144D01*
X105111144Y-22924637D02*
X105066721Y-22904946D01*
X89040851Y-20481039D02*
X89066847Y-20439987D01*
X71802170Y-50996097D02*
X71802482Y-50996477D01*
X23001122Y-50994441D02*
X23001353Y-50994874D01*
X70644737Y-38510718D02*
X70692963Y-38504770D01*
X121375278Y-65138047D02*
X121343539Y-65174841D01*
X20042631Y-34797380D02*
X20029671Y-34750549D01*
X88942631Y-20702619D02*
X88957874Y-20656480D01*
X52475278Y-52638047D02*
X52443539Y-52674841D01*
X23001353Y-50994874D02*
X23001605Y-50995295D01*
X15000416Y-15007387D02*
X15000297Y-15007863D01*
X20400259Y-68694826D02*
X20439987Y-68666847D01*
X52299740Y-83805173D02*
X52260012Y-83833152D01*
X71798804Y-64558576D02*
X71795229Y-64607036D01*
X22995229Y-39392963D02*
X22998804Y-39441423D01*
X52260012Y-83833152D02*
X52218960Y-83859148D01*
X23000416Y-80992612D02*
X23000559Y-80993082D01*
X52559148Y-81481039D02*
X52583099Y-81523318D01*
X55956460Y-20325158D02*
X55989966Y-20289966D01*
X69799942Y-53009809D02*
X69799918Y-53009318D01*
X15003159Y-15002811D02*
X15002811Y-15003159D01*
X126593997Y-15000912D02*
X126593544Y-15000724D01*
X104825158Y-81256460D02*
X104861952Y-81224721D01*
X71276681Y-35383099D02*
X71233278Y-35404946D01*
X69799942Y-80990190D02*
X69799996Y-80987972D01*
X85103138Y-81019025D02*
X85150549Y-81029671D01*
X40175362Y-20611144D02*
X40195053Y-20566721D01*
X101498804Y-81941423D02*
X101500000Y-81990122D01*
X105202619Y-52957368D02*
X105156480Y-52942125D01*
X37004946Y-20566721D02*
X37024637Y-20611144D01*
X40216900Y-20523318D02*
X40240851Y-20481039D01*
X85783099Y-20523318D02*
X85804946Y-20566721D01*
X69793082Y-53000559D02*
X69792612Y-53000416D01*
X55866847Y-81439987D02*
X55894826Y-81400259D01*
X70024721Y-68861952D02*
X70056460Y-68825158D01*
X51997380Y-83957368D02*
X51950549Y-83970328D01*
X105344737Y-20010718D02*
X105392963Y-20004770D01*
X121274841Y-83743539D02*
X121238047Y-83775278D01*
X36397380Y-81042631D02*
X36443519Y-81057874D01*
X89511144Y-20075362D02*
X89556480Y-20057874D01*
X36905173Y-52599740D02*
X36875278Y-52638047D01*
X69794441Y-50998877D02*
X69794874Y-50998646D01*
X85759148Y-22518960D02*
X85733152Y-22560012D01*
X101333152Y-51439987D02*
X101359148Y-51481039D01*
X120609877Y-35500000D02*
X119590122Y-35500000D01*
X121274841Y-35243539D02*
X121238047Y-35275278D01*
X89649450Y-83970328D02*
X89602619Y-83957368D01*
X36207036Y-52995229D02*
X36158576Y-52998804D01*
X22970328Y-39249450D02*
X22980974Y-39296861D01*
X52642125Y-81656480D02*
X52657368Y-81702619D01*
X85783099Y-81523318D02*
X85804946Y-81566721D01*
X71809809Y-53000057D02*
X71809318Y-53000081D01*
X40500259Y-52805173D02*
X40461952Y-52775278D01*
X71803902Y-50997829D02*
X71804296Y-50998121D01*
X52670328Y-52250549D02*
X52657368Y-52297380D01*
X15008830Y-88999870D02*
X15009318Y-88999918D01*
X52443539Y-20325158D02*
X52475278Y-20361952D01*
X69798877Y-50994441D02*
X69799087Y-50993997D01*
X71510033Y-38789966D02*
X71543539Y-38825158D01*
X40500259Y-20194826D02*
X40539987Y-20166847D01*
X20439987Y-83833152D02*
X20400259Y-83805173D01*
X70790122Y-65500000D02*
X70741423Y-65498804D01*
X71605173Y-68900259D02*
X71633152Y-68939987D01*
X56311144Y-20075362D02*
X56356480Y-20057874D01*
X119492963Y-38504770D02*
X119541423Y-38501195D01*
X101174841Y-81256460D02*
X101210033Y-81289966D01*
X89602619Y-22957368D02*
X89556480Y-22942125D01*
X40294826Y-22599740D02*
X40266847Y-22560012D01*
X36933152Y-81439987D02*
X36959148Y-81481039D01*
X101404946Y-83433278D02*
X101383099Y-83476681D01*
X71800416Y-53007387D02*
X71800297Y-53007863D01*
X22433278Y-35404946D02*
X22388855Y-35424637D01*
X71003138Y-65480974D02*
X70955262Y-65489281D01*
X119123318Y-68616900D02*
X119166721Y-68595053D01*
X85460012Y-83833152D02*
X85418960Y-83859148D01*
X101060012Y-22833152D02*
X101018960Y-22859148D01*
X15000003Y-15012027D02*
X15000000Y-15012272D01*
X89189966Y-51289966D02*
X89225158Y-51256460D01*
X23002170Y-53003902D02*
X23001878Y-53004296D01*
X101480974Y-83203138D02*
X101470328Y-83250549D01*
X70790122Y-68500000D02*
X70809877Y-68500000D01*
X52604946Y-83433278D02*
X52583099Y-83476681D01*
X71801122Y-50994441D02*
X71801353Y-50994874D01*
X20656480Y-20057874D02*
X20702619Y-20042631D01*
X85857368Y-52297380D02*
X85842125Y-52343519D01*
X52689281Y-52155262D02*
X52680974Y-52203138D01*
X101495229Y-52107036D02*
X101489281Y-52155262D01*
X101018960Y-51140851D02*
X101060012Y-51166847D01*
X118595295Y-50998394D02*
X118595703Y-50998121D01*
X55701195Y-20941423D02*
X55704770Y-20892963D01*
X51807036Y-83995229D02*
X51758576Y-83998804D01*
X23007387Y-23000416D02*
X23006917Y-23000559D01*
X100888855Y-52924637D02*
X100843519Y-52942125D01*
X69796097Y-50997829D02*
X69796477Y-50997517D01*
X89016900Y-83476681D02*
X88995053Y-83433278D01*
X89339987Y-81166847D02*
X89381039Y-81140851D01*
X22674841Y-35243539D02*
X22638047Y-35275278D01*
X23009809Y-53000057D02*
X23009318Y-53000081D01*
X23012027Y-23000003D02*
X23009809Y-23000057D01*
X104500000Y-81990122D02*
X104501195Y-81941423D01*
X104640851Y-81481039D02*
X104666847Y-81439987D01*
X36109877Y-51000000D02*
X36158576Y-51001195D01*
X36875278Y-20361952D02*
X36905173Y-20400259D01*
X101018960Y-81140851D02*
X101060012Y-81166847D01*
X85889281Y-83155262D02*
X85880974Y-83203138D01*
X71800297Y-50992136D02*
X71800416Y-50992612D01*
X55795053Y-81566721D02*
X55816900Y-81523318D01*
X22980974Y-64703138D02*
X22970328Y-64750549D01*
X55894826Y-81400259D02*
X55924721Y-81361952D01*
X23008830Y-50999870D02*
X23009318Y-50999918D01*
X36303138Y-83980974D02*
X36255262Y-83989281D01*
X88957874Y-20656480D02*
X88975362Y-20611144D01*
X22805173Y-68900259D02*
X22833152Y-68939987D01*
X55700000Y-81990122D02*
X55700000Y-81990122D01*
X104542631Y-81702619D02*
X104557874Y-81656480D01*
X85538047Y-22775278D02*
X85499740Y-22805173D01*
X126590190Y-88999942D02*
X126590681Y-88999918D01*
X105249450Y-81029671D02*
X105296861Y-81019025D01*
X37004946Y-83433278D02*
X36983099Y-83476681D01*
X70549450Y-38529671D02*
X70596861Y-38519025D01*
X55701195Y-51941423D02*
X55704770Y-51892963D01*
X36875278Y-81361952D02*
X36905173Y-81400259D01*
X22155262Y-38510718D02*
X22203138Y-38519025D01*
X101470328Y-51749450D02*
X101480974Y-51796861D01*
X71804296Y-50998121D02*
X71804704Y-50998394D01*
X85759148Y-81481039D02*
X85783099Y-81523318D01*
X52260012Y-20166847D02*
X52299740Y-20194826D01*
X119081039Y-65359148D02*
X119039987Y-65333152D01*
X89124721Y-22638047D02*
X89094826Y-22599740D01*
X20566721Y-38595053D02*
X20611144Y-38575362D01*
X121483099Y-20523318D02*
X121504946Y-20566721D01*
X71800912Y-53006002D02*
X71800724Y-53006455D01*
X55924721Y-22638047D02*
X55894826Y-22599740D01*
X126591169Y-88999870D02*
X126591655Y-88999798D01*
X71802170Y-53003902D02*
X71801878Y-53004296D01*
X118856460Y-65174841D02*
X118824721Y-65138047D01*
X23005558Y-50998877D02*
X23006002Y-50999087D01*
X36350549Y-52970328D02*
X36303138Y-52980974D01*
X20166847Y-38939987D02*
X20194826Y-38900259D01*
X104519025Y-52203138D02*
X104510718Y-52155262D01*
X20042631Y-64797380D02*
X20029671Y-64750549D01*
X101495229Y-83107036D02*
X101489281Y-83155262D01*
X20001195Y-69441423D02*
X20004770Y-69392963D01*
X120755262Y-38510718D02*
X120803138Y-38519025D01*
X36255262Y-52989281D02*
X36207036Y-52995229D01*
X85376681Y-81116900D02*
X85418960Y-81140851D01*
X104694826Y-51400259D02*
X104724721Y-51361952D01*
X88929671Y-83250549D02*
X88919025Y-83203138D01*
X56402619Y-81042631D02*
X56449450Y-81029671D01*
X104595053Y-20566721D02*
X104616900Y-20523318D01*
X15001353Y-15005125D02*
X15001122Y-15005558D01*
X23000201Y-23008344D02*
X23000129Y-23008830D01*
X22107036Y-38504770D02*
X22155262Y-38510718D01*
X15002811Y-15003159D02*
X15002482Y-15003522D01*
X52218960Y-83859148D02*
X52176681Y-83883099D01*
X85376681Y-20116900D02*
X85418960Y-20140851D01*
X52218960Y-81140851D02*
X52260012Y-81166847D01*
X52583099Y-83476681D02*
X52559148Y-83518960D01*
X71800081Y-23009318D02*
X71800057Y-23009809D01*
X118590681Y-80999918D02*
X118591169Y-80999870D01*
X71809318Y-53000081D02*
X71808830Y-53000129D01*
X52338047Y-22775278D02*
X52299740Y-22805173D01*
X37095229Y-22107036D02*
X37089281Y-22155262D01*
X126590681Y-15000081D02*
X126590190Y-15000057D01*
X104724721Y-22638047D02*
X104694826Y-22599740D01*
X69792136Y-50999702D02*
X69792612Y-50999583D01*
X104616900Y-51523318D02*
X104640851Y-51481039D01*
X71097380Y-68542631D02*
X71143519Y-68557874D01*
X89649450Y-20029671D02*
X89696861Y-20019025D01*
X15003902Y-15002170D02*
X15003522Y-15002482D01*
X52374841Y-81256460D02*
X52410033Y-81289966D01*
X121542125Y-83343519D02*
X121524637Y-83388855D01*
X40104770Y-20892963D02*
X40110718Y-20844737D01*
X71318960Y-38640851D02*
X71360012Y-38666847D01*
X85898804Y-81941423D02*
X85900000Y-81990122D01*
X52695229Y-81892963D02*
X52698804Y-81941423D01*
X118598646Y-23005125D02*
X118598394Y-23004704D01*
X89696861Y-52980974D02*
X89649450Y-52970328D01*
X121557368Y-69202619D02*
X121570328Y-69249450D01*
X120850549Y-38529671D02*
X120897380Y-38542631D01*
X118610718Y-34655262D02*
X118604770Y-34607036D01*
X118657874Y-64843519D02*
X118642631Y-64797380D01*
X120988855Y-83924637D02*
X120943519Y-83942125D01*
X104595053Y-83433278D02*
X104575362Y-83388855D01*
X40711144Y-83924637D02*
X40666721Y-83904946D01*
X55956460Y-83674841D02*
X55924721Y-83638047D01*
X101305173Y-52599740D02*
X101275278Y-52638047D01*
X71724637Y-69111144D02*
X71742125Y-69156480D01*
X101442125Y-81656480D02*
X101457368Y-81702619D01*
X36738047Y-81224721D02*
X36774841Y-81256460D01*
X121076681Y-83883099D02*
X121033278Y-83904946D01*
X51807036Y-22995229D02*
X51758576Y-22998804D01*
X71003138Y-68519025D02*
X71050549Y-68529671D01*
X40101195Y-81941423D02*
X40104770Y-81892963D01*
X40324721Y-20361952D02*
X40356460Y-20325158D01*
X85842125Y-20656480D02*
X85857368Y-20702619D01*
X89261952Y-52775278D02*
X89225158Y-52743539D01*
X56592963Y-83995229D02*
X56544737Y-83989281D01*
X88975362Y-52388855D02*
X88957874Y-52343519D01*
X55757874Y-20656480D02*
X55775362Y-20611144D01*
X121118960Y-38640851D02*
X121160012Y-38666847D01*
X69791169Y-53000129D02*
X69790681Y-53000081D01*
X101099740Y-83805173D02*
X101060012Y-83833152D01*
X69796840Y-80997188D02*
X69797188Y-80996840D01*
X71770328Y-39249450D02*
X71780974Y-39296861D01*
X105296861Y-52980974D02*
X105249450Y-52970328D01*
X20892963Y-68504770D02*
X20941423Y-68501195D01*
X88919025Y-83203138D02*
X88910718Y-83155262D01*
X71188855Y-65424637D02*
X71143519Y-65442125D01*
X104529671Y-22250549D02*
X104519025Y-22203138D01*
X101210033Y-22710033D02*
X101174841Y-22743539D01*
X40896861Y-52980974D02*
X40849450Y-52970328D01*
X40101195Y-51941423D02*
X40104770Y-51892963D01*
X56641423Y-81001195D02*
X56690122Y-81000000D01*
X121118960Y-20140851D02*
X121160012Y-20166847D01*
X15000081Y-15009318D02*
X15000057Y-15009809D01*
X71802170Y-23003902D02*
X71801878Y-23004296D01*
X37080974Y-22203138D02*
X37070328Y-22250549D01*
X89066847Y-83560012D02*
X89040851Y-83518960D01*
X41041423Y-51001195D02*
X41090122Y-51000000D01*
X85733152Y-20439987D02*
X85759148Y-20481039D01*
X22343519Y-38557874D02*
X22388855Y-38575362D01*
X69799087Y-50993997D02*
X69799275Y-50993544D01*
X36983099Y-20523318D02*
X37004946Y-20566721D01*
X52374841Y-83743539D02*
X52338047Y-83775278D01*
X119302619Y-68542631D02*
X119349450Y-68529671D01*
X69966847Y-38939987D02*
X69994826Y-38900259D01*
X23003159Y-53002811D02*
X23002811Y-53003159D01*
X71800201Y-50991655D02*
X71800297Y-50992136D01*
X52176681Y-22883099D02*
X52133278Y-22904946D01*
X23003902Y-23002170D02*
X23003522Y-23002482D01*
X51997380Y-81042631D02*
X52043519Y-81057874D01*
X20325158Y-35243539D02*
X20289966Y-35210033D01*
X71276681Y-38616900D02*
X71318960Y-38640851D01*
X40389966Y-51289966D02*
X40425158Y-51256460D01*
X101099740Y-51194826D02*
X101138047Y-51224721D01*
X52657368Y-51702619D02*
X52670328Y-51749450D01*
X22743539Y-35174841D02*
X22710033Y-35210033D01*
X118766847Y-38939987D02*
X118794826Y-38900259D01*
X118619025Y-69296861D02*
X118629671Y-69249450D01*
X118591169Y-80999870D02*
X118591655Y-80999798D01*
X52559148Y-20481039D02*
X52583099Y-20523318D01*
X51855262Y-52989281D02*
X51807036Y-52995229D01*
X37070328Y-52250549D02*
X37057368Y-52297380D01*
X37080974Y-81796861D02*
X37089281Y-81844737D01*
X23003522Y-80997517D02*
X23003902Y-80997829D01*
X40324721Y-22638047D02*
X40294826Y-22599740D01*
X121557368Y-83297380D02*
X121542125Y-83343519D01*
X20892963Y-83995229D02*
X20844737Y-83989281D01*
X101060012Y-83833152D02*
X101018960Y-83859148D01*
X121343539Y-20325158D02*
X121375278Y-20361952D01*
X40142631Y-81702619D02*
X40157874Y-81656480D01*
X120943519Y-68557874D02*
X120988855Y-68575362D01*
X40849450Y-20029671D02*
X40896861Y-20019025D01*
X23007863Y-23000297D02*
X23007387Y-23000416D01*
X118594441Y-53001122D02*
X118593997Y-53000912D01*
X85842125Y-52343519D02*
X85824637Y-52388855D01*
X40356460Y-20325158D02*
X40389966Y-20289966D01*
X40157874Y-52343519D02*
X40142631Y-52297380D01*
X55704770Y-52107036D02*
X55701195Y-52058576D01*
X89841423Y-81001195D02*
X89890122Y-81000000D01*
X105392963Y-81004770D02*
X105441423Y-81001195D01*
X40666721Y-51095053D02*
X40711144Y-51075362D01*
X120988855Y-20075362D02*
X121033278Y-20095053D01*
X121557368Y-20702619D02*
X121570328Y-20749450D01*
X118596097Y-53002170D02*
X118595703Y-53001878D01*
X52088855Y-51075362D02*
X52133278Y-51095053D01*
X89890122Y-53000000D02*
X89841423Y-52998804D01*
X101500000Y-22009877D02*
X101500000Y-22009877D01*
X20844737Y-38510718D02*
X20892963Y-38504770D01*
X89094826Y-22599740D02*
X89066847Y-22560012D01*
X118794826Y-35099740D02*
X118766847Y-35060012D01*
X52533152Y-22560012D02*
X52505173Y-22599740D01*
X126599275Y-15006455D02*
X126599087Y-15006002D01*
X22674841Y-68756460D02*
X22710033Y-68789966D01*
X119256480Y-38557874D02*
X119302619Y-38542631D01*
X52695229Y-83107036D02*
X52689281Y-83155262D01*
X70411144Y-38575362D02*
X70456480Y-38557874D01*
X89841423Y-22998804D02*
X89792963Y-22995229D01*
X70692963Y-68504770D02*
X70741423Y-68501195D01*
X69916900Y-64976681D02*
X69895053Y-64933278D01*
X69799275Y-80993544D02*
X69799440Y-80993082D01*
X118595703Y-53001878D02*
X118595295Y-53001605D01*
X52700000Y-20990122D02*
X52700000Y-22009877D01*
X119211144Y-68575362D02*
X119256480Y-68557874D01*
X120988855Y-68575362D02*
X121033278Y-68595053D01*
X40324721Y-52638047D02*
X40294826Y-52599740D01*
X71800724Y-53006455D02*
X71800559Y-53006917D01*
X88929671Y-51749450D02*
X88942631Y-51702619D01*
X120897380Y-68542631D02*
X120943519Y-68557874D01*
X105490122Y-23000000D02*
X105441423Y-22998804D01*
X101243539Y-81325158D02*
X101275278Y-81361952D01*
X118599870Y-23008830D02*
X118599798Y-23008344D01*
X126599870Y-88991169D02*
X126599918Y-88990681D01*
X105344737Y-81010718D02*
X105392963Y-81004770D01*
X56496861Y-83980974D02*
X56449450Y-83970328D01*
X15001353Y-88994874D02*
X15001605Y-88995295D01*
X36533278Y-22904946D02*
X36488855Y-22924637D01*
X71800201Y-80991655D02*
X71800297Y-80992136D01*
X71704946Y-34933278D02*
X71683099Y-34976681D01*
X100750549Y-51029671D02*
X100797380Y-51042631D01*
X118599798Y-23008344D02*
X118599702Y-23007863D01*
X69798394Y-50995295D02*
X69798646Y-50994874D01*
X69800000Y-23012272D02*
X69799996Y-23012027D01*
X22980974Y-69296861D02*
X22989281Y-69344737D01*
X40944737Y-22989281D02*
X40896861Y-22980974D01*
X20140851Y-38981039D02*
X20166847Y-38939987D01*
X89066847Y-81439987D02*
X89094826Y-81400259D01*
X105296861Y-81019025D02*
X105344737Y-81010718D01*
X121580974Y-83203138D02*
X121570328Y-83250549D01*
X71806917Y-53000559D02*
X71806455Y-53000724D01*
X36959148Y-81481039D02*
X36983099Y-81523318D01*
X120658576Y-83998804D02*
X120609877Y-84000000D01*
X40175362Y-52388855D02*
X40157874Y-52343519D01*
X69796477Y-53002482D02*
X69796097Y-53002170D01*
X69875362Y-39111144D02*
X69895053Y-39066721D01*
X22560012Y-35333152D02*
X22518960Y-35359148D01*
X89556480Y-83942125D02*
X89511144Y-83924637D01*
X55757874Y-51656480D02*
X55775362Y-51611144D01*
X23009318Y-23000081D02*
X23008830Y-23000129D01*
X89602619Y-20042631D02*
X89649450Y-20029671D01*
X69966847Y-35060012D02*
X69940851Y-35018960D01*
X40944737Y-81010718D02*
X40992963Y-81004770D01*
X118695053Y-69066721D02*
X118716900Y-69023318D01*
X71318960Y-65359148D02*
X71276681Y-65383099D01*
X23003159Y-80997188D02*
X23003522Y-80997517D01*
X69799440Y-53006917D02*
X69799275Y-53006455D01*
X36660012Y-22833152D02*
X36618960Y-22859148D01*
X22980974Y-34703138D02*
X22970328Y-34750549D01*
X69796840Y-23002811D02*
X69796477Y-23002482D01*
X101210033Y-83710033D02*
X101174841Y-83743539D01*
X70366721Y-35404946D02*
X70323318Y-35383099D01*
X126599798Y-15008344D02*
X126599702Y-15007863D01*
X126597517Y-15003522D02*
X126597188Y-15003159D01*
X40623318Y-81116900D02*
X40666721Y-81095053D01*
X71802482Y-53003522D02*
X71802170Y-53003902D01*
X40539987Y-81166847D02*
X40581039Y-81140851D01*
X100607036Y-81004770D02*
X100655262Y-81010718D01*
X118587727Y-81000000D02*
X118587972Y-80999996D01*
X126597829Y-15003902D02*
X126597517Y-15003522D01*
X56025158Y-22743539D02*
X55989966Y-22710033D01*
X120755262Y-83989281D02*
X120707036Y-83995229D01*
X120803138Y-65480974D02*
X120755262Y-65489281D01*
X71003138Y-35480974D02*
X70955262Y-35489281D01*
X89556480Y-52942125D02*
X89511144Y-52924637D01*
X40425158Y-83743539D02*
X40389966Y-83710033D01*
X84909877Y-20000000D02*
X84958576Y-20001195D01*
X101275278Y-22638047D02*
X101243539Y-22674841D01*
X121118960Y-68640851D02*
X121160012Y-68666847D01*
X126599440Y-88993082D02*
X126599583Y-88992612D01*
X105249450Y-22970328D02*
X105202619Y-22957368D01*
X118587727Y-51000000D02*
X118587972Y-50999996D01*
X51997380Y-20042631D02*
X52043519Y-20057874D01*
X121483099Y-83476681D02*
X121459148Y-83518960D01*
X89381039Y-81140851D02*
X89423318Y-81116900D01*
X22924637Y-39111144D02*
X22942125Y-39156480D01*
X119123318Y-65383099D02*
X119081039Y-65359148D01*
X52657368Y-83297380D02*
X52642125Y-83343519D01*
X69797188Y-23003159D02*
X69796840Y-23002811D01*
X69857874Y-69156480D02*
X69875362Y-69111144D01*
X105066721Y-51095053D02*
X105111144Y-51075362D01*
X40110718Y-52155262D02*
X40104770Y-52107036D01*
X71807387Y-80999583D02*
X71807863Y-80999702D01*
X104825158Y-51256460D02*
X104861952Y-51224721D01*
X69791169Y-50999870D02*
X69791655Y-50999798D01*
X51855262Y-22989281D02*
X51807036Y-22995229D01*
X121118960Y-35359148D02*
X121076681Y-35383099D01*
X22924637Y-64888855D02*
X22904946Y-64933278D01*
X105441423Y-51001195D02*
X105490122Y-51000000D01*
X118587972Y-50999996D02*
X118590190Y-50999942D01*
X23009809Y-80999942D02*
X23012027Y-80999996D01*
X89696861Y-51019025D02*
X89744737Y-51010718D01*
X36303138Y-22980974D02*
X36255262Y-22989281D01*
X71808830Y-80999870D02*
X71809318Y-80999918D01*
X22203138Y-35480974D02*
X22155262Y-35489281D01*
X89744737Y-81010718D02*
X89792963Y-81004770D01*
X121598804Y-83058576D02*
X121595229Y-83107036D01*
X69842631Y-69202619D02*
X69857874Y-69156480D01*
X126593544Y-15000724D02*
X126593082Y-15000559D01*
X15002811Y-88996840D02*
X15003159Y-88997188D01*
X118961952Y-65275278D02*
X118925158Y-65243539D01*
X69790681Y-53000081D02*
X69790190Y-53000057D01*
X56496861Y-52980974D02*
X56449450Y-52970328D01*
X23001122Y-23005558D02*
X23000912Y-23006002D01*
X88910718Y-52155262D02*
X88904770Y-52107036D01*
X23008830Y-23000129D02*
X23008344Y-23000201D01*
X121343539Y-68825158D02*
X121375278Y-68861952D01*
X71800000Y-34509877D02*
X71798804Y-34558576D01*
X56061952Y-81224721D02*
X56100259Y-81194826D01*
X101404946Y-52433278D02*
X101383099Y-52476681D01*
X40581039Y-81140851D02*
X40623318Y-81116900D01*
X71800559Y-23006917D02*
X71800416Y-23007387D01*
X36576681Y-81116900D02*
X36618960Y-81140851D01*
X22942125Y-34843519D02*
X22924637Y-34888855D01*
X69799583Y-80992612D02*
X69799702Y-80992136D01*
X37089281Y-52155262D02*
X37080974Y-52203138D01*
X126595703Y-88998121D02*
X126596097Y-88997829D01*
X69994826Y-38900259D02*
X70024721Y-38861952D01*
X70809877Y-68500000D02*
X70858576Y-68501195D01*
X105111144Y-52924637D02*
X105066721Y-52904946D01*
X118590190Y-50999942D02*
X118590681Y-50999918D01*
X101480974Y-20796861D02*
X101489281Y-20844737D01*
X69798121Y-80995703D02*
X69798394Y-80995295D01*
X71806455Y-23000724D02*
X71806002Y-23000912D01*
X105490122Y-81000000D02*
X118587727Y-81000000D01*
X100933278Y-83904946D02*
X100888855Y-83924637D01*
X121160012Y-68666847D02*
X121199740Y-68694826D01*
X20941423Y-83998804D02*
X20892963Y-83995229D01*
X40266847Y-20439987D02*
X40294826Y-20400259D01*
X89300259Y-81194826D02*
X89339987Y-81166847D01*
X52700000Y-52009877D02*
X52698804Y-52058576D01*
X118604770Y-39392963D02*
X118610718Y-39344737D01*
X101138047Y-51224721D02*
X101174841Y-51256460D01*
X70125158Y-68756460D02*
X70161952Y-68724721D01*
X56356480Y-52942125D02*
X56311144Y-52924637D01*
X104557874Y-81656480D02*
X104575362Y-81611144D01*
X126599996Y-15012027D02*
X126599942Y-15009809D01*
X52299740Y-22805173D02*
X52260012Y-22833152D01*
X56061952Y-22775278D02*
X56025158Y-22743539D01*
X36699740Y-20194826D02*
X36738047Y-20224721D01*
X36109877Y-81000000D02*
X36158576Y-81001195D01*
X70790122Y-38500000D02*
X70809877Y-38500000D01*
X20796861Y-68519025D02*
X20844737Y-68510718D01*
X119166721Y-68595053D02*
X119211144Y-68575362D01*
X85824637Y-52388855D02*
X85804946Y-52433278D01*
X52533152Y-20439987D02*
X52559148Y-20481039D01*
X40142631Y-52297380D02*
X40129671Y-52250549D01*
X118599583Y-80992612D02*
X118599702Y-80992136D01*
X40802619Y-20042631D02*
X40849450Y-20029671D01*
X52680974Y-20796861D02*
X52689281Y-20844737D01*
X89381039Y-51140851D02*
X89423318Y-51116900D01*
X56223318Y-83883099D02*
X56181039Y-83859148D01*
X121459148Y-20481039D02*
X121483099Y-20523318D01*
X69810718Y-39344737D02*
X69819025Y-39296861D01*
X71801605Y-53004704D02*
X71801353Y-53005125D01*
X118599996Y-53012027D02*
X118599942Y-53009809D01*
X121598804Y-34558576D02*
X121595229Y-34607036D01*
X40802619Y-52957368D02*
X40756480Y-52942125D01*
X69795295Y-53001605D02*
X69794874Y-53001353D01*
X126596097Y-15002170D02*
X126595703Y-15001878D01*
X104981039Y-51140851D02*
X105023318Y-51116900D01*
X20194826Y-20400259D02*
X20224721Y-20361952D01*
X119039987Y-65333152D02*
X119000259Y-65305173D01*
X69819025Y-34703138D02*
X69810718Y-34655262D01*
X69798394Y-80995295D02*
X69798646Y-80994874D01*
X71809809Y-50999942D02*
X71812027Y-50999996D01*
X40461952Y-20224721D02*
X40500259Y-20194826D01*
X40356460Y-81325158D02*
X40389966Y-81289966D01*
X101480974Y-81796861D02*
X101489281Y-81844737D01*
X40195053Y-22433278D02*
X40175362Y-22388855D01*
X118925158Y-65243539D02*
X118889966Y-65210033D01*
X121580974Y-20796861D02*
X121589281Y-20844737D01*
X20796861Y-20019025D02*
X20844737Y-20010718D01*
X104575362Y-52388855D02*
X104557874Y-52343519D01*
X101018960Y-22859148D02*
X100976681Y-22883099D01*
X40157874Y-20656480D02*
X40175362Y-20611144D01*
X69798646Y-80994874D02*
X69798877Y-80994441D01*
X104616900Y-20523318D02*
X104640851Y-20481039D01*
X40142631Y-51702619D02*
X40157874Y-51656480D01*
X69797829Y-23003902D02*
X69797517Y-23003522D01*
X37100000Y-52009877D02*
X37098804Y-52058576D01*
X70809877Y-38500000D02*
X70858576Y-38501195D01*
X71808830Y-53000129D02*
X71808344Y-53000201D01*
X41041423Y-83998804D02*
X40992963Y-83995229D01*
X118599275Y-50993544D02*
X118599440Y-50993082D01*
X36533278Y-51095053D02*
X36576681Y-51116900D01*
X89649450Y-81029671D02*
X89696861Y-81019025D01*
X101500000Y-81990122D02*
X101500000Y-83009877D01*
X71800416Y-80992612D02*
X71800559Y-80993082D01*
X23003522Y-53002482D02*
X23003159Y-53002811D01*
X85103138Y-20019025D02*
X85150549Y-20029671D01*
X20004770Y-20892963D02*
X20010718Y-20844737D01*
X101174841Y-83743539D02*
X101138047Y-83775278D01*
X20166847Y-65060012D02*
X20140851Y-65018960D01*
X23000297Y-23007863D02*
X23000201Y-23008344D01*
X40802619Y-22957368D02*
X40756480Y-22942125D01*
X69793082Y-50999440D02*
X69793544Y-50999275D01*
X85574841Y-22743539D02*
X85538047Y-22775278D01*
X101500000Y-51990122D02*
X101500000Y-52009877D01*
X37098804Y-51941423D02*
X37100000Y-51990122D01*
X69799798Y-80991655D02*
X69799870Y-80991169D01*
X52604946Y-52433278D02*
X52583099Y-52476681D01*
X55866847Y-22560012D02*
X55840851Y-22518960D01*
X101457368Y-52297380D02*
X101442125Y-52343519D01*
X118600000Y-64509877D02*
X118600000Y-53012272D01*
X23000000Y-64509877D02*
X22998804Y-64558576D01*
X121118960Y-65359148D02*
X121076681Y-65383099D01*
X69798121Y-23004296D02*
X69797829Y-23003902D01*
X119444737Y-68510718D02*
X119492963Y-68504770D01*
X89381039Y-52859148D02*
X89339987Y-52833152D01*
X37070328Y-22250549D02*
X37057368Y-22297380D01*
X101243539Y-22674841D02*
X101210033Y-22710033D01*
X20361952Y-38724721D02*
X20400259Y-38694826D01*
X104861952Y-51224721D02*
X104900259Y-51194826D01*
X118599702Y-50992136D02*
X118599798Y-50991655D01*
X52642125Y-83343519D02*
X52624637Y-83388855D01*
X121076681Y-38616900D02*
X121118960Y-38640851D01*
X23006917Y-53000559D02*
X23006455Y-53000724D01*
X118629671Y-69249450D02*
X118642631Y-69202619D01*
X121483099Y-39023318D02*
X121504946Y-39066721D01*
X88910718Y-20844737D02*
X88919025Y-20796861D01*
X69794441Y-23001122D02*
X69793997Y-23000912D01*
X118599942Y-50990190D02*
X118599996Y-50987972D01*
X104825158Y-83743539D02*
X104789966Y-83710033D01*
X69798646Y-50994874D02*
X69798877Y-50994441D01*
X23000000Y-23012272D02*
X23000000Y-34509877D01*
X69800000Y-64509877D02*
X69800000Y-53012272D01*
X36843539Y-51325158D02*
X36875278Y-51361952D01*
X23012272Y-53000000D02*
X23012027Y-53000003D01*
X56356480Y-51057874D02*
X56402619Y-51042631D01*
X100750549Y-52970328D02*
X100703138Y-52980974D01*
X56139987Y-22833152D02*
X56100259Y-22805173D01*
X85898804Y-51941423D02*
X85900000Y-51990122D01*
X105066721Y-22904946D02*
X105023318Y-22883099D01*
X104575362Y-83388855D02*
X104557874Y-83343519D01*
X71803522Y-53002482D02*
X71803159Y-53002811D01*
X120658576Y-35498804D02*
X120609877Y-35500000D01*
X69795703Y-50998121D02*
X69796097Y-50997829D01*
X88900000Y-52009877D02*
X88900000Y-51990122D01*
X69792612Y-23000416D02*
X69792136Y-23000297D01*
X100509877Y-51000000D02*
X100558576Y-51001195D01*
X85499740Y-22805173D02*
X85460012Y-22833152D01*
X15007387Y-15000416D02*
X15006917Y-15000559D01*
X69790190Y-50999942D02*
X69790190Y-50999942D01*
X37100000Y-22009877D02*
X37098804Y-22058576D01*
X36303138Y-52980974D02*
X36255262Y-52989281D01*
X70955262Y-68510718D02*
X71003138Y-68519025D01*
X85804946Y-52433278D02*
X85783099Y-52476681D01*
X56181039Y-83859148D02*
X56139987Y-83833152D01*
X40389966Y-83710033D02*
X40356460Y-83674841D01*
X104861952Y-81224721D02*
X104900259Y-81194826D01*
X36576681Y-51116900D02*
X36618960Y-51140851D01*
X121343539Y-35174841D02*
X121310033Y-35210033D01*
X121405173Y-38900259D02*
X121433152Y-38939987D01*
X85055262Y-20010718D02*
X85103138Y-20019025D01*
X121405173Y-35099740D02*
X121375278Y-35138047D01*
X22970328Y-34750549D02*
X22957368Y-34797380D01*
X71770328Y-69249450D02*
X71780974Y-69296861D01*
X69798877Y-53005558D02*
X69798646Y-53005125D01*
X89423318Y-20116900D02*
X89466721Y-20095053D01*
X40104770Y-81892963D02*
X40110718Y-81844737D01*
X71438047Y-38724721D02*
X71474841Y-38756460D01*
X121238047Y-38724721D02*
X121274841Y-38756460D01*
X71803159Y-53002811D02*
X71802811Y-53003159D01*
X51997380Y-52957368D02*
X51950549Y-52970328D01*
X121459148Y-35018960D02*
X121433152Y-35060012D01*
X40756480Y-81057874D02*
X40802619Y-81042631D01*
X40992963Y-83995229D02*
X40944737Y-83989281D01*
X15008344Y-15000201D02*
X15007863Y-15000297D01*
X104861952Y-20224721D02*
X104900259Y-20194826D01*
X20749450Y-20029671D02*
X20796861Y-20019025D01*
X118642631Y-64797380D02*
X118629671Y-64750549D01*
X85150549Y-22970328D02*
X85103138Y-22980974D01*
X69799918Y-80990681D02*
X69799942Y-80990190D01*
X69799702Y-53007863D02*
X69799583Y-53007387D01*
X20001195Y-39441423D02*
X20004770Y-39392963D01*
X126596477Y-88997517D02*
X126596840Y-88997188D01*
X15009809Y-88999942D02*
X15012027Y-88999996D01*
X23003902Y-50997829D02*
X23004296Y-50998121D01*
X36810033Y-81289966D02*
X36843539Y-81325158D01*
X36618960Y-52859148D02*
X36576681Y-52883099D01*
X88975362Y-81611144D02*
X88995053Y-81566721D01*
X69916900Y-34976681D02*
X69895053Y-34933278D01*
X118593082Y-80999440D02*
X118593544Y-80999275D01*
X71143519Y-65442125D02*
X71097380Y-65457368D01*
X36207036Y-20004770D02*
X36255262Y-20010718D01*
X118629671Y-64750549D02*
X118619025Y-64703138D01*
X118925158Y-38756460D02*
X118961952Y-38724721D01*
X40101195Y-83058576D02*
X40100000Y-83009877D01*
X118599275Y-80993544D02*
X118599440Y-80993082D01*
X20481039Y-83859148D02*
X20439987Y-83833152D01*
X118824721Y-38861952D02*
X118856460Y-38825158D01*
X36350549Y-81029671D02*
X36397380Y-81042631D01*
X126599870Y-15008830D02*
X126599798Y-15008344D01*
X40100000Y-81990122D02*
X40101195Y-81941423D01*
X37057368Y-20702619D02*
X37070328Y-20749450D01*
X126592136Y-15000297D02*
X126591655Y-15000201D01*
X55894826Y-22599740D02*
X55866847Y-22560012D01*
X105111144Y-20075362D02*
X105156480Y-20057874D01*
X22250549Y-38529671D02*
X22297380Y-38542631D01*
X105202619Y-83957368D02*
X105156480Y-83942125D01*
X119000259Y-68694826D02*
X119039987Y-68666847D01*
X20194826Y-83599740D02*
X20166847Y-83560012D01*
X104694826Y-22599740D02*
X104666847Y-22560012D01*
X89225158Y-20256460D02*
X89261952Y-20224721D01*
X121343539Y-83674841D02*
X121310033Y-83710033D01*
X69940851Y-35018960D02*
X69916900Y-34976681D01*
X71812272Y-81000000D02*
X84909877Y-81000000D01*
X69799918Y-23009318D02*
X69799870Y-23008830D01*
X20611144Y-38575362D02*
X20656480Y-38557874D01*
X40266847Y-22560012D02*
X40240851Y-22518960D01*
X118597829Y-53003902D02*
X118597517Y-53003522D01*
X23004296Y-50998121D02*
X23004704Y-50998394D01*
X101383099Y-81523318D02*
X101404946Y-81566721D01*
X120803138Y-20019025D02*
X120850549Y-20029671D01*
X69799996Y-53012027D02*
X69799942Y-53009809D01*
X40389966Y-52710033D02*
X40356460Y-52674841D01*
X69793544Y-50999275D02*
X69793997Y-50999087D01*
X70456480Y-68557874D02*
X70502619Y-68542631D01*
X118599918Y-23009318D02*
X118599870Y-23008830D01*
X121483099Y-69023318D02*
X121504946Y-69066721D01*
X105023318Y-52883099D02*
X104981039Y-52859148D01*
X118596477Y-53002482D02*
X118596097Y-53002170D01*
X23000000Y-80987727D02*
X23000003Y-80987972D01*
X119081039Y-35359148D02*
X119039987Y-35333152D01*
X71770328Y-64750549D02*
X71757368Y-64797380D01*
X85499740Y-20194826D02*
X85538047Y-20224721D01*
X71318960Y-68640851D02*
X71360012Y-68666847D01*
X40666721Y-81095053D02*
X40711144Y-81075362D01*
X105023318Y-22883099D02*
X104981039Y-22859148D01*
X22942125Y-69156480D02*
X22957368Y-69202619D01*
X40711144Y-52924637D02*
X40666721Y-52904946D01*
X22833152Y-35060012D02*
X22805173Y-35099740D01*
X52583099Y-51523318D02*
X52604946Y-51566721D01*
X119166721Y-65404946D02*
X119123318Y-65383099D01*
X89744737Y-51010718D02*
X89792963Y-51004770D01*
X89016900Y-22476681D02*
X88995053Y-22433278D01*
X69796097Y-80997829D02*
X69796477Y-80997517D01*
X89300259Y-83805173D02*
X89261952Y-83775278D01*
X69804770Y-39392963D02*
X69810718Y-39344737D01*
X51709877Y-53000000D02*
X41090122Y-53000000D01*
X89890122Y-84000000D02*
X89841423Y-83998804D01*
X52410033Y-51289966D02*
X52443539Y-51325158D01*
X37042125Y-51656480D02*
X37057368Y-51702619D01*
X20116900Y-69023318D02*
X20140851Y-68981039D01*
X101060012Y-52833152D02*
X101018960Y-52859148D01*
X118591169Y-53000129D02*
X118590681Y-53000081D01*
X85418960Y-20140851D02*
X85460012Y-20166847D01*
X104939987Y-83833152D02*
X104900259Y-83805173D01*
X101424637Y-83388855D02*
X101404946Y-83433278D01*
X71801605Y-23004704D02*
X71801353Y-23005125D01*
X118596840Y-53002811D02*
X118596477Y-53002482D01*
X36303138Y-20019025D02*
X36350549Y-20029671D01*
X40581039Y-52859148D02*
X40539987Y-52833152D01*
X69792612Y-53000416D02*
X69792136Y-53000297D01*
X71809318Y-23000081D02*
X71808830Y-23000129D01*
X37080974Y-83203138D02*
X37070328Y-83250549D01*
X20844737Y-68510718D02*
X20892963Y-68504770D01*
X71812272Y-51000000D02*
X84909877Y-51000000D01*
X69799087Y-80993997D02*
X69799275Y-80993544D01*
X70024721Y-65138047D02*
X69994826Y-65099740D01*
X100655262Y-20010718D02*
X100703138Y-20019025D01*
X118601195Y-69441423D02*
X118604770Y-69392963D01*
X101498804Y-51941423D02*
X101500000Y-51990122D01*
X71543539Y-35174841D02*
X71510033Y-35210033D01*
X104640851Y-20481039D02*
X104666847Y-20439987D01*
X105344737Y-52989281D02*
X105296861Y-52980974D01*
X23000201Y-80991655D02*
X23000297Y-80992136D01*
X104861952Y-22775278D02*
X104825158Y-22743539D01*
X85103138Y-51019025D02*
X85150549Y-51029671D01*
X105066721Y-20095053D02*
X105111144Y-20075362D01*
X121199740Y-68694826D02*
X121238047Y-68724721D01*
X100933278Y-22904946D02*
X100888855Y-22924637D01*
X22989281Y-64655262D02*
X22980974Y-64703138D01*
X69797829Y-50996097D02*
X69798121Y-50995703D01*
X36905173Y-20400259D02*
X36933152Y-20439987D01*
X101457368Y-20702619D02*
X101470328Y-20749450D01*
X118740851Y-38981039D02*
X118766847Y-38939987D01*
X118596097Y-80997829D02*
X118596477Y-80997517D01*
X23000000Y-53012272D02*
X23000000Y-64509877D01*
X121600000Y-20990122D02*
X121600000Y-34509877D01*
X85880974Y-51796861D02*
X85889281Y-51844737D01*
X121595229Y-34607036D02*
X121589281Y-34655262D01*
X37100000Y-81990122D02*
X37100000Y-83009877D01*
X118598877Y-53005558D02*
X118598646Y-53005125D01*
X118856460Y-68825158D02*
X118889966Y-68789966D01*
X121542125Y-69156480D02*
X121557368Y-69202619D01*
X85418960Y-52859148D02*
X85376681Y-52883099D01*
X56402619Y-83957368D02*
X56356480Y-83942125D01*
X100558576Y-81001195D02*
X100607036Y-81004770D01*
X71800000Y-39490122D02*
X71800000Y-50987727D01*
X126599918Y-15009318D02*
X126599870Y-15008830D01*
X40849450Y-83970328D02*
X40802619Y-83957368D01*
X69857874Y-64843519D02*
X69842631Y-64797380D01*
X40110718Y-20844737D02*
X40119025Y-20796861D01*
X85055262Y-52989281D02*
X85007036Y-52995229D01*
X119541423Y-68501195D02*
X119590122Y-68500000D01*
X89381039Y-20140851D02*
X89423318Y-20116900D01*
X104640851Y-52518960D02*
X104616900Y-52476681D01*
X55704770Y-20892963D02*
X55710718Y-20844737D01*
X100607036Y-83995229D02*
X100558576Y-83998804D01*
X101275278Y-52638047D02*
X101243539Y-52674841D01*
X100933278Y-20095053D02*
X100976681Y-20116900D01*
X52260012Y-52833152D02*
X52218960Y-52859148D01*
X20194826Y-65099740D02*
X20166847Y-65060012D01*
X88942631Y-81702619D02*
X88957874Y-81656480D01*
X69795703Y-23001878D02*
X69795295Y-23001605D01*
X85376681Y-22883099D02*
X85333278Y-22904946D01*
X120755262Y-65489281D02*
X120707036Y-65495229D01*
X40216900Y-51523318D02*
X40240851Y-51481039D01*
X104557874Y-51656480D02*
X104575362Y-51611144D01*
X85857368Y-83297380D02*
X85842125Y-83343519D01*
X100703138Y-81019025D02*
X100750549Y-81029671D01*
X121433152Y-83560012D02*
X121405173Y-83599740D01*
X100843519Y-83942125D02*
X100797380Y-83957368D01*
X23000912Y-80993997D02*
X23001122Y-80994441D01*
X69799583Y-50992612D02*
X69799702Y-50992136D01*
X71683099Y-34976681D02*
X71659148Y-35018960D01*
X101404946Y-22433278D02*
X101383099Y-22476681D01*
X69793544Y-80999275D02*
X69793997Y-80999087D01*
X71143519Y-35442125D02*
X71097380Y-35457368D01*
X118610718Y-64655262D02*
X118604770Y-64607036D01*
X36533278Y-52904946D02*
X36488855Y-52924637D01*
X20029671Y-34750549D02*
X20019025Y-34703138D01*
X22518960Y-35359148D02*
X22476681Y-35383099D01*
X40101195Y-22058576D02*
X40100000Y-22009877D01*
X71800000Y-23012272D02*
X71800000Y-34509877D01*
X20941423Y-38501195D02*
X20990122Y-38500000D01*
X15007863Y-15000297D02*
X15007387Y-15000416D01*
X89466721Y-52904946D02*
X89423318Y-52883099D01*
X36810033Y-51289966D02*
X36843539Y-51325158D01*
X23001122Y-80994441D02*
X23001353Y-80994874D01*
X100655262Y-22989281D02*
X100607036Y-22995229D01*
X120988855Y-38575362D02*
X121033278Y-38595053D01*
X105249450Y-52970328D02*
X105202619Y-52957368D01*
X118587972Y-23000003D02*
X118587727Y-23000000D01*
X126599942Y-15009809D02*
X126599918Y-15009318D01*
X118598646Y-50994874D02*
X118598877Y-50994441D01*
X85643539Y-22674841D02*
X85610033Y-22710033D01*
X23004704Y-53001605D02*
X23004296Y-53001878D01*
X69800000Y-80987727D02*
X69800000Y-69490122D01*
X37095229Y-52107036D02*
X37089281Y-52155262D01*
X56100259Y-51194826D02*
X56139987Y-51166847D01*
X104616900Y-83476681D02*
X104595053Y-83433278D01*
X85804946Y-22433278D02*
X85783099Y-22476681D01*
X104900259Y-20194826D02*
X104939987Y-20166847D01*
X105344737Y-22989281D02*
X105296861Y-22980974D01*
X36397380Y-52957368D02*
X36350549Y-52970328D01*
X15005558Y-88998877D02*
X15006002Y-88999087D01*
X120988855Y-35424637D02*
X120943519Y-35442125D01*
X118599870Y-50991169D02*
X118599918Y-50990681D01*
X51950549Y-22970328D02*
X51903138Y-22980974D01*
X126599996Y-88987972D02*
X126600000Y-88987727D01*
X120803138Y-38519025D02*
X120850549Y-38529671D01*
X101489281Y-51844737D02*
X101495229Y-51892963D01*
X20481039Y-68640851D02*
X20523318Y-68616900D01*
X71801878Y-80995703D02*
X71802170Y-80996097D01*
X85857368Y-81702619D02*
X85870328Y-81749450D01*
X55742631Y-81702619D02*
X55757874Y-81656480D01*
X15001605Y-15004704D02*
X15001353Y-15005125D01*
X22107036Y-35495229D02*
X22058576Y-35498804D01*
X126598877Y-88994441D02*
X126599087Y-88993997D01*
X55840851Y-81481039D02*
X55866847Y-81439987D01*
X126587727Y-15000000D02*
X15012272Y-15000000D01*
X69799942Y-23009809D02*
X69799942Y-23009809D01*
X15009809Y-15000057D02*
X15009318Y-15000081D01*
X36255262Y-22989281D02*
X36207036Y-22995229D01*
X36533278Y-20095053D02*
X36576681Y-20116900D01*
X100509877Y-20000000D02*
X100558576Y-20001195D01*
X71809809Y-23000057D02*
X71809318Y-23000081D01*
X36983099Y-22476681D02*
X36959148Y-22518960D01*
X40539987Y-20166847D02*
X40581039Y-20140851D01*
X89602619Y-83957368D02*
X89556480Y-83942125D01*
X56356480Y-83942125D02*
X56311144Y-83924637D01*
X55729671Y-83250549D02*
X55719025Y-83203138D01*
X23006002Y-80999087D02*
X23006455Y-80999275D01*
X88919025Y-52203138D02*
X88910718Y-52155262D01*
X71800559Y-80993082D02*
X71800724Y-80993544D01*
X85870328Y-51749450D02*
X85880974Y-51796861D01*
X51903138Y-52980974D02*
X51855262Y-52989281D01*
X85895229Y-81892963D02*
X85898804Y-81941423D01*
X101489281Y-83155262D02*
X101480974Y-83203138D01*
X36933152Y-83560012D02*
X36905173Y-83599740D01*
X121504946Y-34933278D02*
X121483099Y-34976681D01*
X88904770Y-83107036D02*
X88901195Y-83058576D01*
X100509877Y-84000000D02*
X89890122Y-84000000D01*
X71800416Y-50992612D02*
X71800559Y-50993082D01*
X52657368Y-20702619D02*
X52670328Y-20749450D01*
X85288855Y-81075362D02*
X85333278Y-81095053D01*
X101495229Y-81892963D02*
X101498804Y-81941423D01*
X120850549Y-20029671D02*
X120897380Y-20042631D01*
X69819025Y-39296861D02*
X69829671Y-39249450D01*
X23006002Y-53000912D02*
X23005558Y-53001122D01*
X85889281Y-51844737D02*
X85895229Y-51892963D01*
X23000416Y-53007387D02*
X23000297Y-53007863D01*
X51709877Y-51000000D02*
X51709877Y-51000000D01*
X36488855Y-83924637D02*
X36443519Y-83942125D01*
X118600000Y-80987727D02*
X118600000Y-69490122D01*
X89744737Y-22989281D02*
X89696861Y-22980974D01*
X89744737Y-20010718D02*
X89792963Y-20004770D01*
X85889281Y-20844737D02*
X85895229Y-20892963D01*
X104529671Y-51749450D02*
X104542631Y-51702619D01*
X121580974Y-69296861D02*
X121589281Y-69344737D01*
X20166847Y-68939987D02*
X20194826Y-68900259D01*
X71806917Y-50999440D02*
X71807387Y-50999583D01*
X15002482Y-88996477D02*
X15002811Y-88996840D01*
X69791655Y-23000201D02*
X69791169Y-23000129D01*
X22674841Y-38756460D02*
X22710033Y-38789966D01*
X89094826Y-20400259D02*
X89124721Y-20361952D01*
X40266847Y-52560012D02*
X40240851Y-52518960D01*
X36618960Y-20140851D02*
X36660012Y-20166847D01*
X56100259Y-83805173D02*
X56061952Y-83775278D01*
X100843519Y-51057874D02*
X100888855Y-51075362D01*
X85499740Y-81194826D02*
X85538047Y-81224721D01*
X126599087Y-88993997D02*
X126599275Y-88993544D01*
X69804770Y-34607036D02*
X69801195Y-34558576D01*
X104666847Y-83560012D02*
X104640851Y-83518960D01*
X71805125Y-23001353D02*
X71804704Y-23001605D01*
X52700000Y-51990122D02*
X52700000Y-52009877D01*
X71807863Y-23000297D02*
X71807387Y-23000416D01*
X40129671Y-51749450D02*
X40142631Y-51702619D01*
X101333152Y-83560012D02*
X101305173Y-83599740D01*
X85103138Y-83980974D02*
X85055262Y-83989281D01*
X89339987Y-20166847D02*
X89381039Y-20140851D01*
X23000201Y-53008344D02*
X23000129Y-53008830D01*
X20892963Y-35495229D02*
X20844737Y-35489281D01*
X55701195Y-22058576D02*
X55700000Y-22009877D01*
X89381039Y-83859148D02*
X89339987Y-83833152D01*
X118599918Y-80990681D02*
X118599942Y-80990190D01*
X85610033Y-20289966D02*
X85643539Y-20325158D01*
X52657368Y-22297380D02*
X52642125Y-22343519D01*
X71800000Y-80987727D02*
X71800003Y-80987972D01*
X104861952Y-83775278D02*
X104825158Y-83743539D01*
X104756460Y-22674841D02*
X104724721Y-22638047D01*
X101442125Y-20656480D02*
X101457368Y-20702619D01*
X89744737Y-83989281D02*
X89696861Y-83980974D01*
X85150549Y-83970328D02*
X85103138Y-83980974D01*
X40240851Y-52518960D02*
X40216900Y-52476681D01*
X56544737Y-83989281D02*
X56496861Y-83980974D01*
X69801195Y-39441423D02*
X69804770Y-39392963D01*
X85460012Y-51166847D02*
X85499740Y-51194826D01*
X36660012Y-20166847D02*
X36699740Y-20194826D01*
X70596861Y-65480974D02*
X70549450Y-65470328D01*
X20140851Y-65018960D02*
X20116900Y-64976681D01*
X118597517Y-23003522D02*
X118597188Y-23003159D01*
X100558576Y-51001195D02*
X100607036Y-51004770D01*
X20194826Y-38900259D02*
X20224721Y-38861952D01*
X20256460Y-38825158D02*
X20289966Y-38789966D01*
X85824637Y-81611144D02*
X85842125Y-81656480D01*
X71808344Y-80999798D02*
X71808830Y-80999870D01*
X55816900Y-83476681D02*
X55795053Y-83433278D01*
X37042125Y-52343519D02*
X37024637Y-52388855D01*
X20019025Y-34703138D02*
X20010718Y-34655262D01*
X118596840Y-80997188D02*
X118597188Y-80996840D01*
X40623318Y-20116900D02*
X40666721Y-20095053D01*
X69799918Y-50990681D02*
X69799942Y-50990190D01*
X118599798Y-53008344D02*
X118599702Y-53007863D01*
X89066847Y-51439987D02*
X89094826Y-51400259D01*
X121589281Y-64655262D02*
X121580974Y-64703138D01*
X101243539Y-51325158D02*
X101275278Y-51361952D01*
X36488855Y-81075362D02*
X36533278Y-81095053D01*
X101333152Y-81439987D02*
X101359148Y-81481039D01*
X104939987Y-52833152D02*
X104900259Y-52805173D01*
X101099740Y-22805173D02*
X101060012Y-22833152D01*
X104542631Y-52297380D02*
X104529671Y-52250549D01*
X23004296Y-23001878D02*
X23003902Y-23002170D01*
X118766847Y-65060012D02*
X118740851Y-65018960D01*
X120658576Y-68501195D02*
X120707036Y-68504770D01*
X40240851Y-81481039D02*
X40266847Y-81439987D01*
X121524637Y-64888855D02*
X121504946Y-64933278D01*
X85499740Y-51194826D02*
X85538047Y-51224721D01*
X69916900Y-69023318D02*
X69940851Y-68981039D01*
X84909877Y-81000000D02*
X84958576Y-81001195D01*
X89649450Y-52970328D02*
X89602619Y-52957368D01*
X118590190Y-53000057D02*
X118587972Y-53000003D01*
X36875278Y-83638047D02*
X36843539Y-83674841D01*
X22883099Y-34976681D02*
X22859148Y-35018960D01*
X121542125Y-64843519D02*
X121524637Y-64888855D01*
X23005558Y-23001122D02*
X23005125Y-23001353D01*
X70549450Y-35470328D02*
X70502619Y-35457368D01*
X71605173Y-65099740D02*
X71575278Y-65138047D01*
X88900000Y-83009877D02*
X88900000Y-81990122D01*
X15005125Y-88998646D02*
X15005558Y-88998877D01*
X71800297Y-23007863D02*
X71800201Y-23008344D01*
X119256480Y-35442125D02*
X119211144Y-35424637D01*
X55757874Y-52343519D02*
X55742631Y-52297380D01*
X71474841Y-35243539D02*
X71438047Y-35275278D01*
X52218960Y-22859148D02*
X52176681Y-22883099D01*
X119349450Y-38529671D02*
X119396861Y-38519025D01*
X85880974Y-83203138D02*
X85870328Y-83250549D01*
X71575278Y-68861952D02*
X71605173Y-68900259D01*
X88975362Y-51611144D02*
X88995053Y-51566721D01*
X40425158Y-51256460D02*
X40461952Y-51224721D01*
X71575278Y-35138047D02*
X71543539Y-35174841D01*
X20029671Y-39249450D02*
X20042631Y-39202619D01*
X52043519Y-83942125D02*
X51997380Y-83957368D01*
X36810033Y-83710033D02*
X36774841Y-83743539D01*
X71789281Y-34655262D02*
X71780974Y-34703138D01*
X52698804Y-22058576D02*
X52695229Y-22107036D01*
X104510718Y-20844737D02*
X104519025Y-20796861D01*
X69798646Y-53005125D02*
X69798394Y-53004704D01*
X88910718Y-81844737D02*
X88919025Y-81796861D01*
X41041423Y-22998804D02*
X40992963Y-22995229D01*
X104504770Y-20892963D02*
X104510718Y-20844737D01*
X71780974Y-69296861D02*
X71789281Y-69344737D01*
X20749450Y-35470328D02*
X20702619Y-35457368D01*
X15001605Y-88995295D02*
X15001878Y-88995703D01*
X20523318Y-65383099D02*
X20481039Y-65359148D01*
X20523318Y-35383099D02*
X20481039Y-35359148D01*
X118695053Y-39066721D02*
X118716900Y-39023318D01*
X71806917Y-23000559D02*
X71806455Y-23000724D01*
X51950549Y-81029671D02*
X51997380Y-81042631D01*
X20075362Y-34888855D02*
X20057874Y-34843519D01*
X89189966Y-81289966D02*
X89225158Y-81256460D01*
X118593997Y-53000912D02*
X118593544Y-53000724D01*
X70809877Y-35500000D02*
X70790122Y-35500000D01*
X52657368Y-81702619D02*
X52670328Y-81749450D01*
X104694826Y-83599740D02*
X104666847Y-83560012D01*
X20611144Y-83924637D02*
X20566721Y-83904946D01*
X89466721Y-81095053D02*
X89511144Y-81075362D01*
X85783099Y-51523318D02*
X85804946Y-51566721D01*
X40802619Y-81042631D02*
X40849450Y-81029671D01*
X121595229Y-39392963D02*
X121598804Y-39441423D01*
X36255262Y-51010718D02*
X36303138Y-51019025D01*
X37098804Y-81941423D02*
X37100000Y-81990122D01*
X15000000Y-88987727D02*
X15000003Y-88987972D01*
X121433152Y-38939987D02*
X121459148Y-38981039D01*
X20611144Y-68575362D02*
X20656480Y-68557874D01*
X71143519Y-38557874D02*
X71188855Y-38575362D01*
X36158576Y-51001195D02*
X36207036Y-51004770D01*
X120707036Y-68504770D02*
X120755262Y-68510718D01*
X101275278Y-83638047D02*
X101243539Y-83674841D01*
X101470328Y-22250549D02*
X101457368Y-22297380D01*
X69790681Y-50999918D02*
X69791169Y-50999870D01*
X71757368Y-39202619D02*
X71770328Y-39249450D01*
X101498804Y-83058576D02*
X101495229Y-83107036D01*
X101359148Y-51481039D02*
X101383099Y-51523318D01*
X40119025Y-52203138D02*
X40110718Y-52155262D01*
X118592136Y-80999702D02*
X118592612Y-80999583D01*
X36109877Y-23000000D02*
X23012272Y-23000000D01*
X69857874Y-34843519D02*
X69842631Y-34797380D01*
X51758576Y-20001195D02*
X51807036Y-20004770D01*
X85055262Y-51010718D02*
X85103138Y-51019025D01*
X56641423Y-22998804D02*
X56592963Y-22995229D01*
X52695229Y-20892963D02*
X52698804Y-20941423D01*
X36699740Y-22805173D02*
X36660012Y-22833152D01*
X22599740Y-35305173D02*
X22560012Y-35333152D01*
X40992963Y-52995229D02*
X40944737Y-52989281D01*
X121542125Y-39156480D02*
X121557368Y-39202619D01*
X40849450Y-81029671D02*
X40896861Y-81019025D01*
X71812272Y-53000000D02*
X71812027Y-53000003D01*
X22009877Y-65500000D02*
X20990122Y-65500000D01*
X126599583Y-88992612D02*
X126599702Y-88992136D01*
X126587972Y-88999996D02*
X126590190Y-88999942D01*
X71806455Y-53000724D02*
X71806002Y-53000912D01*
X89124721Y-51361952D02*
X89156460Y-51325158D01*
X40539987Y-83833152D02*
X40500259Y-83805173D01*
X36959148Y-20481039D02*
X36983099Y-20523318D01*
X52698804Y-20941423D02*
X52700000Y-20990122D01*
X40294826Y-20400259D02*
X40324721Y-20361952D01*
X23000912Y-50993997D02*
X23001122Y-50994441D01*
X20749450Y-38529671D02*
X20796861Y-38519025D01*
X69829671Y-69249450D02*
X69842631Y-69202619D01*
X71809809Y-80999942D02*
X71812027Y-80999996D01*
X71360012Y-38666847D02*
X71399740Y-38694826D01*
X23001353Y-23005125D02*
X23001122Y-23005558D01*
X104501195Y-81941423D02*
X104504770Y-81892963D01*
X89556480Y-81057874D02*
X89602619Y-81042631D01*
X121459148Y-68981039D02*
X121483099Y-69023318D01*
X20004770Y-69392963D02*
X20010718Y-69344737D01*
X22775278Y-65138047D02*
X22743539Y-65174841D01*
X40100000Y-51990122D02*
X40101195Y-51941423D01*
X37024637Y-83388855D02*
X37004946Y-83433278D01*
X71798804Y-69441423D02*
X71800000Y-69490122D01*
X71804704Y-23001605D02*
X71804296Y-23001878D01*
X100607036Y-51004770D02*
X100655262Y-51010718D01*
X40104770Y-51892963D02*
X40110718Y-51844737D01*
X15004296Y-88998121D02*
X15004704Y-88998394D01*
X51855262Y-83989281D02*
X51807036Y-83995229D01*
X84909877Y-53000000D02*
X71812272Y-53000000D01*
X69790681Y-23000081D02*
X69790190Y-23000057D01*
X20095053Y-83433278D02*
X20075362Y-83388855D01*
X15008830Y-15000129D02*
X15008344Y-15000201D01*
X89066847Y-20439987D02*
X89094826Y-20400259D01*
X15003522Y-88997517D02*
X15003902Y-88997829D01*
X85895229Y-83107036D02*
X85889281Y-83155262D01*
X69799702Y-80992136D02*
X69799798Y-80991655D01*
X69799440Y-23006917D02*
X69799275Y-23006455D01*
X118657874Y-39156480D02*
X118675362Y-39111144D01*
X85824637Y-22388855D02*
X85804946Y-22433278D01*
X36207036Y-51004770D02*
X36255262Y-51010718D01*
X89225158Y-52743539D02*
X89189966Y-52710033D01*
X70502619Y-68542631D02*
X70549450Y-68529671D01*
X52043519Y-20057874D02*
X52088855Y-20075362D01*
X20611144Y-35424637D02*
X20566721Y-35404946D01*
X88900000Y-22009877D02*
X88900000Y-20990122D01*
X22859148Y-38981039D02*
X22883099Y-39023318D01*
X118604770Y-69392963D02*
X118610718Y-69344737D01*
X120755262Y-35489281D02*
X120707036Y-35495229D01*
X20057874Y-83343519D02*
X20042631Y-83297380D01*
X119211144Y-35424637D02*
X119166721Y-35404946D01*
X52670328Y-51749450D02*
X52680974Y-51796861D01*
X121557368Y-64797380D02*
X121542125Y-64843519D01*
X23004704Y-23001605D02*
X23004296Y-23001878D01*
X121598804Y-69441423D02*
X121600000Y-69490122D01*
X52689281Y-81844737D02*
X52695229Y-81892963D01*
X55989966Y-51289966D02*
X56025158Y-51256460D01*
X37098804Y-22058576D02*
X37095229Y-22107036D01*
X41090122Y-23000000D02*
X41041423Y-22998804D01*
X40175362Y-51611144D02*
X40195053Y-51566721D01*
X71801878Y-50995703D02*
X71802170Y-50996097D01*
X55924721Y-51361952D02*
X55956460Y-51325158D01*
X36875278Y-22638047D02*
X36843539Y-22674841D01*
X52642125Y-52343519D02*
X52624637Y-52388855D01*
X36207036Y-22995229D02*
X36158576Y-22998804D01*
X40356460Y-52674841D02*
X40324721Y-52638047D01*
X55710718Y-81844737D02*
X55719025Y-81796861D01*
X71808830Y-50999870D02*
X71809318Y-50999918D01*
X22989281Y-34655262D02*
X22980974Y-34703138D01*
X126599702Y-88992136D02*
X126599798Y-88991655D01*
X69804770Y-64607036D02*
X69801195Y-64558576D01*
X85243519Y-83942125D02*
X85197380Y-83957368D01*
X118599996Y-50987972D02*
X118600000Y-50987727D01*
X71806002Y-23000912D02*
X71805558Y-23001122D01*
X89339987Y-51166847D02*
X89381039Y-51140851D01*
X121405173Y-83599740D02*
X121375278Y-83638047D01*
X40389966Y-22710033D02*
X40356460Y-22674841D01*
X55795053Y-52433278D02*
X55775362Y-52388855D01*
X101480974Y-22203138D02*
X101470328Y-22250549D01*
X120897380Y-20042631D02*
X120943519Y-20057874D01*
X71360012Y-35333152D02*
X71318960Y-35359148D01*
X52700000Y-22009877D02*
X52698804Y-22058576D01*
X104900259Y-83805173D02*
X104861952Y-83775278D01*
X89156460Y-83674841D02*
X89124721Y-83638047D01*
X15000724Y-88993544D02*
X15000912Y-88993997D01*
X101498804Y-20941423D02*
X101500000Y-20990122D01*
X70281039Y-38640851D02*
X70323318Y-38616900D01*
X85333278Y-83904946D02*
X85288855Y-83924637D01*
X104557874Y-22343519D02*
X104542631Y-22297380D01*
X100703138Y-52980974D02*
X100655262Y-52989281D01*
X85898804Y-22058576D02*
X85895229Y-22107036D01*
X101138047Y-52775278D02*
X101099740Y-52805173D01*
X120943519Y-38557874D02*
X120988855Y-38575362D01*
X69798877Y-80994441D02*
X69799087Y-80993997D01*
X89556480Y-22942125D02*
X89511144Y-22924637D01*
X52088855Y-20075362D02*
X52133278Y-20095053D01*
X37042125Y-81656480D02*
X37057368Y-81702619D01*
X85900000Y-22009877D02*
X85898804Y-22058576D01*
X56544737Y-20010718D02*
X56592963Y-20004770D01*
X119211144Y-38575362D02*
X119256480Y-38557874D01*
X121310033Y-35210033D02*
X121274841Y-35243539D01*
X22476681Y-35383099D02*
X22433278Y-35404946D01*
X71050549Y-38529671D02*
X71097380Y-38542631D01*
X118599702Y-23007863D02*
X118599583Y-23007387D01*
X121459148Y-38981039D02*
X121483099Y-39023318D01*
X23006455Y-23000724D02*
X23006002Y-23000912D01*
X40157874Y-83343519D02*
X40142631Y-83297380D01*
X52583099Y-22476681D02*
X52559148Y-22518960D01*
X121524637Y-83388855D02*
X121504946Y-83433278D01*
X85898804Y-83058576D02*
X85895229Y-83107036D01*
X15001878Y-15004296D02*
X15001605Y-15004704D01*
X70089966Y-38789966D02*
X70125158Y-38756460D01*
X37042125Y-83343519D02*
X37024637Y-83388855D01*
X71800003Y-23012027D02*
X71800000Y-23012272D01*
X100843519Y-20057874D02*
X100888855Y-20075362D01*
X71805558Y-53001122D02*
X71805125Y-53001353D01*
X69895053Y-69066721D02*
X69916900Y-69023318D01*
X37095229Y-83107036D02*
X37089281Y-83155262D01*
X52680974Y-22203138D02*
X52670328Y-22250549D01*
X36109877Y-53000000D02*
X23012272Y-53000000D01*
X71807863Y-53000297D02*
X71807387Y-53000416D01*
X15000416Y-88992612D02*
X15000559Y-88993082D01*
X20656480Y-68557874D02*
X20702619Y-68542631D01*
X120755262Y-68510718D02*
X120803138Y-68519025D01*
X118675362Y-34888855D02*
X118657874Y-34843519D01*
X22433278Y-68595053D02*
X22476681Y-68616900D01*
X70239987Y-38666847D02*
X70281039Y-38640851D01*
X22343519Y-35442125D02*
X22297380Y-35457368D01*
X119590122Y-68500000D02*
X120609877Y-68500000D01*
X89339987Y-22833152D02*
X89300259Y-22805173D01*
X69799798Y-23008344D02*
X69799702Y-23007863D01*
X118598877Y-80994441D02*
X118599087Y-80993997D01*
X36158576Y-83998804D02*
X36109877Y-84000000D01*
X23002170Y-80996097D02*
X23002482Y-80996477D01*
X36843539Y-83674841D02*
X36810033Y-83710033D01*
X69799440Y-80993082D02*
X69799583Y-80992612D01*
X70858576Y-68501195D02*
X70907036Y-68504770D01*
X118766847Y-35060012D02*
X118740851Y-35018960D01*
X40324721Y-83638047D02*
X40294826Y-83599740D01*
X52088855Y-81075362D02*
X52133278Y-81095053D01*
X69793082Y-23000559D02*
X69792612Y-23000416D01*
X71812027Y-53000003D02*
X71809809Y-53000057D01*
X69790190Y-50999942D02*
X69790681Y-50999918D01*
X22155262Y-68510718D02*
X22203138Y-68519025D01*
X89016900Y-51523318D02*
X89040851Y-51481039D01*
X71800057Y-80990190D02*
X71800081Y-80990681D01*
X40142631Y-20702619D02*
X40157874Y-20656480D01*
X70456480Y-35442125D02*
X70411144Y-35424637D01*
X100703138Y-20019025D02*
X100750549Y-20029671D01*
X22343519Y-65442125D02*
X22297380Y-65457368D01*
X41090122Y-84000000D02*
X41041423Y-83998804D01*
X51950549Y-20029671D02*
X51997380Y-20042631D01*
X71724637Y-64888855D02*
X71704946Y-64933278D01*
X71803902Y-80997829D02*
X71804296Y-80998121D01*
X85900000Y-52009877D02*
X85898804Y-52058576D01*
X23000003Y-50987972D02*
X23000057Y-50990190D01*
X69810718Y-64655262D02*
X69804770Y-64607036D01*
X119396861Y-35480974D02*
X119349450Y-35470328D01*
X100750549Y-81029671D02*
X100797380Y-81042631D01*
X69793997Y-50999087D02*
X69794441Y-50998877D01*
X69793997Y-80999087D02*
X69794441Y-80998877D01*
X104756460Y-20325158D02*
X104789966Y-20289966D01*
X70125158Y-38756460D02*
X70161952Y-38724721D01*
X89124721Y-52638047D02*
X89094826Y-52599740D01*
X22833152Y-38939987D02*
X22859148Y-38981039D01*
X71188855Y-38575362D02*
X71233278Y-38595053D01*
X22599740Y-38694826D02*
X22638047Y-38724721D01*
X23001878Y-80995703D02*
X23002170Y-80996097D01*
X85610033Y-22710033D02*
X85574841Y-22743539D01*
X37095229Y-20892963D02*
X37098804Y-20941423D01*
X85675278Y-83638047D02*
X85643539Y-83674841D01*
X105441423Y-52998804D02*
X105392963Y-52995229D01*
X89792963Y-51004770D02*
X89841423Y-51001195D01*
X22989281Y-69344737D02*
X22995229Y-69392963D01*
X36303138Y-51019025D02*
X36350549Y-51029671D01*
X85900000Y-83009877D02*
X85898804Y-83058576D01*
X22433278Y-65404946D02*
X22388855Y-65424637D01*
X52443539Y-22674841D02*
X52410033Y-22710033D01*
X23001605Y-50995295D02*
X23001878Y-50995703D01*
X56181039Y-20140851D02*
X56223318Y-20116900D01*
X118766847Y-68939987D02*
X118794826Y-68900259D01*
X119349450Y-65470328D02*
X119302619Y-65457368D01*
X85675278Y-81361952D02*
X85705173Y-81400259D01*
X121542125Y-20656480D02*
X121557368Y-20702619D01*
X70907036Y-65495229D02*
X70858576Y-65498804D01*
X101174841Y-51256460D02*
X101210033Y-51289966D01*
X71704946Y-64933278D02*
X71683099Y-64976681D01*
X101305173Y-51400259D02*
X101333152Y-51439987D01*
X118599702Y-80992136D02*
X118599798Y-80991655D01*
X15009318Y-15000081D02*
X15008830Y-15000129D01*
X55840851Y-83518960D02*
X55816900Y-83476681D01*
X119123318Y-38616900D02*
X119166721Y-38595053D01*
X40356460Y-83674841D02*
X40324721Y-83638047D01*
X126590190Y-15000057D02*
X126587972Y-15000003D01*
X52338047Y-83775278D02*
X52299740Y-83805173D01*
X126598394Y-15004704D02*
X126598121Y-15004296D01*
X40581039Y-20140851D02*
X40623318Y-20116900D01*
X118598877Y-23005558D02*
X118598646Y-23005125D01*
X36397380Y-51042631D02*
X36443519Y-51057874D01*
X104529671Y-20749450D02*
X104542631Y-20702619D01*
X104542631Y-20702619D02*
X104557874Y-20656480D01*
X20702619Y-68542631D02*
X20749450Y-68529671D01*
X55924721Y-20361952D02*
X55956460Y-20325158D01*
X56402619Y-51042631D02*
X56449450Y-51029671D01*
X89261952Y-22775278D02*
X89225158Y-22743539D01*
X71795229Y-69392963D02*
X71798804Y-69441423D01*
X20702619Y-35457368D02*
X20656480Y-35442125D01*
X20844737Y-20010718D02*
X20892963Y-20004770D01*
X55742631Y-51702619D02*
X55757874Y-51656480D01*
X40666721Y-83904946D02*
X40623318Y-83883099D01*
X40581039Y-83859148D02*
X40539987Y-83833152D01*
X52133278Y-81095053D02*
X52176681Y-81116900D01*
X37057368Y-81702619D02*
X37070328Y-81749450D01*
X55775362Y-51611144D02*
X55795053Y-51566721D01*
X89841423Y-83998804D02*
X89792963Y-83995229D01*
X119302619Y-65457368D02*
X119256480Y-65442125D01*
X71812027Y-50999996D02*
X71812272Y-51000000D01*
X20010718Y-83155262D02*
X20004770Y-83107036D01*
X100888855Y-20075362D02*
X100933278Y-20095053D01*
X71605173Y-38900259D02*
X71633152Y-38939987D01*
X71789281Y-69344737D02*
X71795229Y-69392963D01*
X52698804Y-83058576D02*
X52695229Y-83107036D01*
X55816900Y-22476681D02*
X55795053Y-22433278D01*
X52680974Y-52203138D02*
X52670328Y-52250549D01*
X104981039Y-81140851D02*
X105023318Y-81116900D01*
X36810033Y-52710033D02*
X36774841Y-52743539D01*
X71800003Y-80987972D02*
X71800057Y-80990190D01*
X89094826Y-81400259D02*
X89124721Y-81361952D01*
X36905173Y-51400259D02*
X36933152Y-51439987D01*
X71633152Y-68939987D02*
X71659148Y-68981039D01*
X101424637Y-20611144D02*
X101442125Y-20656480D01*
X104500000Y-52009877D02*
X104500000Y-51990122D01*
X104724721Y-20361952D02*
X104756460Y-20325158D01*
X118675362Y-64888855D02*
X118657874Y-64843519D01*
X118598394Y-80995295D02*
X118598646Y-80994874D01*
X89016900Y-52476681D02*
X88995053Y-52433278D01*
X20702619Y-38542631D02*
X20749450Y-38529671D01*
X22476681Y-38616900D02*
X22518960Y-38640851D01*
X71801122Y-53005558D02*
X71800912Y-53006002D01*
X36350549Y-22970328D02*
X36303138Y-22980974D01*
X40101195Y-52058576D02*
X40100000Y-52009877D01*
X121118960Y-83859148D02*
X121076681Y-83883099D01*
X20325158Y-68756460D02*
X20361952Y-68724721D01*
X101489281Y-20844737D02*
X101495229Y-20892963D01*
X40666721Y-22904946D02*
X40623318Y-22883099D01*
X89156460Y-81325158D02*
X89189966Y-81289966D01*
X37070328Y-83250549D02*
X37057368Y-83297380D01*
X23000000Y-69490122D02*
X23000000Y-80987727D01*
X70741423Y-38501195D02*
X70790122Y-38500000D01*
X104501195Y-83058576D02*
X104500000Y-83009877D01*
X55894826Y-51400259D02*
X55924721Y-51361952D01*
X104640851Y-51481039D02*
X104666847Y-51439987D01*
X20361952Y-35275278D02*
X20325158Y-35243539D01*
X52374841Y-20256460D02*
X52410033Y-20289966D01*
X52583099Y-81523318D02*
X52604946Y-81566721D01*
X55866847Y-20439987D02*
X55894826Y-20400259D01*
X23003159Y-50997188D02*
X23003522Y-50997517D01*
X88904770Y-81892963D02*
X88910718Y-81844737D01*
X69795703Y-53001878D02*
X69795295Y-53001605D01*
X105249450Y-51029671D02*
X105296861Y-51019025D01*
X100797380Y-52957368D02*
X100750549Y-52970328D01*
X69799942Y-23009809D02*
X69799918Y-23009318D01*
X20256460Y-20325158D02*
X20289966Y-20289966D01*
X23003159Y-23002811D02*
X23002811Y-23003159D01*
X121238047Y-20224721D02*
X121274841Y-20256460D01*
X118599583Y-23007387D02*
X118599440Y-23006917D01*
X85900000Y-20990122D02*
X85900000Y-22009877D01*
X118592612Y-23000416D02*
X118592136Y-23000297D01*
X22388855Y-68575362D02*
X22433278Y-68595053D01*
X119541423Y-65498804D02*
X119492963Y-65495229D01*
X23002482Y-50996477D02*
X23002811Y-50996840D01*
X23006455Y-50999275D02*
X23006917Y-50999440D01*
X118599583Y-50992612D02*
X118599702Y-50992136D01*
X56311144Y-22924637D02*
X56266721Y-22904946D01*
X85460012Y-20166847D02*
X85499740Y-20194826D01*
X55840851Y-20481039D02*
X55866847Y-20439987D01*
X56641423Y-51001195D02*
X56690122Y-51000000D01*
X71804296Y-53001878D02*
X71803902Y-53002170D01*
X36109877Y-84000000D02*
X20990122Y-84000000D01*
X119000259Y-35305173D02*
X118961952Y-35275278D01*
X121598804Y-20941423D02*
X121600000Y-20990122D01*
X88995053Y-52433278D02*
X88975362Y-52388855D01*
X20194826Y-68900259D02*
X20224721Y-68861952D01*
X84958576Y-20001195D02*
X85007036Y-20004770D01*
X20057874Y-64843519D02*
X20042631Y-64797380D01*
X36983099Y-51523318D02*
X37004946Y-51566721D01*
X85870328Y-83250549D02*
X85857368Y-83297380D01*
X52218960Y-20140851D02*
X52260012Y-20166847D01*
X40119025Y-22203138D02*
X40110718Y-22155262D01*
X104666847Y-81439987D02*
X104694826Y-81400259D01*
X40129671Y-81749450D02*
X40142631Y-81702619D01*
X70239987Y-35333152D02*
X70200259Y-35305173D01*
X40944737Y-51010718D02*
X40992963Y-51004770D01*
X71803159Y-50997188D02*
X71803522Y-50997517D01*
X119166721Y-38595053D02*
X119211144Y-38575362D01*
X85007036Y-52995229D02*
X84958576Y-52998804D01*
X71360012Y-65333152D02*
X71318960Y-65359148D01*
X55956460Y-81325158D02*
X55989966Y-81289966D01*
X55701195Y-81941423D02*
X55704770Y-81892963D01*
X88975362Y-83388855D02*
X88957874Y-83343519D01*
X71474841Y-38756460D02*
X71510033Y-38789966D01*
X56223318Y-51116900D02*
X56266721Y-51095053D01*
X88901195Y-81941423D02*
X88904770Y-81892963D01*
X51758576Y-83998804D02*
X51709877Y-84000000D01*
X121483099Y-34976681D02*
X121459148Y-35018960D01*
X71806455Y-80999275D02*
X71806917Y-80999440D01*
X40110718Y-81844737D02*
X40119025Y-81796861D01*
X71683099Y-39023318D02*
X71704946Y-39066721D01*
X40240851Y-22518960D02*
X40216900Y-22476681D01*
X89890122Y-81000000D02*
X100509877Y-81000000D01*
X70281039Y-68640851D02*
X70323318Y-68616900D01*
X23000129Y-80991169D02*
X23000201Y-80991655D01*
X89016900Y-20523318D02*
X89040851Y-20481039D01*
X118597188Y-80996840D02*
X118597517Y-80996477D01*
X88901195Y-52058576D02*
X88900000Y-52009877D01*
X126599942Y-88990190D02*
X126599996Y-88987972D01*
X22995229Y-64607036D02*
X22989281Y-64655262D01*
X120850549Y-35470328D02*
X120803138Y-35480974D01*
X104756460Y-83674841D02*
X104724721Y-83638047D01*
X20481039Y-38640851D02*
X20523318Y-38616900D01*
X20000000Y-64509877D02*
X20000000Y-39490122D01*
X71806455Y-50999275D02*
X71806917Y-50999440D01*
X85842125Y-51656480D02*
X85857368Y-51702619D01*
X36158576Y-81001195D02*
X36207036Y-81004770D01*
X15000912Y-88993997D02*
X15001122Y-88994441D01*
X120988855Y-65424637D02*
X120943519Y-65442125D01*
X104825158Y-22743539D02*
X104789966Y-22710033D01*
X119123318Y-35383099D02*
X119081039Y-35359148D01*
X118599440Y-23006917D02*
X118599275Y-23006455D01*
X20095053Y-64933278D02*
X20075362Y-64888855D01*
X69800000Y-53012272D02*
X69799996Y-53012027D01*
X126599583Y-15007387D02*
X126599440Y-15006917D01*
X56311144Y-52924637D02*
X56266721Y-52904946D01*
X23000057Y-23009809D02*
X23000003Y-23012027D01*
X36959148Y-22518960D02*
X36933152Y-22560012D01*
X40756480Y-83942125D02*
X40711144Y-83924637D01*
X101305173Y-22599740D02*
X101275278Y-22638047D01*
X88901195Y-83058576D02*
X88900000Y-83009877D01*
X120897380Y-65457368D02*
X120850549Y-65470328D01*
X23005125Y-80998646D02*
X23005558Y-80998877D01*
X70323318Y-35383099D02*
X70281039Y-35359148D01*
X126599702Y-15007863D02*
X126599583Y-15007387D01*
X101404946Y-20566721D02*
X101424637Y-20611144D01*
X85499740Y-52805173D02*
X85460012Y-52833152D01*
X69799087Y-53006002D02*
X69798877Y-53005558D01*
X56266721Y-83904946D02*
X56223318Y-83883099D01*
X104510718Y-83155262D02*
X104504770Y-83107036D01*
X71803522Y-50997517D02*
X71803902Y-50997829D01*
X119000259Y-38694826D02*
X119039987Y-38666847D01*
X121589281Y-69344737D02*
X121595229Y-69392963D01*
X71802811Y-80996840D02*
X71803159Y-80997188D01*
X52338047Y-51224721D02*
X52374841Y-51256460D01*
X56139987Y-20166847D02*
X56181039Y-20140851D01*
X52133278Y-20095053D02*
X52176681Y-20116900D01*
X20095053Y-69066721D02*
X20116900Y-69023318D01*
X85007036Y-83995229D02*
X84958576Y-83998804D01*
X20057874Y-20656480D02*
X20075362Y-20611144D01*
X118610718Y-39344737D02*
X118619025Y-39296861D01*
X69791169Y-80999870D02*
X69791655Y-80999798D01*
X20075362Y-39111144D02*
X20095053Y-39066721D01*
X40240851Y-20481039D02*
X40266847Y-20439987D01*
X71800081Y-80990681D02*
X71800129Y-80991169D01*
X56223318Y-52883099D02*
X56181039Y-52859148D01*
X56181039Y-52859148D02*
X56139987Y-52833152D01*
X69791655Y-80999798D02*
X69792136Y-80999702D01*
X121433152Y-68939987D02*
X121459148Y-68981039D01*
X37098804Y-83058576D02*
X37095229Y-83107036D01*
X23001878Y-23004296D02*
X23001605Y-23004704D01*
X101243539Y-20325158D02*
X101275278Y-20361952D01*
X70089966Y-65210033D02*
X70056460Y-65174841D01*
X71800559Y-50993082D02*
X71800724Y-50993544D01*
X105023318Y-51116900D02*
X105066721Y-51095053D01*
X69799702Y-23007863D02*
X69799583Y-23007387D01*
X69800000Y-50987727D02*
X69800000Y-39490122D01*
X118889966Y-35210033D02*
X118856460Y-35174841D01*
X71543539Y-65174841D02*
X71510033Y-65210033D01*
X71659148Y-65018960D02*
X71633152Y-65060012D01*
X118856460Y-35174841D02*
X118824721Y-35138047D01*
X70089966Y-68789966D02*
X70125158Y-68756460D01*
X37057368Y-52297380D02*
X37042125Y-52343519D01*
X55775362Y-22388855D02*
X55757874Y-22343519D01*
X20224721Y-68861952D02*
X20256460Y-68825158D01*
X100703138Y-51019025D02*
X100750549Y-51029671D01*
X121600000Y-83009877D02*
X121598804Y-83058576D01*
X104500000Y-20990122D02*
X104501195Y-20941423D01*
X118824721Y-68861952D02*
X118856460Y-68825158D01*
X118595703Y-80998121D02*
X118596097Y-80997829D01*
X51709877Y-81000000D02*
X51758576Y-81001195D01*
X89381039Y-22859148D02*
X89339987Y-22833152D01*
X104724721Y-81361952D02*
X104756460Y-81325158D01*
X101174841Y-52743539D02*
X101138047Y-52775278D01*
X71800129Y-53008830D02*
X71800081Y-53009318D01*
X69792612Y-50999583D02*
X69793082Y-50999440D01*
X89556480Y-20057874D02*
X89602619Y-20042631D01*
X71808344Y-50999798D02*
X71808830Y-50999870D01*
X88995053Y-81566721D02*
X89016900Y-81523318D01*
X89189966Y-20289966D02*
X89225158Y-20256460D01*
X36488855Y-20075362D02*
X36533278Y-20095053D01*
X70125158Y-35243539D02*
X70089966Y-35210033D01*
X85418960Y-22859148D02*
X85376681Y-22883099D01*
X69796477Y-23002482D02*
X69796097Y-23002170D01*
X69799087Y-23006002D02*
X69798877Y-23005558D01*
X23000297Y-80992136D02*
X23000416Y-80992612D01*
X118599087Y-23006002D02*
X118598877Y-23005558D01*
X69895053Y-39066721D02*
X69916900Y-39023318D01*
X100558576Y-83998804D02*
X100509877Y-84000000D01*
X121589281Y-83155262D02*
X121580974Y-83203138D01*
X71757368Y-64797380D02*
X71742125Y-64843519D01*
X85675278Y-52638047D02*
X85643539Y-52674841D01*
X15003159Y-88997188D02*
X15003522Y-88997517D01*
X40100000Y-81990122D02*
X40100000Y-81990122D01*
X71795229Y-34607036D02*
X71789281Y-34655262D01*
X105111144Y-81075362D02*
X105156480Y-81057874D01*
X89261952Y-51224721D02*
X89300259Y-51194826D01*
X15000297Y-88992136D02*
X15000416Y-88992612D01*
X56449450Y-83970328D02*
X56402619Y-83957368D01*
X69797188Y-53003159D02*
X69796840Y-53002811D01*
X85055262Y-81010718D02*
X85103138Y-81019025D01*
X15000559Y-15006917D02*
X15000416Y-15007387D01*
X126590681Y-88999918D02*
X126591169Y-88999870D01*
X126598121Y-15004296D02*
X126597829Y-15003902D01*
X55775362Y-52388855D02*
X55757874Y-52343519D01*
X121570328Y-39249450D02*
X121580974Y-39296861D01*
X71803159Y-80997188D02*
X71803522Y-80997517D01*
X37089281Y-22155262D02*
X37080974Y-22203138D01*
X71003138Y-38519025D02*
X71050549Y-38529671D01*
X118598646Y-53005125D02*
X118598394Y-53004704D01*
X22058576Y-35498804D02*
X22009877Y-35500000D01*
X23007387Y-53000416D02*
X23006917Y-53000559D01*
X70644737Y-65489281D02*
X70596861Y-65480974D01*
X52410033Y-83710033D02*
X52374841Y-83743539D01*
X71802170Y-80996097D02*
X71802482Y-80996477D01*
X40992963Y-51004770D02*
X41041423Y-51001195D01*
X85197380Y-20042631D02*
X85243519Y-20057874D01*
X52670328Y-81749450D02*
X52680974Y-81796861D01*
X69797517Y-53003522D02*
X69797188Y-53003159D01*
X20990122Y-38500000D02*
X22009877Y-38500000D01*
X105156480Y-20057874D02*
X105202619Y-20042631D01*
X105392963Y-22995229D02*
X105344737Y-22989281D01*
X20000000Y-69490122D02*
X20001195Y-69441423D01*
X126592612Y-88999583D02*
X126593082Y-88999440D01*
X100976681Y-51116900D02*
X101018960Y-51140851D01*
X36397380Y-83957368D02*
X36350549Y-83970328D01*
X23000559Y-50993082D02*
X23000724Y-50993544D01*
X85643539Y-52674841D02*
X85610033Y-52710033D01*
X20194826Y-35099740D02*
X20166847Y-35060012D01*
X55710718Y-51844737D02*
X55719025Y-51796861D01*
X71807387Y-50999583D02*
X71807863Y-50999702D01*
X71704946Y-69066721D02*
X71724637Y-69111144D01*
X40944737Y-83989281D02*
X40896861Y-83980974D01*
X89890122Y-23000000D02*
X89841423Y-22998804D01*
X52260012Y-22833152D02*
X52218960Y-22859148D01*
X71474841Y-65243539D02*
X71438047Y-65275278D01*
X71097380Y-35457368D02*
X71050549Y-35470328D01*
X41041423Y-81001195D02*
X41090122Y-81000000D01*
X52260012Y-51166847D02*
X52299740Y-51194826D01*
X88929671Y-20749450D02*
X88942631Y-20702619D01*
X85007036Y-22995229D02*
X84958576Y-22998804D01*
X89094826Y-83599740D02*
X89066847Y-83560012D01*
X56592963Y-81004770D02*
X56641423Y-81001195D01*
X71770328Y-34750549D02*
X71757368Y-34797380D01*
X118961952Y-68724721D02*
X119000259Y-68694826D01*
X20361952Y-20224721D02*
X20400259Y-20194826D01*
X85895229Y-20892963D02*
X85898804Y-20941423D01*
X105392963Y-83995229D02*
X105344737Y-83989281D01*
X101500000Y-20990122D02*
X101500000Y-22009877D01*
X89696861Y-22980974D02*
X89649450Y-22970328D01*
X69790190Y-53000057D02*
X69787972Y-53000003D01*
X118599440Y-50993082D02*
X118599583Y-50992612D01*
X23000559Y-80993082D02*
X23000724Y-80993544D01*
X100843519Y-22942125D02*
X100797380Y-22957368D01*
X121375278Y-20361952D02*
X121405173Y-20400259D01*
X23012027Y-80999996D02*
X23012272Y-81000000D01*
X121524637Y-39111144D02*
X121542125Y-39156480D01*
X70200259Y-65305173D02*
X70161952Y-65275278D01*
X89156460Y-20325158D02*
X89189966Y-20289966D01*
X40129671Y-52250549D02*
X40119025Y-52203138D01*
X105156480Y-81057874D02*
X105202619Y-81042631D01*
X104501195Y-22058576D02*
X104500000Y-22009877D01*
X101498804Y-22058576D02*
X101495229Y-22107036D01*
X23000081Y-23009318D02*
X23000057Y-23009809D01*
X40216900Y-22476681D02*
X40195053Y-22433278D01*
X105023318Y-81116900D02*
X105066721Y-81095053D01*
X56061952Y-52775278D02*
X56025158Y-52743539D01*
X23012272Y-81000000D02*
X36109877Y-81000000D01*
X71808830Y-23000129D02*
X71808344Y-23000201D01*
X71802482Y-50996477D02*
X71802811Y-50996840D01*
X84958576Y-52998804D02*
X84909877Y-53000000D01*
X70741423Y-65498804D02*
X70692963Y-65495229D01*
X52533152Y-52560012D02*
X52505173Y-52599740D01*
X121310033Y-38789966D02*
X121343539Y-38825158D01*
X52338047Y-20224721D02*
X52374841Y-20256460D01*
X56690122Y-53000000D02*
X56641423Y-52998804D01*
X52133278Y-22904946D02*
X52088855Y-22924637D01*
X85288855Y-83924637D02*
X85243519Y-83942125D01*
X105392963Y-51004770D02*
X105441423Y-51001195D01*
X22998804Y-64558576D02*
X22995229Y-64607036D01*
X85870328Y-52250549D02*
X85857368Y-52297380D01*
X105441423Y-20001195D02*
X105490122Y-20000000D01*
X104510718Y-22155262D02*
X104504770Y-22107036D01*
X85376681Y-51116900D02*
X85418960Y-51140851D01*
X118716900Y-69023318D02*
X118740851Y-68981039D01*
X101500000Y-22009877D02*
X101498804Y-22058576D01*
X88957874Y-51656480D02*
X88975362Y-51611144D01*
X121033278Y-68595053D02*
X121076681Y-68616900D01*
X89261952Y-83775278D02*
X89225158Y-83743539D01*
X55894826Y-52599740D02*
X55866847Y-52560012D01*
X121580974Y-64703138D02*
X121570328Y-64750549D01*
X85007036Y-20004770D02*
X85055262Y-20010718D01*
X118600000Y-23012272D02*
X118599996Y-23012027D01*
X69793082Y-80999440D02*
X69793544Y-80999275D01*
X70790122Y-35500000D02*
X70741423Y-35498804D01*
X105490122Y-51000000D02*
X118587727Y-51000000D01*
X118599087Y-80993997D02*
X118599275Y-80993544D01*
X23008344Y-53000201D02*
X23007863Y-53000297D01*
X36576681Y-22883099D02*
X36533278Y-22904946D01*
X55719025Y-81796861D02*
X55729671Y-81749450D01*
X71704946Y-39066721D02*
X71724637Y-39111144D01*
X85376681Y-52883099D02*
X85333278Y-52904946D01*
X20004770Y-34607036D02*
X20001195Y-34558576D01*
X89466721Y-22904946D02*
X89423318Y-22883099D01*
X56690122Y-84000000D02*
X56641423Y-83998804D01*
X71438047Y-68724721D02*
X71474841Y-68756460D01*
X121033278Y-83904946D02*
X120988855Y-83924637D01*
X118587972Y-53000003D02*
X118587727Y-53000000D01*
X56402619Y-22957368D02*
X56356480Y-22942125D01*
X85197380Y-81042631D02*
X85243519Y-81057874D01*
X52698804Y-51941423D02*
X52700000Y-51990122D01*
X101383099Y-52476681D02*
X101359148Y-52518960D01*
X120658576Y-38501195D02*
X120707036Y-38504770D01*
X100888855Y-22924637D02*
X100843519Y-22942125D01*
X20289966Y-68789966D02*
X20325158Y-68756460D01*
X89423318Y-52883099D02*
X89381039Y-52859148D01*
X89841423Y-51001195D02*
X89890122Y-51000000D01*
X100703138Y-22980974D02*
X100655262Y-22989281D01*
X101243539Y-52674841D02*
X101210033Y-52710033D01*
X89511144Y-51075362D02*
X89556480Y-51057874D01*
X118642631Y-34797380D02*
X118629671Y-34750549D01*
X40100000Y-83009877D02*
X40100000Y-81990122D01*
X100607036Y-22995229D02*
X100558576Y-22998804D01*
X40500259Y-81194826D02*
X40539987Y-81166847D01*
X36576681Y-83883099D02*
X36533278Y-83904946D01*
X119492963Y-65495229D02*
X119444737Y-65489281D01*
X89841423Y-52998804D02*
X89792963Y-52995229D01*
X89300259Y-20194826D02*
X89339987Y-20166847D01*
X55989966Y-22710033D02*
X55956460Y-22674841D01*
X23007387Y-80999583D02*
X23007863Y-80999702D01*
X71188855Y-68575362D02*
X71233278Y-68595053D01*
X126599918Y-88990681D02*
X126599942Y-88990190D01*
X85243519Y-81057874D02*
X85288855Y-81075362D01*
X120609877Y-84000000D02*
X105490122Y-84000000D01*
X88900000Y-81990122D02*
X88900000Y-81990122D01*
X101138047Y-81224721D02*
X101174841Y-81256460D01*
X52299740Y-51194826D02*
X52338047Y-51224721D01*
X89225158Y-83743539D02*
X89189966Y-83710033D01*
X121343539Y-38825158D02*
X121375278Y-38861952D01*
X37057368Y-83297380D02*
X37042125Y-83343519D01*
X55894826Y-83599740D02*
X55866847Y-83560012D01*
X88942631Y-51702619D02*
X88957874Y-51656480D01*
X22980974Y-39296861D02*
X22989281Y-39344737D01*
X101457368Y-83297380D02*
X101442125Y-83343519D01*
X56356480Y-20057874D02*
X56402619Y-20042631D01*
X22970328Y-69249450D02*
X22980974Y-69296861D01*
X56544737Y-52989281D02*
X56496861Y-52980974D01*
X40294826Y-83599740D02*
X40266847Y-83560012D01*
X101138047Y-83775278D02*
X101099740Y-83805173D01*
X71276681Y-68616900D02*
X71318960Y-68640851D01*
X52689281Y-51844737D02*
X52695229Y-51892963D01*
X40666721Y-52904946D02*
X40623318Y-52883099D01*
X121580974Y-39296861D02*
X121589281Y-39344737D01*
X36843539Y-22674841D02*
X36810033Y-22710033D01*
X69799918Y-53009318D02*
X69799870Y-53008830D01*
X56544737Y-22989281D02*
X56496861Y-22980974D01*
X20256460Y-68825158D02*
X20289966Y-68789966D01*
X37004946Y-52433278D02*
X36983099Y-52476681D01*
X36443519Y-22942125D02*
X36397380Y-22957368D01*
X20566721Y-65404946D02*
X20523318Y-65383099D01*
X118596097Y-23002170D02*
X118595703Y-23001878D01*
X69795703Y-80998121D02*
X69796097Y-80997829D01*
X104557874Y-20656480D02*
X104575362Y-20611144D01*
X55840851Y-51481039D02*
X55866847Y-51439987D01*
X85197380Y-52957368D02*
X85150549Y-52970328D01*
X118824721Y-35138047D02*
X118794826Y-35099740D01*
X36660012Y-52833152D02*
X36618960Y-52859148D01*
X20523318Y-83883099D02*
X20481039Y-83859148D01*
X100843519Y-52942125D02*
X100797380Y-52957368D01*
X70024721Y-35138047D02*
X69994826Y-35099740D01*
X40129671Y-20749450D02*
X40142631Y-20702619D01*
M02*
