%TF.GenerationSoftware,KiCad,Pcbnew,(6.0.7)*%
%TF.CreationDate,2022-11-18T16:05:00+07:00*%
%TF.ProjectId,test,74657374-2e6b-4696-9361-645f70636258,rev?*%
%TF.SameCoordinates,Original*%
%TF.FileFunction,Soldermask,Top*%
%TF.FilePolarity,Negative*%
%FSLAX46Y46*%
G04 Gerber Fmt 4.6, Leading zero omitted, Abs format (unit mm)*
G04 Created by KiCad (PCBNEW (6.0.7)) date 2022-11-18 16:05:00*
%MOMM*%
%LPD*%
G01*
G04 APERTURE LIST*
G04 Aperture macros list*
%AMRoundRect*
0 Rectangle with rounded corners*
0 $1 Rounding radius*
0 $2 $3 $4 $5 $6 $7 $8 $9 X,Y pos of 4 corners*
0 Add a 4 corners polygon primitive as box body*
4,1,4,$2,$3,$4,$5,$6,$7,$8,$9,$2,$3,0*
0 Add four circle primitives for the rounded corners*
1,1,$1+$1,$2,$3*
1,1,$1+$1,$4,$5*
1,1,$1+$1,$6,$7*
1,1,$1+$1,$8,$9*
0 Add four rect primitives between the rounded corners*
20,1,$1+$1,$2,$3,$4,$5,0*
20,1,$1+$1,$4,$5,$6,$7,0*
20,1,$1+$1,$6,$7,$8,$9,0*
20,1,$1+$1,$8,$9,$2,$3,0*%
G04 Aperture macros list end*
%ADD10C,0.500000*%
%ADD11R,1.700000X1.700000*%
%ADD12O,1.700000X1.700000*%
%ADD13C,0.900000*%
%ADD14R,0.800000X1.000000*%
%ADD15R,1.500000X0.700000*%
%ADD16RoundRect,0.140000X0.140000X0.170000X-0.140000X0.170000X-0.140000X-0.170000X0.140000X-0.170000X0*%
%ADD17C,2.200000*%
%ADD18RoundRect,0.140000X0.170000X-0.140000X0.170000X0.140000X-0.170000X0.140000X-0.170000X-0.140000X0*%
%ADD19RoundRect,0.135000X-0.135000X-0.185000X0.135000X-0.185000X0.135000X0.185000X-0.135000X0.185000X0*%
%ADD20RoundRect,0.218750X0.218750X0.256250X-0.218750X0.256250X-0.218750X-0.256250X0.218750X-0.256250X0*%
%ADD21RoundRect,0.075000X-0.662500X-0.075000X0.662500X-0.075000X0.662500X0.075000X-0.662500X0.075000X0*%
%ADD22RoundRect,0.075000X-0.075000X-0.662500X0.075000X-0.662500X0.075000X0.662500X-0.075000X0.662500X0*%
%ADD23R,1.200000X1.400000*%
%ADD24RoundRect,0.250000X-0.250000X-0.475000X0.250000X-0.475000X0.250000X0.475000X-0.250000X0.475000X0*%
%ADD25C,1.000000*%
%ADD26R,2.000000X1.500000*%
%ADD27R,2.000000X3.800000*%
%ADD28RoundRect,0.250000X0.250000X0.475000X-0.250000X0.475000X-0.250000X-0.475000X0.250000X-0.475000X0*%
%ADD29RoundRect,0.135000X-0.185000X0.135000X-0.185000X-0.135000X0.185000X-0.135000X0.185000X0.135000X0*%
%ADD30O,0.800000X0.800000*%
%ADD31R,1.300000X0.450000*%
%ADD32O,1.800000X1.150000*%
%ADD33O,2.000000X1.450000*%
G04 APERTURE END LIST*
D10*
%TO.C,REF\u002A\u002A*%
X56200000Y-50800000D03*
%TD*%
D11*
%TO.C,USART1*%
X83400000Y-55200000D03*
D12*
X85940000Y-55200000D03*
X88480000Y-55200000D03*
X91020000Y-55200000D03*
%TD*%
D13*
%TO.C,SW1*%
X26145000Y-37100000D03*
D14*
X27255000Y-31950000D03*
X27255000Y-39250000D03*
X25045000Y-39250000D03*
X25045000Y-31950000D03*
D13*
X26145000Y-34100000D03*
D15*
X27905000Y-33350000D03*
X27905000Y-36350000D03*
X27905000Y-37850000D03*
%TD*%
D10*
%TO.C,REF\u002A\u002A*%
X56200000Y-53200000D03*
%TD*%
%TO.C,REF\u002A\u002A*%
X55200000Y-53200000D03*
%TD*%
D16*
%TO.C,C11*%
X40280000Y-35600000D03*
X39320000Y-35600000D03*
%TD*%
D17*
%TO.C,H2*%
X66400000Y-26400000D03*
%TD*%
D18*
%TO.C,C4*%
X37600000Y-60480000D03*
X37600000Y-59520000D03*
%TD*%
D17*
%TO.C,H1*%
X26800000Y-77600000D03*
%TD*%
D10*
%TO.C,REF\u002A\u002A*%
X72000000Y-35000000D03*
%TD*%
%TO.C,REF\u002A\u002A*%
X37600000Y-53200000D03*
%TD*%
%TO.C,REF\u002A\u002A*%
X56200000Y-80800000D03*
%TD*%
D18*
%TO.C,C2*%
X82800000Y-60480000D03*
X82800000Y-59520000D03*
%TD*%
D10*
%TO.C,REF\u002A\u002A*%
X37600000Y-23200000D03*
%TD*%
D16*
%TO.C,C10*%
X40280000Y-64200000D03*
X39320000Y-64200000D03*
%TD*%
D10*
%TO.C,REF\u002A\u002A*%
X19500000Y-23000000D03*
%TD*%
D13*
%TO.C,SW1*%
X74945000Y-34100000D03*
D14*
X73845000Y-31950000D03*
X76055000Y-31950000D03*
D13*
X74945000Y-37100000D03*
D14*
X73845000Y-39250000D03*
X76055000Y-39250000D03*
D15*
X76705000Y-33350000D03*
X76705000Y-36350000D03*
X76705000Y-37850000D03*
%TD*%
D17*
%TO.C,H2*%
X115200000Y-26400000D03*
%TD*%
D18*
%TO.C,C2*%
X82800000Y-30480000D03*
X82800000Y-29520000D03*
%TD*%
D10*
%TO.C,REF\u002A\u002A*%
X38600000Y-53200000D03*
%TD*%
D18*
%TO.C,C8*%
X111600000Y-29480000D03*
X111600000Y-28520000D03*
%TD*%
%TO.C,C3*%
X84600000Y-60480000D03*
X84600000Y-59520000D03*
%TD*%
D19*
%TO.C,R3*%
X89600000Y-75200000D03*
X90620000Y-75200000D03*
%TD*%
D10*
%TO.C,REF\u002A\u002A*%
X118400000Y-38000000D03*
%TD*%
D18*
%TO.C,C6*%
X104400000Y-29480000D03*
X104400000Y-28520000D03*
%TD*%
D10*
%TO.C,REF\u002A\u002A*%
X56200000Y-23200000D03*
%TD*%
%TO.C,REF\u002A\u002A*%
X86400000Y-80800000D03*
%TD*%
D19*
%TO.C,R4*%
X92290000Y-75200000D03*
X93310000Y-75200000D03*
%TD*%
D20*
%TO.C,L1*%
X109187500Y-59000000D03*
X107612500Y-59000000D03*
%TD*%
D21*
%TO.C,U2*%
X91437500Y-62450000D03*
X91437500Y-62950000D03*
X91437500Y-63450000D03*
X91437500Y-63950000D03*
X91437500Y-64450000D03*
X91437500Y-64950000D03*
X91437500Y-65450000D03*
X91437500Y-65950000D03*
X91437500Y-66450000D03*
X91437500Y-66950000D03*
X91437500Y-67450000D03*
X91437500Y-67950000D03*
D22*
X92850000Y-69362500D03*
X93350000Y-69362500D03*
X93850000Y-69362500D03*
X94350000Y-69362500D03*
X94850000Y-69362500D03*
X95350000Y-69362500D03*
X95850000Y-69362500D03*
X96350000Y-69362500D03*
X96850000Y-69362500D03*
X97350000Y-69362500D03*
X97850000Y-69362500D03*
X98350000Y-69362500D03*
D21*
X99762500Y-67950000D03*
X99762500Y-67450000D03*
X99762500Y-66950000D03*
X99762500Y-66450000D03*
X99762500Y-65950000D03*
X99762500Y-65450000D03*
X99762500Y-64950000D03*
X99762500Y-64450000D03*
X99762500Y-63950000D03*
X99762500Y-63450000D03*
X99762500Y-62950000D03*
X99762500Y-62450000D03*
D22*
X98350000Y-61037500D03*
X97850000Y-61037500D03*
X97350000Y-61037500D03*
X96850000Y-61037500D03*
X96350000Y-61037500D03*
X95850000Y-61037500D03*
X95350000Y-61037500D03*
X94850000Y-61037500D03*
X94350000Y-61037500D03*
X93850000Y-61037500D03*
X93350000Y-61037500D03*
X92850000Y-61037500D03*
%TD*%
D17*
%TO.C,H1*%
X75600000Y-47600000D03*
%TD*%
D10*
%TO.C,REF\u002A\u002A*%
X86400000Y-50800000D03*
%TD*%
%TO.C,REF\u002A\u002A*%
X23200000Y-67000000D03*
%TD*%
%TO.C,REF\u002A\u002A*%
X102000000Y-50800000D03*
%TD*%
D23*
%TO.C,Y1*%
X35550000Y-64700000D03*
X35550000Y-66900000D03*
X37250000Y-66900000D03*
X37250000Y-64700000D03*
%TD*%
D10*
%TO.C,REF\u002A\u002A*%
X88400000Y-80800000D03*
%TD*%
D18*
%TO.C,C4*%
X37600000Y-30480000D03*
X37600000Y-29520000D03*
%TD*%
D10*
%TO.C,REF\u002A\u002A*%
X87400000Y-50800000D03*
%TD*%
D17*
%TO.C,H4*%
X115200000Y-77600000D03*
%TD*%
%TO.C,H3*%
X75600000Y-26600000D03*
%TD*%
D19*
%TO.C,R1*%
X31090000Y-66800000D03*
X32110000Y-66800000D03*
%TD*%
D10*
%TO.C,REF\u002A\u002A*%
X72000000Y-39000000D03*
%TD*%
D18*
%TO.C,C6*%
X55600000Y-59480000D03*
X55600000Y-58520000D03*
%TD*%
D10*
%TO.C,REF\u002A\u002A*%
X104000000Y-53200000D03*
%TD*%
D24*
%TO.C,C13*%
X82850000Y-44600000D03*
X84750000Y-44600000D03*
%TD*%
D10*
%TO.C,REF\u002A\u002A*%
X15500000Y-23000000D03*
%TD*%
%TO.C,REF\u002A\u002A*%
X104000000Y-50800000D03*
%TD*%
%TO.C,REF\u002A\u002A*%
X38600000Y-50800000D03*
%TD*%
D25*
%TO.C,REF\u002A\u002A*%
X17000000Y-17000000D03*
%TD*%
D10*
%TO.C,REF\u002A\u002A*%
X105000000Y-50800000D03*
%TD*%
%TO.C,REF\u002A\u002A*%
X69600000Y-67000000D03*
%TD*%
D18*
%TO.C,C6*%
X104400000Y-59480000D03*
X104400000Y-58520000D03*
%TD*%
D10*
%TO.C,REF\u002A\u002A*%
X23200000Y-36000000D03*
%TD*%
D18*
%TO.C,C8*%
X62800000Y-29480000D03*
X62800000Y-28520000D03*
%TD*%
D11*
%TO.C,J3*%
X50000000Y-55200000D03*
D12*
X52540000Y-55200000D03*
X55080000Y-55200000D03*
X57620000Y-55200000D03*
%TD*%
D10*
%TO.C,REF\u002A\u002A*%
X17500000Y-23000000D03*
%TD*%
D24*
%TO.C,C13*%
X82850000Y-74600000D03*
X84750000Y-74600000D03*
%TD*%
D10*
%TO.C,REF\u002A\u002A*%
X89400000Y-53200000D03*
%TD*%
%TO.C,REF\u002A\u002A*%
X39600000Y-53200000D03*
%TD*%
D17*
%TO.C,H4*%
X66400000Y-77600000D03*
%TD*%
D18*
%TO.C,C1*%
X81000000Y-30480000D03*
X81000000Y-29520000D03*
%TD*%
D10*
%TO.C,REF\u002A\u002A*%
X89400000Y-50800000D03*
%TD*%
D16*
%TO.C,C10*%
X40280000Y-34200000D03*
X39320000Y-34200000D03*
%TD*%
D10*
%TO.C,REF\u002A\u002A*%
X54200000Y-53200000D03*
%TD*%
%TO.C,REF\u002A\u002A*%
X52200000Y-23200000D03*
%TD*%
%TO.C,REF\u002A\u002A*%
X89400000Y-80800000D03*
%TD*%
%TO.C,REF\u002A\u002A*%
X54200000Y-23200000D03*
%TD*%
D18*
%TO.C,C4*%
X86400000Y-30480000D03*
X86400000Y-29520000D03*
%TD*%
D16*
%TO.C,C10*%
X89080000Y-34200000D03*
X88120000Y-34200000D03*
%TD*%
D20*
%TO.C,L1*%
X60387500Y-59000000D03*
X58812500Y-59000000D03*
%TD*%
D10*
%TO.C,REF\u002A\u002A*%
X102000000Y-80800000D03*
%TD*%
%TO.C,REF\u002A\u002A*%
X105000000Y-80800000D03*
%TD*%
D16*
%TO.C,C9*%
X40080000Y-41800000D03*
X39120000Y-41800000D03*
%TD*%
D10*
%TO.C,REF\u002A\u002A*%
X118400000Y-67000000D03*
%TD*%
%TO.C,REF\u002A\u002A*%
X69600000Y-66000000D03*
%TD*%
D21*
%TO.C,U2*%
X42637500Y-62450000D03*
X42637500Y-62950000D03*
X42637500Y-63450000D03*
X42637500Y-63950000D03*
X42637500Y-64450000D03*
X42637500Y-64950000D03*
X42637500Y-65450000D03*
X42637500Y-65950000D03*
X42637500Y-66450000D03*
X42637500Y-66950000D03*
X42637500Y-67450000D03*
X42637500Y-67950000D03*
D22*
X44050000Y-69362500D03*
X44550000Y-69362500D03*
X45050000Y-69362500D03*
X45550000Y-69362500D03*
X46050000Y-69362500D03*
X46550000Y-69362500D03*
X47050000Y-69362500D03*
X47550000Y-69362500D03*
X48050000Y-69362500D03*
X48550000Y-69362500D03*
X49050000Y-69362500D03*
X49550000Y-69362500D03*
D21*
X50962500Y-67950000D03*
X50962500Y-67450000D03*
X50962500Y-66950000D03*
X50962500Y-66450000D03*
X50962500Y-65950000D03*
X50962500Y-65450000D03*
X50962500Y-64950000D03*
X50962500Y-64450000D03*
X50962500Y-63950000D03*
X50962500Y-63450000D03*
X50962500Y-62950000D03*
X50962500Y-62450000D03*
D22*
X49550000Y-61037500D03*
X49050000Y-61037500D03*
X48550000Y-61037500D03*
X48050000Y-61037500D03*
X47550000Y-61037500D03*
X47050000Y-61037500D03*
X46550000Y-61037500D03*
X46050000Y-61037500D03*
X45550000Y-61037500D03*
X45050000Y-61037500D03*
X44550000Y-61037500D03*
X44050000Y-61037500D03*
%TD*%
D10*
%TO.C,REF\u002A\u002A*%
X118400000Y-35000000D03*
%TD*%
%TO.C,REF\u002A\u002A*%
X36600000Y-53200000D03*
%TD*%
D19*
%TO.C,R1*%
X79890000Y-36800000D03*
X80910000Y-36800000D03*
%TD*%
D10*
%TO.C,REF\u002A\u002A*%
X16500000Y-23000000D03*
%TD*%
%TO.C,REF\u002A\u002A*%
X86400000Y-53200000D03*
%TD*%
%TO.C,REF\u002A\u002A*%
X54200000Y-50800000D03*
%TD*%
%TO.C,REF\u002A\u002A*%
X103000000Y-23200000D03*
%TD*%
%TO.C,REF\u002A\u002A*%
X53200000Y-80800000D03*
%TD*%
D26*
%TO.C,U1*%
X55250000Y-42900000D03*
D27*
X61550000Y-45200000D03*
D26*
X55250000Y-45200000D03*
X55250000Y-47500000D03*
%TD*%
D16*
%TO.C,C9*%
X88880000Y-41800000D03*
X87920000Y-41800000D03*
%TD*%
D10*
%TO.C,REF\u002A\u002A*%
X39600000Y-50800000D03*
%TD*%
D11*
%TO.C,J3*%
X98800000Y-25200000D03*
D12*
X101340000Y-25200000D03*
X103880000Y-25200000D03*
X106420000Y-25200000D03*
%TD*%
D25*
%TO.C,REF\u002A\u002A*%
X17000000Y-87000000D03*
%TD*%
D10*
%TO.C,REF\u002A\u002A*%
X101000000Y-53200000D03*
%TD*%
%TO.C,REF\u002A\u002A*%
X69600000Y-39000000D03*
%TD*%
D16*
%TO.C,C11*%
X40280000Y-65600000D03*
X39320000Y-65600000D03*
%TD*%
D10*
%TO.C,REF\u002A\u002A*%
X126100000Y-23000000D03*
%TD*%
%TO.C,REF\u002A\u002A*%
X86400000Y-23200000D03*
%TD*%
%TO.C,REF\u002A\u002A*%
X72000000Y-67000000D03*
%TD*%
%TO.C,REF\u002A\u002A*%
X88400000Y-53200000D03*
%TD*%
%TO.C,REF\u002A\u002A*%
X39600000Y-23200000D03*
%TD*%
%TO.C,REF\u002A\u002A*%
X122100000Y-23000000D03*
%TD*%
D11*
%TO.C,I2C1*%
X39600000Y-48800000D03*
D12*
X42140000Y-48800000D03*
X44680000Y-48800000D03*
X47220000Y-48800000D03*
%TD*%
D10*
%TO.C,REF\u002A\u002A*%
X72000000Y-65000000D03*
%TD*%
D25*
%TO.C,REF\u002A\u002A*%
X124600000Y-17000000D03*
%TD*%
D18*
%TO.C,C8*%
X111600000Y-59480000D03*
X111600000Y-58520000D03*
%TD*%
D19*
%TO.C,R4*%
X43490000Y-75200000D03*
X44510000Y-75200000D03*
%TD*%
D10*
%TO.C,REF\u002A\u002A*%
X69600000Y-68000000D03*
%TD*%
%TO.C,REF\u002A\u002A*%
X118400000Y-68000000D03*
%TD*%
%TO.C,REF\u002A\u002A*%
X118400000Y-37000000D03*
%TD*%
%TO.C,REF\u002A\u002A*%
X23200000Y-65000000D03*
%TD*%
D19*
%TO.C,R3*%
X40800000Y-75200000D03*
X41820000Y-75200000D03*
%TD*%
D23*
%TO.C,Y1*%
X84350000Y-64700000D03*
X84350000Y-66900000D03*
X86050000Y-66900000D03*
X86050000Y-64700000D03*
%TD*%
D10*
%TO.C,REF\u002A\u002A*%
X69600000Y-65000000D03*
%TD*%
%TO.C,REF\u002A\u002A*%
X118400000Y-66000000D03*
%TD*%
%TO.C,REF\u002A\u002A*%
X23200000Y-66000000D03*
%TD*%
D17*
%TO.C,H2*%
X115200000Y-56400000D03*
%TD*%
D11*
%TO.C,I2C1*%
X88400000Y-48800000D03*
D12*
X90940000Y-48800000D03*
X93480000Y-48800000D03*
X96020000Y-48800000D03*
%TD*%
D19*
%TO.C,R1*%
X79890000Y-66800000D03*
X80910000Y-66800000D03*
%TD*%
D18*
%TO.C,C8*%
X62800000Y-59480000D03*
X62800000Y-58520000D03*
%TD*%
D10*
%TO.C,REF\u002A\u002A*%
X19500000Y-81000000D03*
%TD*%
%TO.C,REF\u002A\u002A*%
X23200000Y-35000000D03*
%TD*%
D17*
%TO.C,H4*%
X115200000Y-47600000D03*
%TD*%
D10*
%TO.C,REF\u002A\u002A*%
X18500000Y-23000000D03*
%TD*%
%TO.C,REF\u002A\u002A*%
X36600000Y-80800000D03*
%TD*%
%TO.C,REF\u002A\u002A*%
X52200000Y-53200000D03*
%TD*%
D19*
%TO.C,R4*%
X92290000Y-45200000D03*
X93310000Y-45200000D03*
%TD*%
D10*
%TO.C,REF\u002A\u002A*%
X69600000Y-36000000D03*
%TD*%
%TO.C,REF\u002A\u002A*%
X125100000Y-23000000D03*
%TD*%
%TO.C,REF\u002A\u002A*%
X52200000Y-80800000D03*
%TD*%
D18*
%TO.C,C7*%
X57400000Y-59480000D03*
X57400000Y-58520000D03*
%TD*%
%TO.C,C1*%
X32200000Y-60480000D03*
X32200000Y-59520000D03*
%TD*%
D10*
%TO.C,REF\u002A\u002A*%
X23200000Y-37000000D03*
%TD*%
D11*
%TO.C,J3*%
X98800000Y-55200000D03*
D12*
X101340000Y-55200000D03*
X103880000Y-55200000D03*
X106420000Y-55200000D03*
%TD*%
D10*
%TO.C,REF\u002A\u002A*%
X23200000Y-68000000D03*
%TD*%
%TO.C,REF\u002A\u002A*%
X55200000Y-23200000D03*
%TD*%
%TO.C,REF\u002A\u002A*%
X101000000Y-50800000D03*
%TD*%
D18*
%TO.C,C5*%
X88200000Y-30480000D03*
X88200000Y-29520000D03*
%TD*%
D10*
%TO.C,REF\u002A\u002A*%
X101000000Y-23200000D03*
%TD*%
%TO.C,REF\u002A\u002A*%
X85400000Y-80800000D03*
%TD*%
D20*
%TO.C,L1*%
X109187500Y-29000000D03*
X107612500Y-29000000D03*
%TD*%
D10*
%TO.C,REF\u002A\u002A*%
X102000000Y-23200000D03*
%TD*%
%TO.C,REF\u002A\u002A*%
X104000000Y-80800000D03*
%TD*%
D18*
%TO.C,C3*%
X35800000Y-30480000D03*
X35800000Y-29520000D03*
%TD*%
D10*
%TO.C,REF\u002A\u002A*%
X18500000Y-81000000D03*
%TD*%
D16*
%TO.C,C11*%
X89080000Y-65600000D03*
X88120000Y-65600000D03*
%TD*%
D10*
%TO.C,REF\u002A\u002A*%
X40600000Y-23200000D03*
%TD*%
D17*
%TO.C,H3*%
X26800000Y-56600000D03*
%TD*%
D24*
%TO.C,C13*%
X34050000Y-74600000D03*
X35950000Y-74600000D03*
%TD*%
D18*
%TO.C,C7*%
X106200000Y-29480000D03*
X106200000Y-28520000D03*
%TD*%
D10*
%TO.C,REF\u002A\u002A*%
X118400000Y-65000000D03*
%TD*%
%TO.C,REF\u002A\u002A*%
X123100000Y-23000000D03*
%TD*%
%TO.C,REF\u002A\u002A*%
X37600000Y-50800000D03*
%TD*%
D20*
%TO.C,L1*%
X60387500Y-29000000D03*
X58812500Y-29000000D03*
%TD*%
D10*
%TO.C,REF\u002A\u002A*%
X125100000Y-81000000D03*
%TD*%
D18*
%TO.C,C6*%
X55600000Y-29480000D03*
X55600000Y-28520000D03*
%TD*%
D21*
%TO.C,U2*%
X91437500Y-32450000D03*
X91437500Y-32950000D03*
X91437500Y-33450000D03*
X91437500Y-33950000D03*
X91437500Y-34450000D03*
X91437500Y-34950000D03*
X91437500Y-35450000D03*
X91437500Y-35950000D03*
X91437500Y-36450000D03*
X91437500Y-36950000D03*
X91437500Y-37450000D03*
X91437500Y-37950000D03*
D22*
X92850000Y-39362500D03*
X93350000Y-39362500D03*
X93850000Y-39362500D03*
X94350000Y-39362500D03*
X94850000Y-39362500D03*
X95350000Y-39362500D03*
X95850000Y-39362500D03*
X96350000Y-39362500D03*
X96850000Y-39362500D03*
X97350000Y-39362500D03*
X97850000Y-39362500D03*
X98350000Y-39362500D03*
D21*
X99762500Y-37950000D03*
X99762500Y-37450000D03*
X99762500Y-36950000D03*
X99762500Y-36450000D03*
X99762500Y-35950000D03*
X99762500Y-35450000D03*
X99762500Y-34950000D03*
X99762500Y-34450000D03*
X99762500Y-33950000D03*
X99762500Y-33450000D03*
X99762500Y-32950000D03*
X99762500Y-32450000D03*
D22*
X98350000Y-31037500D03*
X97850000Y-31037500D03*
X97350000Y-31037500D03*
X96850000Y-31037500D03*
X96350000Y-31037500D03*
X95850000Y-31037500D03*
X95350000Y-31037500D03*
X94850000Y-31037500D03*
X94350000Y-31037500D03*
X93850000Y-31037500D03*
X93350000Y-31037500D03*
X92850000Y-31037500D03*
%TD*%
D11*
%TO.C,J3*%
X50000000Y-25200000D03*
D12*
X52540000Y-25200000D03*
X55080000Y-25200000D03*
X57620000Y-25200000D03*
%TD*%
D18*
%TO.C,C5*%
X39400000Y-30480000D03*
X39400000Y-29520000D03*
%TD*%
D28*
%TO.C,C14*%
X35750000Y-47800000D03*
X33850000Y-47800000D03*
%TD*%
D16*
%TO.C,C9*%
X40080000Y-71800000D03*
X39120000Y-71800000D03*
%TD*%
D10*
%TO.C,REF\u002A\u002A*%
X126100000Y-81000000D03*
%TD*%
%TO.C,REF\u002A\u002A*%
X104000000Y-23200000D03*
%TD*%
%TO.C,REF\u002A\u002A*%
X36600000Y-50800000D03*
%TD*%
D17*
%TO.C,H4*%
X66400000Y-47600000D03*
%TD*%
D29*
%TO.C,R2*%
X108800000Y-62890000D03*
X108800000Y-63910000D03*
%TD*%
D10*
%TO.C,REF\u002A\u002A*%
X17500000Y-81000000D03*
%TD*%
%TO.C,REF\u002A\u002A*%
X16500000Y-81000000D03*
%TD*%
%TO.C,REF\u002A\u002A*%
X72000000Y-38000000D03*
%TD*%
D11*
%TO.C,I2C1*%
X88400000Y-78800000D03*
D12*
X90940000Y-78800000D03*
X93480000Y-78800000D03*
X96020000Y-78800000D03*
%TD*%
D10*
%TO.C,REF\u002A\u002A*%
X38600000Y-80800000D03*
%TD*%
D24*
%TO.C,C13*%
X34050000Y-44600000D03*
X35950000Y-44600000D03*
%TD*%
D17*
%TO.C,H3*%
X26800000Y-26600000D03*
%TD*%
D26*
%TO.C,U1*%
X104050000Y-72900000D03*
X104050000Y-75200000D03*
D27*
X110350000Y-75200000D03*
D26*
X104050000Y-77500000D03*
%TD*%
D10*
%TO.C,REF\u002A\u002A*%
X55200000Y-80800000D03*
%TD*%
%TO.C,REF\u002A\u002A*%
X122100000Y-81000000D03*
%TD*%
%TO.C,REF\u002A\u002A*%
X85400000Y-50800000D03*
%TD*%
%TO.C,REF\u002A\u002A*%
X53200000Y-50800000D03*
%TD*%
D18*
%TO.C,C1*%
X32200000Y-30480000D03*
X32200000Y-29520000D03*
%TD*%
D11*
%TO.C,USART1*%
X83400000Y-25200000D03*
D12*
X85940000Y-25200000D03*
X88480000Y-25200000D03*
X91020000Y-25200000D03*
%TD*%
D10*
%TO.C,REF\u002A\u002A*%
X85400000Y-53200000D03*
%TD*%
%TO.C,REF\u002A\u002A*%
X72000000Y-37000000D03*
%TD*%
%TO.C,REF\u002A\u002A*%
X37600000Y-80800000D03*
%TD*%
%TO.C,REF\u002A\u002A*%
X118400000Y-39000000D03*
%TD*%
D17*
%TO.C,H1*%
X26800000Y-47600000D03*
%TD*%
D26*
%TO.C,U1*%
X104050000Y-42900000D03*
X104050000Y-45200000D03*
D27*
X110350000Y-45200000D03*
D26*
X104050000Y-47500000D03*
%TD*%
D10*
%TO.C,REF\u002A\u002A*%
X101000000Y-80800000D03*
%TD*%
%TO.C,REF\u002A\u002A*%
X103000000Y-50800000D03*
%TD*%
D26*
%TO.C,U1*%
X55250000Y-72900000D03*
X55250000Y-75200000D03*
D27*
X61550000Y-75200000D03*
D26*
X55250000Y-77500000D03*
%TD*%
D18*
%TO.C,C7*%
X57400000Y-29480000D03*
X57400000Y-28520000D03*
%TD*%
%TO.C,C3*%
X84600000Y-30480000D03*
X84600000Y-29520000D03*
%TD*%
D10*
%TO.C,REF\u002A\u002A*%
X38600000Y-23200000D03*
%TD*%
%TO.C,REF\u002A\u002A*%
X87400000Y-80800000D03*
%TD*%
D18*
%TO.C,C7*%
X106200000Y-59480000D03*
X106200000Y-58520000D03*
%TD*%
D10*
%TO.C,REF\u002A\u002A*%
X88400000Y-23200000D03*
%TD*%
D21*
%TO.C,U2*%
X42637500Y-32450000D03*
X42637500Y-32950000D03*
X42637500Y-33450000D03*
X42637500Y-33950000D03*
X42637500Y-34450000D03*
X42637500Y-34950000D03*
X42637500Y-35450000D03*
X42637500Y-35950000D03*
X42637500Y-36450000D03*
X42637500Y-36950000D03*
X42637500Y-37450000D03*
X42637500Y-37950000D03*
D22*
X44050000Y-39362500D03*
X44550000Y-39362500D03*
X45050000Y-39362500D03*
X45550000Y-39362500D03*
X46050000Y-39362500D03*
X46550000Y-39362500D03*
X47050000Y-39362500D03*
X47550000Y-39362500D03*
X48050000Y-39362500D03*
X48550000Y-39362500D03*
X49050000Y-39362500D03*
X49550000Y-39362500D03*
D21*
X50962500Y-37950000D03*
X50962500Y-37450000D03*
X50962500Y-36950000D03*
X50962500Y-36450000D03*
X50962500Y-35950000D03*
X50962500Y-35450000D03*
X50962500Y-34950000D03*
X50962500Y-34450000D03*
X50962500Y-33950000D03*
X50962500Y-33450000D03*
X50962500Y-32950000D03*
X50962500Y-32450000D03*
D22*
X49550000Y-31037500D03*
X49050000Y-31037500D03*
X48550000Y-31037500D03*
X48050000Y-31037500D03*
X47550000Y-31037500D03*
X47050000Y-31037500D03*
X46550000Y-31037500D03*
X46050000Y-31037500D03*
X45550000Y-31037500D03*
X45050000Y-31037500D03*
X44550000Y-31037500D03*
X44050000Y-31037500D03*
%TD*%
D10*
%TO.C,REF\u002A\u002A*%
X72000000Y-69000000D03*
%TD*%
%TO.C,REF\u002A\u002A*%
X53200000Y-23200000D03*
%TD*%
D29*
%TO.C,R2*%
X108800000Y-32890000D03*
X108800000Y-33910000D03*
%TD*%
D30*
%TO.C,J2*%
X113845000Y-63500000D03*
X113845000Y-68500000D03*
D31*
X112745000Y-67300000D03*
X112745000Y-66650000D03*
X112745000Y-66000000D03*
X112745000Y-65350000D03*
X112745000Y-64700000D03*
D32*
X116595000Y-69875000D03*
X116595000Y-62125000D03*
D33*
X112795000Y-69725000D03*
X112795000Y-62275000D03*
%TD*%
D30*
%TO.C,J2*%
X113845000Y-38500000D03*
X113845000Y-33500000D03*
D31*
X112745000Y-37300000D03*
X112745000Y-36650000D03*
X112745000Y-36000000D03*
X112745000Y-35350000D03*
X112745000Y-34700000D03*
D32*
X116595000Y-39875000D03*
D33*
X112795000Y-39725000D03*
D32*
X116595000Y-32125000D03*
D33*
X112795000Y-32275000D03*
%TD*%
D10*
%TO.C,REF\u002A\u002A*%
X40600000Y-50800000D03*
%TD*%
D16*
%TO.C,C10*%
X89080000Y-64200000D03*
X88120000Y-64200000D03*
%TD*%
D19*
%TO.C,R1*%
X31090000Y-36800000D03*
X32110000Y-36800000D03*
%TD*%
D10*
%TO.C,REF\u002A\u002A*%
X39600000Y-80800000D03*
%TD*%
D23*
%TO.C,Y1*%
X84350000Y-34700000D03*
X84350000Y-36900000D03*
X86050000Y-36900000D03*
X86050000Y-34700000D03*
%TD*%
D10*
%TO.C,REF\u002A\u002A*%
X123100000Y-81000000D03*
%TD*%
D18*
%TO.C,C5*%
X39400000Y-60480000D03*
X39400000Y-59520000D03*
%TD*%
D10*
%TO.C,REF\u002A\u002A*%
X23200000Y-38000000D03*
%TD*%
D14*
%TO.C,SW1*%
X27255000Y-61950000D03*
X27255000Y-69250000D03*
D13*
X26145000Y-67100000D03*
D14*
X25045000Y-69250000D03*
D13*
X26145000Y-64100000D03*
D14*
X25045000Y-61950000D03*
D15*
X27905000Y-63350000D03*
X27905000Y-66350000D03*
X27905000Y-67850000D03*
%TD*%
D10*
%TO.C,REF\u002A\u002A*%
X69600000Y-38000000D03*
%TD*%
D11*
%TO.C,I2C1*%
X39600000Y-78800000D03*
D12*
X42140000Y-78800000D03*
X44680000Y-78800000D03*
X47220000Y-78800000D03*
%TD*%
D10*
%TO.C,REF\u002A\u002A*%
X15500000Y-81000000D03*
%TD*%
D18*
%TO.C,C3*%
X35800000Y-60480000D03*
X35800000Y-59520000D03*
%TD*%
D28*
%TO.C,C14*%
X35750000Y-77800000D03*
X33850000Y-77800000D03*
%TD*%
%TO.C,C14*%
X84550000Y-77800000D03*
X82650000Y-77800000D03*
%TD*%
D18*
%TO.C,C2*%
X34000000Y-60480000D03*
X34000000Y-59520000D03*
%TD*%
D10*
%TO.C,REF\u002A\u002A*%
X105000000Y-23200000D03*
%TD*%
%TO.C,REF\u002A\u002A*%
X124100000Y-23000000D03*
%TD*%
%TO.C,REF\u002A\u002A*%
X69600000Y-37000000D03*
%TD*%
%TO.C,REF\u002A\u002A*%
X124100000Y-81000000D03*
%TD*%
%TO.C,REF\u002A\u002A*%
X69600000Y-35000000D03*
%TD*%
%TO.C,REF\u002A\u002A*%
X72000000Y-66000000D03*
%TD*%
D11*
%TO.C,USART1*%
X34600000Y-55200000D03*
D12*
X37140000Y-55200000D03*
X39680000Y-55200000D03*
X42220000Y-55200000D03*
%TD*%
D10*
%TO.C,REF\u002A\u002A*%
X118400000Y-36000000D03*
%TD*%
%TO.C,REF\u002A\u002A*%
X87400000Y-53200000D03*
%TD*%
%TO.C,REF\u002A\u002A*%
X23200000Y-39000000D03*
%TD*%
D11*
%TO.C,USART1*%
X34600000Y-25200000D03*
D12*
X37140000Y-25200000D03*
X39680000Y-25200000D03*
X42220000Y-25200000D03*
%TD*%
D10*
%TO.C,REF\u002A\u002A*%
X40600000Y-53200000D03*
%TD*%
D30*
%TO.C,J2*%
X65045000Y-38500000D03*
X65045000Y-33500000D03*
D31*
X63945000Y-37300000D03*
X63945000Y-36650000D03*
X63945000Y-36000000D03*
X63945000Y-35350000D03*
X63945000Y-34700000D03*
D32*
X67795000Y-32125000D03*
D33*
X63995000Y-39725000D03*
D32*
X67795000Y-39875000D03*
D33*
X63995000Y-32275000D03*
%TD*%
D16*
%TO.C,C9*%
X88880000Y-71800000D03*
X87920000Y-71800000D03*
%TD*%
D29*
%TO.C,R2*%
X60000000Y-32890000D03*
X60000000Y-33910000D03*
%TD*%
D10*
%TO.C,REF\u002A\u002A*%
X85400000Y-23200000D03*
%TD*%
D17*
%TO.C,H3*%
X75600000Y-56600000D03*
%TD*%
D18*
%TO.C,C4*%
X86400000Y-60480000D03*
X86400000Y-59520000D03*
%TD*%
D17*
%TO.C,H2*%
X66400000Y-56400000D03*
%TD*%
D10*
%TO.C,REF\u002A\u002A*%
X103000000Y-80800000D03*
%TD*%
%TO.C,REF\u002A\u002A*%
X54200000Y-80800000D03*
%TD*%
%TO.C,REF\u002A\u002A*%
X40600000Y-80800000D03*
%TD*%
%TO.C,REF\u002A\u002A*%
X105000000Y-53200000D03*
%TD*%
D16*
%TO.C,C11*%
X89080000Y-35600000D03*
X88120000Y-35600000D03*
%TD*%
D10*
%TO.C,REF\u002A\u002A*%
X88400000Y-50800000D03*
%TD*%
%TO.C,REF\u002A\u002A*%
X118400000Y-69000000D03*
%TD*%
D17*
%TO.C,H1*%
X75600000Y-77600000D03*
%TD*%
D13*
%TO.C,SW1*%
X74945000Y-64100000D03*
D14*
X73845000Y-61950000D03*
D13*
X74945000Y-67100000D03*
D14*
X76055000Y-69250000D03*
X73845000Y-69250000D03*
X76055000Y-61950000D03*
D15*
X76705000Y-63350000D03*
X76705000Y-66350000D03*
X76705000Y-67850000D03*
%TD*%
D28*
%TO.C,C14*%
X84550000Y-47800000D03*
X82650000Y-47800000D03*
%TD*%
D18*
%TO.C,C5*%
X88200000Y-60480000D03*
X88200000Y-59520000D03*
%TD*%
D30*
%TO.C,J2*%
X65045000Y-68500000D03*
X65045000Y-63500000D03*
D31*
X63945000Y-67300000D03*
X63945000Y-66650000D03*
X63945000Y-66000000D03*
X63945000Y-65350000D03*
X63945000Y-64700000D03*
D33*
X63995000Y-69725000D03*
D32*
X67795000Y-62125000D03*
X67795000Y-69875000D03*
D33*
X63995000Y-62275000D03*
%TD*%
D18*
%TO.C,C2*%
X34000000Y-30480000D03*
X34000000Y-29520000D03*
%TD*%
D10*
%TO.C,REF\u002A\u002A*%
X53200000Y-53200000D03*
%TD*%
%TO.C,REF\u002A\u002A*%
X72000000Y-36000000D03*
%TD*%
%TO.C,REF\u002A\u002A*%
X72000000Y-68000000D03*
%TD*%
%TO.C,REF\u002A\u002A*%
X89400000Y-23200000D03*
%TD*%
D29*
%TO.C,R2*%
X60000000Y-62890000D03*
X60000000Y-63910000D03*
%TD*%
D19*
%TO.C,R3*%
X89600000Y-45200000D03*
X90620000Y-45200000D03*
%TD*%
D23*
%TO.C,Y1*%
X35550000Y-34700000D03*
X35550000Y-36900000D03*
X37250000Y-36900000D03*
X37250000Y-34700000D03*
%TD*%
D18*
%TO.C,C1*%
X81000000Y-60480000D03*
X81000000Y-59520000D03*
%TD*%
D10*
%TO.C,REF\u002A\u002A*%
X52200000Y-50800000D03*
%TD*%
%TO.C,REF\u002A\u002A*%
X69600000Y-69000000D03*
%TD*%
D19*
%TO.C,R4*%
X43490000Y-45200000D03*
X44510000Y-45200000D03*
%TD*%
D10*
%TO.C,REF\u002A\u002A*%
X103000000Y-53200000D03*
%TD*%
%TO.C,REF\u002A\u002A*%
X87400000Y-23200000D03*
%TD*%
D19*
%TO.C,R3*%
X40800000Y-45200000D03*
X41820000Y-45200000D03*
%TD*%
D10*
%TO.C,REF\u002A\u002A*%
X23200000Y-69000000D03*
%TD*%
%TO.C,REF\u002A\u002A*%
X36600000Y-23200000D03*
%TD*%
%TO.C,REF\u002A\u002A*%
X55200000Y-50800000D03*
%TD*%
%TO.C,REF\u002A\u002A*%
X102000000Y-53200000D03*
%TD*%
M02*
