M48
; DRILL file {KiCad (6.0.7)} date Fri Nov 18 16:04:50 2022
; FORMAT={-:-/ absolute / inch / decimal}
; #@! TF.CreationDate,2022-11-18T16:04:50+07:00
; #@! TF.GenerationSoftware,Kicad,Pcbnew,(6.0.7)
; #@! TF.FileFunction,NonPlated,1,2,NPTH
FMAT,2
INCH
; #@! TA.AperFunction,NonPlated,NPTH,ComponentDrill
T1C0.0197
; #@! TA.AperFunction,NonPlated,NPTH,ComponentDrill
T2C0.0315
; #@! TA.AperFunction,NonPlated,NPTH,ComponentDrill
T3C0.0354
; #@! TA.AperFunction,NonPlated,NPTH,ComponentDrill
T4C0.0866
%
G90
G05
T1
X0.6102Y-0.9055
X0.6102Y-3.189
X0.6496Y-0.9055
X0.6496Y-3.189
X0.689Y-0.9055
X0.689Y-3.189
X0.7283Y-0.9055
X0.7283Y-3.189
X0.7677Y-0.9055
X0.7677Y-3.189
X0.9134Y-1.378
X0.9134Y-1.4173
X0.9134Y-1.4567
X0.9134Y-1.4961
X0.9134Y-1.5354
X0.9134Y-2.5591
X0.9134Y-2.5984
X0.9134Y-2.6378
X0.9134Y-2.6772
X0.9134Y-2.7165
X1.4409Y-0.9134
X1.4409Y-2.0
X1.4409Y-2.0945
X1.4409Y-3.1811
X1.4803Y-0.9134
X1.4803Y-2.0
X1.4803Y-2.0945
X1.4803Y-3.1811
X1.5197Y-0.9134
X1.5197Y-2.0
X1.5197Y-2.0945
X1.5197Y-3.1811
X1.5591Y-0.9134
X1.5591Y-2.0
X1.5591Y-2.0945
X1.5591Y-3.1811
X1.5984Y-0.9134
X1.5984Y-2.0
X1.5984Y-2.0945
X1.5984Y-3.1811
X2.0551Y-0.9134
X2.0551Y-2.0
X2.0551Y-2.0945
X2.0551Y-3.1811
X2.0945Y-0.9134
X2.0945Y-2.0
X2.0945Y-2.0945
X2.0945Y-3.1811
X2.1339Y-0.9134
X2.1339Y-2.0
X2.1339Y-2.0945
X2.1339Y-3.1811
X2.1732Y-0.9134
X2.1732Y-2.0
X2.1732Y-2.0945
X2.1732Y-3.1811
X2.2126Y-0.9134
X2.2126Y-2.0
X2.2126Y-2.0945
X2.2126Y-3.1811
X2.7402Y-1.378
X2.7402Y-1.4173
X2.7402Y-1.4567
X2.7402Y-1.4961
X2.7402Y-1.5354
X2.7402Y-2.5591
X2.7402Y-2.5984
X2.7402Y-2.6378
X2.7402Y-2.6772
X2.7402Y-2.7165
X2.8346Y-1.378
X2.8346Y-1.4173
X2.8346Y-1.4567
X2.8346Y-1.4961
X2.8346Y-1.5354
X2.8346Y-2.5591
X2.8346Y-2.5984
X2.8346Y-2.6378
X2.8346Y-2.6772
X2.8346Y-2.7165
X3.3622Y-0.9134
X3.3622Y-2.0
X3.3622Y-2.0945
X3.3622Y-3.1811
X3.4016Y-0.9134
X3.4016Y-2.0
X3.4016Y-2.0945
X3.4016Y-3.1811
X3.4409Y-0.9134
X3.4409Y-2.0
X3.4409Y-2.0945
X3.4409Y-3.1811
X3.4803Y-0.9134
X3.4803Y-2.0
X3.4803Y-2.0945
X3.4803Y-3.1811
X3.5197Y-0.9134
X3.5197Y-2.0
X3.5197Y-2.0945
X3.5197Y-3.1811
X3.9764Y-0.9134
X3.9764Y-2.0
X3.9764Y-2.0945
X3.9764Y-3.1811
X4.0157Y-0.9134
X4.0157Y-2.0
X4.0157Y-2.0945
X4.0157Y-3.1811
X4.0551Y-0.9134
X4.0551Y-2.0
X4.0551Y-2.0945
X4.0551Y-3.1811
X4.0945Y-0.9134
X4.0945Y-2.0
X4.0945Y-2.0945
X4.0945Y-3.1811
X4.1339Y-0.9134
X4.1339Y-2.0
X4.1339Y-2.0945
X4.1339Y-3.1811
X4.6614Y-1.378
X4.6614Y-1.4173
X4.6614Y-1.4567
X4.6614Y-1.4961
X4.6614Y-1.5354
X4.6614Y-2.5591
X4.6614Y-2.5984
X4.6614Y-2.6378
X4.6614Y-2.6772
X4.6614Y-2.7165
X4.8071Y-0.9055
X4.8071Y-3.189
X4.8465Y-0.9055
X4.8465Y-3.189
X4.8858Y-0.9055
X4.8858Y-3.189
X4.9252Y-0.9055
X4.9252Y-3.189
X4.9646Y-0.9055
X4.9646Y-3.189
T2
X2.5608Y-1.3189
X2.5608Y-1.5157
X2.5608Y-2.5
X2.5608Y-2.6969
X4.4821Y-1.3189
X4.4821Y-1.5157
X4.4821Y-2.5
X4.4821Y-2.6969
T3
X1.0293Y-1.3425
X1.0293Y-1.4606
X1.0293Y-2.5236
X1.0293Y-2.6417
X2.9506Y-1.3425
X2.9506Y-1.4606
X2.9506Y-2.5236
X2.9506Y-2.6417
T4
X1.0551Y-1.0472
X1.0551Y-1.874
X1.0551Y-2.2283
X1.0551Y-3.0551
X2.6142Y-1.0394
X2.6142Y-1.874
X2.6142Y-2.2205
X2.6142Y-3.0551
X2.9764Y-1.0472
X2.9764Y-1.874
X2.9764Y-2.2283
X2.9764Y-3.0551
X4.5354Y-1.0394
X4.5354Y-1.874
X4.5354Y-2.2205
X4.5354Y-3.0551
T0
M30
