%TF.GenerationSoftware,KiCad,Pcbnew,(6.0.7)*%
%TF.CreationDate,2022-11-18T17:10:51+07:00*%
%TF.ProjectId,test,74657374-2e6b-4696-9361-645f70636258,rev?*%
%TF.SameCoordinates,Original*%
%TF.FileFunction,Soldermask,Bot*%
%TF.FilePolarity,Negative*%
%FSLAX46Y46*%
G04 Gerber Fmt 4.6, Leading zero omitted, Abs format (unit mm)*
G04 Created by KiCad (PCBNEW (6.0.7)) date 2022-11-18 17:10:51*
%MOMM*%
%LPD*%
G01*
G04 APERTURE LIST*
%ADD10C,1.000000*%
%ADD11R,1.700000X1.700000*%
%ADD12O,1.700000X1.700000*%
%ADD13C,2.200000*%
%ADD14C,0.500000*%
%ADD15C,0.900000*%
%ADD16O,0.800000X0.800000*%
%ADD17O,2.000000X1.450000*%
%ADD18O,1.800000X1.150000*%
%ADD19C,2.000000*%
G04 APERTURE END LIST*
D10*
%TO.C,REF\u002A\u002A*%
X17000000Y-87000000D03*
%TD*%
%TO.C,REF\u002A\u002A*%
X124600000Y-17000000D03*
%TD*%
%TO.C,REF\u002A\u002A*%
X17000000Y-17000000D03*
%TD*%
D11*
%TO.C,I2C1*%
X39600000Y-78800000D03*
D12*
X42140000Y-78800000D03*
X44680000Y-78800000D03*
X47220000Y-78800000D03*
%TD*%
D13*
%TO.C,H1*%
X26800000Y-77600000D03*
%TD*%
D14*
%TO.C,REF\u002A\u002A*%
X118400000Y-67000000D03*
%TD*%
D15*
%TO.C,SW1*%
X26145000Y-67100000D03*
X26145000Y-64100000D03*
%TD*%
D14*
%TO.C,REF\u002A\u002A*%
X72000000Y-68000000D03*
%TD*%
%TO.C,REF\u002A\u002A*%
X19500000Y-81000000D03*
%TD*%
%TO.C,REF\u002A\u002A*%
X69600000Y-69000000D03*
%TD*%
D13*
%TO.C,H3*%
X75600000Y-56600000D03*
%TD*%
%TO.C,H3*%
X26800000Y-56600000D03*
%TD*%
D14*
%TO.C,REF\u002A\u002A*%
X48400000Y-80800000D03*
%TD*%
%TO.C,REF\u002A\u002A*%
X72000000Y-36000000D03*
%TD*%
%TO.C,REF\u002A\u002A*%
X118400000Y-68000000D03*
%TD*%
D13*
%TO.C,H2*%
X115200000Y-26400000D03*
%TD*%
D14*
%TO.C,REF\u002A\u002A*%
X18500000Y-81000000D03*
%TD*%
D13*
%TO.C,H2*%
X115200000Y-56400000D03*
%TD*%
D14*
%TO.C,REF\u002A\u002A*%
X69600000Y-35000000D03*
%TD*%
%TO.C,REF\u002A\u002A*%
X94200000Y-53200000D03*
%TD*%
%TO.C,REF\u002A\u002A*%
X96200000Y-80800000D03*
%TD*%
D11*
%TO.C,USART1*%
X83400000Y-25200000D03*
D12*
X85940000Y-25200000D03*
X88480000Y-25200000D03*
X91020000Y-25200000D03*
%TD*%
D14*
%TO.C,REF\u002A\u002A*%
X16500000Y-81000000D03*
%TD*%
%TO.C,REF\u002A\u002A*%
X23200000Y-35000000D03*
%TD*%
%TO.C,REF\u002A\u002A*%
X123100000Y-23000000D03*
%TD*%
%TO.C,REF\u002A\u002A*%
X97200000Y-23200000D03*
%TD*%
%TO.C,REF\u002A\u002A*%
X45400000Y-23200000D03*
%TD*%
%TO.C,REF\u002A\u002A*%
X94200000Y-23200000D03*
%TD*%
%TO.C,REF\u002A\u002A*%
X124100000Y-23000000D03*
%TD*%
D13*
%TO.C,H3*%
X26800000Y-26600000D03*
%TD*%
D14*
%TO.C,REF\u002A\u002A*%
X118400000Y-37000000D03*
%TD*%
%TO.C,REF\u002A\u002A*%
X95200000Y-80800000D03*
%TD*%
%TO.C,REF\u002A\u002A*%
X118400000Y-66000000D03*
%TD*%
%TO.C,REF\u002A\u002A*%
X48400000Y-50800000D03*
%TD*%
%TO.C,REF\u002A\u002A*%
X125100000Y-23000000D03*
%TD*%
%TO.C,REF\u002A\u002A*%
X46400000Y-23200000D03*
%TD*%
%TO.C,REF\u002A\u002A*%
X118400000Y-35000000D03*
%TD*%
%TO.C,REF\u002A\u002A*%
X118400000Y-69000000D03*
%TD*%
%TO.C,REF\u002A\u002A*%
X96200000Y-23200000D03*
%TD*%
D13*
%TO.C,H4*%
X66400000Y-77600000D03*
%TD*%
D14*
%TO.C,REF\u002A\u002A*%
X48400000Y-23200000D03*
%TD*%
%TO.C,REF\u002A\u002A*%
X46400000Y-80800000D03*
%TD*%
%TO.C,REF\u002A\u002A*%
X69600000Y-37000000D03*
%TD*%
%TO.C,REF\u002A\u002A*%
X97200000Y-53200000D03*
%TD*%
D13*
%TO.C,H1*%
X75600000Y-77600000D03*
%TD*%
D14*
%TO.C,REF\u002A\u002A*%
X69600000Y-68000000D03*
%TD*%
%TO.C,REF\u002A\u002A*%
X23200000Y-39000000D03*
%TD*%
%TO.C,REF\u002A\u002A*%
X118400000Y-39000000D03*
%TD*%
%TO.C,REF\u002A\u002A*%
X23200000Y-69000000D03*
%TD*%
D13*
%TO.C,H1*%
X26800000Y-47600000D03*
%TD*%
D14*
%TO.C,REF\u002A\u002A*%
X23200000Y-36000000D03*
%TD*%
%TO.C,REF\u002A\u002A*%
X72000000Y-39000000D03*
%TD*%
%TO.C,REF\u002A\u002A*%
X93200000Y-80800000D03*
%TD*%
%TO.C,REF\u002A\u002A*%
X96200000Y-50800000D03*
%TD*%
D16*
%TO.C,J2*%
X65045000Y-68500000D03*
X65045000Y-63500000D03*
D17*
X63995000Y-69725000D03*
D18*
X67795000Y-69875000D03*
X67795000Y-62125000D03*
D17*
X63995000Y-62275000D03*
%TD*%
D14*
%TO.C,REF\u002A\u002A*%
X15500000Y-23000000D03*
%TD*%
%TO.C,REF\u002A\u002A*%
X95200000Y-53200000D03*
%TD*%
%TO.C,REF\u002A\u002A*%
X122100000Y-23000000D03*
%TD*%
%TO.C,REF\u002A\u002A*%
X46400000Y-53200000D03*
%TD*%
%TO.C,REF\u002A\u002A*%
X16500000Y-23000000D03*
%TD*%
%TO.C,REF\u002A\u002A*%
X23200000Y-38000000D03*
%TD*%
%TO.C,REF\u002A\u002A*%
X122100000Y-81000000D03*
%TD*%
D11*
%TO.C,I2C1*%
X88400000Y-48800000D03*
D12*
X90940000Y-48800000D03*
X93480000Y-48800000D03*
X96020000Y-48800000D03*
%TD*%
D14*
%TO.C,REF\u002A\u002A*%
X15500000Y-81000000D03*
%TD*%
%TO.C,REF\u002A\u002A*%
X23200000Y-67000000D03*
%TD*%
%TO.C,REF\u002A\u002A*%
X17500000Y-81000000D03*
%TD*%
%TO.C,REF\u002A\u002A*%
X97200000Y-50800000D03*
%TD*%
%TO.C,REF\u002A\u002A*%
X48400000Y-53200000D03*
%TD*%
D11*
%TO.C,J3*%
X50000000Y-25200000D03*
D12*
X52540000Y-25200000D03*
X55080000Y-25200000D03*
X57620000Y-25200000D03*
%TD*%
D14*
%TO.C,REF\u002A\u002A*%
X69600000Y-65000000D03*
%TD*%
D19*
%TO.C,REF\u002A\u002A*%
X124600000Y-87000000D03*
%TD*%
D14*
%TO.C,REF\u002A\u002A*%
X69600000Y-39000000D03*
%TD*%
%TO.C,REF\u002A\u002A*%
X45400000Y-53200000D03*
%TD*%
%TO.C,REF\u002A\u002A*%
X72000000Y-67000000D03*
%TD*%
%TO.C,REF\u002A\u002A*%
X45400000Y-80800000D03*
%TD*%
D11*
%TO.C,USART1*%
X83400000Y-55200000D03*
D12*
X85940000Y-55200000D03*
X88480000Y-55200000D03*
X91020000Y-55200000D03*
%TD*%
D13*
%TO.C,H1*%
X75600000Y-47600000D03*
%TD*%
D11*
%TO.C,J3*%
X98800000Y-55200000D03*
D12*
X101340000Y-55200000D03*
X103880000Y-55200000D03*
X106420000Y-55200000D03*
%TD*%
D14*
%TO.C,REF\u002A\u002A*%
X72000000Y-66000000D03*
%TD*%
D13*
%TO.C,H2*%
X66400000Y-56400000D03*
%TD*%
D19*
%TO.C,REF\u002A\u002A*%
X124600000Y-17000000D03*
%TD*%
D14*
%TO.C,REF\u002A\u002A*%
X94200000Y-80800000D03*
%TD*%
%TO.C,REF\u002A\u002A*%
X72000000Y-35000000D03*
%TD*%
%TO.C,REF\u002A\u002A*%
X23200000Y-68000000D03*
%TD*%
D13*
%TO.C,H4*%
X115200000Y-77600000D03*
%TD*%
D11*
%TO.C,USART1*%
X34600000Y-25200000D03*
D12*
X37140000Y-25200000D03*
X39680000Y-25200000D03*
X42220000Y-25200000D03*
%TD*%
D14*
%TO.C,REF\u002A\u002A*%
X47400000Y-23200000D03*
%TD*%
%TO.C,REF\u002A\u002A*%
X93200000Y-53200000D03*
%TD*%
%TO.C,REF\u002A\u002A*%
X69600000Y-67000000D03*
%TD*%
%TO.C,REF\u002A\u002A*%
X95200000Y-50800000D03*
%TD*%
D13*
%TO.C,H4*%
X115200000Y-47600000D03*
%TD*%
D14*
%TO.C,REF\u002A\u002A*%
X72000000Y-65000000D03*
%TD*%
D11*
%TO.C,I2C1*%
X88400000Y-78800000D03*
D12*
X90940000Y-78800000D03*
X93480000Y-78800000D03*
X96020000Y-78800000D03*
%TD*%
D14*
%TO.C,REF\u002A\u002A*%
X97200000Y-80800000D03*
%TD*%
%TO.C,REF\u002A\u002A*%
X118400000Y-65000000D03*
%TD*%
%TO.C,REF\u002A\u002A*%
X69600000Y-38000000D03*
%TD*%
%TO.C,REF\u002A\u002A*%
X126100000Y-81000000D03*
%TD*%
%TO.C,REF\u002A\u002A*%
X96200000Y-53200000D03*
%TD*%
%TO.C,REF\u002A\u002A*%
X93200000Y-50800000D03*
%TD*%
D19*
%TO.C,REF\u002A\u002A*%
X17000000Y-17000000D03*
%TD*%
D15*
%TO.C,SW1*%
X26145000Y-37100000D03*
X26145000Y-34100000D03*
%TD*%
D13*
%TO.C,H4*%
X66400000Y-47600000D03*
%TD*%
D14*
%TO.C,REF\u002A\u002A*%
X23200000Y-66000000D03*
%TD*%
%TO.C,REF\u002A\u002A*%
X124100000Y-81000000D03*
%TD*%
D13*
%TO.C,H3*%
X75600000Y-26600000D03*
%TD*%
D14*
%TO.C,REF\u002A\u002A*%
X47400000Y-50800000D03*
%TD*%
D11*
%TO.C,I2C1*%
X39600000Y-48800000D03*
D12*
X42140000Y-48800000D03*
X44680000Y-48800000D03*
X47220000Y-48800000D03*
%TD*%
D14*
%TO.C,REF\u002A\u002A*%
X72000000Y-38000000D03*
%TD*%
%TO.C,REF\u002A\u002A*%
X23200000Y-37000000D03*
%TD*%
D13*
%TO.C,H2*%
X66400000Y-26400000D03*
%TD*%
D11*
%TO.C,USART1*%
X34600000Y-55200000D03*
D12*
X37140000Y-55200000D03*
X39680000Y-55200000D03*
X42220000Y-55200000D03*
%TD*%
D14*
%TO.C,REF\u002A\u002A*%
X69600000Y-36000000D03*
%TD*%
%TO.C,REF\u002A\u002A*%
X123100000Y-81000000D03*
%TD*%
%TO.C,REF\u002A\u002A*%
X44400000Y-53200000D03*
%TD*%
%TO.C,REF\u002A\u002A*%
X69600000Y-66000000D03*
%TD*%
%TO.C,REF\u002A\u002A*%
X44400000Y-80800000D03*
%TD*%
%TO.C,REF\u002A\u002A*%
X118400000Y-38000000D03*
%TD*%
%TO.C,REF\u002A\u002A*%
X126100000Y-23000000D03*
%TD*%
%TO.C,REF\u002A\u002A*%
X46400000Y-50800000D03*
%TD*%
%TO.C,REF\u002A\u002A*%
X47400000Y-80800000D03*
%TD*%
%TO.C,REF\u002A\u002A*%
X72000000Y-37000000D03*
%TD*%
%TO.C,REF\u002A\u002A*%
X93200000Y-23200000D03*
%TD*%
D15*
%TO.C,SW1*%
X74945000Y-34100000D03*
X74945000Y-37100000D03*
%TD*%
D14*
%TO.C,REF\u002A\u002A*%
X94200000Y-50800000D03*
%TD*%
D19*
%TO.C,REF\u002A\u002A*%
X17000000Y-87000000D03*
%TD*%
D14*
%TO.C,REF\u002A\u002A*%
X118400000Y-36000000D03*
%TD*%
D11*
%TO.C,J3*%
X50000000Y-55200000D03*
D12*
X52540000Y-55200000D03*
X55080000Y-55200000D03*
X57620000Y-55200000D03*
%TD*%
D14*
%TO.C,REF\u002A\u002A*%
X19500000Y-23000000D03*
%TD*%
D16*
%TO.C,J2*%
X113845000Y-63500000D03*
X113845000Y-68500000D03*
D18*
X116595000Y-62125000D03*
D17*
X112795000Y-69725000D03*
D18*
X116595000Y-69875000D03*
D17*
X112795000Y-62275000D03*
%TD*%
D14*
%TO.C,REF\u002A\u002A*%
X18500000Y-23000000D03*
%TD*%
D16*
%TO.C,J2*%
X113845000Y-38500000D03*
X113845000Y-33500000D03*
D18*
X116595000Y-32125000D03*
D17*
X112795000Y-39725000D03*
D18*
X116595000Y-39875000D03*
D17*
X112795000Y-32275000D03*
%TD*%
D14*
%TO.C,REF\u002A\u002A*%
X47400000Y-53200000D03*
%TD*%
%TO.C,REF\u002A\u002A*%
X44400000Y-23200000D03*
%TD*%
%TO.C,REF\u002A\u002A*%
X17500000Y-23000000D03*
%TD*%
%TO.C,REF\u002A\u002A*%
X45400000Y-50800000D03*
%TD*%
%TO.C,REF\u002A\u002A*%
X72000000Y-69000000D03*
%TD*%
%TO.C,REF\u002A\u002A*%
X44400000Y-50800000D03*
%TD*%
D11*
%TO.C,J3*%
X98800000Y-25200000D03*
D12*
X101340000Y-25200000D03*
X103880000Y-25200000D03*
X106420000Y-25200000D03*
%TD*%
D15*
%TO.C,SW1*%
X74945000Y-64100000D03*
X74945000Y-67100000D03*
%TD*%
D14*
%TO.C,REF\u002A\u002A*%
X23200000Y-65000000D03*
%TD*%
%TO.C,REF\u002A\u002A*%
X125100000Y-81000000D03*
%TD*%
%TO.C,REF\u002A\u002A*%
X95200000Y-23200000D03*
%TD*%
D16*
%TO.C,J2*%
X65045000Y-33500000D03*
X65045000Y-38500000D03*
D18*
X67795000Y-32125000D03*
D17*
X63995000Y-32275000D03*
D18*
X67795000Y-39875000D03*
D17*
X63995000Y-39725000D03*
%TD*%
M02*
